  0
SECTION
  2
HEADER
  9
$ACADVER
  1
AC1009
  9
$EXTMIN
 10
0.0
 20
0.0
 30
0.0
  9
$EXTMAX
 10
1000.0
 20
1000.0
 30
0.0
  9
$FILLMODE
 70
 0
  9
$SPLFRAME
 70
 1
  0
ENDSEC
  0
SECTION
  2
TABLES
  0
TABLE
  2
LAYER
 70
1
  0
LAYER
  2
0
 70
     0
 62
     7
  6
CONTINUOUS
  0
ENDTAB
  0
ENDSEC
  0
SECTION
  2
ENTITIES
  0
LINE
  8
0
 62
     0
 10
186.071
 20
197.593
 30
0.0
 11
186.305
 21
197.584
 31
0.0
  0
LINE
  8
0
 62
     0
 10
186.305
 20
197.584
 30
0.0
 11
186.539
 21
197.557
 31
0.0
  0
LINE
  8
0
 62
     0
 10
186.539
 20
197.557
 30
0.0
 11
186.771
 21
197.511
 31
0.0
  0
LINE
  8
0
 62
     0
 10
186.771
 20
197.511
 30
0.0
 11
186.998
 21
197.447
 31
0.0
  0
LINE
  8
0
 62
     0
 10
186.998
 20
197.447
 30
0.0
 11
187.219
 21
197.365
 31
0.0
  0
LINE
  8
0
 62
     0
 10
187.219
 20
197.365
 30
0.0
 11
187.431
 21
197.268
 31
0.0
  0
LINE
  8
0
 62
     0
 10
187.431
 20
197.268
 30
0.0
 11
187.638
 21
197.151
 31
0.0
  0
LINE
  8
0
 62
     0
 10
187.638
 20
197.151
 30
0.0
 11
187.833
 21
197.021
 31
0.0
  0
LINE
  8
0
 62
     0
 10
187.833
 20
197.021
 30
0.0
 11
188.018
 21
196.875
 31
0.0
  0
LINE
  8
0
 62
     0
 10
188.018
 20
196.875
 30
0.0
 11
188.192
 21
196.715
 31
0.0
  0
LINE
  8
0
 62
     0
 10
188.192
 20
196.715
 30
0.0
 11
188.352
 21
196.543
 31
0.0
  0
LINE
  8
0
 62
     0
 10
188.352
 20
196.543
 30
0.0
 11
188.498
 21
196.357
 31
0.0
  0
LINE
  8
0
 62
     0
 10
188.498
 20
196.357
 30
0.0
 11
188.627
 21
196.161
 31
0.0
  0
LINE
  8
0
 62
     0
 10
188.627
 20
196.161
 30
0.0
 11
188.744
 21
195.956
 31
0.0
  0
LINE
  8
0
 62
     0
 10
188.744
 20
195.956
 30
0.0
 11
188.842
 21
195.742
 31
0.0
  0
LINE
  8
0
 62
     0
 10
188.842
 20
195.742
 30
0.0
 11
188.923
 21
195.521
 31
0.0
  0
LINE
  8
0
 62
     0
 10
188.923
 20
195.521
 30
0.0
 11
188.988
 21
195.294
 31
0.0
  0
LINE
  8
0
 62
     0
 10
188.988
 20
195.294
 30
0.0
 11
189.034
 21
195.063
 31
0.0
  0
LINE
  8
0
 62
     0
 10
189.034
 20
195.063
 30
0.0
 11
189.061
 21
194.829
 31
0.0
  0
LINE
  8
0
 62
     0
 10
189.061
 20
194.829
 30
0.0
 11
189.071
 21
194.593
 31
0.0
  0
LINE
  8
0
 62
     0
 10
189.071
 20
194.593
 30
0.0
 11
189.071
 21
3.08267
 31
0.0
  0
LINE
  8
0
 62
     0
 10
189.071
 20
3.08267
 30
0.0
 11
189.061
 21
2.84703
 31
0.0
  0
LINE
  8
0
 62
     0
 10
189.061
 20
2.84703
 30
0.0
 11
189.034
 21
2.61276
 31
0.0
  0
LINE
  8
0
 62
     0
 10
189.034
 20
2.61276
 30
0.0
 11
188.988
 21
2.38263
 31
0.0
  0
LINE
  8
0
 62
     0
 10
188.988
 20
2.38263
 30
0.0
 11
188.923
 21
2.15663
 31
0.0
  0
LINE
  8
0
 62
     0
 10
188.923
 20
2.15663
 30
0.0
 11
188.842
 21
1.93477
 31
0.0
  0
LINE
  8
0
 62
     0
 10
188.842
 20
1.93477
 30
0.0
 11
188.744
 21
1.72117
 31
0.0
  0
LINE
  8
0
 62
     0
 10
188.744
 20
1.72117
 30
0.0
 11
188.627
 21
1.51446
 31
0.0
  0
LINE
  8
0
 62
     0
 10
188.627
 20
1.51446
 30
0.0
 11
188.498
 21
1.31878
 31
0.0
  0
LINE
  8
0
 62
     0
 10
188.498
 20
1.31878
 30
0.0
 11
188.352
 21
1.13412
 31
0.0
  0
LINE
  8
0
 62
     0
 10
188.352
 20
1.13412
 30
0.0
 11
188.192
 21
0.960494
 31
0.0
  0
LINE
  8
0
 62
     0
 10
188.192
 20
0.960494
 30
0.0
 11
188.018
 21
0.802019
 31
0.0
  0
LINE
  8
0
 62
     0
 10
188.018
 20
0.802019
 30
0.0
 11
187.833
 21
0.655948
 31
0.0
  0
LINE
  8
0
 62
     0
 10
187.833
 20
0.655948
 30
0.0
 11
187.638
 21
0.525032
 31
0.0
  0
LINE
  8
0
 62
     0
 10
187.638
 20
0.525032
 30
0.0
 11
187.431
 21
0.410655
 31
0.0
  0
LINE
  8
0
 62
     0
 10
187.431
 20
0.410655
 30
0.0
 11
187.219
 21
0.311437
 31
0.0
  0
LINE
  8
0
 62
     0
 10
187.219
 20
0.311437
 30
0.0
 11
186.998
 21
0.230132
 31
0.0
  0
LINE
  8
0
 62
     0
 10
186.998
 20
0.230132
 30
0.0
 11
186.771
 21
0.166743
 31
0.0
  0
LINE
  8
0
 62
     0
 10
186.771
 20
0.166743
 30
0.0
 11
186.539
 21
0.119889
 31
0.0
  0
LINE
  8
0
 62
     0
 10
186.539
 20
0.119889
 30
0.0
 11
186.305
 21
0.0923286
 31
0.0
  0
LINE
  8
0
 62
     0
 10
186.305
 20
0.0923286
 30
0.0
 11
186.069
 21
0.0826823
 31
0.0
  0
LINE
  8
0
 62
     0
 10
186.069
 20
0.0826823
 30
0.0
 11
3.09507
 21
0.0826823
 31
0.0
  0
LINE
  8
0
 62
     0
 10
3.09507
 20
0.0826823
 30
0.0
 11
2.85943
 21
0.0923286
 31
0.0
  0
LINE
  8
0
 62
     0
 10
2.85943
 20
0.0923286
 30
0.0
 11
2.62516
 21
0.119889
 31
0.0
  0
LINE
  8
0
 62
     0
 10
2.62516
 20
0.119889
 30
0.0
 11
2.39365
 21
0.166743
 31
0.0
  0
LINE
  8
0
 62
     0
 10
2.39365
 20
0.166743
 30
0.0
 11
2.16628
 21
0.230132
 31
0.0
  0
LINE
  8
0
 62
     0
 10
2.16628
 20
0.230132
 30
0.0
 11
1.94579
 21
0.311437
 31
0.0
  0
LINE
  8
0
 62
     0
 10
1.94579
 20
0.311437
 30
0.0
 11
1.7322
 21
0.410655
 31
0.0
  0
LINE
  8
0
 62
     0
 10
1.7322
 20
0.410655
 30
0.0
 11
1.52687
 21
0.525032
 31
0.0
  0
LINE
  8
0
 62
     0
 10
1.52687
 20
0.525032
 30
0.0
 11
1.33119
 21
0.655948
 31
0.0
  0
LINE
  8
0
 62
     0
 10
1.33119
 20
0.655948
 30
0.0
 11
1.14515
 21
0.802019
 31
0.0
  0
LINE
  8
0
 62
     0
 10
1.14515
 20
0.802019
 30
0.0
 11
0.972894
 21
0.960494
 31
0.0
  0
LINE
  8
0
 62
     0
 10
0.972894
 20
0.960494
 30
0.0
 11
0.813043
 21
1.13412
 31
0.0
  0
LINE
  8
0
 62
     0
 10
0.813043
 20
1.13412
 30
0.0
 11
0.666972
 21
1.31878
 31
0.0
  0
LINE
  8
0
 62
     0
 10
0.666972
 20
1.31878
 30
0.0
 11
0.537436
 21
1.51446
 31
0.0
  0
LINE
  8
0
 62
     0
 10
0.537436
 20
1.51446
 30
0.0
 11
0.420303
 21
1.72117
 31
0.0
  0
LINE
  8
0
 62
     0
 10
0.420303
 20
1.72117
 30
0.0
 11
0.322461
 21
1.93477
 31
0.0
  0
LINE
  8
0
 62
     0
 10
0.322461
 20
1.93477
 30
0.0
 11
0.241157
 21
2.15663
 31
0.0
  0
LINE
  8
0
 62
     0
 10
0.241157
 20
2.15663
 30
0.0
 11
0.176389
 21
2.38263
 31
0.0
  0
LINE
  8
0
 62
     0
 10
0.176389
 20
2.38263
 30
0.0
 11
0.130914
 21
2.61276
 31
0.0
  0
LINE
  8
0
 62
     0
 10
0.130914
 20
2.61276
 30
0.0
 11
0.103353
 21
2.84703
 31
0.0
  0
LINE
  8
0
 62
     0
 10
0.103353
 20
2.84703
 30
0.0
 11
0.0937066
 21
3.08267
 31
0.0
  0
LINE
  8
0
 62
     0
 10
0.0937066
 20
3.08267
 30
0.0
 11
0.0950846
 21
194.593
 31
0.0
  0
LINE
  8
0
 62
     0
 10
0.0950846
 20
194.593
 30
0.0
 11
0.103353
 21
194.829
 31
0.0
  0
LINE
  8
0
 62
     0
 10
0.103353
 20
194.829
 30
0.0
 11
0.130914
 21
195.063
 31
0.0
  0
LINE
  8
0
 62
     0
 10
0.130914
 20
195.063
 30
0.0
 11
0.176389
 21
195.294
 31
0.0
  0
LINE
  8
0
 62
     0
 10
0.176389
 20
195.294
 30
0.0
 11
0.241157
 21
195.521
 31
0.0
  0
LINE
  8
0
 62
     0
 10
0.241157
 20
195.521
 30
0.0
 11
0.322461
 21
195.742
 31
0.0
  0
LINE
  8
0
 62
     0
 10
0.322461
 20
195.742
 30
0.0
 11
0.420303
 21
195.956
 31
0.0
  0
LINE
  8
0
 62
     0
 10
0.420303
 20
195.956
 30
0.0
 11
0.537436
 21
196.161
 31
0.0
  0
LINE
  8
0
 62
     0
 10
0.537436
 20
196.161
 30
0.0
 11
0.666972
 21
196.357
 31
0.0
  0
LINE
  8
0
 62
     0
 10
0.666972
 20
196.357
 30
0.0
 11
0.813043
 21
196.543
 31
0.0
  0
LINE
  8
0
 62
     0
 10
0.813043
 20
196.543
 30
0.0
 11
0.972894
 21
196.715
 31
0.0
  0
LINE
  8
0
 62
     0
 10
0.972894
 20
196.715
 30
0.0
 11
1.14515
 21
196.875
 31
0.0
  0
LINE
  8
0
 62
     0
 10
1.14515
 20
196.875
 30
0.0
 11
1.33119
 21
197.021
 31
0.0
  0
LINE
  8
0
 62
     0
 10
1.33119
 20
197.021
 30
0.0
 11
1.52687
 21
197.151
 31
0.0
  0
LINE
  8
0
 62
     0
 10
1.52687
 20
197.151
 30
0.0
 11
1.7322
 21
197.268
 31
0.0
  0
LINE
  8
0
 62
     0
 10
1.7322
 20
197.268
 30
0.0
 11
1.94579
 21
197.365
 31
0.0
  0
LINE
  8
0
 62
     0
 10
1.94579
 20
197.365
 30
0.0
 11
2.16628
 21
197.447
 31
0.0
  0
LINE
  8
0
 62
     0
 10
2.16628
 20
197.447
 30
0.0
 11
2.39365
 21
197.511
 31
0.0
  0
LINE
  8
0
 62
     0
 10
2.39365
 20
197.511
 30
0.0
 11
2.62516
 21
197.557
 31
0.0
  0
LINE
  8
0
 62
     0
 10
2.62516
 20
197.557
 30
0.0
 11
2.85943
 21
197.584
 31
0.0
  0
LINE
  8
0
 62
     0
 10
2.85943
 20
197.584
 30
0.0
 11
3.09507
 21
197.594
 31
0.0
  0
LINE
  8
0
 62
     0
 10
3.09507
 20
197.594
 30
0.0
 11
186.071
 21
197.593
 31
0.0
  0
LINE
  8
0
 62
     0
 10
186.607
 20
3.50848
 30
0.0
 11
186.188
 21
3.29627
 31
0.0
  0
LINE
  8
0
 62
     0
 10
186.188
 20
3.29627
 30
0.0
 11
185.857
 21
2.96416
 31
0.0
  0
LINE
  8
0
 62
     0
 10
185.857
 20
2.96416
 30
0.0
 11
185.644
 21
2.54661
 31
0.0
  0
LINE
  8
0
 62
     0
 10
185.644
 20
2.54661
 30
0.0
 11
185.569
 21
2.08359
 31
0.0
  0
LINE
  8
0
 62
     0
 10
185.569
 20
2.08359
 30
0.0
 11
185.644
 21
1.61919
 31
0.0
  0
LINE
  8
0
 62
     0
 10
185.644
 20
1.61919
 30
0.0
 11
185.857
 21
1.20165
 31
0.0
  0
LINE
  8
0
 62
     0
 10
185.857
 20
1.20165
 30
0.0
 11
186.188
 21
0.869541
 31
0.0
  0
LINE
  8
0
 62
     0
 10
186.188
 20
0.869541
 30
0.0
 11
186.607
 21
0.655948
 31
0.0
  0
LINE
  8
0
 62
     0
 10
186.607
 20
0.655948
 30
0.0
 11
187.07
 21
0.582909
 31
0.0
  0
LINE
  8
0
 62
     0
 10
187.07
 20
0.582909
 30
0.0
 11
187.533
 21
0.655948
 31
0.0
  0
LINE
  8
0
 62
     0
 10
187.533
 20
0.655948
 30
0.0
 11
187.952
 21
0.869541
 31
0.0
  0
LINE
  8
0
 62
     0
 10
187.952
 20
0.869541
 30
0.0
 11
188.284
 21
1.20165
 31
0.0
  0
LINE
  8
0
 62
     0
 10
188.284
 20
1.20165
 30
0.0
 11
188.496
 21
1.61919
 31
0.0
  0
LINE
  8
0
 62
     0
 10
188.496
 20
1.61919
 30
0.0
 11
188.571
 21
2.08359
 31
0.0
  0
LINE
  8
0
 62
     0
 10
188.571
 20
2.08359
 30
0.0
 11
188.496
 21
2.54661
 31
0.0
  0
LINE
  8
0
 62
     0
 10
188.496
 20
2.54661
 30
0.0
 11
188.284
 21
2.96416
 31
0.0
  0
LINE
  8
0
 62
     0
 10
188.284
 20
2.96416
 30
0.0
 11
187.952
 21
3.29627
 31
0.0
  0
LINE
  8
0
 62
     0
 10
187.952
 20
3.29627
 30
0.0
 11
187.533
 21
3.50848
 31
0.0
  0
LINE
  8
0
 62
     0
 10
187.533
 20
3.50848
 30
0.0
 11
187.07
 21
3.58292
 31
0.0
  0
LINE
  8
0
 62
     0
 10
187.07
 20
3.58292
 30
0.0
 11
186.607
 21
3.50848
 31
0.0
  0
LINE
  8
0
 62
     0
 10
94.1186
 20
3.50848
 30
0.0
 11
93.701
 21
3.29627
 31
0.0
  0
LINE
  8
0
 62
     0
 10
93.701
 20
3.29627
 30
0.0
 11
93.369
 21
2.96416
 31
0.0
  0
LINE
  8
0
 62
     0
 10
93.369
 20
2.96416
 30
0.0
 11
93.1556
 21
2.54661
 31
0.0
  0
LINE
  8
0
 62
     0
 10
93.1556
 20
2.54661
 30
0.0
 11
93.0822
 21
2.08359
 31
0.0
  0
LINE
  8
0
 62
     0
 10
93.0822
 20
2.08359
 30
0.0
 11
93.1556
 21
1.61919
 31
0.0
  0
LINE
  8
0
 62
     0
 10
93.1556
 20
1.61919
 30
0.0
 11
93.369
 21
1.20165
 31
0.0
  0
LINE
  8
0
 62
     0
 10
93.369
 20
1.20165
 30
0.0
 11
93.701
 21
0.869541
 31
0.0
  0
LINE
  8
0
 62
     0
 10
93.701
 20
0.869541
 30
0.0
 11
94.1186
 21
0.655948
 31
0.0
  0
LINE
  8
0
 62
     0
 10
94.1186
 20
0.655948
 30
0.0
 11
94.5829
 21
0.582909
 31
0.0
  0
LINE
  8
0
 62
     0
 10
94.5829
 20
0.582909
 30
0.0
 11
95.0461
 21
0.655948
 31
0.0
  0
LINE
  8
0
 62
     0
 10
95.0461
 20
0.655948
 30
0.0
 11
95.4634
 21
0.869541
 31
0.0
  0
LINE
  8
0
 62
     0
 10
95.4634
 20
0.869541
 30
0.0
 11
95.7957
 21
1.20165
 31
0.0
  0
LINE
  8
0
 62
     0
 10
95.7957
 20
1.20165
 30
0.0
 11
96.0092
 21
1.61919
 31
0.0
  0
LINE
  8
0
 62
     0
 10
96.0092
 20
1.61919
 30
0.0
 11
96.0822
 21
2.08359
 31
0.0
  0
LINE
  8
0
 62
     0
 10
96.0822
 20
2.08359
 30
0.0
 11
96.0092
 21
2.54661
 31
0.0
  0
LINE
  8
0
 62
     0
 10
96.0092
 20
2.54661
 30
0.0
 11
95.7957
 21
2.96416
 31
0.0
  0
LINE
  8
0
 62
     0
 10
95.7957
 20
2.96416
 30
0.0
 11
95.4634
 21
3.29627
 31
0.0
  0
LINE
  8
0
 62
     0
 10
95.4634
 20
3.29627
 30
0.0
 11
95.0461
 21
3.50848
 31
0.0
  0
LINE
  8
0
 62
     0
 10
95.0461
 20
3.50848
 30
0.0
 11
94.5829
 21
3.58292
 31
0.0
  0
LINE
  8
0
 62
     0
 10
94.5829
 20
3.58292
 30
0.0
 11
94.1186
 21
3.50848
 31
0.0
  0
LINE
  8
0
 62
     0
 10
1.63022
 20
3.50848
 30
0.0
 11
1.21267
 21
3.29627
 31
0.0
  0
LINE
  8
0
 62
     0
 10
1.21267
 20
3.29627
 30
0.0
 11
0.880565
 21
2.96416
 31
0.0
  0
LINE
  8
0
 62
     0
 10
0.880565
 20
2.96416
 30
0.0
 11
0.668348
 21
2.54661
 31
0.0
  0
LINE
  8
0
 62
     0
 10
0.668348
 20
2.54661
 30
0.0
 11
0.593933
 21
2.08359
 31
0.0
  0
LINE
  8
0
 62
     0
 10
0.593933
 20
2.08359
 30
0.0
 11
0.668348
 21
1.61919
 31
0.0
  0
LINE
  8
0
 62
     0
 10
0.668348
 20
1.61919
 30
0.0
 11
0.880565
 21
1.20165
 31
0.0
  0
LINE
  8
0
 62
     0
 10
0.880565
 20
1.20165
 30
0.0
 11
1.21267
 21
0.869541
 31
0.0
  0
LINE
  8
0
 62
     0
 10
1.21267
 20
0.869541
 30
0.0
 11
1.63022
 21
0.655948
 31
0.0
  0
LINE
  8
0
 62
     0
 10
1.63022
 20
0.655948
 30
0.0
 11
2.09462
 21
0.582909
 31
0.0
  0
LINE
  8
0
 62
     0
 10
2.09462
 20
0.582909
 30
0.0
 11
2.55764
 21
0.655948
 31
0.0
  0
LINE
  8
0
 62
     0
 10
2.55764
 20
0.655948
 30
0.0
 11
2.97518
 21
0.869541
 31
0.0
  0
LINE
  8
0
 62
     0
 10
2.97518
 20
0.869541
 30
0.0
 11
3.30729
 21
1.20165
 31
0.0
  0
LINE
  8
0
 62
     0
 10
3.30729
 20
1.20165
 30
0.0
 11
3.52089
 21
1.61919
 31
0.0
  0
LINE
  8
0
 62
     0
 10
3.52089
 20
1.61919
 30
0.0
 11
3.5953
 21
2.08359
 31
0.0
  0
LINE
  8
0
 62
     0
 10
3.5953
 20
2.08359
 30
0.0
 11
3.52089
 21
2.54661
 31
0.0
  0
LINE
  8
0
 62
     0
 10
3.52089
 20
2.54661
 30
0.0
 11
3.30729
 21
2.96416
 31
0.0
  0
LINE
  8
0
 62
     0
 10
3.30729
 20
2.96416
 30
0.0
 11
2.97518
 21
3.29627
 31
0.0
  0
LINE
  8
0
 62
     0
 10
2.97518
 20
3.29627
 30
0.0
 11
2.55764
 21
3.50848
 31
0.0
  0
LINE
  8
0
 62
     0
 10
2.55764
 20
3.50848
 30
0.0
 11
2.09462
 21
3.58292
 31
0.0
  0
LINE
  8
0
 62
     0
 10
2.09462
 20
3.58292
 30
0.0
 11
1.63022
 21
3.50848
 31
0.0
  0
LINE
  8
0
 62
     0
 10
27.9714
 20
75.6585
 30
0.0
 11
28.4716
 21
74.7917
 31
0.0
  0
LINE
  8
0
 62
     0
 10
28.4716
 20
74.7917
 30
0.0
 11
27.7799
 21
74.392
 31
0.0
  0
LINE
  8
0
 62
     0
 10
27.7799
 20
74.392
 30
0.0
 11
29.3302
 21
71.7077
 31
0.0
  0
LINE
  8
0
 62
     0
 10
29.3302
 20
71.7077
 30
0.0
 11
30.022
 21
72.1085
 31
0.0
  0
LINE
  8
0
 62
     0
 10
30.022
 20
72.1085
 30
0.0
 11
32.9213
 21
67.0842
 31
0.0
  0
LINE
  8
0
 62
     0
 10
32.9213
 20
67.0842
 30
0.0
 11
32.2296
 21
66.6845
 31
0.0
  0
LINE
  8
0
 62
     0
 10
32.2296
 20
66.6845
 30
0.0
 11
33.7798
 21
63.9988
 31
0.0
  0
LINE
  8
0
 62
     0
 10
33.7798
 20
63.9988
 30
0.0
 11
34.4716
 21
64.3985
 31
0.0
  0
LINE
  8
0
 62
     0
 10
34.4716
 20
64.3985
 30
0.0
 11
34.9718
 21
63.5332
 31
0.0
  0
LINE
  8
0
 62
     0
 10
34.9718
 20
63.5332
 30
0.0
 11
47.0972
 21
70.5337
 31
0.0
  0
LINE
  8
0
 62
     0
 10
47.0972
 20
70.5337
 30
0.0
 11
46.597
 21
71.399
 31
0.0
  0
LINE
  8
0
 62
     0
 10
46.597
 20
71.399
 30
0.0
 11
47.2902
 21
71.7984
 31
0.0
  0
LINE
  8
0
 62
     0
 10
47.2902
 20
71.7984
 30
0.0
 11
45.7398
 21
74.4844
 31
0.0
  0
LINE
  8
0
 62
     0
 10
45.7398
 20
74.4844
 30
0.0
 11
45.0465
 21
74.0847
 31
0.0
  0
LINE
  8
0
 62
     0
 10
45.0465
 20
74.0847
 30
0.0
 11
42.1474
 21
79.1076
 31
0.0
  0
LINE
  8
0
 62
     0
 10
42.1474
 20
79.1076
 30
0.0
 11
42.8392
 21
79.5073
 31
0.0
  0
LINE
  8
0
 62
     0
 10
42.8392
 20
79.5073
 30
0.0
 11
41.2902
 21
82.1916
 31
0.0
  0
LINE
  8
0
 62
     0
 10
41.2902
 20
82.1916
 30
0.0
 11
40.597
 21
81.7922
 31
0.0
  0
LINE
  8
0
 62
     0
 10
40.597
 20
81.7922
 30
0.0
 11
40.0967
 21
82.6576
 31
0.0
  0
LINE
  8
0
 62
     0
 10
40.0967
 20
82.6576
 30
0.0
 11
27.9714
 21
75.6585
 31
0.0
  0
LINE
  8
0
 62
     0
 10
49.0721
 20
97.0125
 30
0.0
 11
49.4714
 21
96.3193
 31
0.0
  0
LINE
  8
0
 62
     0
 10
49.4714
 20
96.3193
 30
0.0
 11
44.4486
 21
93.4187
 31
0.0
  0
LINE
  8
0
 62
     0
 10
44.4486
 20
93.4187
 30
0.0
 11
44.0489
 21
94.1116
 31
0.0
  0
LINE
  8
0
 62
     0
 10
44.0489
 20
94.1116
 30
0.0
 11
41.3632
 21
92.5615
 31
0.0
  0
LINE
  8
0
 62
     0
 10
41.3632
 20
92.5615
 30
0.0
 11
41.7643
 21
91.8697
 31
0.0
  0
LINE
  8
0
 62
     0
 10
41.7643
 20
91.8697
 30
0.0
 11
40.8975
 21
91.3694
 31
0.0
  0
LINE
  8
0
 62
     0
 10
40.8975
 20
91.3694
 30
0.0
 11
47.8977
 21
79.2455
 31
0.0
  0
LINE
  8
0
 62
     0
 10
47.8977
 20
79.2455
 30
0.0
 11
48.7634
 21
79.7458
 31
0.0
  0
LINE
  8
0
 62
     0
 10
48.7634
 20
79.7458
 30
0.0
 11
49.1642
 21
79.0526
 31
0.0
  0
LINE
  8
0
 62
     0
 10
49.1642
 20
79.0526
 30
0.0
 11
51.8488
 21
80.6016
 31
0.0
  0
LINE
  8
0
 62
     0
 10
51.8488
 20
80.6016
 30
0.0
 11
51.4491
 21
81.2945
 31
0.0
  0
LINE
  8
0
 62
     0
 10
51.4491
 20
81.2945
 30
0.0
 11
56.472
 21
84.1954
 31
0.0
  0
LINE
  8
0
 62
     0
 10
56.472
 20
84.1954
 30
0.0
 11
56.8717
 21
83.5021
 31
0.0
  0
LINE
  8
0
 62
     0
 10
56.8717
 20
83.5021
 30
0.0
 11
59.5574
 21
85.0526
 31
0.0
  0
LINE
  8
0
 62
     0
 10
59.5574
 20
85.0526
 30
0.0
 11
59.1566
 21
85.7458
 31
0.0
  0
LINE
  8
0
 62
     0
 10
59.1566
 20
85.7458
 30
0.0
 11
60.0234
 21
86.2446
 31
0.0
  0
LINE
  8
0
 62
     0
 10
60.0234
 20
86.2446
 30
0.0
 11
53.0229
 21
98.3686
 31
0.0
  0
LINE
  8
0
 62
     0
 10
53.0229
 20
98.3686
 30
0.0
 11
52.1575
 21
97.8697
 31
0.0
  0
LINE
  8
0
 62
     0
 10
52.1575
 20
97.8697
 30
0.0
 11
51.7564
 21
98.5615
 31
0.0
  0
LINE
  8
0
 62
     0
 10
51.7564
 20
98.5615
 30
0.0
 11
49.0721
 21
97.0125
 31
0.0
  0
LINE
  8
0
 62
     0
 10
18.4464
 20
92.1561
 30
0.0
 11
18.9466
 21
91.2894
 31
0.0
  0
LINE
  8
0
 62
     0
 10
18.9466
 20
91.2894
 30
0.0
 11
18.2549
 21
90.8886
 31
0.0
  0
LINE
  8
0
 62
     0
 10
18.2549
 20
90.8886
 30
0.0
 11
19.8052
 21
88.2054
 31
0.0
  0
LINE
  8
0
 62
     0
 10
19.8052
 20
88.2054
 30
0.0
 11
20.497
 21
88.6051
 31
0.0
  0
LINE
  8
0
 62
     0
 10
20.497
 20
88.6051
 30
0.0
 11
23.3963
 21
83.5822
 31
0.0
  0
LINE
  8
0
 62
     0
 10
23.3963
 20
83.5822
 30
0.0
 11
22.7046
 21
83.1825
 31
0.0
  0
LINE
  8
0
 62
     0
 10
22.7046
 20
83.1825
 30
0.0
 11
24.2548
 21
80.4968
 31
0.0
  0
LINE
  8
0
 62
     0
 10
24.2548
 20
80.4968
 30
0.0
 11
24.9466
 21
80.8976
 31
0.0
  0
LINE
  8
0
 62
     0
 10
24.9466
 20
80.8976
 30
0.0
 11
25.4468
 21
80.0308
 31
0.0
  0
LINE
  8
0
 62
     0
 10
25.4468
 20
80.0308
 30
0.0
 11
37.5722
 21
87.0313
 31
0.0
  0
LINE
  8
0
 62
     0
 10
37.5722
 20
87.0313
 30
0.0
 11
37.072
 21
87.8967
 31
0.0
  0
LINE
  8
0
 62
     0
 10
37.072
 20
87.8967
 30
0.0
 11
37.7652
 21
88.2964
 31
0.0
  0
LINE
  8
0
 62
     0
 10
37.7652
 20
88.2964
 30
0.0
 11
36.2148
 21
90.9821
 31
0.0
  0
LINE
  8
0
 62
     0
 10
36.2148
 20
90.9821
 30
0.0
 11
35.5215
 21
90.5827
 31
0.0
  0
LINE
  8
0
 62
     0
 10
35.5215
 20
90.5827
 30
0.0
 11
32.6223
 21
95.6056
 31
0.0
  0
LINE
  8
0
 62
     0
 10
32.6223
 20
95.6056
 30
0.0
 11
33.3141
 21
96.0053
 31
0.0
  0
LINE
  8
0
 62
     0
 10
33.3141
 20
96.0053
 30
0.0
 11
31.7652
 21
98.6896
 31
0.0
  0
LINE
  8
0
 62
     0
 10
31.7652
 20
98.6896
 30
0.0
 11
31.072
 21
98.2885
 31
0.0
  0
LINE
  8
0
 62
     0
 10
31.072
 20
98.2885
 30
0.0
 11
30.5718
 21
99.1567
 31
0.0
  0
LINE
  8
0
 62
     0
 10
30.5718
 20
99.1567
 30
0.0
 11
18.4464
 21
92.1561
 31
0.0
  0
LINE
  8
0
 62
     0
 10
56.2046
 20
102.957
 30
0.0
 11
56.7048
 21
102.091
 31
0.0
  0
LINE
  8
0
 62
     0
 10
56.7048
 20
102.091
 30
0.0
 11
56.013
 21
101.691
 31
0.0
  0
LINE
  8
0
 62
     0
 10
56.013
 20
101.691
 30
0.0
 11
57.5635
 21
99.0064
 31
0.0
  0
LINE
  8
0
 62
     0
 10
57.5635
 20
99.0064
 30
0.0
 11
58.2553
 21
99.4061
 31
0.0
  0
LINE
  8
0
 62
     0
 10
58.2553
 20
99.4061
 30
0.0
 11
61.1547
 21
94.3832
 31
0.0
  0
LINE
  8
0
 62
     0
 10
61.1547
 20
94.3832
 30
0.0
 11
60.4615
 21
93.9835
 31
0.0
  0
LINE
  8
0
 62
     0
 10
60.4615
 20
93.9835
 30
0.0
 11
62.013
 21
91.2978
 31
0.0
  0
LINE
  8
0
 62
     0
 10
62.013
 20
91.2978
 30
0.0
 11
62.7048
 21
91.6975
 31
0.0
  0
LINE
  8
0
 62
     0
 10
62.7048
 20
91.6975
 30
0.0
 11
63.2051
 21
90.8322
 31
0.0
  0
LINE
  8
0
 62
     0
 10
63.2051
 20
90.8322
 30
0.0
 11
75.329
 21
97.8323
 31
0.0
  0
LINE
  8
0
 62
     0
 10
75.329
 20
97.8323
 30
0.0
 11
74.8302
 21
98.6977
 31
0.0
  0
LINE
  8
0
 62
     0
 10
74.8302
 20
98.6977
 30
0.0
 11
75.5234
 21
99.0974
 31
0.0
  0
LINE
  8
0
 62
     0
 10
75.5234
 20
99.0974
 30
0.0
 11
73.9733
 21
101.783
 31
0.0
  0
LINE
  8
0
 62
     0
 10
73.9733
 20
101.783
 30
0.0
 11
73.2801
 21
101.384
 31
0.0
  0
LINE
  8
0
 62
     0
 10
73.2801
 20
101.384
 30
0.0
 11
70.3792
 21
106.407
 31
0.0
  0
LINE
  8
0
 62
     0
 10
70.3792
 20
106.407
 30
0.0
 11
71.0724
 21
106.806
 31
0.0
  0
LINE
  8
0
 62
     0
 10
71.0724
 20
106.806
 30
0.0
 11
69.5233
 21
109.491
 31
0.0
  0
LINE
  8
0
 62
     0
 10
69.5233
 20
109.491
 30
0.0
 11
68.8301
 21
109.091
 31
0.0
  0
LINE
  8
0
 62
     0
 10
68.8301
 20
109.091
 30
0.0
 11
68.3299
 21
109.957
 31
0.0
  0
LINE
  8
0
 62
     0
 10
68.3299
 20
109.957
 30
0.0
 11
56.2046
 21
102.957
 31
0.0
  0
LINE
  8
0
 62
     0
 10
139.97
 20
107.629
 30
0.0
 11
139.97
 21
106.628
 31
0.0
  0
LINE
  8
0
 62
     0
 10
139.97
 20
106.628
 30
0.0
 11
139.169
 21
106.628
 31
0.0
  0
LINE
  8
0
 62
     0
 10
139.169
 20
106.628
 30
0.0
 11
139.169
 21
103.529
 31
0.0
  0
LINE
  8
0
 62
     0
 10
139.169
 20
103.529
 30
0.0
 11
139.97
 21
103.529
 31
0.0
  0
LINE
  8
0
 62
     0
 10
139.97
 20
103.529
 30
0.0
 11
139.97
 21
97.729
 31
0.0
  0
LINE
  8
0
 62
     0
 10
139.97
 20
97.729
 30
0.0
 11
139.169
 21
97.729
 31
0.0
  0
LINE
  8
0
 62
     0
 10
139.169
 20
97.729
 30
0.0
 11
139.169
 21
94.6284
 31
0.0
  0
LINE
  8
0
 62
     0
 10
139.169
 20
94.6284
 30
0.0
 11
139.97
 21
94.6284
 31
0.0
  0
LINE
  8
0
 62
     0
 10
139.97
 20
94.6284
 30
0.0
 11
139.97
 21
93.6293
 31
0.0
  0
LINE
  8
0
 62
     0
 10
139.97
 20
93.6293
 30
0.0
 11
153.97
 21
93.6293
 31
0.0
  0
LINE
  8
0
 62
     0
 10
153.97
 20
93.6293
 30
0.0
 11
153.97
 21
94.6284
 31
0.0
  0
LINE
  8
0
 62
     0
 10
153.97
 20
94.6284
 30
0.0
 11
154.77
 21
94.6284
 31
0.0
  0
LINE
  8
0
 62
     0
 10
154.77
 20
94.6284
 30
0.0
 11
154.77
 21
97.729
 31
0.0
  0
LINE
  8
0
 62
     0
 10
154.77
 20
97.729
 30
0.0
 11
153.97
 21
97.729
 31
0.0
  0
LINE
  8
0
 62
     0
 10
153.97
 20
97.729
 30
0.0
 11
153.97
 21
103.529
 31
0.0
  0
LINE
  8
0
 62
     0
 10
153.97
 20
103.529
 30
0.0
 11
154.77
 21
103.529
 31
0.0
  0
LINE
  8
0
 62
     0
 10
154.77
 20
103.529
 30
0.0
 11
154.77
 21
106.628
 31
0.0
  0
LINE
  8
0
 62
     0
 10
154.77
 20
106.628
 30
0.0
 11
153.97
 21
106.628
 31
0.0
  0
LINE
  8
0
 62
     0
 10
153.97
 20
106.628
 30
0.0
 11
153.97
 21
107.629
 31
0.0
  0
LINE
  8
0
 62
     0
 10
153.97
 20
107.629
 30
0.0
 11
139.97
 21
107.629
 31
0.0
  0
LINE
  8
0
 62
     0
 10
159.02
 20
107.629
 30
0.0
 11
159.02
 21
106.628
 31
0.0
  0
LINE
  8
0
 62
     0
 10
159.02
 20
106.628
 30
0.0
 11
158.219
 21
106.628
 31
0.0
  0
LINE
  8
0
 62
     0
 10
158.219
 20
106.628
 30
0.0
 11
158.219
 21
103.529
 31
0.0
  0
LINE
  8
0
 62
     0
 10
158.219
 20
103.529
 30
0.0
 11
159.02
 21
103.529
 31
0.0
  0
LINE
  8
0
 62
     0
 10
159.02
 20
103.529
 30
0.0
 11
159.02
 21
97.729
 31
0.0
  0
LINE
  8
0
 62
     0
 10
159.02
 20
97.729
 30
0.0
 11
158.219
 21
97.729
 31
0.0
  0
LINE
  8
0
 62
     0
 10
158.219
 20
97.729
 30
0.0
 11
158.219
 21
94.6284
 31
0.0
  0
LINE
  8
0
 62
     0
 10
158.219
 20
94.6284
 30
0.0
 11
159.02
 21
94.6284
 31
0.0
  0
LINE
  8
0
 62
     0
 10
159.02
 20
94.6284
 30
0.0
 11
159.02
 21
93.6293
 31
0.0
  0
LINE
  8
0
 62
     0
 10
159.02
 20
93.6293
 30
0.0
 11
173.02
 21
93.6293
 31
0.0
  0
LINE
  8
0
 62
     0
 10
173.02
 20
93.6293
 30
0.0
 11
173.02
 21
94.6284
 31
0.0
  0
LINE
  8
0
 62
     0
 10
173.02
 20
94.6284
 30
0.0
 11
173.82
 21
94.6284
 31
0.0
  0
LINE
  8
0
 62
     0
 10
173.82
 20
94.6284
 30
0.0
 11
173.82
 21
97.729
 31
0.0
  0
LINE
  8
0
 62
     0
 10
173.82
 20
97.729
 30
0.0
 11
173.02
 21
97.729
 31
0.0
  0
LINE
  8
0
 62
     0
 10
173.02
 20
97.729
 30
0.0
 11
173.02
 21
103.529
 31
0.0
  0
LINE
  8
0
 62
     0
 10
173.02
 20
103.529
 30
0.0
 11
173.82
 21
103.529
 31
0.0
  0
LINE
  8
0
 62
     0
 10
173.82
 20
103.529
 30
0.0
 11
173.82
 21
106.628
 31
0.0
  0
LINE
  8
0
 62
     0
 10
173.82
 20
106.628
 30
0.0
 11
173.02
 21
106.628
 31
0.0
  0
LINE
  8
0
 62
     0
 10
173.02
 20
106.628
 30
0.0
 11
173.02
 21
107.629
 31
0.0
  0
LINE
  8
0
 62
     0
 10
173.02
 20
107.629
 30
0.0
 11
159.02
 21
107.629
 31
0.0
  0
LINE
  8
0
 62
     0
 10
186.607
 20
100.265
 30
0.0
 11
186.188
 21
100.052
 31
0.0
  0
LINE
  8
0
 62
     0
 10
186.188
 20
100.052
 30
0.0
 11
185.857
 21
99.7204
 31
0.0
  0
LINE
  8
0
 62
     0
 10
185.857
 20
99.7204
 30
0.0
 11
185.644
 21
99.3013
 31
0.0
  0
LINE
  8
0
 62
     0
 10
185.644
 20
99.3013
 30
0.0
 11
185.569
 21
98.8385
 31
0.0
  0
LINE
  8
0
 62
     0
 10
185.569
 20
98.8385
 30
0.0
 11
185.644
 21
98.3753
 31
0.0
  0
LINE
  8
0
 62
     0
 10
185.644
 20
98.3753
 30
0.0
 11
185.857
 21
97.9565
 31
0.0
  0
LINE
  8
0
 62
     0
 10
185.857
 20
97.9565
 30
0.0
 11
186.188
 21
97.6256
 31
0.0
  0
LINE
  8
0
 62
     0
 10
186.188
 20
97.6256
 30
0.0
 11
186.607
 21
97.4122
 31
0.0
  0
LINE
  8
0
 62
     0
 10
186.607
 20
97.4122
 30
0.0
 11
187.07
 21
97.3377
 31
0.0
  0
LINE
  8
0
 62
     0
 10
187.07
 20
97.3377
 30
0.0
 11
187.533
 21
97.4122
 31
0.0
  0
LINE
  8
0
 62
     0
 10
187.533
 20
97.4122
 30
0.0
 11
187.952
 21
97.6256
 31
0.0
  0
LINE
  8
0
 62
     0
 10
187.952
 20
97.6256
 30
0.0
 11
188.284
 21
97.9565
 31
0.0
  0
LINE
  8
0
 62
     0
 10
188.284
 20
97.9565
 30
0.0
 11
188.496
 21
98.3753
 31
0.0
  0
LINE
  8
0
 62
     0
 10
188.496
 20
98.3753
 30
0.0
 11
188.571
 21
98.8385
 31
0.0
  0
LINE
  8
0
 62
     0
 10
188.571
 20
98.8385
 30
0.0
 11
188.496
 21
99.3013
 31
0.0
  0
LINE
  8
0
 62
     0
 10
188.496
 20
99.3013
 30
0.0
 11
188.284
 21
99.7204
 31
0.0
  0
LINE
  8
0
 62
     0
 10
188.284
 20
99.7204
 30
0.0
 11
187.952
 21
100.052
 31
0.0
  0
LINE
  8
0
 62
     0
 10
187.952
 20
100.052
 30
0.0
 11
187.533
 21
100.265
 31
0.0
  0
LINE
  8
0
 62
     0
 10
187.533
 20
100.265
 30
0.0
 11
187.07
 21
100.338
 31
0.0
  0
LINE
  8
0
 62
     0
 10
187.07
 20
100.338
 30
0.0
 11
186.607
 21
100.265
 31
0.0
  0
LINE
  8
0
 62
     0
 10
1.63022
 20
100.265
 30
0.0
 11
1.21267
 21
100.052
 31
0.0
  0
LINE
  8
0
 62
     0
 10
1.21267
 20
100.052
 30
0.0
 11
0.880565
 21
99.7204
 31
0.0
  0
LINE
  8
0
 62
     0
 10
0.880565
 20
99.7204
 30
0.0
 11
0.668348
 21
99.3013
 31
0.0
  0
LINE
  8
0
 62
     0
 10
0.668348
 20
99.3013
 30
0.0
 11
0.593933
 21
98.8385
 31
0.0
  0
LINE
  8
0
 62
     0
 10
0.593933
 20
98.8385
 30
0.0
 11
0.668348
 21
98.3753
 31
0.0
  0
LINE
  8
0
 62
     0
 10
0.668348
 20
98.3753
 30
0.0
 11
0.880565
 21
97.9565
 31
0.0
  0
LINE
  8
0
 62
     0
 10
0.880565
 20
97.9565
 30
0.0
 11
1.21267
 21
97.6256
 31
0.0
  0
LINE
  8
0
 62
     0
 10
1.21267
 20
97.6256
 30
0.0
 11
1.63022
 21
97.4122
 31
0.0
  0
LINE
  8
0
 62
     0
 10
1.63022
 20
97.4122
 30
0.0
 11
2.09462
 21
97.3377
 31
0.0
  0
LINE
  8
0
 62
     0
 10
2.09462
 20
97.3377
 30
0.0
 11
2.55764
 21
97.4122
 31
0.0
  0
LINE
  8
0
 62
     0
 10
2.55764
 20
97.4122
 30
0.0
 11
2.97518
 21
97.6256
 31
0.0
  0
LINE
  8
0
 62
     0
 10
2.97518
 20
97.6256
 30
0.0
 11
3.30729
 21
97.9565
 31
0.0
  0
LINE
  8
0
 62
     0
 10
3.30729
 20
97.9565
 30
0.0
 11
3.52089
 21
98.3753
 31
0.0
  0
LINE
  8
0
 62
     0
 10
3.52089
 20
98.3753
 30
0.0
 11
3.5953
 21
98.8385
 31
0.0
  0
LINE
  8
0
 62
     0
 10
3.5953
 20
98.8385
 30
0.0
 11
3.52089
 21
99.3013
 31
0.0
  0
LINE
  8
0
 62
     0
 10
3.52089
 20
99.3013
 30
0.0
 11
3.30729
 21
99.7204
 31
0.0
  0
LINE
  8
0
 62
     0
 10
3.30729
 20
99.7204
 30
0.0
 11
2.97518
 21
100.052
 31
0.0
  0
LINE
  8
0
 62
     0
 10
2.97518
 20
100.052
 30
0.0
 11
2.55764
 21
100.265
 31
0.0
  0
LINE
  8
0
 62
     0
 10
2.55764
 20
100.265
 30
0.0
 11
2.09462
 21
100.338
 31
0.0
  0
LINE
  8
0
 62
     0
 10
2.09462
 20
100.338
 30
0.0
 11
1.63022
 21
100.265
 31
0.0
  0
LINE
  8
0
 62
     0
 10
82.8202
 20
112.391
 30
0.0
 11
82.8202
 21
111.392
 31
0.0
  0
LINE
  8
0
 62
     0
 10
82.8202
 20
111.392
 30
0.0
 11
82.0194
 21
111.392
 31
0.0
  0
LINE
  8
0
 62
     0
 10
82.0194
 20
111.392
 30
0.0
 11
82.0194
 21
108.292
 31
0.0
  0
LINE
  8
0
 62
     0
 10
82.0194
 20
108.292
 30
0.0
 11
82.8202
 21
108.292
 31
0.0
  0
LINE
  8
0
 62
     0
 10
82.8202
 20
108.292
 30
0.0
 11
82.8202
 21
102.491
 31
0.0
  0
LINE
  8
0
 62
     0
 10
82.8202
 20
102.491
 30
0.0
 11
82.0194
 21
102.491
 31
0.0
  0
LINE
  8
0
 62
     0
 10
82.0194
 20
102.491
 30
0.0
 11
82.0194
 21
99.3923
 31
0.0
  0
LINE
  8
0
 62
     0
 10
82.0194
 20
99.3923
 30
0.0
 11
82.8202
 21
99.3923
 31
0.0
  0
LINE
  8
0
 62
     0
 10
82.8202
 20
99.3923
 30
0.0
 11
82.8202
 21
98.3918
 31
0.0
  0
LINE
  8
0
 62
     0
 10
82.8202
 20
98.3918
 30
0.0
 11
96.8195
 21
98.3918
 31
0.0
  0
LINE
  8
0
 62
     0
 10
96.8195
 20
98.3918
 30
0.0
 11
96.8195
 21
99.3923
 31
0.0
  0
LINE
  8
0
 62
     0
 10
96.8195
 20
99.3923
 30
0.0
 11
97.6203
 21
99.3923
 31
0.0
  0
LINE
  8
0
 62
     0
 10
97.6203
 20
99.3923
 30
0.0
 11
97.6203
 21
102.491
 31
0.0
  0
LINE
  8
0
 62
     0
 10
97.6203
 20
102.491
 30
0.0
 11
96.8195
 21
102.491
 31
0.0
  0
LINE
  8
0
 62
     0
 10
96.8195
 20
102.491
 30
0.0
 11
96.8195
 21
108.292
 31
0.0
  0
LINE
  8
0
 62
     0
 10
96.8195
 20
108.292
 30
0.0
 11
97.6203
 21
108.292
 31
0.0
  0
LINE
  8
0
 62
     0
 10
97.6203
 20
108.292
 30
0.0
 11
97.6203
 21
111.392
 31
0.0
  0
LINE
  8
0
 62
     0
 10
97.6203
 20
111.392
 30
0.0
 11
96.8195
 21
111.392
 31
0.0
  0
LINE
  8
0
 62
     0
 10
96.8195
 20
111.392
 30
0.0
 11
96.8195
 21
112.391
 31
0.0
  0
LINE
  8
0
 62
     0
 10
96.8195
 20
112.391
 30
0.0
 11
82.8202
 21
112.391
 31
0.0
  0
LINE
  8
0
 62
     0
 10
120.92
 20
112.391
 30
0.0
 11
120.92
 21
111.392
 31
0.0
  0
LINE
  8
0
 62
     0
 10
120.92
 20
111.392
 30
0.0
 11
120.119
 21
111.392
 31
0.0
  0
LINE
  8
0
 62
     0
 10
120.119
 20
111.392
 30
0.0
 11
120.119
 21
108.292
 31
0.0
  0
LINE
  8
0
 62
     0
 10
120.119
 20
108.292
 30
0.0
 11
120.92
 21
108.292
 31
0.0
  0
LINE
  8
0
 62
     0
 10
120.92
 20
108.292
 30
0.0
 11
120.92
 21
102.491
 31
0.0
  0
LINE
  8
0
 62
     0
 10
120.92
 20
102.491
 30
0.0
 11
120.119
 21
102.491
 31
0.0
  0
LINE
  8
0
 62
     0
 10
120.119
 20
102.491
 30
0.0
 11
120.119
 21
99.3923
 31
0.0
  0
LINE
  8
0
 62
     0
 10
120.119
 20
99.3923
 30
0.0
 11
120.92
 21
99.3923
 31
0.0
  0
LINE
  8
0
 62
     0
 10
120.92
 20
99.3923
 30
0.0
 11
120.92
 21
98.3918
 31
0.0
  0
LINE
  8
0
 62
     0
 10
120.92
 20
98.3918
 30
0.0
 11
134.92
 21
98.3918
 31
0.0
  0
LINE
  8
0
 62
     0
 10
134.92
 20
98.3918
 30
0.0
 11
134.92
 21
99.3923
 31
0.0
  0
LINE
  8
0
 62
     0
 10
134.92
 20
99.3923
 30
0.0
 11
135.72
 21
99.3923
 31
0.0
  0
LINE
  8
0
 62
     0
 10
135.72
 20
99.3923
 30
0.0
 11
135.72
 21
102.491
 31
0.0
  0
LINE
  8
0
 62
     0
 10
135.72
 20
102.491
 30
0.0
 11
134.92
 21
102.491
 31
0.0
  0
LINE
  8
0
 62
     0
 10
134.92
 20
102.491
 30
0.0
 11
134.92
 21
108.292
 31
0.0
  0
LINE
  8
0
 62
     0
 10
134.92
 20
108.292
 30
0.0
 11
135.72
 21
108.292
 31
0.0
  0
LINE
  8
0
 62
     0
 10
135.72
 20
108.292
 30
0.0
 11
135.72
 21
111.392
 31
0.0
  0
LINE
  8
0
 62
     0
 10
135.72
 20
111.392
 30
0.0
 11
134.92
 21
111.392
 31
0.0
  0
LINE
  8
0
 62
     0
 10
134.92
 20
111.392
 30
0.0
 11
134.92
 21
112.391
 31
0.0
  0
LINE
  8
0
 62
     0
 10
134.92
 20
112.391
 30
0.0
 11
120.92
 21
112.391
 31
0.0
  0
LINE
  8
0
 62
     0
 10
101.87
 20
114.868
 30
0.0
 11
101.87
 21
113.869
 31
0.0
  0
LINE
  8
0
 62
     0
 10
101.87
 20
113.869
 30
0.0
 11
101.069
 21
113.869
 31
0.0
  0
LINE
  8
0
 62
     0
 10
101.069
 20
113.869
 30
0.0
 11
101.069
 21
110.768
 31
0.0
  0
LINE
  8
0
 62
     0
 10
101.069
 20
110.768
 30
0.0
 11
101.87
 21
110.768
 31
0.0
  0
LINE
  8
0
 62
     0
 10
101.87
 20
110.768
 30
0.0
 11
101.87
 21
104.968
 31
0.0
  0
LINE
  8
0
 62
     0
 10
101.87
 20
104.968
 30
0.0
 11
101.069
 21
104.968
 31
0.0
  0
LINE
  8
0
 62
     0
 10
101.069
 20
104.968
 30
0.0
 11
101.069
 21
101.869
 31
0.0
  0
LINE
  8
0
 62
     0
 10
101.069
 20
101.869
 30
0.0
 11
101.87
 21
101.869
 31
0.0
  0
LINE
  8
0
 62
     0
 10
101.87
 20
101.869
 30
0.0
 11
101.87
 21
100.868
 31
0.0
  0
LINE
  8
0
 62
     0
 10
101.87
 20
100.868
 30
0.0
 11
115.87
 21
100.868
 31
0.0
  0
LINE
  8
0
 62
     0
 10
115.87
 20
100.868
 30
0.0
 11
115.87
 21
101.869
 31
0.0
  0
LINE
  8
0
 62
     0
 10
115.87
 20
101.869
 30
0.0
 11
116.67
 21
101.869
 31
0.0
  0
LINE
  8
0
 62
     0
 10
116.67
 20
101.869
 30
0.0
 11
116.67
 21
104.968
 31
0.0
  0
LINE
  8
0
 62
     0
 10
116.67
 20
104.968
 30
0.0
 11
115.87
 21
104.968
 31
0.0
  0
LINE
  8
0
 62
     0
 10
115.87
 20
104.968
 30
0.0
 11
115.87
 21
110.768
 31
0.0
  0
LINE
  8
0
 62
     0
 10
115.87
 20
110.768
 30
0.0
 11
116.67
 21
110.768
 31
0.0
  0
LINE
  8
0
 62
     0
 10
116.67
 20
110.768
 30
0.0
 11
116.67
 21
113.869
 31
0.0
  0
LINE
  8
0
 62
     0
 10
116.67
 20
113.869
 30
0.0
 11
115.87
 21
113.869
 31
0.0
  0
LINE
  8
0
 62
     0
 10
115.87
 20
113.869
 30
0.0
 11
115.87
 21
114.868
 31
0.0
  0
LINE
  8
0
 62
     0
 10
115.87
 20
114.868
 30
0.0
 11
101.87
 21
114.868
 31
0.0
  0
LINE
  8
0
 62
     0
 10
139.97
 20
126.679
 30
0.0
 11
139.97
 21
125.678
 31
0.0
  0
LINE
  8
0
 62
     0
 10
139.97
 20
125.678
 30
0.0
 11
139.169
 21
125.678
 31
0.0
  0
LINE
  8
0
 62
     0
 10
139.169
 20
125.678
 30
0.0
 11
139.169
 21
122.579
 31
0.0
  0
LINE
  8
0
 62
     0
 10
139.169
 20
122.579
 30
0.0
 11
139.97
 21
122.579
 31
0.0
  0
LINE
  8
0
 62
     0
 10
139.97
 20
122.579
 30
0.0
 11
139.97
 21
116.779
 31
0.0
  0
LINE
  8
0
 62
     0
 10
139.97
 20
116.779
 30
0.0
 11
139.169
 21
116.779
 31
0.0
  0
LINE
  8
0
 62
     0
 10
139.169
 20
116.779
 30
0.0
 11
139.169
 21
113.678
 31
0.0
  0
LINE
  8
0
 62
     0
 10
139.169
 20
113.678
 30
0.0
 11
139.97
 21
113.678
 31
0.0
  0
LINE
  8
0
 62
     0
 10
139.97
 20
113.678
 30
0.0
 11
139.97
 21
112.679
 31
0.0
  0
LINE
  8
0
 62
     0
 10
139.97
 20
112.679
 30
0.0
 11
153.97
 21
112.679
 31
0.0
  0
LINE
  8
0
 62
     0
 10
153.97
 20
112.679
 30
0.0
 11
153.97
 21
113.678
 31
0.0
  0
LINE
  8
0
 62
     0
 10
153.97
 20
113.678
 30
0.0
 11
154.77
 21
113.678
 31
0.0
  0
LINE
  8
0
 62
     0
 10
154.77
 20
113.678
 30
0.0
 11
154.77
 21
116.779
 31
0.0
  0
LINE
  8
0
 62
     0
 10
154.77
 20
116.779
 30
0.0
 11
153.97
 21
116.779
 31
0.0
  0
LINE
  8
0
 62
     0
 10
153.97
 20
116.779
 30
0.0
 11
153.97
 21
122.579
 31
0.0
  0
LINE
  8
0
 62
     0
 10
153.97
 20
122.579
 30
0.0
 11
154.77
 21
122.579
 31
0.0
  0
LINE
  8
0
 62
     0
 10
154.77
 20
122.579
 30
0.0
 11
154.77
 21
125.678
 31
0.0
  0
LINE
  8
0
 62
     0
 10
154.77
 20
125.678
 30
0.0
 11
153.97
 21
125.678
 31
0.0
  0
LINE
  8
0
 62
     0
 10
153.97
 20
125.678
 30
0.0
 11
153.97
 21
126.679
 31
0.0
  0
LINE
  8
0
 62
     0
 10
153.97
 20
126.679
 30
0.0
 11
139.97
 21
126.679
 31
0.0
  0
LINE
  8
0
 62
     0
 10
163.781
 20
126.679
 30
0.0
 11
163.781
 21
125.678
 31
0.0
  0
LINE
  8
0
 62
     0
 10
163.781
 20
125.678
 30
0.0
 11
162.982
 21
125.678
 31
0.0
  0
LINE
  8
0
 62
     0
 10
162.982
 20
125.678
 30
0.0
 11
162.982
 21
122.579
 31
0.0
  0
LINE
  8
0
 62
     0
 10
162.982
 20
122.579
 30
0.0
 11
163.781
 21
122.579
 31
0.0
  0
LINE
  8
0
 62
     0
 10
163.781
 20
122.579
 30
0.0
 11
163.781
 21
116.779
 31
0.0
  0
LINE
  8
0
 62
     0
 10
163.781
 20
116.779
 30
0.0
 11
162.982
 21
116.779
 31
0.0
  0
LINE
  8
0
 62
     0
 10
162.982
 20
116.779
 30
0.0
 11
162.982
 21
113.678
 31
0.0
  0
LINE
  8
0
 62
     0
 10
162.982
 20
113.678
 30
0.0
 11
163.781
 21
113.678
 31
0.0
  0
LINE
  8
0
 62
     0
 10
163.781
 20
113.678
 30
0.0
 11
163.781
 21
112.679
 31
0.0
  0
LINE
  8
0
 62
     0
 10
163.781
 20
112.679
 30
0.0
 11
177.782
 21
112.679
 31
0.0
  0
LINE
  8
0
 62
     0
 10
177.782
 20
112.679
 30
0.0
 11
177.782
 21
113.678
 31
0.0
  0
LINE
  8
0
 62
     0
 10
177.782
 20
113.678
 30
0.0
 11
178.581
 21
113.678
 31
0.0
  0
LINE
  8
0
 62
     0
 10
178.581
 20
113.678
 30
0.0
 11
178.581
 21
116.779
 31
0.0
  0
LINE
  8
0
 62
     0
 10
178.581
 20
116.779
 30
0.0
 11
177.782
 21
116.779
 31
0.0
  0
LINE
  8
0
 62
     0
 10
177.782
 20
116.779
 30
0.0
 11
177.782
 21
122.579
 31
0.0
  0
LINE
  8
0
 62
     0
 10
177.782
 20
122.579
 30
0.0
 11
178.581
 21
122.579
 31
0.0
  0
LINE
  8
0
 62
     0
 10
178.581
 20
122.579
 30
0.0
 11
178.581
 21
125.678
 31
0.0
  0
LINE
  8
0
 62
     0
 10
178.581
 20
125.678
 30
0.0
 11
177.782
 21
125.678
 31
0.0
  0
LINE
  8
0
 62
     0
 10
177.782
 20
125.678
 30
0.0
 11
177.782
 21
126.679
 31
0.0
  0
LINE
  8
0
 62
     0
 10
177.782
 20
126.679
 30
0.0
 11
163.781
 21
126.679
 31
0.0
  0
LINE
  8
0
 62
     0
 10
63.7702
 20
129.157
 30
0.0
 11
63.7702
 21
128.156
 31
0.0
  0
LINE
  8
0
 62
     0
 10
63.7702
 20
128.156
 30
0.0
 11
62.9694
 21
128.156
 31
0.0
  0
LINE
  8
0
 62
     0
 10
62.9694
 20
128.156
 30
0.0
 11
62.9694
 21
125.055
 31
0.0
  0
LINE
  8
0
 62
     0
 10
62.9694
 20
125.055
 30
0.0
 11
63.7702
 21
125.055
 31
0.0
  0
LINE
  8
0
 62
     0
 10
63.7702
 20
125.055
 30
0.0
 11
63.7702
 21
119.255
 31
0.0
  0
LINE
  8
0
 62
     0
 10
63.7702
 20
119.255
 30
0.0
 11
62.9694
 21
119.255
 31
0.0
  0
LINE
  8
0
 62
     0
 10
62.9694
 20
119.255
 30
0.0
 11
62.9694
 21
116.156
 31
0.0
  0
LINE
  8
0
 62
     0
 10
62.9694
 20
116.156
 30
0.0
 11
63.7702
 21
116.156
 31
0.0
  0
LINE
  8
0
 62
     0
 10
63.7702
 20
116.156
 30
0.0
 11
63.7702
 21
115.156
 31
0.0
  0
LINE
  8
0
 62
     0
 10
63.7702
 20
115.156
 30
0.0
 11
77.7695
 21
115.156
 31
0.0
  0
LINE
  8
0
 62
     0
 10
77.7695
 20
115.156
 30
0.0
 11
77.7695
 21
116.156
 31
0.0
  0
LINE
  8
0
 62
     0
 10
77.7695
 20
116.156
 30
0.0
 11
78.5703
 21
116.156
 31
0.0
  0
LINE
  8
0
 62
     0
 10
78.5703
 20
116.156
 30
0.0
 11
78.5703
 21
119.255
 31
0.0
  0
LINE
  8
0
 62
     0
 10
78.5703
 20
119.255
 30
0.0
 11
77.7695
 21
119.255
 31
0.0
  0
LINE
  8
0
 62
     0
 10
77.7695
 20
119.255
 30
0.0
 11
77.7695
 21
125.055
 31
0.0
  0
LINE
  8
0
 62
     0
 10
77.7695
 20
125.055
 30
0.0
 11
78.5703
 21
125.055
 31
0.0
  0
LINE
  8
0
 62
     0
 10
78.5703
 20
125.055
 30
0.0
 11
78.5703
 21
128.156
 31
0.0
  0
LINE
  8
0
 62
     0
 10
78.5703
 20
128.156
 30
0.0
 11
77.7695
 21
128.156
 31
0.0
  0
LINE
  8
0
 62
     0
 10
77.7695
 20
128.156
 30
0.0
 11
77.7695
 21
129.157
 31
0.0
  0
LINE
  8
0
 62
     0
 10
77.7695
 20
129.157
 30
0.0
 11
63.7702
 21
129.157
 31
0.0
  0
LINE
  8
0
 62
     0
 10
82.8202
 20
131.441
 30
0.0
 11
82.8202
 21
130.442
 31
0.0
  0
LINE
  8
0
 62
     0
 10
82.8202
 20
130.442
 30
0.0
 11
82.0194
 21
130.442
 31
0.0
  0
LINE
  8
0
 62
     0
 10
82.0194
 20
130.442
 30
0.0
 11
82.0194
 21
127.342
 31
0.0
  0
LINE
  8
0
 62
     0
 10
82.0194
 20
127.342
 30
0.0
 11
82.8202
 21
127.342
 31
0.0
  0
LINE
  8
0
 62
     0
 10
82.8202
 20
127.342
 30
0.0
 11
82.8202
 21
121.541
 31
0.0
  0
LINE
  8
0
 62
     0
 10
82.8202
 20
121.541
 30
0.0
 11
82.0194
 21
121.541
 31
0.0
  0
LINE
  8
0
 62
     0
 10
82.0194
 20
121.541
 30
0.0
 11
82.0194
 21
118.442
 31
0.0
  0
LINE
  8
0
 62
     0
 10
82.0194
 20
118.442
 30
0.0
 11
82.8202
 21
118.442
 31
0.0
  0
LINE
  8
0
 62
     0
 10
82.8202
 20
118.442
 30
0.0
 11
82.8202
 21
117.442
 31
0.0
  0
LINE
  8
0
 62
     0
 10
82.8202
 20
117.442
 30
0.0
 11
96.8195
 21
117.442
 31
0.0
  0
LINE
  8
0
 62
     0
 10
96.8195
 20
117.442
 30
0.0
 11
96.8195
 21
118.442
 31
0.0
  0
LINE
  8
0
 62
     0
 10
96.8195
 20
118.442
 30
0.0
 11
97.6203
 21
118.442
 31
0.0
  0
LINE
  8
0
 62
     0
 10
97.6203
 20
118.442
 30
0.0
 11
97.6203
 21
121.541
 31
0.0
  0
LINE
  8
0
 62
     0
 10
97.6203
 20
121.541
 30
0.0
 11
96.8195
 21
121.541
 31
0.0
  0
LINE
  8
0
 62
     0
 10
96.8195
 20
121.541
 30
0.0
 11
96.8195
 21
127.342
 31
0.0
  0
LINE
  8
0
 62
     0
 10
96.8195
 20
127.342
 30
0.0
 11
97.6203
 21
127.342
 31
0.0
  0
LINE
  8
0
 62
     0
 10
97.6203
 20
127.342
 30
0.0
 11
97.6203
 21
130.442
 31
0.0
  0
LINE
  8
0
 62
     0
 10
97.6203
 20
130.442
 30
0.0
 11
96.8195
 21
130.442
 31
0.0
  0
LINE
  8
0
 62
     0
 10
96.8195
 20
130.442
 30
0.0
 11
96.8195
 21
131.441
 31
0.0
  0
LINE
  8
0
 62
     0
 10
96.8195
 20
131.441
 30
0.0
 11
82.8202
 21
131.441
 31
0.0
  0
LINE
  8
0
 62
     0
 10
120.92
 20
131.441
 30
0.0
 11
120.92
 21
130.442
 31
0.0
  0
LINE
  8
0
 62
     0
 10
120.92
 20
130.442
 30
0.0
 11
120.119
 21
130.442
 31
0.0
  0
LINE
  8
0
 62
     0
 10
120.119
 20
130.442
 30
0.0
 11
120.119
 21
127.342
 31
0.0
  0
LINE
  8
0
 62
     0
 10
120.119
 20
127.342
 30
0.0
 11
120.92
 21
127.342
 31
0.0
  0
LINE
  8
0
 62
     0
 10
120.92
 20
127.342
 30
0.0
 11
120.92
 21
121.541
 31
0.0
  0
LINE
  8
0
 62
     0
 10
120.92
 20
121.541
 30
0.0
 11
120.119
 21
121.541
 31
0.0
  0
LINE
  8
0
 62
     0
 10
120.119
 20
121.541
 30
0.0
 11
120.119
 21
118.442
 31
0.0
  0
LINE
  8
0
 62
     0
 10
120.119
 20
118.442
 30
0.0
 11
120.92
 21
118.442
 31
0.0
  0
LINE
  8
0
 62
     0
 10
120.92
 20
118.442
 30
0.0
 11
120.92
 21
117.442
 31
0.0
  0
LINE
  8
0
 62
     0
 10
120.92
 20
117.442
 30
0.0
 11
134.92
 21
117.442
 31
0.0
  0
LINE
  8
0
 62
     0
 10
134.92
 20
117.442
 30
0.0
 11
134.92
 21
118.442
 31
0.0
  0
LINE
  8
0
 62
     0
 10
134.92
 20
118.442
 30
0.0
 11
135.72
 21
118.442
 31
0.0
  0
LINE
  8
0
 62
     0
 10
135.72
 20
118.442
 30
0.0
 11
135.72
 21
121.541
 31
0.0
  0
LINE
  8
0
 62
     0
 10
135.72
 20
121.541
 30
0.0
 11
134.92
 21
121.541
 31
0.0
  0
LINE
  8
0
 62
     0
 10
134.92
 20
121.541
 30
0.0
 11
134.92
 21
127.342
 31
0.0
  0
LINE
  8
0
 62
     0
 10
134.92
 20
127.342
 30
0.0
 11
135.72
 21
127.342
 31
0.0
  0
LINE
  8
0
 62
     0
 10
135.72
 20
127.342
 30
0.0
 11
135.72
 21
130.442
 31
0.0
  0
LINE
  8
0
 62
     0
 10
135.72
 20
130.442
 30
0.0
 11
134.92
 21
130.442
 31
0.0
  0
LINE
  8
0
 62
     0
 10
134.92
 20
130.442
 30
0.0
 11
134.92
 21
131.441
 31
0.0
  0
LINE
  8
0
 62
     0
 10
134.92
 20
131.441
 30
0.0
 11
120.92
 21
131.441
 31
0.0
  0
LINE
  8
0
 62
     0
 10
45.7193
 20
134.718
 30
0.0
 11
45.7193
 21
133.918
 31
0.0
  0
LINE
  8
0
 62
     0
 10
45.7193
 20
133.918
 30
0.0
 11
44.7202
 21
133.918
 31
0.0
  0
LINE
  8
0
 62
     0
 10
44.7202
 20
133.918
 30
0.0
 11
44.7202
 21
119.918
 31
0.0
  0
LINE
  8
0
 62
     0
 10
44.7202
 20
119.918
 30
0.0
 11
45.7193
 21
119.918
 31
0.0
  0
LINE
  8
0
 62
     0
 10
45.7193
 20
119.918
 30
0.0
 11
45.7193
 21
119.118
 31
0.0
  0
LINE
  8
0
 62
     0
 10
45.7193
 20
119.118
 30
0.0
 11
48.8199
 21
119.118
 31
0.0
  0
LINE
  8
0
 62
     0
 10
48.8199
 20
119.118
 30
0.0
 11
48.8199
 21
119.918
 31
0.0
  0
LINE
  8
0
 62
     0
 10
48.8199
 20
119.918
 30
0.0
 11
54.6199
 21
119.918
 31
0.0
  0
LINE
  8
0
 62
     0
 10
54.6199
 20
119.918
 30
0.0
 11
54.6199
 21
119.118
 31
0.0
  0
LINE
  8
0
 62
     0
 10
54.6199
 20
119.118
 30
0.0
 11
57.719
 21
119.118
 31
0.0
  0
LINE
  8
0
 62
     0
 10
57.719
 20
119.118
 30
0.0
 11
57.719
 21
119.918
 31
0.0
  0
LINE
  8
0
 62
     0
 10
57.719
 20
119.918
 30
0.0
 11
58.7195
 21
119.918
 31
0.0
  0
LINE
  8
0
 62
     0
 10
58.7195
 20
119.918
 30
0.0
 11
58.7195
 21
133.918
 31
0.0
  0
LINE
  8
0
 62
     0
 10
58.7195
 20
133.918
 30
0.0
 11
57.719
 21
133.918
 31
0.0
  0
LINE
  8
0
 62
     0
 10
57.719
 20
133.918
 30
0.0
 11
57.719
 21
134.718
 31
0.0
  0
LINE
  8
0
 62
     0
 10
57.719
 20
134.718
 30
0.0
 11
54.6199
 21
134.718
 31
0.0
  0
LINE
  8
0
 62
     0
 10
54.6199
 20
134.718
 30
0.0
 11
54.6199
 21
133.918
 31
0.0
  0
LINE
  8
0
 62
     0
 10
54.6199
 20
133.918
 30
0.0
 11
48.8199
 21
133.918
 31
0.0
  0
LINE
  8
0
 62
     0
 10
48.8199
 20
133.918
 30
0.0
 11
48.8199
 21
134.718
 31
0.0
  0
LINE
  8
0
 62
     0
 10
48.8199
 20
134.718
 30
0.0
 11
45.7193
 21
134.718
 31
0.0
  0
LINE
  8
0
 62
     0
 10
101.87
 20
133.918
 30
0.0
 11
101.87
 21
132.919
 31
0.0
  0
LINE
  8
0
 62
     0
 10
101.87
 20
132.919
 30
0.0
 11
101.069
 21
132.919
 31
0.0
  0
LINE
  8
0
 62
     0
 10
101.069
 20
132.919
 30
0.0
 11
101.069
 21
129.818
 31
0.0
  0
LINE
  8
0
 62
     0
 10
101.069
 20
129.818
 30
0.0
 11
101.87
 21
129.818
 31
0.0
  0
LINE
  8
0
 62
     0
 10
101.87
 20
129.818
 30
0.0
 11
101.87
 21
124.018
 31
0.0
  0
LINE
  8
0
 62
     0
 10
101.87
 20
124.018
 30
0.0
 11
101.069
 21
124.018
 31
0.0
  0
LINE
  8
0
 62
     0
 10
101.069
 20
124.018
 30
0.0
 11
101.069
 21
120.919
 31
0.0
  0
LINE
  8
0
 62
     0
 10
101.069
 20
120.919
 30
0.0
 11
101.87
 21
120.919
 31
0.0
  0
LINE
  8
0
 62
     0
 10
101.87
 20
120.919
 30
0.0
 11
101.87
 21
119.918
 31
0.0
  0
LINE
  8
0
 62
     0
 10
101.87
 20
119.918
 30
0.0
 11
115.87
 21
119.918
 31
0.0
  0
LINE
  8
0
 62
     0
 10
115.87
 20
119.918
 30
0.0
 11
115.87
 21
120.919
 31
0.0
  0
LINE
  8
0
 62
     0
 10
115.87
 20
120.919
 30
0.0
 11
116.67
 21
120.919
 31
0.0
  0
LINE
  8
0
 62
     0
 10
116.67
 20
120.919
 30
0.0
 11
116.67
 21
124.018
 31
0.0
  0
LINE
  8
0
 62
     0
 10
116.67
 20
124.018
 30
0.0
 11
115.87
 21
124.018
 31
0.0
  0
LINE
  8
0
 62
     0
 10
115.87
 20
124.018
 30
0.0
 11
115.87
 21
129.818
 31
0.0
  0
LINE
  8
0
 62
     0
 10
115.87
 20
129.818
 30
0.0
 11
116.67
 21
129.818
 31
0.0
  0
LINE
  8
0
 62
     0
 10
116.67
 20
129.818
 30
0.0
 11
116.67
 21
132.919
 31
0.0
  0
LINE
  8
0
 62
     0
 10
116.67
 20
132.919
 30
0.0
 11
115.87
 21
132.919
 31
0.0
  0
LINE
  8
0
 62
     0
 10
115.87
 20
132.919
 30
0.0
 11
115.87
 21
133.918
 31
0.0
  0
LINE
  8
0
 62
     0
 10
115.87
 20
133.918
 30
0.0
 11
101.87
 21
133.918
 31
0.0
  0
LINE
  8
0
 62
     0
 10
139.97
 20
145.729
 30
0.0
 11
139.97
 21
144.728
 31
0.0
  0
LINE
  8
0
 62
     0
 10
139.97
 20
144.728
 30
0.0
 11
139.169
 21
144.728
 31
0.0
  0
LINE
  8
0
 62
     0
 10
139.169
 20
144.728
 30
0.0
 11
139.169
 21
141.629
 31
0.0
  0
LINE
  8
0
 62
     0
 10
139.169
 20
141.629
 30
0.0
 11
139.97
 21
141.629
 31
0.0
  0
LINE
  8
0
 62
     0
 10
139.97
 20
141.629
 30
0.0
 11
139.97
 21
135.829
 31
0.0
  0
LINE
  8
0
 62
     0
 10
139.97
 20
135.829
 30
0.0
 11
139.169
 21
135.829
 31
0.0
  0
LINE
  8
0
 62
     0
 10
139.169
 20
135.829
 30
0.0
 11
139.169
 21
132.728
 31
0.0
  0
LINE
  8
0
 62
     0
 10
139.169
 20
132.728
 30
0.0
 11
139.97
 21
132.728
 31
0.0
  0
LINE
  8
0
 62
     0
 10
139.97
 20
132.728
 30
0.0
 11
139.97
 21
131.729
 31
0.0
  0
LINE
  8
0
 62
     0
 10
139.97
 20
131.729
 30
0.0
 11
153.97
 21
131.729
 31
0.0
  0
LINE
  8
0
 62
     0
 10
153.97
 20
131.729
 30
0.0
 11
153.97
 21
132.728
 31
0.0
  0
LINE
  8
0
 62
     0
 10
153.97
 20
132.728
 30
0.0
 11
154.77
 21
132.728
 31
0.0
  0
LINE
  8
0
 62
     0
 10
154.77
 20
132.728
 30
0.0
 11
154.77
 21
135.829
 31
0.0
  0
LINE
  8
0
 62
     0
 10
154.77
 20
135.829
 30
0.0
 11
153.97
 21
135.829
 31
0.0
  0
LINE
  8
0
 62
     0
 10
153.97
 20
135.829
 30
0.0
 11
153.97
 21
141.629
 31
0.0
  0
LINE
  8
0
 62
     0
 10
153.97
 20
141.629
 30
0.0
 11
154.77
 21
141.629
 31
0.0
  0
LINE
  8
0
 62
     0
 10
154.77
 20
141.629
 30
0.0
 11
154.77
 21
144.728
 31
0.0
  0
LINE
  8
0
 62
     0
 10
154.77
 20
144.728
 30
0.0
 11
153.97
 21
144.728
 31
0.0
  0
LINE
  8
0
 62
     0
 10
153.97
 20
144.728
 30
0.0
 11
153.97
 21
145.729
 31
0.0
  0
LINE
  8
0
 62
     0
 10
153.97
 20
145.729
 30
0.0
 11
139.97
 21
145.729
 31
0.0
  0
LINE
  8
0
 62
     0
 10
163.781
 20
145.729
 30
0.0
 11
163.781
 21
144.728
 31
0.0
  0
LINE
  8
0
 62
     0
 10
163.781
 20
144.728
 30
0.0
 11
162.982
 21
144.728
 31
0.0
  0
LINE
  8
0
 62
     0
 10
162.982
 20
144.728
 30
0.0
 11
162.982
 21
141.629
 31
0.0
  0
LINE
  8
0
 62
     0
 10
162.982
 20
141.629
 30
0.0
 11
163.781
 21
141.629
 31
0.0
  0
LINE
  8
0
 62
     0
 10
163.781
 20
141.629
 30
0.0
 11
163.781
 21
135.829
 31
0.0
  0
LINE
  8
0
 62
     0
 10
163.781
 20
135.829
 30
0.0
 11
162.982
 21
135.829
 31
0.0
  0
LINE
  8
0
 62
     0
 10
162.982
 20
135.829
 30
0.0
 11
162.982
 21
132.728
 31
0.0
  0
LINE
  8
0
 62
     0
 10
162.982
 20
132.728
 30
0.0
 11
163.781
 21
132.728
 31
0.0
  0
LINE
  8
0
 62
     0
 10
163.781
 20
132.728
 30
0.0
 11
163.781
 21
131.729
 31
0.0
  0
LINE
  8
0
 62
     0
 10
163.781
 20
131.729
 30
0.0
 11
177.782
 21
131.729
 31
0.0
  0
LINE
  8
0
 62
     0
 10
177.782
 20
131.729
 30
0.0
 11
177.782
 21
132.728
 31
0.0
  0
LINE
  8
0
 62
     0
 10
177.782
 20
132.728
 30
0.0
 11
178.581
 21
132.728
 31
0.0
  0
LINE
  8
0
 62
     0
 10
178.581
 20
132.728
 30
0.0
 11
178.581
 21
135.829
 31
0.0
  0
LINE
  8
0
 62
     0
 10
178.581
 20
135.829
 30
0.0
 11
177.782
 21
135.829
 31
0.0
  0
LINE
  8
0
 62
     0
 10
177.782
 20
135.829
 30
0.0
 11
177.782
 21
141.629
 31
0.0
  0
LINE
  8
0
 62
     0
 10
177.782
 20
141.629
 30
0.0
 11
178.581
 21
141.629
 31
0.0
  0
LINE
  8
0
 62
     0
 10
178.581
 20
141.629
 30
0.0
 11
178.581
 21
144.728
 31
0.0
  0
LINE
  8
0
 62
     0
 10
178.581
 20
144.728
 30
0.0
 11
177.782
 21
144.728
 31
0.0
  0
LINE
  8
0
 62
     0
 10
177.782
 20
144.728
 30
0.0
 11
177.782
 21
145.729
 31
0.0
  0
LINE
  8
0
 62
     0
 10
177.782
 20
145.729
 30
0.0
 11
163.781
 21
145.729
 31
0.0
  0
LINE
  8
0
 62
     0
 10
63.7702
 20
148.207
 30
0.0
 11
63.7702
 21
147.206
 31
0.0
  0
LINE
  8
0
 62
     0
 10
63.7702
 20
147.206
 30
0.0
 11
62.9694
 21
147.206
 31
0.0
  0
LINE
  8
0
 62
     0
 10
62.9694
 20
147.206
 30
0.0
 11
62.9694
 21
144.105
 31
0.0
  0
LINE
  8
0
 62
     0
 10
62.9694
 20
144.105
 30
0.0
 11
63.7702
 21
144.105
 31
0.0
  0
LINE
  8
0
 62
     0
 10
63.7702
 20
144.105
 30
0.0
 11
63.7702
 21
138.305
 31
0.0
  0
LINE
  8
0
 62
     0
 10
63.7702
 20
138.305
 30
0.0
 11
62.9694
 21
138.305
 31
0.0
  0
LINE
  8
0
 62
     0
 10
62.9694
 20
138.305
 30
0.0
 11
62.9694
 21
135.206
 31
0.0
  0
LINE
  8
0
 62
     0
 10
62.9694
 20
135.206
 30
0.0
 11
63.7702
 21
135.206
 31
0.0
  0
LINE
  8
0
 62
     0
 10
63.7702
 20
135.206
 30
0.0
 11
63.7702
 21
134.206
 31
0.0
  0
LINE
  8
0
 62
     0
 10
63.7702
 20
134.206
 30
0.0
 11
77.7695
 21
134.206
 31
0.0
  0
LINE
  8
0
 62
     0
 10
77.7695
 20
134.206
 30
0.0
 11
77.7695
 21
135.206
 31
0.0
  0
LINE
  8
0
 62
     0
 10
77.7695
 20
135.206
 30
0.0
 11
78.5703
 21
135.206
 31
0.0
  0
LINE
  8
0
 62
     0
 10
78.5703
 20
135.206
 30
0.0
 11
78.5703
 21
138.305
 31
0.0
  0
LINE
  8
0
 62
     0
 10
78.5703
 20
138.305
 30
0.0
 11
77.7695
 21
138.305
 31
0.0
  0
LINE
  8
0
 62
     0
 10
77.7695
 20
138.305
 30
0.0
 11
77.7695
 21
144.105
 31
0.0
  0
LINE
  8
0
 62
     0
 10
77.7695
 20
144.105
 30
0.0
 11
78.5703
 21
144.105
 31
0.0
  0
LINE
  8
0
 62
     0
 10
78.5703
 20
144.105
 30
0.0
 11
78.5703
 21
147.206
 31
0.0
  0
LINE
  8
0
 62
     0
 10
78.5703
 20
147.206
 30
0.0
 11
77.7695
 21
147.206
 31
0.0
  0
LINE
  8
0
 62
     0
 10
77.7695
 20
147.206
 30
0.0
 11
77.7695
 21
148.207
 31
0.0
  0
LINE
  8
0
 62
     0
 10
77.7695
 20
148.207
 30
0.0
 11
63.7702
 21
148.207
 31
0.0
  0
LINE
  8
0
 62
     0
 10
82.8202
 20
150.491
 30
0.0
 11
82.8202
 21
149.492
 31
0.0
  0
LINE
  8
0
 62
     0
 10
82.8202
 20
149.492
 30
0.0
 11
82.0194
 21
149.492
 31
0.0
  0
LINE
  8
0
 62
     0
 10
82.0194
 20
149.492
 30
0.0
 11
82.0194
 21
146.392
 31
0.0
  0
LINE
  8
0
 62
     0
 10
82.0194
 20
146.392
 30
0.0
 11
82.8202
 21
146.392
 31
0.0
  0
LINE
  8
0
 62
     0
 10
82.8202
 20
146.392
 30
0.0
 11
82.8202
 21
140.591
 31
0.0
  0
LINE
  8
0
 62
     0
 10
82.8202
 20
140.591
 30
0.0
 11
82.0194
 21
140.591
 31
0.0
  0
LINE
  8
0
 62
     0
 10
82.0194
 20
140.591
 30
0.0
 11
82.0194
 21
137.492
 31
0.0
  0
LINE
  8
0
 62
     0
 10
82.0194
 20
137.492
 30
0.0
 11
82.8202
 21
137.492
 31
0.0
  0
LINE
  8
0
 62
     0
 10
82.8202
 20
137.492
 30
0.0
 11
82.8202
 21
136.492
 31
0.0
  0
LINE
  8
0
 62
     0
 10
82.8202
 20
136.492
 30
0.0
 11
96.8195
 21
136.492
 31
0.0
  0
LINE
  8
0
 62
     0
 10
96.8195
 20
136.492
 30
0.0
 11
96.8195
 21
137.492
 31
0.0
  0
LINE
  8
0
 62
     0
 10
96.8195
 20
137.492
 30
0.0
 11
97.6203
 21
137.492
 31
0.0
  0
LINE
  8
0
 62
     0
 10
97.6203
 20
137.492
 30
0.0
 11
97.6203
 21
140.591
 31
0.0
  0
LINE
  8
0
 62
     0
 10
97.6203
 20
140.591
 30
0.0
 11
96.8195
 21
140.591
 31
0.0
  0
LINE
  8
0
 62
     0
 10
96.8195
 20
140.591
 30
0.0
 11
96.8195
 21
146.392
 31
0.0
  0
LINE
  8
0
 62
     0
 10
96.8195
 20
146.392
 30
0.0
 11
97.6203
 21
146.392
 31
0.0
  0
LINE
  8
0
 62
     0
 10
97.6203
 20
146.392
 30
0.0
 11
97.6203
 21
149.492
 31
0.0
  0
LINE
  8
0
 62
     0
 10
97.6203
 20
149.492
 30
0.0
 11
96.8195
 21
149.492
 31
0.0
  0
LINE
  8
0
 62
     0
 10
96.8195
 20
149.492
 30
0.0
 11
96.8195
 21
150.491
 31
0.0
  0
LINE
  8
0
 62
     0
 10
96.8195
 20
150.491
 30
0.0
 11
82.8202
 21
150.491
 31
0.0
  0
LINE
  8
0
 62
     0
 10
120.92
 20
150.491
 30
0.0
 11
120.92
 21
149.492
 31
0.0
  0
LINE
  8
0
 62
     0
 10
120.92
 20
149.492
 30
0.0
 11
120.119
 21
149.492
 31
0.0
  0
LINE
  8
0
 62
     0
 10
120.119
 20
149.492
 30
0.0
 11
120.119
 21
146.392
 31
0.0
  0
LINE
  8
0
 62
     0
 10
120.119
 20
146.392
 30
0.0
 11
120.92
 21
146.392
 31
0.0
  0
LINE
  8
0
 62
     0
 10
120.92
 20
146.392
 30
0.0
 11
120.92
 21
140.591
 31
0.0
  0
LINE
  8
0
 62
     0
 10
120.92
 20
140.591
 30
0.0
 11
120.119
 21
140.591
 31
0.0
  0
LINE
  8
0
 62
     0
 10
120.119
 20
140.591
 30
0.0
 11
120.119
 21
137.492
 31
0.0
  0
LINE
  8
0
 62
     0
 10
120.119
 20
137.492
 30
0.0
 11
120.92
 21
137.492
 31
0.0
  0
LINE
  8
0
 62
     0
 10
120.92
 20
137.492
 30
0.0
 11
120.92
 21
136.492
 31
0.0
  0
LINE
  8
0
 62
     0
 10
120.92
 20
136.492
 30
0.0
 11
134.92
 21
136.492
 31
0.0
  0
LINE
  8
0
 62
     0
 10
134.92
 20
136.492
 30
0.0
 11
134.92
 21
137.492
 31
0.0
  0
LINE
  8
0
 62
     0
 10
134.92
 20
137.492
 30
0.0
 11
135.72
 21
137.492
 31
0.0
  0
LINE
  8
0
 62
     0
 10
135.72
 20
137.492
 30
0.0
 11
135.72
 21
140.591
 31
0.0
  0
LINE
  8
0
 62
     0
 10
135.72
 20
140.591
 30
0.0
 11
134.92
 21
140.591
 31
0.0
  0
LINE
  8
0
 62
     0
 10
134.92
 20
140.591
 30
0.0
 11
134.92
 21
146.392
 31
0.0
  0
LINE
  8
0
 62
     0
 10
134.92
 20
146.392
 30
0.0
 11
135.72
 21
146.392
 31
0.0
  0
LINE
  8
0
 62
     0
 10
135.72
 20
146.392
 30
0.0
 11
135.72
 21
149.492
 31
0.0
  0
LINE
  8
0
 62
     0
 10
135.72
 20
149.492
 30
0.0
 11
134.92
 21
149.492
 31
0.0
  0
LINE
  8
0
 62
     0
 10
134.92
 20
149.492
 30
0.0
 11
134.92
 21
150.491
 31
0.0
  0
LINE
  8
0
 62
     0
 10
134.92
 20
150.491
 30
0.0
 11
120.92
 21
150.491
 31
0.0
  0
LINE
  8
0
 62
     0
 10
101.87
 20
152.968
 30
0.0
 11
101.87
 21
151.969
 31
0.0
  0
LINE
  8
0
 62
     0
 10
101.87
 20
151.969
 30
0.0
 11
101.069
 21
151.969
 31
0.0
  0
LINE
  8
0
 62
     0
 10
101.069
 20
151.969
 30
0.0
 11
101.069
 21
148.868
 31
0.0
  0
LINE
  8
0
 62
     0
 10
101.069
 20
148.868
 30
0.0
 11
101.87
 21
148.868
 31
0.0
  0
LINE
  8
0
 62
     0
 10
101.87
 20
148.868
 30
0.0
 11
101.87
 21
143.068
 31
0.0
  0
LINE
  8
0
 62
     0
 10
101.87
 20
143.068
 30
0.0
 11
101.069
 21
143.068
 31
0.0
  0
LINE
  8
0
 62
     0
 10
101.069
 20
143.068
 30
0.0
 11
101.069
 21
139.969
 31
0.0
  0
LINE
  8
0
 62
     0
 10
101.069
 20
139.969
 30
0.0
 11
101.87
 21
139.969
 31
0.0
  0
LINE
  8
0
 62
     0
 10
101.87
 20
139.969
 30
0.0
 11
101.87
 21
138.968
 31
0.0
  0
LINE
  8
0
 62
     0
 10
101.87
 20
138.968
 30
0.0
 11
115.87
 21
138.968
 31
0.0
  0
LINE
  8
0
 62
     0
 10
115.87
 20
138.968
 30
0.0
 11
115.87
 21
139.969
 31
0.0
  0
LINE
  8
0
 62
     0
 10
115.87
 20
139.969
 30
0.0
 11
116.67
 21
139.969
 31
0.0
  0
LINE
  8
0
 62
     0
 10
116.67
 20
139.969
 30
0.0
 11
116.67
 21
143.068
 31
0.0
  0
LINE
  8
0
 62
     0
 10
116.67
 20
143.068
 30
0.0
 11
115.87
 21
143.068
 31
0.0
  0
LINE
  8
0
 62
     0
 10
115.87
 20
143.068
 30
0.0
 11
115.87
 21
148.868
 31
0.0
  0
LINE
  8
0
 62
     0
 10
115.87
 20
148.868
 30
0.0
 11
116.67
 21
148.868
 31
0.0
  0
LINE
  8
0
 62
     0
 10
116.67
 20
148.868
 30
0.0
 11
116.67
 21
151.969
 31
0.0
  0
LINE
  8
0
 62
     0
 10
116.67
 20
151.969
 30
0.0
 11
115.87
 21
151.969
 31
0.0
  0
LINE
  8
0
 62
     0
 10
115.87
 20
151.969
 30
0.0
 11
115.87
 21
152.968
 31
0.0
  0
LINE
  8
0
 62
     0
 10
115.87
 20
152.968
 30
0.0
 11
101.87
 21
152.968
 31
0.0
  0
LINE
  8
0
 62
     0
 10
45.7193
 20
163.293
 30
0.0
 11
45.7193
 21
162.493
 31
0.0
  0
LINE
  8
0
 62
     0
 10
45.7193
 20
162.493
 30
0.0
 11
44.7202
 21
162.493
 31
0.0
  0
LINE
  8
0
 62
     0
 10
44.7202
 20
162.493
 30
0.0
 11
44.7202
 21
148.493
 31
0.0
  0
LINE
  8
0
 62
     0
 10
44.7202
 20
148.493
 30
0.0
 11
45.7193
 21
148.493
 31
0.0
  0
LINE
  8
0
 62
     0
 10
45.7193
 20
148.493
 30
0.0
 11
45.7193
 21
147.693
 31
0.0
  0
LINE
  8
0
 62
     0
 10
45.7193
 20
147.693
 30
0.0
 11
48.8199
 21
147.693
 31
0.0
  0
LINE
  8
0
 62
     0
 10
48.8199
 20
147.693
 30
0.0
 11
48.8199
 21
148.493
 31
0.0
  0
LINE
  8
0
 62
     0
 10
48.8199
 20
148.493
 30
0.0
 11
54.6199
 21
148.493
 31
0.0
  0
LINE
  8
0
 62
     0
 10
54.6199
 20
148.493
 30
0.0
 11
54.6199
 21
147.693
 31
0.0
  0
LINE
  8
0
 62
     0
 10
54.6199
 20
147.693
 30
0.0
 11
57.719
 21
147.693
 31
0.0
  0
LINE
  8
0
 62
     0
 10
57.719
 20
147.693
 30
0.0
 11
57.719
 21
148.493
 31
0.0
  0
LINE
  8
0
 62
     0
 10
57.719
 20
148.493
 30
0.0
 11
58.7195
 21
148.493
 31
0.0
  0
LINE
  8
0
 62
     0
 10
58.7195
 20
148.493
 30
0.0
 11
58.7195
 21
162.493
 31
0.0
  0
LINE
  8
0
 62
     0
 10
58.7195
 20
162.493
 30
0.0
 11
57.719
 21
162.493
 31
0.0
  0
LINE
  8
0
 62
     0
 10
57.719
 20
162.493
 30
0.0
 11
57.719
 21
163.293
 31
0.0
  0
LINE
  8
0
 62
     0
 10
57.719
 20
163.293
 30
0.0
 11
54.6199
 21
163.293
 31
0.0
  0
LINE
  8
0
 62
     0
 10
54.6199
 20
163.293
 30
0.0
 11
54.6199
 21
162.493
 31
0.0
  0
LINE
  8
0
 62
     0
 10
54.6199
 20
162.493
 30
0.0
 11
48.8199
 21
162.493
 31
0.0
  0
LINE
  8
0
 62
     0
 10
48.8199
 20
162.493
 30
0.0
 11
48.8199
 21
163.293
 31
0.0
  0
LINE
  8
0
 62
     0
 10
48.8199
 20
163.293
 30
0.0
 11
45.7193
 21
163.293
 31
0.0
  0
LINE
  8
0
 62
     0
 10
139.97
 20
164.779
 30
0.0
 11
139.97
 21
163.778
 31
0.0
  0
LINE
  8
0
 62
     0
 10
139.97
 20
163.778
 30
0.0
 11
139.169
 21
163.778
 31
0.0
  0
LINE
  8
0
 62
     0
 10
139.169
 20
163.778
 30
0.0
 11
139.169
 21
160.679
 31
0.0
  0
LINE
  8
0
 62
     0
 10
139.169
 20
160.679
 30
0.0
 11
139.97
 21
160.679
 31
0.0
  0
LINE
  8
0
 62
     0
 10
139.97
 20
160.679
 30
0.0
 11
139.97
 21
154.879
 31
0.0
  0
LINE
  8
0
 62
     0
 10
139.97
 20
154.879
 30
0.0
 11
139.169
 21
154.879
 31
0.0
  0
LINE
  8
0
 62
     0
 10
139.169
 20
154.879
 30
0.0
 11
139.169
 21
151.778
 31
0.0
  0
LINE
  8
0
 62
     0
 10
139.169
 20
151.778
 30
0.0
 11
139.97
 21
151.778
 31
0.0
  0
LINE
  8
0
 62
     0
 10
139.97
 20
151.778
 30
0.0
 11
139.97
 21
150.779
 31
0.0
  0
LINE
  8
0
 62
     0
 10
139.97
 20
150.779
 30
0.0
 11
153.97
 21
150.779
 31
0.0
  0
LINE
  8
0
 62
     0
 10
153.97
 20
150.779
 30
0.0
 11
153.97
 21
151.778
 31
0.0
  0
LINE
  8
0
 62
     0
 10
153.97
 20
151.778
 30
0.0
 11
154.77
 21
151.778
 31
0.0
  0
LINE
  8
0
 62
     0
 10
154.77
 20
151.778
 30
0.0
 11
154.77
 21
154.879
 31
0.0
  0
LINE
  8
0
 62
     0
 10
154.77
 20
154.879
 30
0.0
 11
153.97
 21
154.879
 31
0.0
  0
LINE
  8
0
 62
     0
 10
153.97
 20
154.879
 30
0.0
 11
153.97
 21
160.679
 31
0.0
  0
LINE
  8
0
 62
     0
 10
153.97
 20
160.679
 30
0.0
 11
154.77
 21
160.679
 31
0.0
  0
LINE
  8
0
 62
     0
 10
154.77
 20
160.679
 30
0.0
 11
154.77
 21
163.778
 31
0.0
  0
LINE
  8
0
 62
     0
 10
154.77
 20
163.778
 30
0.0
 11
153.97
 21
163.778
 31
0.0
  0
LINE
  8
0
 62
     0
 10
153.97
 20
163.778
 30
0.0
 11
153.97
 21
164.779
 31
0.0
  0
LINE
  8
0
 62
     0
 10
153.97
 20
164.779
 30
0.0
 11
139.97
 21
164.779
 31
0.0
  0
LINE
  8
0
 62
     0
 10
163.781
 20
164.779
 30
0.0
 11
163.781
 21
163.778
 31
0.0
  0
LINE
  8
0
 62
     0
 10
163.781
 20
163.778
 30
0.0
 11
162.982
 21
163.778
 31
0.0
  0
LINE
  8
0
 62
     0
 10
162.982
 20
163.778
 30
0.0
 11
162.982
 21
160.679
 31
0.0
  0
LINE
  8
0
 62
     0
 10
162.982
 20
160.679
 30
0.0
 11
163.781
 21
160.679
 31
0.0
  0
LINE
  8
0
 62
     0
 10
163.781
 20
160.679
 30
0.0
 11
163.781
 21
154.879
 31
0.0
  0
LINE
  8
0
 62
     0
 10
163.781
 20
154.879
 30
0.0
 11
162.982
 21
154.879
 31
0.0
  0
LINE
  8
0
 62
     0
 10
162.982
 20
154.879
 30
0.0
 11
162.982
 21
151.778
 31
0.0
  0
LINE
  8
0
 62
     0
 10
162.982
 20
151.778
 30
0.0
 11
163.781
 21
151.778
 31
0.0
  0
LINE
  8
0
 62
     0
 10
163.781
 20
151.778
 30
0.0
 11
163.781
 21
150.779
 31
0.0
  0
LINE
  8
0
 62
     0
 10
163.781
 20
150.779
 30
0.0
 11
177.782
 21
150.779
 31
0.0
  0
LINE
  8
0
 62
     0
 10
177.782
 20
150.779
 30
0.0
 11
177.782
 21
151.778
 31
0.0
  0
LINE
  8
0
 62
     0
 10
177.782
 20
151.778
 30
0.0
 11
178.581
 21
151.778
 31
0.0
  0
LINE
  8
0
 62
     0
 10
178.581
 20
151.778
 30
0.0
 11
178.581
 21
154.879
 31
0.0
  0
LINE
  8
0
 62
     0
 10
178.581
 20
154.879
 30
0.0
 11
177.782
 21
154.879
 31
0.0
  0
LINE
  8
0
 62
     0
 10
177.782
 20
154.879
 30
0.0
 11
177.782
 21
160.679
 31
0.0
  0
LINE
  8
0
 62
     0
 10
177.782
 20
160.679
 30
0.0
 11
178.581
 21
160.679
 31
0.0
  0
LINE
  8
0
 62
     0
 10
178.581
 20
160.679
 30
0.0
 11
178.581
 21
163.778
 31
0.0
  0
LINE
  8
0
 62
     0
 10
178.581
 20
163.778
 30
0.0
 11
177.782
 21
163.778
 31
0.0
  0
LINE
  8
0
 62
     0
 10
177.782
 20
163.778
 30
0.0
 11
177.782
 21
164.779
 31
0.0
  0
LINE
  8
0
 62
     0
 10
177.782
 20
164.779
 30
0.0
 11
163.781
 21
164.779
 31
0.0
  0
LINE
  8
0
 62
     0
 10
63.7702
 20
167.257
 30
0.0
 11
63.7702
 21
166.256
 31
0.0
  0
LINE
  8
0
 62
     0
 10
63.7702
 20
166.256
 30
0.0
 11
62.9694
 21
166.256
 31
0.0
  0
LINE
  8
0
 62
     0
 10
62.9694
 20
166.256
 30
0.0
 11
62.9694
 21
163.155
 31
0.0
  0
LINE
  8
0
 62
     0
 10
62.9694
 20
163.155
 30
0.0
 11
63.7702
 21
163.155
 31
0.0
  0
LINE
  8
0
 62
     0
 10
63.7702
 20
163.155
 30
0.0
 11
63.7702
 21
157.355
 31
0.0
  0
LINE
  8
0
 62
     0
 10
63.7702
 20
157.355
 30
0.0
 11
62.9694
 21
157.355
 31
0.0
  0
LINE
  8
0
 62
     0
 10
62.9694
 20
157.355
 30
0.0
 11
62.9694
 21
154.256
 31
0.0
  0
LINE
  8
0
 62
     0
 10
62.9694
 20
154.256
 30
0.0
 11
63.7702
 21
154.256
 31
0.0
  0
LINE
  8
0
 62
     0
 10
63.7702
 20
154.256
 30
0.0
 11
63.7702
 21
153.256
 31
0.0
  0
LINE
  8
0
 62
     0
 10
63.7702
 20
153.256
 30
0.0
 11
77.7695
 21
153.256
 31
0.0
  0
LINE
  8
0
 62
     0
 10
77.7695
 20
153.256
 30
0.0
 11
77.7695
 21
154.256
 31
0.0
  0
LINE
  8
0
 62
     0
 10
77.7695
 20
154.256
 30
0.0
 11
78.5703
 21
154.256
 31
0.0
  0
LINE
  8
0
 62
     0
 10
78.5703
 20
154.256
 30
0.0
 11
78.5703
 21
157.355
 31
0.0
  0
LINE
  8
0
 62
     0
 10
78.5703
 20
157.355
 30
0.0
 11
77.7695
 21
157.355
 31
0.0
  0
LINE
  8
0
 62
     0
 10
77.7695
 20
157.355
 30
0.0
 11
77.7695
 21
163.155
 31
0.0
  0
LINE
  8
0
 62
     0
 10
77.7695
 20
163.155
 30
0.0
 11
78.5703
 21
163.155
 31
0.0
  0
LINE
  8
0
 62
     0
 10
78.5703
 20
163.155
 30
0.0
 11
78.5703
 21
166.256
 31
0.0
  0
LINE
  8
0
 62
     0
 10
78.5703
 20
166.256
 30
0.0
 11
77.7695
 21
166.256
 31
0.0
  0
LINE
  8
0
 62
     0
 10
77.7695
 20
166.256
 30
0.0
 11
77.7695
 21
167.257
 31
0.0
  0
LINE
  8
0
 62
     0
 10
77.7695
 20
167.257
 30
0.0
 11
63.7702
 21
167.257
 31
0.0
  0
LINE
  8
0
 62
     0
 10
82.8202
 20
169.541
 30
0.0
 11
82.8202
 21
168.542
 31
0.0
  0
LINE
  8
0
 62
     0
 10
82.8202
 20
168.542
 30
0.0
 11
82.0194
 21
168.542
 31
0.0
  0
LINE
  8
0
 62
     0
 10
82.0194
 20
168.542
 30
0.0
 11
82.0194
 21
165.442
 31
0.0
  0
LINE
  8
0
 62
     0
 10
82.0194
 20
165.442
 30
0.0
 11
82.8202
 21
165.442
 31
0.0
  0
LINE
  8
0
 62
     0
 10
82.8202
 20
165.442
 30
0.0
 11
82.8202
 21
159.641
 31
0.0
  0
LINE
  8
0
 62
     0
 10
82.8202
 20
159.641
 30
0.0
 11
82.0194
 21
159.641
 31
0.0
  0
LINE
  8
0
 62
     0
 10
82.0194
 20
159.641
 30
0.0
 11
82.0194
 21
156.542
 31
0.0
  0
LINE
  8
0
 62
     0
 10
82.0194
 20
156.542
 30
0.0
 11
82.8202
 21
156.542
 31
0.0
  0
LINE
  8
0
 62
     0
 10
82.8202
 20
156.542
 30
0.0
 11
82.8202
 21
155.542
 31
0.0
  0
LINE
  8
0
 62
     0
 10
82.8202
 20
155.542
 30
0.0
 11
96.8195
 21
155.542
 31
0.0
  0
LINE
  8
0
 62
     0
 10
96.8195
 20
155.542
 30
0.0
 11
96.8195
 21
156.542
 31
0.0
  0
LINE
  8
0
 62
     0
 10
96.8195
 20
156.542
 30
0.0
 11
97.6203
 21
156.542
 31
0.0
  0
LINE
  8
0
 62
     0
 10
97.6203
 20
156.542
 30
0.0
 11
97.6203
 21
159.641
 31
0.0
  0
LINE
  8
0
 62
     0
 10
97.6203
 20
159.641
 30
0.0
 11
96.8195
 21
159.641
 31
0.0
  0
LINE
  8
0
 62
     0
 10
96.8195
 20
159.641
 30
0.0
 11
96.8195
 21
165.442
 31
0.0
  0
LINE
  8
0
 62
     0
 10
96.8195
 20
165.442
 30
0.0
 11
97.6203
 21
165.442
 31
0.0
  0
LINE
  8
0
 62
     0
 10
97.6203
 20
165.442
 30
0.0
 11
97.6203
 21
168.542
 31
0.0
  0
LINE
  8
0
 62
     0
 10
97.6203
 20
168.542
 30
0.0
 11
96.8195
 21
168.542
 31
0.0
  0
LINE
  8
0
 62
     0
 10
96.8195
 20
168.542
 30
0.0
 11
96.8195
 21
169.541
 31
0.0
  0
LINE
  8
0
 62
     0
 10
96.8195
 20
169.541
 30
0.0
 11
82.8202
 21
169.541
 31
0.0
  0
LINE
  8
0
 62
     0
 10
120.92
 20
169.541
 30
0.0
 11
120.92
 21
168.542
 31
0.0
  0
LINE
  8
0
 62
     0
 10
120.92
 20
168.542
 30
0.0
 11
120.119
 21
168.542
 31
0.0
  0
LINE
  8
0
 62
     0
 10
120.119
 20
168.542
 30
0.0
 11
120.119
 21
165.442
 31
0.0
  0
LINE
  8
0
 62
     0
 10
120.119
 20
165.442
 30
0.0
 11
120.92
 21
165.442
 31
0.0
  0
LINE
  8
0
 62
     0
 10
120.92
 20
165.442
 30
0.0
 11
120.92
 21
159.641
 31
0.0
  0
LINE
  8
0
 62
     0
 10
120.92
 20
159.641
 30
0.0
 11
120.119
 21
159.641
 31
0.0
  0
LINE
  8
0
 62
     0
 10
120.119
 20
159.641
 30
0.0
 11
120.119
 21
156.542
 31
0.0
  0
LINE
  8
0
 62
     0
 10
120.119
 20
156.542
 30
0.0
 11
120.92
 21
156.542
 31
0.0
  0
LINE
  8
0
 62
     0
 10
120.92
 20
156.542
 30
0.0
 11
120.92
 21
155.542
 31
0.0
  0
LINE
  8
0
 62
     0
 10
120.92
 20
155.542
 30
0.0
 11
134.92
 21
155.542
 31
0.0
  0
LINE
  8
0
 62
     0
 10
134.92
 20
155.542
 30
0.0
 11
134.92
 21
156.542
 31
0.0
  0
LINE
  8
0
 62
     0
 10
134.92
 20
156.542
 30
0.0
 11
135.72
 21
156.542
 31
0.0
  0
LINE
  8
0
 62
     0
 10
135.72
 20
156.542
 30
0.0
 11
135.72
 21
159.641
 31
0.0
  0
LINE
  8
0
 62
     0
 10
135.72
 20
159.641
 30
0.0
 11
134.92
 21
159.641
 31
0.0
  0
LINE
  8
0
 62
     0
 10
134.92
 20
159.641
 30
0.0
 11
134.92
 21
165.442
 31
0.0
  0
LINE
  8
0
 62
     0
 10
134.92
 20
165.442
 30
0.0
 11
135.72
 21
165.442
 31
0.0
  0
LINE
  8
0
 62
     0
 10
135.72
 20
165.442
 30
0.0
 11
135.72
 21
168.542
 31
0.0
  0
LINE
  8
0
 62
     0
 10
135.72
 20
168.542
 30
0.0
 11
134.92
 21
168.542
 31
0.0
  0
LINE
  8
0
 62
     0
 10
134.92
 20
168.542
 30
0.0
 11
134.92
 21
169.541
 31
0.0
  0
LINE
  8
0
 62
     0
 10
134.92
 20
169.541
 30
0.0
 11
120.92
 21
169.541
 31
0.0
  0
LINE
  8
0
 62
     0
 10
101.87
 20
172.018
 30
0.0
 11
101.87
 21
171.019
 31
0.0
  0
LINE
  8
0
 62
     0
 10
101.87
 20
171.019
 30
0.0
 11
101.069
 21
171.019
 31
0.0
  0
LINE
  8
0
 62
     0
 10
101.069
 20
171.019
 30
0.0
 11
101.069
 21
167.918
 31
0.0
  0
LINE
  8
0
 62
     0
 10
101.069
 20
167.918
 30
0.0
 11
101.87
 21
167.918
 31
0.0
  0
LINE
  8
0
 62
     0
 10
101.87
 20
167.918
 30
0.0
 11
101.87
 21
162.118
 31
0.0
  0
LINE
  8
0
 62
     0
 10
101.87
 20
162.118
 30
0.0
 11
101.069
 21
162.118
 31
0.0
  0
LINE
  8
0
 62
     0
 10
101.069
 20
162.118
 30
0.0
 11
101.069
 21
159.019
 31
0.0
  0
LINE
  8
0
 62
     0
 10
101.069
 20
159.019
 30
0.0
 11
101.87
 21
159.019
 31
0.0
  0
LINE
  8
0
 62
     0
 10
101.87
 20
159.019
 30
0.0
 11
101.87
 21
158.018
 31
0.0
  0
LINE
  8
0
 62
     0
 10
101.87
 20
158.018
 30
0.0
 11
115.87
 21
158.018
 31
0.0
  0
LINE
  8
0
 62
     0
 10
115.87
 20
158.018
 30
0.0
 11
115.87
 21
159.019
 31
0.0
  0
LINE
  8
0
 62
     0
 10
115.87
 20
159.019
 30
0.0
 11
116.67
 21
159.019
 31
0.0
  0
LINE
  8
0
 62
     0
 10
116.67
 20
159.019
 30
0.0
 11
116.67
 21
162.118
 31
0.0
  0
LINE
  8
0
 62
     0
 10
116.67
 20
162.118
 30
0.0
 11
115.87
 21
162.118
 31
0.0
  0
LINE
  8
0
 62
     0
 10
115.87
 20
162.118
 30
0.0
 11
115.87
 21
167.918
 31
0.0
  0
LINE
  8
0
 62
     0
 10
115.87
 20
167.918
 30
0.0
 11
116.67
 21
167.918
 31
0.0
  0
LINE
  8
0
 62
     0
 10
116.67
 20
167.918
 30
0.0
 11
116.67
 21
171.019
 31
0.0
  0
LINE
  8
0
 62
     0
 10
116.67
 20
171.019
 30
0.0
 11
115.87
 21
171.019
 31
0.0
  0
LINE
  8
0
 62
     0
 10
115.87
 20
171.019
 30
0.0
 11
115.87
 21
172.018
 31
0.0
  0
LINE
  8
0
 62
     0
 10
115.87
 20
172.018
 30
0.0
 11
101.87
 21
172.018
 31
0.0
  0
LINE
  8
0
 62
     0
 10
139.97
 20
183.829
 30
0.0
 11
139.97
 21
182.829
 31
0.0
  0
LINE
  8
0
 62
     0
 10
139.97
 20
182.829
 30
0.0
 11
139.169
 21
182.829
 31
0.0
  0
LINE
  8
0
 62
     0
 10
139.169
 20
182.829
 30
0.0
 11
139.169
 21
179.729
 31
0.0
  0
LINE
  8
0
 62
     0
 10
139.169
 20
179.729
 30
0.0
 11
139.97
 21
179.729
 31
0.0
  0
LINE
  8
0
 62
     0
 10
139.97
 20
179.729
 30
0.0
 11
139.97
 21
173.929
 31
0.0
  0
LINE
  8
0
 62
     0
 10
139.97
 20
173.929
 30
0.0
 11
139.169
 21
173.929
 31
0.0
  0
LINE
  8
0
 62
     0
 10
139.169
 20
173.929
 30
0.0
 11
139.169
 21
170.828
 31
0.0
  0
LINE
  8
0
 62
     0
 10
139.169
 20
170.828
 30
0.0
 11
139.97
 21
170.828
 31
0.0
  0
LINE
  8
0
 62
     0
 10
139.97
 20
170.828
 30
0.0
 11
139.97
 21
169.829
 31
0.0
  0
LINE
  8
0
 62
     0
 10
139.97
 20
169.829
 30
0.0
 11
153.97
 21
169.829
 31
0.0
  0
LINE
  8
0
 62
     0
 10
153.97
 20
169.829
 30
0.0
 11
153.97
 21
170.828
 31
0.0
  0
LINE
  8
0
 62
     0
 10
153.97
 20
170.828
 30
0.0
 11
154.77
 21
170.828
 31
0.0
  0
LINE
  8
0
 62
     0
 10
154.77
 20
170.828
 30
0.0
 11
154.77
 21
173.929
 31
0.0
  0
LINE
  8
0
 62
     0
 10
154.77
 20
173.929
 30
0.0
 11
153.97
 21
173.929
 31
0.0
  0
LINE
  8
0
 62
     0
 10
153.97
 20
173.929
 30
0.0
 11
153.97
 21
179.729
 31
0.0
  0
LINE
  8
0
 62
     0
 10
153.97
 20
179.729
 30
0.0
 11
154.77
 21
179.729
 31
0.0
  0
LINE
  8
0
 62
     0
 10
154.77
 20
179.729
 30
0.0
 11
154.77
 21
182.829
 31
0.0
  0
LINE
  8
0
 62
     0
 10
154.77
 20
182.829
 30
0.0
 11
153.97
 21
182.829
 31
0.0
  0
LINE
  8
0
 62
     0
 10
153.97
 20
182.829
 30
0.0
 11
153.97
 21
183.829
 31
0.0
  0
LINE
  8
0
 62
     0
 10
153.97
 20
183.829
 30
0.0
 11
139.97
 21
183.829
 31
0.0
  0
LINE
  8
0
 62
     0
 10
163.781
 20
183.829
 30
0.0
 11
163.781
 21
182.829
 31
0.0
  0
LINE
  8
0
 62
     0
 10
163.781
 20
182.829
 30
0.0
 11
162.982
 21
182.829
 31
0.0
  0
LINE
  8
0
 62
     0
 10
162.982
 20
182.829
 30
0.0
 11
162.982
 21
179.729
 31
0.0
  0
LINE
  8
0
 62
     0
 10
162.982
 20
179.729
 30
0.0
 11
163.781
 21
179.729
 31
0.0
  0
LINE
  8
0
 62
     0
 10
163.781
 20
179.729
 30
0.0
 11
163.781
 21
173.929
 31
0.0
  0
LINE
  8
0
 62
     0
 10
163.781
 20
173.929
 30
0.0
 11
162.982
 21
173.929
 31
0.0
  0
LINE
  8
0
 62
     0
 10
162.982
 20
173.929
 30
0.0
 11
162.982
 21
170.828
 31
0.0
  0
LINE
  8
0
 62
     0
 10
162.982
 20
170.828
 30
0.0
 11
163.781
 21
170.828
 31
0.0
  0
LINE
  8
0
 62
     0
 10
163.781
 20
170.828
 30
0.0
 11
163.781
 21
169.829
 31
0.0
  0
LINE
  8
0
 62
     0
 10
163.781
 20
169.829
 30
0.0
 11
177.782
 21
169.829
 31
0.0
  0
LINE
  8
0
 62
     0
 10
177.782
 20
169.829
 30
0.0
 11
177.782
 21
170.828
 31
0.0
  0
LINE
  8
0
 62
     0
 10
177.782
 20
170.828
 30
0.0
 11
178.581
 21
170.828
 31
0.0
  0
LINE
  8
0
 62
     0
 10
178.581
 20
170.828
 30
0.0
 11
178.581
 21
173.929
 31
0.0
  0
LINE
  8
0
 62
     0
 10
178.581
 20
173.929
 30
0.0
 11
177.782
 21
173.929
 31
0.0
  0
LINE
  8
0
 62
     0
 10
177.782
 20
173.929
 30
0.0
 11
177.782
 21
179.729
 31
0.0
  0
LINE
  8
0
 62
     0
 10
177.782
 20
179.729
 30
0.0
 11
178.581
 21
179.729
 31
0.0
  0
LINE
  8
0
 62
     0
 10
178.581
 20
179.729
 30
0.0
 11
178.581
 21
182.829
 31
0.0
  0
LINE
  8
0
 62
     0
 10
178.581
 20
182.829
 30
0.0
 11
177.782
 21
182.829
 31
0.0
  0
LINE
  8
0
 62
     0
 10
177.782
 20
182.829
 30
0.0
 11
177.782
 21
183.829
 31
0.0
  0
LINE
  8
0
 62
     0
 10
177.782
 20
183.829
 30
0.0
 11
163.781
 21
183.829
 31
0.0
  0
LINE
  8
0
 62
     0
 10
44.7202
 20
186.307
 30
0.0
 11
44.7202
 21
185.306
 31
0.0
  0
LINE
  8
0
 62
     0
 10
44.7202
 20
185.306
 30
0.0
 11
43.9194
 21
185.306
 31
0.0
  0
LINE
  8
0
 62
     0
 10
43.9194
 20
185.306
 30
0.0
 11
43.9194
 21
182.205
 31
0.0
  0
LINE
  8
0
 62
     0
 10
43.9194
 20
182.205
 30
0.0
 11
44.7202
 21
182.205
 31
0.0
  0
LINE
  8
0
 62
     0
 10
44.7202
 20
182.205
 30
0.0
 11
44.7202
 21
176.405
 31
0.0
  0
LINE
  8
0
 62
     0
 10
44.7202
 20
176.405
 30
0.0
 11
43.9194
 21
176.405
 31
0.0
  0
LINE
  8
0
 62
     0
 10
43.9194
 20
176.405
 30
0.0
 11
43.9194
 21
173.306
 31
0.0
  0
LINE
  8
0
 62
     0
 10
43.9194
 20
173.306
 30
0.0
 11
44.7202
 21
173.306
 31
0.0
  0
LINE
  8
0
 62
     0
 10
44.7202
 20
173.306
 30
0.0
 11
44.7202
 21
172.306
 31
0.0
  0
LINE
  8
0
 62
     0
 10
44.7202
 20
172.306
 30
0.0
 11
58.7195
 21
172.306
 31
0.0
  0
LINE
  8
0
 62
     0
 10
58.7195
 20
172.306
 30
0.0
 11
58.7195
 21
173.306
 31
0.0
  0
LINE
  8
0
 62
     0
 10
58.7195
 20
173.306
 30
0.0
 11
59.5203
 21
173.306
 31
0.0
  0
LINE
  8
0
 62
     0
 10
59.5203
 20
173.306
 30
0.0
 11
59.5203
 21
176.405
 31
0.0
  0
LINE
  8
0
 62
     0
 10
59.5203
 20
176.405
 30
0.0
 11
58.7195
 21
176.405
 31
0.0
  0
LINE
  8
0
 62
     0
 10
58.7195
 20
176.405
 30
0.0
 11
58.7195
 21
182.205
 31
0.0
  0
LINE
  8
0
 62
     0
 10
58.7195
 20
182.205
 30
0.0
 11
59.5203
 21
182.205
 31
0.0
  0
LINE
  8
0
 62
     0
 10
59.5203
 20
182.205
 30
0.0
 11
59.5203
 21
185.306
 31
0.0
  0
LINE
  8
0
 62
     0
 10
59.5203
 20
185.306
 30
0.0
 11
58.7195
 21
185.306
 31
0.0
  0
LINE
  8
0
 62
     0
 10
58.7195
 20
185.306
 30
0.0
 11
58.7195
 21
186.307
 31
0.0
  0
LINE
  8
0
 62
     0
 10
58.7195
 20
186.307
 30
0.0
 11
44.7202
 21
186.307
 31
0.0
  0
LINE
  8
0
 62
     0
 10
63.7702
 20
186.307
 30
0.0
 11
63.7702
 21
185.306
 31
0.0
  0
LINE
  8
0
 62
     0
 10
63.7702
 20
185.306
 30
0.0
 11
62.9694
 21
185.306
 31
0.0
  0
LINE
  8
0
 62
     0
 10
62.9694
 20
185.306
 30
0.0
 11
62.9694
 21
182.205
 31
0.0
  0
LINE
  8
0
 62
     0
 10
62.9694
 20
182.205
 30
0.0
 11
63.7702
 21
182.205
 31
0.0
  0
LINE
  8
0
 62
     0
 10
63.7702
 20
182.205
 30
0.0
 11
63.7702
 21
176.405
 31
0.0
  0
LINE
  8
0
 62
     0
 10
63.7702
 20
176.405
 30
0.0
 11
62.9694
 21
176.405
 31
0.0
  0
LINE
  8
0
 62
     0
 10
62.9694
 20
176.405
 30
0.0
 11
62.9694
 21
173.306
 31
0.0
  0
LINE
  8
0
 62
     0
 10
62.9694
 20
173.306
 30
0.0
 11
63.7702
 21
173.306
 31
0.0
  0
LINE
  8
0
 62
     0
 10
63.7702
 20
173.306
 30
0.0
 11
63.7702
 21
172.306
 31
0.0
  0
LINE
  8
0
 62
     0
 10
63.7702
 20
172.306
 30
0.0
 11
77.7695
 21
172.306
 31
0.0
  0
LINE
  8
0
 62
     0
 10
77.7695
 20
172.306
 30
0.0
 11
77.7695
 21
173.306
 31
0.0
  0
LINE
  8
0
 62
     0
 10
77.7695
 20
173.306
 30
0.0
 11
78.5703
 21
173.306
 31
0.0
  0
LINE
  8
0
 62
     0
 10
78.5703
 20
173.306
 30
0.0
 11
78.5703
 21
176.405
 31
0.0
  0
LINE
  8
0
 62
     0
 10
78.5703
 20
176.405
 30
0.0
 11
77.7695
 21
176.405
 31
0.0
  0
LINE
  8
0
 62
     0
 10
77.7695
 20
176.405
 30
0.0
 11
77.7695
 21
182.205
 31
0.0
  0
LINE
  8
0
 62
     0
 10
77.7695
 20
182.205
 30
0.0
 11
78.5703
 21
182.205
 31
0.0
  0
LINE
  8
0
 62
     0
 10
78.5703
 20
182.205
 30
0.0
 11
78.5703
 21
185.306
 31
0.0
  0
LINE
  8
0
 62
     0
 10
78.5703
 20
185.306
 30
0.0
 11
77.7695
 21
185.306
 31
0.0
  0
LINE
  8
0
 62
     0
 10
77.7695
 20
185.306
 30
0.0
 11
77.7695
 21
186.307
 31
0.0
  0
LINE
  8
0
 62
     0
 10
77.7695
 20
186.307
 30
0.0
 11
63.7702
 21
186.307
 31
0.0
  0
LINE
  8
0
 62
     0
 10
82.8202
 20
188.591
 30
0.0
 11
82.8202
 21
187.592
 31
0.0
  0
LINE
  8
0
 62
     0
 10
82.8202
 20
187.592
 30
0.0
 11
82.0194
 21
187.592
 31
0.0
  0
LINE
  8
0
 62
     0
 10
82.0194
 20
187.592
 30
0.0
 11
82.0194
 21
184.492
 31
0.0
  0
LINE
  8
0
 62
     0
 10
82.0194
 20
184.492
 30
0.0
 11
82.8202
 21
184.492
 31
0.0
  0
LINE
  8
0
 62
     0
 10
82.8202
 20
184.492
 30
0.0
 11
82.8202
 21
178.691
 31
0.0
  0
LINE
  8
0
 62
     0
 10
82.8202
 20
178.691
 30
0.0
 11
82.0194
 21
178.691
 31
0.0
  0
LINE
  8
0
 62
     0
 10
82.0194
 20
178.691
 30
0.0
 11
82.0194
 21
175.592
 31
0.0
  0
LINE
  8
0
 62
     0
 10
82.0194
 20
175.592
 30
0.0
 11
82.8202
 21
175.592
 31
0.0
  0
LINE
  8
0
 62
     0
 10
82.8202
 20
175.592
 30
0.0
 11
82.8202
 21
174.592
 31
0.0
  0
LINE
  8
0
 62
     0
 10
82.8202
 20
174.592
 30
0.0
 11
96.8195
 21
174.592
 31
0.0
  0
LINE
  8
0
 62
     0
 10
96.8195
 20
174.592
 30
0.0
 11
96.8195
 21
175.592
 31
0.0
  0
LINE
  8
0
 62
     0
 10
96.8195
 20
175.592
 30
0.0
 11
97.6203
 21
175.592
 31
0.0
  0
LINE
  8
0
 62
     0
 10
97.6203
 20
175.592
 30
0.0
 11
97.6203
 21
178.691
 31
0.0
  0
LINE
  8
0
 62
     0
 10
97.6203
 20
178.691
 30
0.0
 11
96.8195
 21
178.691
 31
0.0
  0
LINE
  8
0
 62
     0
 10
96.8195
 20
178.691
 30
0.0
 11
96.8195
 21
184.492
 31
0.0
  0
LINE
  8
0
 62
     0
 10
96.8195
 20
184.492
 30
0.0
 11
97.6203
 21
184.492
 31
0.0
  0
LINE
  8
0
 62
     0
 10
97.6203
 20
184.492
 30
0.0
 11
97.6203
 21
187.592
 31
0.0
  0
LINE
  8
0
 62
     0
 10
97.6203
 20
187.592
 30
0.0
 11
96.8195
 21
187.592
 31
0.0
  0
LINE
  8
0
 62
     0
 10
96.8195
 20
187.592
 30
0.0
 11
96.8195
 21
188.591
 31
0.0
  0
LINE
  8
0
 62
     0
 10
96.8195
 20
188.591
 30
0.0
 11
82.8202
 21
188.591
 31
0.0
  0
LINE
  8
0
 62
     0
 10
120.92
 20
188.591
 30
0.0
 11
120.92
 21
187.592
 31
0.0
  0
LINE
  8
0
 62
     0
 10
120.92
 20
187.592
 30
0.0
 11
120.119
 21
187.592
 31
0.0
  0
LINE
  8
0
 62
     0
 10
120.119
 20
187.592
 30
0.0
 11
120.119
 21
184.492
 31
0.0
  0
LINE
  8
0
 62
     0
 10
120.119
 20
184.492
 30
0.0
 11
120.92
 21
184.492
 31
0.0
  0
LINE
  8
0
 62
     0
 10
120.92
 20
184.492
 30
0.0
 11
120.92
 21
178.691
 31
0.0
  0
LINE
  8
0
 62
     0
 10
120.92
 20
178.691
 30
0.0
 11
120.119
 21
178.691
 31
0.0
  0
LINE
  8
0
 62
     0
 10
120.119
 20
178.691
 30
0.0
 11
120.119
 21
175.592
 31
0.0
  0
LINE
  8
0
 62
     0
 10
120.119
 20
175.592
 30
0.0
 11
120.92
 21
175.592
 31
0.0
  0
LINE
  8
0
 62
     0
 10
120.92
 20
175.592
 30
0.0
 11
120.92
 21
174.592
 31
0.0
  0
LINE
  8
0
 62
     0
 10
120.92
 20
174.592
 30
0.0
 11
134.92
 21
174.592
 31
0.0
  0
LINE
  8
0
 62
     0
 10
134.92
 20
174.592
 30
0.0
 11
134.92
 21
175.592
 31
0.0
  0
LINE
  8
0
 62
     0
 10
134.92
 20
175.592
 30
0.0
 11
135.72
 21
175.592
 31
0.0
  0
LINE
  8
0
 62
     0
 10
135.72
 20
175.592
 30
0.0
 11
135.72
 21
178.691
 31
0.0
  0
LINE
  8
0
 62
     0
 10
135.72
 20
178.691
 30
0.0
 11
134.92
 21
178.691
 31
0.0
  0
LINE
  8
0
 62
     0
 10
134.92
 20
178.691
 30
0.0
 11
134.92
 21
184.492
 31
0.0
  0
LINE
  8
0
 62
     0
 10
134.92
 20
184.492
 30
0.0
 11
135.72
 21
184.492
 31
0.0
  0
LINE
  8
0
 62
     0
 10
135.72
 20
184.492
 30
0.0
 11
135.72
 21
187.592
 31
0.0
  0
LINE
  8
0
 62
     0
 10
135.72
 20
187.592
 30
0.0
 11
134.92
 21
187.592
 31
0.0
  0
LINE
  8
0
 62
     0
 10
134.92
 20
187.592
 30
0.0
 11
134.92
 21
188.591
 31
0.0
  0
LINE
  8
0
 62
     0
 10
134.92
 20
188.591
 30
0.0
 11
120.92
 21
188.591
 31
0.0
  0
LINE
  8
0
 62
     0
 10
101.87
 20
191.069
 30
0.0
 11
101.87
 21
190.069
 31
0.0
  0
LINE
  8
0
 62
     0
 10
101.87
 20
190.069
 30
0.0
 11
101.069
 21
190.069
 31
0.0
  0
LINE
  8
0
 62
     0
 10
101.069
 20
190.069
 30
0.0
 11
101.069
 21
186.969
 31
0.0
  0
LINE
  8
0
 62
     0
 10
101.069
 20
186.969
 30
0.0
 11
101.87
 21
186.969
 31
0.0
  0
LINE
  8
0
 62
     0
 10
101.87
 20
186.969
 30
0.0
 11
101.87
 21
181.169
 31
0.0
  0
LINE
  8
0
 62
     0
 10
101.87
 20
181.169
 30
0.0
 11
101.069
 21
181.169
 31
0.0
  0
LINE
  8
0
 62
     0
 10
101.069
 20
181.169
 30
0.0
 11
101.069
 21
178.069
 31
0.0
  0
LINE
  8
0
 62
     0
 10
101.069
 20
178.069
 30
0.0
 11
101.87
 21
178.069
 31
0.0
  0
LINE
  8
0
 62
     0
 10
101.87
 20
178.069
 30
0.0
 11
101.87
 21
177.068
 31
0.0
  0
LINE
  8
0
 62
     0
 10
101.87
 20
177.068
 30
0.0
 11
115.87
 21
177.068
 31
0.0
  0
LINE
  8
0
 62
     0
 10
115.87
 20
177.068
 30
0.0
 11
115.87
 21
178.069
 31
0.0
  0
LINE
  8
0
 62
     0
 10
115.87
 20
178.069
 30
0.0
 11
116.67
 21
178.069
 31
0.0
  0
LINE
  8
0
 62
     0
 10
116.67
 20
178.069
 30
0.0
 11
116.67
 21
181.169
 31
0.0
  0
LINE
  8
0
 62
     0
 10
116.67
 20
181.169
 30
0.0
 11
115.87
 21
181.169
 31
0.0
  0
LINE
  8
0
 62
     0
 10
115.87
 20
181.169
 30
0.0
 11
115.87
 21
186.969
 31
0.0
  0
LINE
  8
0
 62
     0
 10
115.87
 20
186.969
 30
0.0
 11
116.67
 21
186.969
 31
0.0
  0
LINE
  8
0
 62
     0
 10
116.67
 20
186.969
 30
0.0
 11
116.67
 21
190.069
 31
0.0
  0
LINE
  8
0
 62
     0
 10
116.67
 20
190.069
 30
0.0
 11
115.87
 21
190.069
 31
0.0
  0
LINE
  8
0
 62
     0
 10
115.87
 20
190.069
 30
0.0
 11
115.87
 21
191.069
 31
0.0
  0
LINE
  8
0
 62
     0
 10
115.87
 20
191.069
 30
0.0
 11
101.87
 21
191.069
 31
0.0
  0
LINE
  8
0
 62
     0
 10
94.1186
 20
197.019
 30
0.0
 11
93.701
 21
196.807
 31
0.0
  0
LINE
  8
0
 62
     0
 10
93.701
 20
196.807
 30
0.0
 11
93.369
 21
196.475
 31
0.0
  0
LINE
  8
0
 62
     0
 10
93.369
 20
196.475
 30
0.0
 11
93.1556
 21
196.058
 31
0.0
  0
LINE
  8
0
 62
     0
 10
93.1556
 20
196.058
 30
0.0
 11
93.0822
 21
195.593
 31
0.0
  0
LINE
  8
0
 62
     0
 10
93.0822
 20
195.593
 30
0.0
 11
93.1556
 21
195.13
 31
0.0
  0
LINE
  8
0
 62
     0
 10
93.1556
 20
195.13
 30
0.0
 11
93.369
 21
194.713
 31
0.0
  0
LINE
  8
0
 62
     0
 10
93.369
 20
194.713
 30
0.0
 11
93.701
 21
194.381
 31
0.0
  0
LINE
  8
0
 62
     0
 10
93.701
 20
194.381
 30
0.0
 11
94.1186
 21
194.167
 31
0.0
  0
LINE
  8
0
 62
     0
 10
94.1186
 20
194.167
 30
0.0
 11
94.5829
 21
194.093
 31
0.0
  0
LINE
  8
0
 62
     0
 10
94.5829
 20
194.093
 30
0.0
 11
95.0461
 21
194.167
 31
0.0
  0
LINE
  8
0
 62
     0
 10
95.0461
 20
194.167
 30
0.0
 11
95.4634
 21
194.381
 31
0.0
  0
LINE
  8
0
 62
     0
 10
95.4634
 20
194.381
 30
0.0
 11
95.7957
 21
194.713
 31
0.0
  0
LINE
  8
0
 62
     0
 10
95.7957
 20
194.713
 30
0.0
 11
96.0092
 21
195.13
 31
0.0
  0
LINE
  8
0
 62
     0
 10
96.0092
 20
195.13
 30
0.0
 11
96.0822
 21
195.593
 31
0.0
  0
LINE
  8
0
 62
     0
 10
96.0822
 20
195.593
 30
0.0
 11
96.0092
 21
196.058
 31
0.0
  0
LINE
  8
0
 62
     0
 10
96.0092
 20
196.058
 30
0.0
 11
95.7957
 21
196.475
 31
0.0
  0
LINE
  8
0
 62
     0
 10
95.7957
 20
196.475
 30
0.0
 11
95.4634
 21
196.807
 31
0.0
  0
LINE
  8
0
 62
     0
 10
95.4634
 20
196.807
 30
0.0
 11
95.0461
 21
197.019
 31
0.0
  0
LINE
  8
0
 62
     0
 10
95.0461
 20
197.019
 30
0.0
 11
94.5829
 21
197.093
 31
0.0
  0
LINE
  8
0
 62
     0
 10
94.5829
 20
197.093
 30
0.0
 11
94.1186
 21
197.019
 31
0.0
  0
LINE
  8
0
 62
     0
 10
186.607
 20
197.019
 30
0.0
 11
186.188
 21
196.807
 31
0.0
  0
LINE
  8
0
 62
     0
 10
186.188
 20
196.807
 30
0.0
 11
185.857
 21
196.475
 31
0.0
  0
LINE
  8
0
 62
     0
 10
185.857
 20
196.475
 30
0.0
 11
185.644
 21
196.058
 31
0.0
  0
LINE
  8
0
 62
     0
 10
185.644
 20
196.058
 30
0.0
 11
185.569
 21
195.593
 31
0.0
  0
LINE
  8
0
 62
     0
 10
185.569
 20
195.593
 30
0.0
 11
185.644
 21
195.13
 31
0.0
  0
LINE
  8
0
 62
     0
 10
185.644
 20
195.13
 30
0.0
 11
185.857
 21
194.713
 31
0.0
  0
LINE
  8
0
 62
     0
 10
185.857
 20
194.713
 30
0.0
 11
186.188
 21
194.381
 31
0.0
  0
LINE
  8
0
 62
     0
 10
186.188
 20
194.381
 30
0.0
 11
186.607
 21
194.167
 31
0.0
  0
LINE
  8
0
 62
     0
 10
186.607
 20
194.167
 30
0.0
 11
187.07
 21
194.093
 31
0.0
  0
LINE
  8
0
 62
     0
 10
187.07
 20
194.093
 30
0.0
 11
187.533
 21
194.167
 31
0.0
  0
LINE
  8
0
 62
     0
 10
187.533
 20
194.167
 30
0.0
 11
187.952
 21
194.381
 31
0.0
  0
LINE
  8
0
 62
     0
 10
187.952
 20
194.381
 30
0.0
 11
188.284
 21
194.713
 31
0.0
  0
LINE
  8
0
 62
     0
 10
188.284
 20
194.713
 30
0.0
 11
188.496
 21
195.13
 31
0.0
  0
LINE
  8
0
 62
     0
 10
188.496
 20
195.13
 30
0.0
 11
188.571
 21
195.593
 31
0.0
  0
LINE
  8
0
 62
     0
 10
188.571
 20
195.593
 30
0.0
 11
188.496
 21
196.058
 31
0.0
  0
LINE
  8
0
 62
     0
 10
188.496
 20
196.058
 30
0.0
 11
188.284
 21
196.475
 31
0.0
  0
LINE
  8
0
 62
     0
 10
188.284
 20
196.475
 30
0.0
 11
187.952
 21
196.807
 31
0.0
  0
LINE
  8
0
 62
     0
 10
187.952
 20
196.807
 30
0.0
 11
187.533
 21
197.019
 31
0.0
  0
LINE
  8
0
 62
     0
 10
187.533
 20
197.019
 30
0.0
 11
187.07
 21
197.093
 31
0.0
  0
LINE
  8
0
 62
     0
 10
187.07
 20
197.093
 30
0.0
 11
186.607
 21
197.019
 31
0.0
  0
LINE
  8
0
 62
     0
 10
1.63022
 20
197.019
 30
0.0
 11
1.21267
 21
196.807
 31
0.0
  0
LINE
  8
0
 62
     0
 10
1.21267
 20
196.807
 30
0.0
 11
0.880565
 21
196.475
 31
0.0
  0
LINE
  8
0
 62
     0
 10
0.880565
 20
196.475
 30
0.0
 11
0.668348
 21
196.058
 31
0.0
  0
LINE
  8
0
 62
     0
 10
0.668348
 20
196.058
 30
0.0
 11
0.593933
 21
195.593
 31
0.0
  0
LINE
  8
0
 62
     0
 10
0.593933
 20
195.593
 30
0.0
 11
0.668348
 21
195.13
 31
0.0
  0
LINE
  8
0
 62
     0
 10
0.668348
 20
195.13
 30
0.0
 11
0.880565
 21
194.713
 31
0.0
  0
LINE
  8
0
 62
     0
 10
0.880565
 20
194.713
 30
0.0
 11
1.21267
 21
194.381
 31
0.0
  0
LINE
  8
0
 62
     0
 10
1.21267
 20
194.381
 30
0.0
 11
1.63022
 21
194.167
 31
0.0
  0
LINE
  8
0
 62
     0
 10
1.63022
 20
194.167
 30
0.0
 11
2.09462
 21
194.093
 31
0.0
  0
LINE
  8
0
 62
     0
 10
2.09462
 20
194.093
 30
0.0
 11
2.55764
 21
194.167
 31
0.0
  0
LINE
  8
0
 62
     0
 10
2.55764
 20
194.167
 30
0.0
 11
2.97518
 21
194.381
 31
0.0
  0
LINE
  8
0
 62
     0
 10
2.97518
 20
194.381
 30
0.0
 11
3.30729
 21
194.713
 31
0.0
  0
LINE
  8
0
 62
     0
 10
3.30729
 20
194.713
 30
0.0
 11
3.52089
 21
195.13
 31
0.0
  0
LINE
  8
0
 62
     0
 10
3.52089
 20
195.13
 30
0.0
 11
3.5953
 21
195.593
 31
0.0
  0
LINE
  8
0
 62
     0
 10
3.5953
 20
195.593
 30
0.0
 11
3.52089
 21
196.058
 31
0.0
  0
LINE
  8
0
 62
     0
 10
3.52089
 20
196.058
 30
0.0
 11
3.30729
 21
196.475
 31
0.0
  0
LINE
  8
0
 62
     0
 10
3.30729
 20
196.475
 30
0.0
 11
2.97518
 21
196.807
 31
0.0
  0
LINE
  8
0
 62
     0
 10
2.97518
 20
196.807
 30
0.0
 11
2.55764
 21
197.019
 31
0.0
  0
LINE
  8
0
 62
     0
 10
2.55764
 20
197.019
 30
0.0
 11
2.09462
 21
197.093
 31
0.0
  0
LINE
  8
0
 62
     0
 10
2.09462
 20
197.093
 30
0.0
 11
1.63022
 21
197.019
 31
0.0
  0
ENDSEC
  0
EOF
