  0
SECTION
  2
HEADER
  9
$ACADVER
  1
AC1009
  9
$EXTMIN
 10
0.0
 20
0.0
 30
0.0
  9
$EXTMAX
 10
1000.0
 20
1000.0
 30
0.0
  9
$FILLMODE
 70
 0
  9
$SPLFRAME
 70
 1
  0
ENDSEC
  0
SECTION
  2
TABLES
  0
TABLE
  2
LAYER
 70
1
  0
LAYER
  2
0
 70
     0
 62
     7
  6
CONTINUOUS
  0
ENDTAB
  0
ENDSEC
  0
SECTION
  2
ENTITIES
  0
LINE
  8
0
 62
     0
 10
186.071
 20
197.593
 30
0.0
 11
186.305
 21
197.584
 31
0.0
  0
LINE
  8
0
 62
     0
 10
186.305
 20
197.584
 30
0.0
 11
186.539
 21
197.557
 31
0.0
  0
LINE
  8
0
 62
     0
 10
186.539
 20
197.557
 30
0.0
 11
186.771
 21
197.511
 31
0.0
  0
LINE
  8
0
 62
     0
 10
186.771
 20
197.511
 30
0.0
 11
186.998
 21
197.447
 31
0.0
  0
LINE
  8
0
 62
     0
 10
186.998
 20
197.447
 30
0.0
 11
187.219
 21
197.365
 31
0.0
  0
LINE
  8
0
 62
     0
 10
187.219
 20
197.365
 30
0.0
 11
187.431
 21
197.268
 31
0.0
  0
LINE
  8
0
 62
     0
 10
187.431
 20
197.268
 30
0.0
 11
187.638
 21
197.151
 31
0.0
  0
LINE
  8
0
 62
     0
 10
187.638
 20
197.151
 30
0.0
 11
187.833
 21
197.021
 31
0.0
  0
LINE
  8
0
 62
     0
 10
187.833
 20
197.021
 30
0.0
 11
188.018
 21
196.875
 31
0.0
  0
LINE
  8
0
 62
     0
 10
188.018
 20
196.875
 30
0.0
 11
188.192
 21
196.715
 31
0.0
  0
LINE
  8
0
 62
     0
 10
188.192
 20
196.715
 30
0.0
 11
188.352
 21
196.543
 31
0.0
  0
LINE
  8
0
 62
     0
 10
188.352
 20
196.543
 30
0.0
 11
188.498
 21
196.357
 31
0.0
  0
LINE
  8
0
 62
     0
 10
188.498
 20
196.357
 30
0.0
 11
188.627
 21
196.161
 31
0.0
  0
LINE
  8
0
 62
     0
 10
188.627
 20
196.161
 30
0.0
 11
188.744
 21
195.956
 31
0.0
  0
LINE
  8
0
 62
     0
 10
188.744
 20
195.956
 30
0.0
 11
188.842
 21
195.742
 31
0.0
  0
LINE
  8
0
 62
     0
 10
188.842
 20
195.742
 30
0.0
 11
188.923
 21
195.521
 31
0.0
  0
LINE
  8
0
 62
     0
 10
188.923
 20
195.521
 30
0.0
 11
188.988
 21
195.294
 31
0.0
  0
LINE
  8
0
 62
     0
 10
188.988
 20
195.294
 30
0.0
 11
189.034
 21
195.063
 31
0.0
  0
LINE
  8
0
 62
     0
 10
189.034
 20
195.063
 30
0.0
 11
189.061
 21
194.829
 31
0.0
  0
LINE
  8
0
 62
     0
 10
189.061
 20
194.829
 30
0.0
 11
189.071
 21
194.593
 31
0.0
  0
LINE
  8
0
 62
     0
 10
189.071
 20
194.593
 30
0.0
 11
189.071
 21
3.08267
 31
0.0
  0
LINE
  8
0
 62
     0
 10
189.071
 20
3.08267
 30
0.0
 11
189.061
 21
2.84703
 31
0.0
  0
LINE
  8
0
 62
     0
 10
189.061
 20
2.84703
 30
0.0
 11
189.034
 21
2.61276
 31
0.0
  0
LINE
  8
0
 62
     0
 10
189.034
 20
2.61276
 30
0.0
 11
188.988
 21
2.38263
 31
0.0
  0
LINE
  8
0
 62
     0
 10
188.988
 20
2.38263
 30
0.0
 11
188.923
 21
2.15663
 31
0.0
  0
LINE
  8
0
 62
     0
 10
188.923
 20
2.15663
 30
0.0
 11
188.842
 21
1.93477
 31
0.0
  0
LINE
  8
0
 62
     0
 10
188.842
 20
1.93477
 30
0.0
 11
188.744
 21
1.72117
 31
0.0
  0
LINE
  8
0
 62
     0
 10
188.744
 20
1.72117
 30
0.0
 11
188.627
 21
1.51446
 31
0.0
  0
LINE
  8
0
 62
     0
 10
188.627
 20
1.51446
 30
0.0
 11
188.498
 21
1.31878
 31
0.0
  0
LINE
  8
0
 62
     0
 10
188.498
 20
1.31878
 30
0.0
 11
188.352
 21
1.13412
 31
0.0
  0
LINE
  8
0
 62
     0
 10
188.352
 20
1.13412
 30
0.0
 11
188.192
 21
0.960494
 31
0.0
  0
LINE
  8
0
 62
     0
 10
188.192
 20
0.960494
 30
0.0
 11
188.018
 21
0.802019
 31
0.0
  0
LINE
  8
0
 62
     0
 10
188.018
 20
0.802019
 30
0.0
 11
187.833
 21
0.655948
 31
0.0
  0
LINE
  8
0
 62
     0
 10
187.833
 20
0.655948
 30
0.0
 11
187.638
 21
0.525032
 31
0.0
  0
LINE
  8
0
 62
     0
 10
187.638
 20
0.525032
 30
0.0
 11
187.431
 21
0.410655
 31
0.0
  0
LINE
  8
0
 62
     0
 10
187.431
 20
0.410655
 30
0.0
 11
187.219
 21
0.311437
 31
0.0
  0
LINE
  8
0
 62
     0
 10
187.219
 20
0.311437
 30
0.0
 11
186.998
 21
0.230132
 31
0.0
  0
LINE
  8
0
 62
     0
 10
186.998
 20
0.230132
 30
0.0
 11
186.771
 21
0.166743
 31
0.0
  0
LINE
  8
0
 62
     0
 10
186.771
 20
0.166743
 30
0.0
 11
186.539
 21
0.119889
 31
0.0
  0
LINE
  8
0
 62
     0
 10
186.539
 20
0.119889
 30
0.0
 11
186.305
 21
0.0923286
 31
0.0
  0
LINE
  8
0
 62
     0
 10
186.305
 20
0.0923286
 30
0.0
 11
186.069
 21
0.0826823
 31
0.0
  0
LINE
  8
0
 62
     0
 10
186.069
 20
0.0826823
 30
0.0
 11
3.09507
 21
0.0826823
 31
0.0
  0
LINE
  8
0
 62
     0
 10
3.09507
 20
0.0826823
 30
0.0
 11
2.85943
 21
0.0923286
 31
0.0
  0
LINE
  8
0
 62
     0
 10
2.85943
 20
0.0923286
 30
0.0
 11
2.62516
 21
0.119889
 31
0.0
  0
LINE
  8
0
 62
     0
 10
2.62516
 20
0.119889
 30
0.0
 11
2.39365
 21
0.166743
 31
0.0
  0
LINE
  8
0
 62
     0
 10
2.39365
 20
0.166743
 30
0.0
 11
2.16628
 21
0.230132
 31
0.0
  0
LINE
  8
0
 62
     0
 10
2.16628
 20
0.230132
 30
0.0
 11
1.94579
 21
0.311437
 31
0.0
  0
LINE
  8
0
 62
     0
 10
1.94579
 20
0.311437
 30
0.0
 11
1.7322
 21
0.410655
 31
0.0
  0
LINE
  8
0
 62
     0
 10
1.7322
 20
0.410655
 30
0.0
 11
1.52687
 21
0.525032
 31
0.0
  0
LINE
  8
0
 62
     0
 10
1.52687
 20
0.525032
 30
0.0
 11
1.33119
 21
0.655948
 31
0.0
  0
LINE
  8
0
 62
     0
 10
1.33119
 20
0.655948
 30
0.0
 11
1.14515
 21
0.802019
 31
0.0
  0
LINE
  8
0
 62
     0
 10
1.14515
 20
0.802019
 30
0.0
 11
0.972894
 21
0.960494
 31
0.0
  0
LINE
  8
0
 62
     0
 10
0.972894
 20
0.960494
 30
0.0
 11
0.813043
 21
1.13412
 31
0.0
  0
LINE
  8
0
 62
     0
 10
0.813043
 20
1.13412
 30
0.0
 11
0.666972
 21
1.31878
 31
0.0
  0
LINE
  8
0
 62
     0
 10
0.666972
 20
1.31878
 30
0.0
 11
0.537436
 21
1.51446
 31
0.0
  0
LINE
  8
0
 62
     0
 10
0.537436
 20
1.51446
 30
0.0
 11
0.420303
 21
1.72117
 31
0.0
  0
LINE
  8
0
 62
     0
 10
0.420303
 20
1.72117
 30
0.0
 11
0.322461
 21
1.93477
 31
0.0
  0
LINE
  8
0
 62
     0
 10
0.322461
 20
1.93477
 30
0.0
 11
0.241157
 21
2.15663
 31
0.0
  0
LINE
  8
0
 62
     0
 10
0.241157
 20
2.15663
 30
0.0
 11
0.176389
 21
2.38263
 31
0.0
  0
LINE
  8
0
 62
     0
 10
0.176389
 20
2.38263
 30
0.0
 11
0.130914
 21
2.61276
 31
0.0
  0
LINE
  8
0
 62
     0
 10
0.130914
 20
2.61276
 30
0.0
 11
0.103353
 21
2.84703
 31
0.0
  0
LINE
  8
0
 62
     0
 10
0.103353
 20
2.84703
 30
0.0
 11
0.0937066
 21
3.08267
 31
0.0
  0
LINE
  8
0
 62
     0
 10
0.0937066
 20
3.08267
 30
0.0
 11
0.0950846
 21
194.593
 31
0.0
  0
LINE
  8
0
 62
     0
 10
0.0950846
 20
194.593
 30
0.0
 11
0.103353
 21
194.829
 31
0.0
  0
LINE
  8
0
 62
     0
 10
0.103353
 20
194.829
 30
0.0
 11
0.130914
 21
195.063
 31
0.0
  0
LINE
  8
0
 62
     0
 10
0.130914
 20
195.063
 30
0.0
 11
0.176389
 21
195.294
 31
0.0
  0
LINE
  8
0
 62
     0
 10
0.176389
 20
195.294
 30
0.0
 11
0.241157
 21
195.521
 31
0.0
  0
LINE
  8
0
 62
     0
 10
0.241157
 20
195.521
 30
0.0
 11
0.322461
 21
195.742
 31
0.0
  0
LINE
  8
0
 62
     0
 10
0.322461
 20
195.742
 30
0.0
 11
0.420303
 21
195.956
 31
0.0
  0
LINE
  8
0
 62
     0
 10
0.420303
 20
195.956
 30
0.0
 11
0.537436
 21
196.161
 31
0.0
  0
LINE
  8
0
 62
     0
 10
0.537436
 20
196.161
 30
0.0
 11
0.666972
 21
196.357
 31
0.0
  0
LINE
  8
0
 62
     0
 10
0.666972
 20
196.357
 30
0.0
 11
0.813043
 21
196.543
 31
0.0
  0
LINE
  8
0
 62
     0
 10
0.813043
 20
196.543
 30
0.0
 11
0.972894
 21
196.715
 31
0.0
  0
LINE
  8
0
 62
     0
 10
0.972894
 20
196.715
 30
0.0
 11
1.14515
 21
196.875
 31
0.0
  0
LINE
  8
0
 62
     0
 10
1.14515
 20
196.875
 30
0.0
 11
1.33119
 21
197.021
 31
0.0
  0
LINE
  8
0
 62
     0
 10
1.33119
 20
197.021
 30
0.0
 11
1.52687
 21
197.151
 31
0.0
  0
LINE
  8
0
 62
     0
 10
1.52687
 20
197.151
 30
0.0
 11
1.7322
 21
197.268
 31
0.0
  0
LINE
  8
0
 62
     0
 10
1.7322
 20
197.268
 30
0.0
 11
1.94579
 21
197.365
 31
0.0
  0
LINE
  8
0
 62
     0
 10
1.94579
 20
197.365
 30
0.0
 11
2.16628
 21
197.447
 31
0.0
  0
LINE
  8
0
 62
     0
 10
2.16628
 20
197.447
 30
0.0
 11
2.39365
 21
197.511
 31
0.0
  0
LINE
  8
0
 62
     0
 10
2.39365
 20
197.511
 30
0.0
 11
2.62516
 21
197.557
 31
0.0
  0
LINE
  8
0
 62
     0
 10
2.62516
 20
197.557
 30
0.0
 11
2.85943
 21
197.584
 31
0.0
  0
LINE
  8
0
 62
     0
 10
2.85943
 20
197.584
 30
0.0
 11
3.09507
 21
197.594
 31
0.0
  0
LINE
  8
0
 62
     0
 10
3.09507
 20
197.594
 30
0.0
 11
186.071
 21
197.593
 31
0.0
  0
LINE
  8
0
 62
     0
 10
186.607
 20
3.50848
 30
0.0
 11
186.188
 21
3.29627
 31
0.0
  0
LINE
  8
0
 62
     0
 10
186.188
 20
3.29627
 30
0.0
 11
185.857
 21
2.96416
 31
0.0
  0
LINE
  8
0
 62
     0
 10
185.857
 20
2.96416
 30
0.0
 11
185.644
 21
2.54661
 31
0.0
  0
LINE
  8
0
 62
     0
 10
185.644
 20
2.54661
 30
0.0
 11
185.569
 21
2.08359
 31
0.0
  0
LINE
  8
0
 62
     0
 10
185.569
 20
2.08359
 30
0.0
 11
185.644
 21
1.61919
 31
0.0
  0
LINE
  8
0
 62
     0
 10
185.644
 20
1.61919
 30
0.0
 11
185.857
 21
1.20165
 31
0.0
  0
LINE
  8
0
 62
     0
 10
185.857
 20
1.20165
 30
0.0
 11
186.188
 21
0.869541
 31
0.0
  0
LINE
  8
0
 62
     0
 10
186.188
 20
0.869541
 30
0.0
 11
186.607
 21
0.655948
 31
0.0
  0
LINE
  8
0
 62
     0
 10
186.607
 20
0.655948
 30
0.0
 11
187.07
 21
0.582909
 31
0.0
  0
LINE
  8
0
 62
     0
 10
187.07
 20
0.582909
 30
0.0
 11
187.533
 21
0.655948
 31
0.0
  0
LINE
  8
0
 62
     0
 10
187.533
 20
0.655948
 30
0.0
 11
187.952
 21
0.869541
 31
0.0
  0
LINE
  8
0
 62
     0
 10
187.952
 20
0.869541
 30
0.0
 11
188.284
 21
1.20165
 31
0.0
  0
LINE
  8
0
 62
     0
 10
188.284
 20
1.20165
 30
0.0
 11
188.496
 21
1.61919
 31
0.0
  0
LINE
  8
0
 62
     0
 10
188.496
 20
1.61919
 30
0.0
 11
188.571
 21
2.08359
 31
0.0
  0
LINE
  8
0
 62
     0
 10
188.571
 20
2.08359
 30
0.0
 11
188.496
 21
2.54661
 31
0.0
  0
LINE
  8
0
 62
     0
 10
188.496
 20
2.54661
 30
0.0
 11
188.284
 21
2.96416
 31
0.0
  0
LINE
  8
0
 62
     0
 10
188.284
 20
2.96416
 30
0.0
 11
187.952
 21
3.29627
 31
0.0
  0
LINE
  8
0
 62
     0
 10
187.952
 20
3.29627
 30
0.0
 11
187.533
 21
3.50848
 31
0.0
  0
LINE
  8
0
 62
     0
 10
187.533
 20
3.50848
 30
0.0
 11
187.07
 21
3.58292
 31
0.0
  0
LINE
  8
0
 62
     0
 10
187.07
 20
3.58292
 30
0.0
 11
186.607
 21
3.50848
 31
0.0
  0
LINE
  8
0
 62
     0
 10
94.1186
 20
3.50848
 30
0.0
 11
93.701
 21
3.29627
 31
0.0
  0
LINE
  8
0
 62
     0
 10
93.701
 20
3.29627
 30
0.0
 11
93.369
 21
2.96416
 31
0.0
  0
LINE
  8
0
 62
     0
 10
93.369
 20
2.96416
 30
0.0
 11
93.1556
 21
2.54661
 31
0.0
  0
LINE
  8
0
 62
     0
 10
93.1556
 20
2.54661
 30
0.0
 11
93.0822
 21
2.08359
 31
0.0
  0
LINE
  8
0
 62
     0
 10
93.0822
 20
2.08359
 30
0.0
 11
93.1556
 21
1.61919
 31
0.0
  0
LINE
  8
0
 62
     0
 10
93.1556
 20
1.61919
 30
0.0
 11
93.369
 21
1.20165
 31
0.0
  0
LINE
  8
0
 62
     0
 10
93.369
 20
1.20165
 30
0.0
 11
93.701
 21
0.869541
 31
0.0
  0
LINE
  8
0
 62
     0
 10
93.701
 20
0.869541
 30
0.0
 11
94.1186
 21
0.655948
 31
0.0
  0
LINE
  8
0
 62
     0
 10
94.1186
 20
0.655948
 30
0.0
 11
94.5829
 21
0.582909
 31
0.0
  0
LINE
  8
0
 62
     0
 10
94.5829
 20
0.582909
 30
0.0
 11
95.0461
 21
0.655948
 31
0.0
  0
LINE
  8
0
 62
     0
 10
95.0461
 20
0.655948
 30
0.0
 11
95.4634
 21
0.869541
 31
0.0
  0
LINE
  8
0
 62
     0
 10
95.4634
 20
0.869541
 30
0.0
 11
95.7957
 21
1.20165
 31
0.0
  0
LINE
  8
0
 62
     0
 10
95.7957
 20
1.20165
 30
0.0
 11
96.0092
 21
1.61919
 31
0.0
  0
LINE
  8
0
 62
     0
 10
96.0092
 20
1.61919
 30
0.0
 11
96.0822
 21
2.08359
 31
0.0
  0
LINE
  8
0
 62
     0
 10
96.0822
 20
2.08359
 30
0.0
 11
96.0092
 21
2.54661
 31
0.0
  0
LINE
  8
0
 62
     0
 10
96.0092
 20
2.54661
 30
0.0
 11
95.7957
 21
2.96416
 31
0.0
  0
LINE
  8
0
 62
     0
 10
95.7957
 20
2.96416
 30
0.0
 11
95.4634
 21
3.29627
 31
0.0
  0
LINE
  8
0
 62
     0
 10
95.4634
 20
3.29627
 30
0.0
 11
95.0461
 21
3.50848
 31
0.0
  0
LINE
  8
0
 62
     0
 10
95.0461
 20
3.50848
 30
0.0
 11
94.5829
 21
3.58292
 31
0.0
  0
LINE
  8
0
 62
     0
 10
94.5829
 20
3.58292
 30
0.0
 11
94.1186
 21
3.50848
 31
0.0
  0
LINE
  8
0
 62
     0
 10
1.63022
 20
3.50848
 30
0.0
 11
1.21267
 21
3.29627
 31
0.0
  0
LINE
  8
0
 62
     0
 10
1.21267
 20
3.29627
 30
0.0
 11
0.880565
 21
2.96416
 31
0.0
  0
LINE
  8
0
 62
     0
 10
0.880565
 20
2.96416
 30
0.0
 11
0.668348
 21
2.54661
 31
0.0
  0
LINE
  8
0
 62
     0
 10
0.668348
 20
2.54661
 30
0.0
 11
0.593933
 21
2.08359
 31
0.0
  0
LINE
  8
0
 62
     0
 10
0.593933
 20
2.08359
 30
0.0
 11
0.668348
 21
1.61919
 31
0.0
  0
LINE
  8
0
 62
     0
 10
0.668348
 20
1.61919
 30
0.0
 11
0.880565
 21
1.20165
 31
0.0
  0
LINE
  8
0
 62
     0
 10
0.880565
 20
1.20165
 30
0.0
 11
1.21267
 21
0.869541
 31
0.0
  0
LINE
  8
0
 62
     0
 10
1.21267
 20
0.869541
 30
0.0
 11
1.63022
 21
0.655948
 31
0.0
  0
LINE
  8
0
 62
     0
 10
1.63022
 20
0.655948
 30
0.0
 11
2.09462
 21
0.582909
 31
0.0
  0
LINE
  8
0
 62
     0
 10
2.09462
 20
0.582909
 30
0.0
 11
2.55764
 21
0.655948
 31
0.0
  0
LINE
  8
0
 62
     0
 10
2.55764
 20
0.655948
 30
0.0
 11
2.97518
 21
0.869541
 31
0.0
  0
LINE
  8
0
 62
     0
 10
2.97518
 20
0.869541
 30
0.0
 11
3.30729
 21
1.20165
 31
0.0
  0
LINE
  8
0
 62
     0
 10
3.30729
 20
1.20165
 30
0.0
 11
3.52089
 21
1.61919
 31
0.0
  0
LINE
  8
0
 62
     0
 10
3.52089
 20
1.61919
 30
0.0
 11
3.5953
 21
2.08359
 31
0.0
  0
LINE
  8
0
 62
     0
 10
3.5953
 20
2.08359
 30
0.0
 11
3.52089
 21
2.54661
 31
0.0
  0
LINE
  8
0
 62
     0
 10
3.52089
 20
2.54661
 30
0.0
 11
3.30729
 21
2.96416
 31
0.0
  0
LINE
  8
0
 62
     0
 10
3.30729
 20
2.96416
 30
0.0
 11
2.97518
 21
3.29627
 31
0.0
  0
LINE
  8
0
 62
     0
 10
2.97518
 20
3.29627
 30
0.0
 11
2.55764
 21
3.50848
 31
0.0
  0
LINE
  8
0
 62
     0
 10
2.55764
 20
3.50848
 30
0.0
 11
2.09462
 21
3.58292
 31
0.0
  0
LINE
  8
0
 62
     0
 10
2.09462
 20
3.58292
 30
0.0
 11
1.63022
 21
3.50848
 31
0.0
  0
LINE
  8
0
 62
     0
 10
186.607
 20
100.265
 30
0.0
 11
186.188
 21
100.052
 31
0.0
  0
LINE
  8
0
 62
     0
 10
186.188
 20
100.052
 30
0.0
 11
185.857
 21
99.7204
 31
0.0
  0
LINE
  8
0
 62
     0
 10
185.857
 20
99.7204
 30
0.0
 11
185.644
 21
99.3013
 31
0.0
  0
LINE
  8
0
 62
     0
 10
185.644
 20
99.3013
 30
0.0
 11
185.569
 21
98.8385
 31
0.0
  0
LINE
  8
0
 62
     0
 10
185.569
 20
98.8385
 30
0.0
 11
185.644
 21
98.3753
 31
0.0
  0
LINE
  8
0
 62
     0
 10
185.644
 20
98.3753
 30
0.0
 11
185.857
 21
97.9565
 31
0.0
  0
LINE
  8
0
 62
     0
 10
185.857
 20
97.9565
 30
0.0
 11
186.188
 21
97.6256
 31
0.0
  0
LINE
  8
0
 62
     0
 10
186.188
 20
97.6256
 30
0.0
 11
186.607
 21
97.4122
 31
0.0
  0
LINE
  8
0
 62
     0
 10
186.607
 20
97.4122
 30
0.0
 11
187.07
 21
97.3377
 31
0.0
  0
LINE
  8
0
 62
     0
 10
187.07
 20
97.3377
 30
0.0
 11
187.533
 21
97.4122
 31
0.0
  0
LINE
  8
0
 62
     0
 10
187.533
 20
97.4122
 30
0.0
 11
187.952
 21
97.6256
 31
0.0
  0
LINE
  8
0
 62
     0
 10
187.952
 20
97.6256
 30
0.0
 11
188.284
 21
97.9565
 31
0.0
  0
LINE
  8
0
 62
     0
 10
188.284
 20
97.9565
 30
0.0
 11
188.496
 21
98.3753
 31
0.0
  0
LINE
  8
0
 62
     0
 10
188.496
 20
98.3753
 30
0.0
 11
188.571
 21
98.8385
 31
0.0
  0
LINE
  8
0
 62
     0
 10
188.571
 20
98.8385
 30
0.0
 11
188.496
 21
99.3013
 31
0.0
  0
LINE
  8
0
 62
     0
 10
188.496
 20
99.3013
 30
0.0
 11
188.284
 21
99.7204
 31
0.0
  0
LINE
  8
0
 62
     0
 10
188.284
 20
99.7204
 30
0.0
 11
187.952
 21
100.052
 31
0.0
  0
LINE
  8
0
 62
     0
 10
187.952
 20
100.052
 30
0.0
 11
187.533
 21
100.265
 31
0.0
  0
LINE
  8
0
 62
     0
 10
187.533
 20
100.265
 30
0.0
 11
187.07
 21
100.338
 31
0.0
  0
LINE
  8
0
 62
     0
 10
187.07
 20
100.338
 30
0.0
 11
186.607
 21
100.265
 31
0.0
  0
LINE
  8
0
 62
     0
 10
1.63022
 20
100.265
 30
0.0
 11
1.21267
 21
100.052
 31
0.0
  0
LINE
  8
0
 62
     0
 10
1.21267
 20
100.052
 30
0.0
 11
0.880565
 21
99.7204
 31
0.0
  0
LINE
  8
0
 62
     0
 10
0.880565
 20
99.7204
 30
0.0
 11
0.668348
 21
99.3013
 31
0.0
  0
LINE
  8
0
 62
     0
 10
0.668348
 20
99.3013
 30
0.0
 11
0.593933
 21
98.8385
 31
0.0
  0
LINE
  8
0
 62
     0
 10
0.593933
 20
98.8385
 30
0.0
 11
0.668348
 21
98.3753
 31
0.0
  0
LINE
  8
0
 62
     0
 10
0.668348
 20
98.3753
 30
0.0
 11
0.880565
 21
97.9565
 31
0.0
  0
LINE
  8
0
 62
     0
 10
0.880565
 20
97.9565
 30
0.0
 11
1.21267
 21
97.6256
 31
0.0
  0
LINE
  8
0
 62
     0
 10
1.21267
 20
97.6256
 30
0.0
 11
1.63022
 21
97.4122
 31
0.0
  0
LINE
  8
0
 62
     0
 10
1.63022
 20
97.4122
 30
0.0
 11
2.09462
 21
97.3377
 31
0.0
  0
LINE
  8
0
 62
     0
 10
2.09462
 20
97.3377
 30
0.0
 11
2.55764
 21
97.4122
 31
0.0
  0
LINE
  8
0
 62
     0
 10
2.55764
 20
97.4122
 30
0.0
 11
2.97518
 21
97.6256
 31
0.0
  0
LINE
  8
0
 62
     0
 10
2.97518
 20
97.6256
 30
0.0
 11
3.30729
 21
97.9565
 31
0.0
  0
LINE
  8
0
 62
     0
 10
3.30729
 20
97.9565
 30
0.0
 11
3.52089
 21
98.3753
 31
0.0
  0
LINE
  8
0
 62
     0
 10
3.52089
 20
98.3753
 30
0.0
 11
3.5953
 21
98.8385
 31
0.0
  0
LINE
  8
0
 62
     0
 10
3.5953
 20
98.8385
 30
0.0
 11
3.52089
 21
99.3013
 31
0.0
  0
LINE
  8
0
 62
     0
 10
3.52089
 20
99.3013
 30
0.0
 11
3.30729
 21
99.7204
 31
0.0
  0
LINE
  8
0
 62
     0
 10
3.30729
 20
99.7204
 30
0.0
 11
2.97518
 21
100.052
 31
0.0
  0
LINE
  8
0
 62
     0
 10
2.97518
 20
100.052
 30
0.0
 11
2.55764
 21
100.265
 31
0.0
  0
LINE
  8
0
 62
     0
 10
2.55764
 20
100.265
 30
0.0
 11
2.09462
 21
100.338
 31
0.0
  0
LINE
  8
0
 62
     0
 10
2.09462
 20
100.338
 30
0.0
 11
1.63022
 21
100.265
 31
0.0
  0
LINE
  8
0
 62
     0
 10
94.1186
 20
197.019
 30
0.0
 11
93.701
 21
196.807
 31
0.0
  0
LINE
  8
0
 62
     0
 10
93.701
 20
196.807
 30
0.0
 11
93.369
 21
196.475
 31
0.0
  0
LINE
  8
0
 62
     0
 10
93.369
 20
196.475
 30
0.0
 11
93.1556
 21
196.058
 31
0.0
  0
LINE
  8
0
 62
     0
 10
93.1556
 20
196.058
 30
0.0
 11
93.0822
 21
195.593
 31
0.0
  0
LINE
  8
0
 62
     0
 10
93.0822
 20
195.593
 30
0.0
 11
93.1556
 21
195.13
 31
0.0
  0
LINE
  8
0
 62
     0
 10
93.1556
 20
195.13
 30
0.0
 11
93.369
 21
194.713
 31
0.0
  0
LINE
  8
0
 62
     0
 10
93.369
 20
194.713
 30
0.0
 11
93.701
 21
194.381
 31
0.0
  0
LINE
  8
0
 62
     0
 10
93.701
 20
194.381
 30
0.0
 11
94.1186
 21
194.167
 31
0.0
  0
LINE
  8
0
 62
     0
 10
94.1186
 20
194.167
 30
0.0
 11
94.5829
 21
194.093
 31
0.0
  0
LINE
  8
0
 62
     0
 10
94.5829
 20
194.093
 30
0.0
 11
95.0461
 21
194.167
 31
0.0
  0
LINE
  8
0
 62
     0
 10
95.0461
 20
194.167
 30
0.0
 11
95.4634
 21
194.381
 31
0.0
  0
LINE
  8
0
 62
     0
 10
95.4634
 20
194.381
 30
0.0
 11
95.7957
 21
194.713
 31
0.0
  0
LINE
  8
0
 62
     0
 10
95.7957
 20
194.713
 30
0.0
 11
96.0092
 21
195.13
 31
0.0
  0
LINE
  8
0
 62
     0
 10
96.0092
 20
195.13
 30
0.0
 11
96.0822
 21
195.593
 31
0.0
  0
LINE
  8
0
 62
     0
 10
96.0822
 20
195.593
 30
0.0
 11
96.0092
 21
196.058
 31
0.0
  0
LINE
  8
0
 62
     0
 10
96.0092
 20
196.058
 30
0.0
 11
95.7957
 21
196.475
 31
0.0
  0
LINE
  8
0
 62
     0
 10
95.7957
 20
196.475
 30
0.0
 11
95.4634
 21
196.807
 31
0.0
  0
LINE
  8
0
 62
     0
 10
95.4634
 20
196.807
 30
0.0
 11
95.0461
 21
197.019
 31
0.0
  0
LINE
  8
0
 62
     0
 10
95.0461
 20
197.019
 30
0.0
 11
94.5829
 21
197.093
 31
0.0
  0
LINE
  8
0
 62
     0
 10
94.5829
 20
197.093
 30
0.0
 11
94.1186
 21
197.019
 31
0.0
  0
LINE
  8
0
 62
     0
 10
186.607
 20
197.019
 30
0.0
 11
186.188
 21
196.807
 31
0.0
  0
LINE
  8
0
 62
     0
 10
186.188
 20
196.807
 30
0.0
 11
185.857
 21
196.475
 31
0.0
  0
LINE
  8
0
 62
     0
 10
185.857
 20
196.475
 30
0.0
 11
185.644
 21
196.058
 31
0.0
  0
LINE
  8
0
 62
     0
 10
185.644
 20
196.058
 30
0.0
 11
185.569
 21
195.593
 31
0.0
  0
LINE
  8
0
 62
     0
 10
185.569
 20
195.593
 30
0.0
 11
185.644
 21
195.13
 31
0.0
  0
LINE
  8
0
 62
     0
 10
185.644
 20
195.13
 30
0.0
 11
185.857
 21
194.713
 31
0.0
  0
LINE
  8
0
 62
     0
 10
185.857
 20
194.713
 30
0.0
 11
186.188
 21
194.381
 31
0.0
  0
LINE
  8
0
 62
     0
 10
186.188
 20
194.381
 30
0.0
 11
186.607
 21
194.167
 31
0.0
  0
LINE
  8
0
 62
     0
 10
186.607
 20
194.167
 30
0.0
 11
187.07
 21
194.093
 31
0.0
  0
LINE
  8
0
 62
     0
 10
187.07
 20
194.093
 30
0.0
 11
187.533
 21
194.167
 31
0.0
  0
LINE
  8
0
 62
     0
 10
187.533
 20
194.167
 30
0.0
 11
187.952
 21
194.381
 31
0.0
  0
LINE
  8
0
 62
     0
 10
187.952
 20
194.381
 30
0.0
 11
188.284
 21
194.713
 31
0.0
  0
LINE
  8
0
 62
     0
 10
188.284
 20
194.713
 30
0.0
 11
188.496
 21
195.13
 31
0.0
  0
LINE
  8
0
 62
     0
 10
188.496
 20
195.13
 30
0.0
 11
188.571
 21
195.593
 31
0.0
  0
LINE
  8
0
 62
     0
 10
188.571
 20
195.593
 30
0.0
 11
188.496
 21
196.058
 31
0.0
  0
LINE
  8
0
 62
     0
 10
188.496
 20
196.058
 30
0.0
 11
188.284
 21
196.475
 31
0.0
  0
LINE
  8
0
 62
     0
 10
188.284
 20
196.475
 30
0.0
 11
187.952
 21
196.807
 31
0.0
  0
LINE
  8
0
 62
     0
 10
187.952
 20
196.807
 30
0.0
 11
187.533
 21
197.019
 31
0.0
  0
LINE
  8
0
 62
     0
 10
187.533
 20
197.019
 30
0.0
 11
187.07
 21
197.093
 31
0.0
  0
LINE
  8
0
 62
     0
 10
187.07
 20
197.093
 30
0.0
 11
186.607
 21
197.019
 31
0.0
  0
LINE
  8
0
 62
     0
 10
1.63022
 20
197.019
 30
0.0
 11
1.21267
 21
196.807
 31
0.0
  0
LINE
  8
0
 62
     0
 10
1.21267
 20
196.807
 30
0.0
 11
0.880565
 21
196.475
 31
0.0
  0
LINE
  8
0
 62
     0
 10
0.880565
 20
196.475
 30
0.0
 11
0.668348
 21
196.058
 31
0.0
  0
LINE
  8
0
 62
     0
 10
0.668348
 20
196.058
 30
0.0
 11
0.593933
 21
195.593
 31
0.0
  0
LINE
  8
0
 62
     0
 10
0.593933
 20
195.593
 30
0.0
 11
0.668348
 21
195.13
 31
0.0
  0
LINE
  8
0
 62
     0
 10
0.668348
 20
195.13
 30
0.0
 11
0.880565
 21
194.713
 31
0.0
  0
LINE
  8
0
 62
     0
 10
0.880565
 20
194.713
 30
0.0
 11
1.21267
 21
194.381
 31
0.0
  0
LINE
  8
0
 62
     0
 10
1.21267
 20
194.381
 30
0.0
 11
1.63022
 21
194.167
 31
0.0
  0
LINE
  8
0
 62
     0
 10
1.63022
 20
194.167
 30
0.0
 11
2.09462
 21
194.093
 31
0.0
  0
LINE
  8
0
 62
     0
 10
2.09462
 20
194.093
 30
0.0
 11
2.55764
 21
194.167
 31
0.0
  0
LINE
  8
0
 62
     0
 10
2.55764
 20
194.167
 30
0.0
 11
2.97518
 21
194.381
 31
0.0
  0
LINE
  8
0
 62
     0
 10
2.97518
 20
194.381
 30
0.0
 11
3.30729
 21
194.713
 31
0.0
  0
LINE
  8
0
 62
     0
 10
3.30729
 20
194.713
 30
0.0
 11
3.52089
 21
195.13
 31
0.0
  0
LINE
  8
0
 62
     0
 10
3.52089
 20
195.13
 30
0.0
 11
3.5953
 21
195.593
 31
0.0
  0
LINE
  8
0
 62
     0
 10
3.5953
 20
195.593
 30
0.0
 11
3.52089
 21
196.058
 31
0.0
  0
LINE
  8
0
 62
     0
 10
3.52089
 20
196.058
 30
0.0
 11
3.30729
 21
196.475
 31
0.0
  0
LINE
  8
0
 62
     0
 10
3.30729
 20
196.475
 30
0.0
 11
2.97518
 21
196.807
 31
0.0
  0
LINE
  8
0
 62
     0
 10
2.97518
 20
196.807
 30
0.0
 11
2.55764
 21
197.019
 31
0.0
  0
LINE
  8
0
 62
     0
 10
2.55764
 20
197.019
 30
0.0
 11
2.09462
 21
197.093
 31
0.0
  0
LINE
  8
0
 62
     0
 10
2.09462
 20
197.093
 30
0.0
 11
1.63022
 21
197.019
 31
0.0
  0
ENDSEC
  0
EOF
