  0
SECTION
  2
HEADER
  9
$ACADVER
  1
AC1009
  9
$EXTMIN
 10
0.0
 20
0.0
 30
0.0
  9
$EXTMAX
 10
1000.0
 20
1000.0
 30
0.0
  9
$FILLMODE
 70
 0
  9
$SPLFRAME
 70
 1
  0
ENDSEC
  0
SECTION
  2
TABLES
  0
TABLE
  2
LAYER
 70
1
  0
LAYER
  2
0
 70
     0
 62
     7
  6
CONTINUOUS
  0
ENDTAB
  0
ENDSEC
  0
SECTION
  2
ENTITIES
  0
LINE
  8
0
 62
     0
 10
175.062
 20
197.623
 30
0.0
 11
175.297
 21
197.615
 31
0.0
  0
LINE
  8
0
 62
     0
 10
175.297
 20
197.615
 30
0.0
 11
175.532
 21
197.587
 31
0.0
  0
LINE
  8
0
 62
     0
 10
175.532
 20
197.587
 30
0.0
 11
175.763
 21
197.542
 31
0.0
  0
LINE
  8
0
 62
     0
 10
175.763
 20
197.542
 30
0.0
 11
175.989
 21
197.477
 31
0.0
  0
LINE
  8
0
 62
     0
 10
175.989
 20
197.477
 30
0.0
 11
176.211
 21
197.396
 31
0.0
  0
LINE
  8
0
 62
     0
 10
176.211
 20
197.396
 30
0.0
 11
176.423
 21
197.299
 31
0.0
  0
LINE
  8
0
 62
     0
 10
176.423
 20
197.299
 30
0.0
 11
176.63
 21
197.182
 31
0.0
  0
LINE
  8
0
 62
     0
 10
176.63
 20
197.182
 30
0.0
 11
176.826
 21
197.051
 31
0.0
  0
LINE
  8
0
 62
     0
 10
176.826
 20
197.051
 30
0.0
 11
177.01
 21
196.905
 31
0.0
  0
LINE
  8
0
 62
     0
 10
177.01
 20
196.905
 30
0.0
 11
177.184
 21
196.745
 31
0.0
  0
LINE
  8
0
 62
     0
 10
177.184
 20
196.745
 30
0.0
 11
177.344
 21
196.573
 31
0.0
  0
LINE
  8
0
 62
     0
 10
177.344
 20
196.573
 30
0.0
 11
177.49
 21
196.388
 31
0.0
  0
LINE
  8
0
 62
     0
 10
177.49
 20
196.388
 30
0.0
 11
177.619
 21
196.191
 31
0.0
  0
LINE
  8
0
 62
     0
 10
177.619
 20
196.191
 30
0.0
 11
177.735
 21
195.986
 31
0.0
  0
LINE
  8
0
 62
     0
 10
177.735
 20
195.986
 30
0.0
 11
177.833
 21
195.772
 31
0.0
  0
LINE
  8
0
 62
     0
 10
177.833
 20
195.772
 30
0.0
 11
177.916
 21
195.552
 31
0.0
  0
LINE
  8
0
 62
     0
 10
177.916
 20
195.552
 30
0.0
 11
177.979
 21
195.325
 31
0.0
  0
LINE
  8
0
 62
     0
 10
177.979
 20
195.325
 30
0.0
 11
178.026
 21
195.094
 31
0.0
  0
LINE
  8
0
 62
     0
 10
178.026
 20
195.094
 30
0.0
 11
178.052
 21
194.86
 31
0.0
  0
LINE
  8
0
 62
     0
 10
178.052
 20
194.86
 30
0.0
 11
178.062
 21
194.624
 31
0.0
  0
LINE
  8
0
 62
     0
 10
178.062
 20
194.624
 30
0.0
 11
178.062
 21
3.08267
 31
0.0
  0
LINE
  8
0
 62
     0
 10
178.062
 20
3.08267
 30
0.0
 11
178.052
 21
2.84703
 31
0.0
  0
LINE
  8
0
 62
     0
 10
178.052
 20
2.84703
 30
0.0
 11
178.026
 21
2.61276
 31
0.0
  0
LINE
  8
0
 62
     0
 10
178.026
 20
2.61276
 30
0.0
 11
177.979
 21
2.38263
 31
0.0
  0
LINE
  8
0
 62
     0
 10
177.979
 20
2.38263
 30
0.0
 11
177.916
 21
2.15525
 31
0.0
  0
LINE
  8
0
 62
     0
 10
177.916
 20
2.15525
 30
0.0
 11
177.833
 21
1.93477
 31
0.0
  0
LINE
  8
0
 62
     0
 10
177.833
 20
1.93477
 30
0.0
 11
177.735
 21
1.71979
 31
0.0
  0
LINE
  8
0
 62
     0
 10
177.735
 20
1.71979
 30
0.0
 11
177.619
 21
1.51584
 31
0.0
  0
LINE
  8
0
 62
     0
 10
177.619
 20
1.51584
 30
0.0
 11
177.49
 21
1.31878
 31
0.0
  0
LINE
  8
0
 62
     0
 10
177.49
 20
1.31878
 30
0.0
 11
177.344
 21
1.13412
 31
0.0
  0
LINE
  8
0
 62
     0
 10
177.344
 20
1.13412
 30
0.0
 11
177.184
 21
0.963249
 31
0.0
  0
LINE
  8
0
 62
     0
 10
177.184
 20
0.963249
 30
0.0
 11
177.01
 21
0.802019
 31
0.0
  0
LINE
  8
0
 62
     0
 10
177.01
 20
0.802019
 30
0.0
 11
176.826
 21
0.655948
 31
0.0
  0
LINE
  8
0
 62
     0
 10
176.826
 20
0.655948
 30
0.0
 11
176.63
 21
0.525032
 31
0.0
  0
LINE
  8
0
 62
     0
 10
176.63
 20
0.525032
 30
0.0
 11
176.423
 21
0.409279
 31
0.0
  0
LINE
  8
0
 62
     0
 10
176.423
 20
0.409279
 30
0.0
 11
176.211
 21
0.310059
 31
0.0
  0
LINE
  8
0
 62
     0
 10
176.211
 20
0.310059
 30
0.0
 11
175.989
 21
0.230132
 31
0.0
  0
LINE
  8
0
 62
     0
 10
175.989
 20
0.230132
 30
0.0
 11
175.763
 21
0.165365
 31
0.0
  0
LINE
  8
0
 62
     0
 10
175.763
 20
0.165365
 30
0.0
 11
175.532
 21
0.119889
 31
0.0
  0
LINE
  8
0
 62
     0
 10
175.532
 20
0.119889
 30
0.0
 11
175.297
 21
0.0909507
 31
0.0
  0
LINE
  8
0
 62
     0
 10
175.297
 20
0.0909507
 30
0.0
 11
175.062
 21
0.0826823
 31
0.0
  0
LINE
  8
0
 62
     0
 10
175.062
 20
0.0826823
 30
0.0
 11
3.09507
 21
0.0826823
 31
0.0
  0
LINE
  8
0
 62
     0
 10
3.09507
 20
0.0826823
 30
0.0
 11
2.85943
 21
0.0909507
 31
0.0
  0
LINE
  8
0
 62
     0
 10
2.85943
 20
0.0909507
 30
0.0
 11
2.62516
 21
0.119889
 31
0.0
  0
LINE
  8
0
 62
     0
 10
2.62516
 20
0.119889
 30
0.0
 11
2.39365
 21
0.165365
 31
0.0
  0
LINE
  8
0
 62
     0
 10
2.39365
 20
0.165365
 30
0.0
 11
2.16628
 21
0.230132
 31
0.0
  0
LINE
  8
0
 62
     0
 10
2.16628
 20
0.230132
 30
0.0
 11
1.94579
 21
0.310059
 31
0.0
  0
LINE
  8
0
 62
     0
 10
1.94579
 20
0.310059
 30
0.0
 11
1.7322
 21
0.409279
 31
0.0
  0
LINE
  8
0
 62
     0
 10
1.7322
 20
0.409279
 30
0.0
 11
1.52687
 21
0.525032
 31
0.0
  0
LINE
  8
0
 62
     0
 10
1.52687
 20
0.525032
 30
0.0
 11
1.33119
 21
0.655948
 31
0.0
  0
LINE
  8
0
 62
     0
 10
1.33119
 20
0.655948
 30
0.0
 11
1.14515
 21
0.802019
 31
0.0
  0
LINE
  8
0
 62
     0
 10
1.14515
 20
0.802019
 30
0.0
 11
0.972894
 21
0.963249
 31
0.0
  0
LINE
  8
0
 62
     0
 10
0.972894
 20
0.963249
 30
0.0
 11
0.813043
 21
1.13412
 31
0.0
  0
LINE
  8
0
 62
     0
 10
0.813043
 20
1.13412
 30
0.0
 11
0.666972
 21
1.31878
 31
0.0
  0
LINE
  8
0
 62
     0
 10
0.666972
 20
1.31878
 30
0.0
 11
0.537436
 21
1.51584
 31
0.0
  0
LINE
  8
0
 62
     0
 10
0.537436
 20
1.51584
 30
0.0
 11
0.420303
 21
1.71979
 31
0.0
  0
LINE
  8
0
 62
     0
 10
0.420303
 20
1.71979
 30
0.0
 11
0.322461
 21
1.93477
 31
0.0
  0
LINE
  8
0
 62
     0
 10
0.322461
 20
1.93477
 30
0.0
 11
0.241157
 21
2.15525
 31
0.0
  0
LINE
  8
0
 62
     0
 10
0.241157
 20
2.15525
 30
0.0
 11
0.176389
 21
2.38263
 31
0.0
  0
LINE
  8
0
 62
     0
 10
0.176389
 20
2.38263
 30
0.0
 11
0.130914
 21
2.61276
 31
0.0
  0
LINE
  8
0
 62
     0
 10
0.130914
 20
2.61276
 30
0.0
 11
0.103353
 21
2.84703
 31
0.0
  0
LINE
  8
0
 62
     0
 10
0.103353
 20
2.84703
 30
0.0
 11
0.0937066
 21
3.08267
 31
0.0
  0
LINE
  8
0
 62
     0
 10
0.0937066
 20
3.08267
 30
0.0
 11
0.0950846
 21
194.624
 31
0.0
  0
LINE
  8
0
 62
     0
 10
0.0950846
 20
194.624
 30
0.0
 11
0.103353
 21
194.86
 31
0.0
  0
LINE
  8
0
 62
     0
 10
0.103353
 20
194.86
 30
0.0
 11
0.130914
 21
195.094
 31
0.0
  0
LINE
  8
0
 62
     0
 10
0.130914
 20
195.094
 30
0.0
 11
0.176389
 21
195.325
 31
0.0
  0
LINE
  8
0
 62
     0
 10
0.176389
 20
195.325
 30
0.0
 11
0.241157
 21
195.552
 31
0.0
  0
LINE
  8
0
 62
     0
 10
0.241157
 20
195.552
 30
0.0
 11
0.322461
 21
195.772
 31
0.0
  0
LINE
  8
0
 62
     0
 10
0.322461
 20
195.772
 30
0.0
 11
0.420303
 21
195.986
 31
0.0
  0
LINE
  8
0
 62
     0
 10
0.420303
 20
195.986
 30
0.0
 11
0.537436
 21
196.191
 31
0.0
  0
LINE
  8
0
 62
     0
 10
0.537436
 20
196.191
 30
0.0
 11
0.666972
 21
196.388
 31
0.0
  0
LINE
  8
0
 62
     0
 10
0.666972
 20
196.388
 30
0.0
 11
0.813043
 21
196.573
 31
0.0
  0
LINE
  8
0
 62
     0
 10
0.813043
 20
196.573
 30
0.0
 11
0.972894
 21
196.745
 31
0.0
  0
LINE
  8
0
 62
     0
 10
0.972894
 20
196.745
 30
0.0
 11
1.14515
 21
196.905
 31
0.0
  0
LINE
  8
0
 62
     0
 10
1.14515
 20
196.905
 30
0.0
 11
1.33119
 21
197.051
 31
0.0
  0
LINE
  8
0
 62
     0
 10
1.33119
 20
197.051
 30
0.0
 11
1.52687
 21
197.182
 31
0.0
  0
LINE
  8
0
 62
     0
 10
1.52687
 20
197.182
 30
0.0
 11
1.7322
 21
197.299
 31
0.0
  0
LINE
  8
0
 62
     0
 10
1.7322
 20
197.299
 30
0.0
 11
1.94579
 21
197.396
 31
0.0
  0
LINE
  8
0
 62
     0
 10
1.94579
 20
197.396
 30
0.0
 11
2.16628
 21
197.477
 31
0.0
  0
LINE
  8
0
 62
     0
 10
2.16628
 20
197.477
 30
0.0
 11
2.39365
 21
197.542
 31
0.0
  0
LINE
  8
0
 62
     0
 10
2.39365
 20
197.542
 30
0.0
 11
2.62516
 21
197.587
 31
0.0
  0
LINE
  8
0
 62
     0
 10
2.62516
 20
197.587
 30
0.0
 11
2.85943
 21
197.615
 31
0.0
  0
LINE
  8
0
 62
     0
 10
2.85943
 20
197.615
 30
0.0
 11
3.09507
 21
197.624
 31
0.0
  0
LINE
  8
0
 62
     0
 10
3.09507
 20
197.624
 30
0.0
 11
175.062
 21
197.623
 31
0.0
  0
LINE
  8
0
 62
     0
 10
175.099
 20
4.0101
 30
0.0
 11
174.68
 21
3.79649
 31
0.0
  0
LINE
  8
0
 62
     0
 10
174.68
 20
3.79649
 30
0.0
 11
174.349
 21
3.46439
 31
0.0
  0
LINE
  8
0
 62
     0
 10
174.349
 20
3.46439
 30
0.0
 11
174.136
 21
3.04684
 31
0.0
  0
LINE
  8
0
 62
     0
 10
174.136
 20
3.04684
 30
0.0
 11
174.061
 21
2.58244
 31
0.0
  0
LINE
  8
0
 62
     0
 10
174.061
 20
2.58244
 30
0.0
 11
174.136
 21
2.11942
 31
0.0
  0
LINE
  8
0
 62
     0
 10
174.136
 20
2.11942
 30
0.0
 11
174.349
 21
1.7005
 31
0.0
  0
LINE
  8
0
 62
     0
 10
174.349
 20
1.7005
 30
0.0
 11
174.68
 21
1.36977
 31
0.0
  0
LINE
  8
0
 62
     0
 10
174.68
 20
1.36977
 30
0.0
 11
175.099
 21
1.1548
 31
0.0
  0
LINE
  8
0
 62
     0
 10
175.099
 20
1.1548
 30
0.0
 11
175.562
 21
1.08176
 31
0.0
  0
LINE
  8
0
 62
     0
 10
175.562
 20
1.08176
 30
0.0
 11
176.025
 21
1.1548
 31
0.0
  0
LINE
  8
0
 62
     0
 10
176.025
 20
1.1548
 30
0.0
 11
176.444
 21
1.36977
 31
0.0
  0
LINE
  8
0
 62
     0
 10
176.444
 20
1.36977
 30
0.0
 11
176.776
 21
1.7005
 31
0.0
  0
LINE
  8
0
 62
     0
 10
176.776
 20
1.7005
 30
0.0
 11
176.988
 21
2.11942
 31
0.0
  0
LINE
  8
0
 62
     0
 10
176.988
 20
2.11942
 30
0.0
 11
177.061
 21
2.58244
 31
0.0
  0
LINE
  8
0
 62
     0
 10
177.061
 20
2.58244
 30
0.0
 11
176.988
 21
3.04684
 31
0.0
  0
LINE
  8
0
 62
     0
 10
176.988
 20
3.04684
 30
0.0
 11
176.776
 21
3.46439
 31
0.0
  0
LINE
  8
0
 62
     0
 10
176.776
 20
3.46439
 30
0.0
 11
176.444
 21
3.79649
 31
0.0
  0
LINE
  8
0
 62
     0
 10
176.444
 20
3.79649
 30
0.0
 11
176.025
 21
4.0101
 31
0.0
  0
LINE
  8
0
 62
     0
 10
176.025
 20
4.0101
 30
0.0
 11
175.562
 21
4.08174
 31
0.0
  0
LINE
  8
0
 62
     0
 10
175.562
 20
4.08174
 30
0.0
 11
175.099
 21
4.0101
 31
0.0
  0
LINE
  8
0
 62
     0
 10
88.6146
 20
4.0101
 30
0.0
 11
88.1973
 21
3.79649
 31
0.0
  0
LINE
  8
0
 62
     0
 10
88.1973
 20
3.79649
 30
0.0
 11
87.8649
 21
3.46439
 31
0.0
  0
LINE
  8
0
 62
     0
 10
87.8649
 20
3.46439
 30
0.0
 11
87.6515
 21
3.04684
 31
0.0
  0
LINE
  8
0
 62
     0
 10
87.6515
 20
3.04684
 30
0.0
 11
87.5771
 21
2.58244
 31
0.0
  0
LINE
  8
0
 62
     0
 10
87.5771
 20
2.58244
 30
0.0
 11
87.6515
 21
2.11942
 31
0.0
  0
LINE
  8
0
 62
     0
 10
87.6515
 20
2.11942
 30
0.0
 11
87.8649
 21
1.7005
 31
0.0
  0
LINE
  8
0
 62
     0
 10
87.8649
 20
1.7005
 30
0.0
 11
88.1973
 21
1.36977
 31
0.0
  0
LINE
  8
0
 62
     0
 10
88.1973
 20
1.36977
 30
0.0
 11
88.6146
 21
1.1548
 31
0.0
  0
LINE
  8
0
 62
     0
 10
88.6146
 20
1.1548
 30
0.0
 11
89.0778
 21
1.08176
 31
0.0
  0
LINE
  8
0
 62
     0
 10
89.0778
 20
1.08176
 30
0.0
 11
89.5421
 21
1.1548
 31
0.0
  0
LINE
  8
0
 62
     0
 10
89.5421
 20
1.1548
 30
0.0
 11
89.9597
 21
1.36977
 31
0.0
  0
LINE
  8
0
 62
     0
 10
89.9597
 20
1.36977
 30
0.0
 11
90.2917
 21
1.7005
 31
0.0
  0
LINE
  8
0
 62
     0
 10
90.2917
 20
1.7005
 30
0.0
 11
90.5055
 21
2.11942
 31
0.0
  0
LINE
  8
0
 62
     0
 10
90.5055
 20
2.11942
 30
0.0
 11
90.5771
 21
2.58244
 31
0.0
  0
LINE
  8
0
 62
     0
 10
90.5771
 20
2.58244
 30
0.0
 11
90.5055
 21
3.04684
 31
0.0
  0
LINE
  8
0
 62
     0
 10
90.5055
 20
3.04684
 30
0.0
 11
90.2917
 21
3.46439
 31
0.0
  0
LINE
  8
0
 62
     0
 10
90.2917
 20
3.46439
 30
0.0
 11
89.9597
 21
3.79649
 31
0.0
  0
LINE
  8
0
 62
     0
 10
89.9597
 20
3.79649
 30
0.0
 11
89.5421
 21
4.0101
 31
0.0
  0
LINE
  8
0
 62
     0
 10
89.5421
 20
4.0101
 30
0.0
 11
89.0778
 21
4.08174
 31
0.0
  0
LINE
  8
0
 62
     0
 10
89.0778
 20
4.08174
 30
0.0
 11
88.6146
 21
4.0101
 31
0.0
  0
LINE
  8
0
 62
     0
 10
2.13045
 20
4.0101
 30
0.0
 11
1.7129
 21
3.79649
 31
0.0
  0
LINE
  8
0
 62
     0
 10
1.7129
 20
3.79649
 30
0.0
 11
1.38079
 21
3.46439
 31
0.0
  0
LINE
  8
0
 62
     0
 10
1.38079
 20
3.46439
 30
0.0
 11
1.1672
 21
3.04684
 31
0.0
  0
LINE
  8
0
 62
     0
 10
1.1672
 20
3.04684
 30
0.0
 11
1.09416
 21
2.58244
 31
0.0
  0
LINE
  8
0
 62
     0
 10
1.09416
 20
2.58244
 30
0.0
 11
1.1672
 21
2.11942
 31
0.0
  0
LINE
  8
0
 62
     0
 10
1.1672
 20
2.11942
 30
0.0
 11
1.38079
 21
1.7005
 31
0.0
  0
LINE
  8
0
 62
     0
 10
1.38079
 20
1.7005
 30
0.0
 11
1.7129
 21
1.36977
 31
0.0
  0
LINE
  8
0
 62
     0
 10
1.7129
 20
1.36977
 30
0.0
 11
2.13045
 21
1.1548
 31
0.0
  0
LINE
  8
0
 62
     0
 10
2.13045
 20
1.1548
 30
0.0
 11
2.59485
 21
1.08176
 31
0.0
  0
LINE
  8
0
 62
     0
 10
2.59485
 20
1.08176
 30
0.0
 11
3.05787
 21
1.1548
 31
0.0
  0
LINE
  8
0
 62
     0
 10
3.05787
 20
1.1548
 30
0.0
 11
3.47541
 21
1.36977
 31
0.0
  0
LINE
  8
0
 62
     0
 10
3.47541
 20
1.36977
 30
0.0
 11
3.80753
 21
1.7005
 31
0.0
  0
LINE
  8
0
 62
     0
 10
3.80753
 20
1.7005
 30
0.0
 11
4.0211
 21
2.11942
 31
0.0
  0
LINE
  8
0
 62
     0
 10
4.0211
 20
2.11942
 30
0.0
 11
4.09416
 21
2.58244
 31
0.0
  0
LINE
  8
0
 62
     0
 10
4.09416
 20
2.58244
 30
0.0
 11
4.0211
 21
3.04684
 31
0.0
  0
LINE
  8
0
 62
     0
 10
4.0211
 20
3.04684
 30
0.0
 11
3.80753
 21
3.46439
 31
0.0
  0
LINE
  8
0
 62
     0
 10
3.80753
 20
3.46439
 30
0.0
 11
3.47541
 21
3.79649
 31
0.0
  0
LINE
  8
0
 62
     0
 10
3.47541
 20
3.79649
 30
0.0
 11
3.05787
 21
4.0101
 31
0.0
  0
LINE
  8
0
 62
     0
 10
3.05787
 20
4.0101
 30
0.0
 11
2.59485
 21
4.08174
 31
0.0
  0
LINE
  8
0
 62
     0
 10
2.59485
 20
4.08174
 30
0.0
 11
2.13045
 21
4.0101
 31
0.0
  0
LINE
  8
0
 62
     0
 10
130.064
 20
93.0575
 30
0.0
 11
113.566
 21
102.582
 31
0.0
  0
LINE
  8
0
 62
     0
 10
113.566
 20
102.582
 30
0.0
 11
104.039
 21
86.082
 31
0.0
  0
LINE
  8
0
 62
     0
 10
104.039
 20
86.082
 30
0.0
 11
120.539
 21
76.557
 31
0.0
  0
LINE
  8
0
 62
     0
 10
120.539
 20
76.557
 30
0.0
 11
118.632
 21
73.2578
 31
0.0
  0
LINE
  8
0
 62
     0
 10
118.632
 20
73.2578
 30
0.0
 11
135.13
 21
63.7328
 31
0.0
  0
LINE
  8
0
 62
     0
 10
135.13
 20
63.7328
 30
0.0
 11
132.749
 21
59.6085
 31
0.0
  0
LINE
  8
0
 62
     0
 10
132.749
 20
59.6085
 30
0.0
 11
149.248
 21
50.0821
 31
0.0
  0
LINE
  8
0
 62
     0
 10
149.248
 20
50.0821
 30
0.0
 11
173.062
 21
91.3282
 31
0.0
  0
LINE
  8
0
 62
     0
 10
173.062
 20
91.3282
 30
0.0
 11
156.563
 21
100.855
 31
0.0
  0
LINE
  8
0
 62
     0
 10
156.563
 20
100.855
 30
0.0
 11
154.182
 21
96.7299
 31
0.0
  0
LINE
  8
0
 62
     0
 10
154.182
 20
96.7299
 30
0.0
 11
137.684
 21
106.255
 31
0.0
  0
LINE
  8
0
 62
     0
 10
137.684
 20
106.255
 30
0.0
 11
130.064
 21
93.0575
 31
0.0
  0
LINE
  8
0
 62
     0
 10
62.2434
 20
192.625
 30
0.0
 11
62.2434
 21
187.862
 31
0.0
  0
LINE
  8
0
 62
     0
 10
62.2434
 20
187.862
 30
0.0
 11
43.1934
 21
187.862
 31
0.0
  0
LINE
  8
0
 62
     0
 10
43.1934
 20
187.862
 30
0.0
 11
43.1934
 21
185.386
 31
0.0
  0
LINE
  8
0
 62
     0
 10
43.1934
 20
185.386
 30
0.0
 11
24.1432
 21
185.386
 31
0.0
  0
LINE
  8
0
 62
     0
 10
24.1432
 20
185.386
 30
0.0
 11
24.1432
 21
180.624
 31
0.0
  0
LINE
  8
0
 62
     0
 10
24.1432
 20
180.624
 30
0.0
 11
5.09323
 21
180.624
 31
0.0
  0
LINE
  8
0
 62
     0
 10
5.09323
 20
180.624
 30
0.0
 11
5.09323
 21
61.5583
 31
0.0
  0
LINE
  8
0
 62
     0
 10
5.09323
 20
61.5583
 30
0.0
 11
24.146
 21
61.5583
 31
0.0
  0
LINE
  8
0
 62
     0
 10
24.146
 20
61.5583
 30
0.0
 11
24.146
 21
66.3208
 31
0.0
  0
LINE
  8
0
 62
     0
 10
24.146
 20
66.3208
 30
0.0
 11
43.1959
 21
66.3208
 31
0.0
  0
LINE
  8
0
 62
     0
 10
43.1959
 20
66.3208
 30
0.0
 11
43.1959
 21
87.8487
 31
0.0
  0
LINE
  8
0
 62
     0
 10
43.1959
 20
87.8487
 30
0.0
 11
62.2459
 21
87.8487
 31
0.0
  0
LINE
  8
0
 62
     0
 10
62.2459
 20
87.8487
 30
0.0
 11
62.2459
 21
92.6123
 31
0.0
  0
LINE
  8
0
 62
     0
 10
62.2459
 20
92.6123
 30
0.0
 11
81.2934
 21
92.6123
 31
0.0
  0
LINE
  8
0
 62
     0
 10
81.2934
 20
92.6123
 30
0.0
 11
81.2934
 21
90.1333
 31
0.0
  0
LINE
  8
0
 62
     0
 10
81.2934
 20
90.1333
 30
0.0
 11
100.344
 21
90.1333
 31
0.0
  0
LINE
  8
0
 62
     0
 10
100.344
 20
90.1333
 30
0.0
 11
100.344
 21
104.421
 31
0.0
  0
LINE
  8
0
 62
     0
 10
100.344
 20
104.421
 30
0.0
 11
119.396
 21
104.421
 31
0.0
  0
LINE
  8
0
 62
     0
 10
119.396
 20
104.421
 30
0.0
 11
119.396
 21
106.899
 31
0.0
  0
LINE
  8
0
 62
     0
 10
119.396
 20
106.899
 30
0.0
 11
138.446
 21
106.899
 31
0.0
  0
LINE
  8
0
 62
     0
 10
138.446
 20
106.899
 30
0.0
 11
138.446
 21
178.337
 31
0.0
  0
LINE
  8
0
 62
     0
 10
138.446
 20
178.337
 30
0.0
 11
119.396
 21
178.337
 31
0.0
  0
LINE
  8
0
 62
     0
 10
119.396
 20
178.337
 30
0.0
 11
119.396
 21
180.624
 31
0.0
  0
LINE
  8
0
 62
     0
 10
119.396
 20
180.624
 30
0.0
 11
100.344
 21
180.624
 31
0.0
  0
LINE
  8
0
 62
     0
 10
100.344
 20
180.624
 30
0.0
 11
100.344
 21
185.386
 31
0.0
  0
LINE
  8
0
 62
     0
 10
100.344
 20
185.386
 30
0.0
 11
81.2959
 21
185.386
 31
0.0
  0
LINE
  8
0
 62
     0
 10
81.2959
 20
185.386
 30
0.0
 11
81.2959
 21
192.625
 31
0.0
  0
LINE
  8
0
 62
     0
 10
81.2959
 20
192.625
 30
0.0
 11
62.2434
 21
192.625
 31
0.0
  0
LINE
  8
0
 62
     0
 10
175.099
 20
100.28
 30
0.0
 11
174.68
 21
100.066
 31
0.0
  0
LINE
  8
0
 62
     0
 10
174.68
 20
100.066
 30
0.0
 11
174.349
 21
99.7342
 31
0.0
  0
LINE
  8
0
 62
     0
 10
174.349
 20
99.7342
 30
0.0
 11
174.136
 21
99.3165
 31
0.0
  0
LINE
  8
0
 62
     0
 10
174.136
 20
99.3165
 30
0.0
 11
174.061
 21
98.8536
 31
0.0
  0
LINE
  8
0
 62
     0
 10
174.061
 20
98.8536
 30
0.0
 11
174.136
 21
98.3904
 31
0.0
  0
LINE
  8
0
 62
     0
 10
174.136
 20
98.3904
 30
0.0
 11
174.349
 21
97.9717
 31
0.0
  0
LINE
  8
0
 62
     0
 10
174.349
 20
97.9717
 30
0.0
 11
174.68
 21
97.6394
 31
0.0
  0
LINE
  8
0
 62
     0
 10
174.68
 20
97.6394
 30
0.0
 11
175.099
 21
97.4259
 31
0.0
  0
LINE
  8
0
 62
     0
 10
175.099
 20
97.4259
 30
0.0
 11
175.562
 21
97.3529
 31
0.0
  0
LINE
  8
0
 62
     0
 10
175.562
 20
97.3529
 30
0.0
 11
176.025
 21
97.4259
 31
0.0
  0
LINE
  8
0
 62
     0
 10
176.025
 20
97.4259
 30
0.0
 11
176.444
 21
97.6394
 31
0.0
  0
LINE
  8
0
 62
     0
 10
176.444
 20
97.6394
 30
0.0
 11
176.776
 21
97.9717
 31
0.0
  0
LINE
  8
0
 62
     0
 10
176.776
 20
97.9717
 30
0.0
 11
176.988
 21
98.3904
 31
0.0
  0
LINE
  8
0
 62
     0
 10
176.988
 20
98.3904
 30
0.0
 11
177.061
 21
98.8536
 31
0.0
  0
LINE
  8
0
 62
     0
 10
177.061
 20
98.8536
 30
0.0
 11
176.988
 21
99.3165
 31
0.0
  0
LINE
  8
0
 62
     0
 10
176.988
 20
99.3165
 30
0.0
 11
176.776
 21
99.7342
 31
0.0
  0
LINE
  8
0
 62
     0
 10
176.776
 20
99.7342
 30
0.0
 11
176.444
 21
100.066
 31
0.0
  0
LINE
  8
0
 62
     0
 10
176.444
 20
100.066
 30
0.0
 11
176.025
 21
100.28
 31
0.0
  0
LINE
  8
0
 62
     0
 10
176.025
 20
100.28
 30
0.0
 11
175.562
 21
100.353
 31
0.0
  0
LINE
  8
0
 62
     0
 10
175.562
 20
100.353
 30
0.0
 11
175.099
 21
100.28
 31
0.0
  0
LINE
  8
0
 62
     0
 10
2.13045
 20
100.28
 30
0.0
 11
1.7129
 21
100.066
 31
0.0
  0
LINE
  8
0
 62
     0
 10
1.7129
 20
100.066
 30
0.0
 11
1.38079
 21
99.7342
 31
0.0
  0
LINE
  8
0
 62
     0
 10
1.38079
 20
99.7342
 30
0.0
 11
1.1672
 21
99.3165
 31
0.0
  0
LINE
  8
0
 62
     0
 10
1.1672
 20
99.3165
 30
0.0
 11
1.09416
 21
98.8536
 31
0.0
  0
LINE
  8
0
 62
     0
 10
1.09416
 20
98.8536
 30
0.0
 11
1.1672
 21
98.3904
 31
0.0
  0
LINE
  8
0
 62
     0
 10
1.1672
 20
98.3904
 30
0.0
 11
1.38079
 21
97.9717
 31
0.0
  0
LINE
  8
0
 62
     0
 10
1.38079
 20
97.9717
 30
0.0
 11
1.7129
 21
97.6394
 31
0.0
  0
LINE
  8
0
 62
     0
 10
1.7129
 20
97.6394
 30
0.0
 11
2.13045
 21
97.4259
 31
0.0
  0
LINE
  8
0
 62
     0
 10
2.13045
 20
97.4259
 30
0.0
 11
2.59485
 21
97.3529
 31
0.0
  0
LINE
  8
0
 62
     0
 10
2.59485
 20
97.3529
 30
0.0
 11
3.05787
 21
97.4259
 31
0.0
  0
LINE
  8
0
 62
     0
 10
3.05787
 20
97.4259
 30
0.0
 11
3.47541
 21
97.6394
 31
0.0
  0
LINE
  8
0
 62
     0
 10
3.47541
 20
97.6394
 30
0.0
 11
3.80753
 21
97.9717
 31
0.0
  0
LINE
  8
0
 62
     0
 10
3.80753
 20
97.9717
 30
0.0
 11
4.0211
 21
98.3904
 31
0.0
  0
LINE
  8
0
 62
     0
 10
4.0211
 20
98.3904
 30
0.0
 11
4.09416
 21
98.8536
 31
0.0
  0
LINE
  8
0
 62
     0
 10
4.09416
 20
98.8536
 30
0.0
 11
4.0211
 21
99.3165
 31
0.0
  0
LINE
  8
0
 62
     0
 10
4.0211
 20
99.3165
 30
0.0
 11
3.80753
 21
99.7342
 31
0.0
  0
LINE
  8
0
 62
     0
 10
3.80753
 20
99.7342
 30
0.0
 11
3.47541
 21
100.066
 31
0.0
  0
LINE
  8
0
 62
     0
 10
3.47541
 20
100.066
 30
0.0
 11
3.05787
 21
100.28
 31
0.0
  0
LINE
  8
0
 62
     0
 10
3.05787
 20
100.28
 30
0.0
 11
2.59485
 21
100.353
 31
0.0
  0
LINE
  8
0
 62
     0
 10
2.59485
 20
100.353
 30
0.0
 11
2.13045
 21
100.28
 31
0.0
  0
LINE
  8
0
 62
     0
 10
88.6146
 20
196.551
 30
0.0
 11
88.1973
 21
196.337
 31
0.0
  0
LINE
  8
0
 62
     0
 10
88.1973
 20
196.337
 30
0.0
 11
87.8649
 21
196.007
 31
0.0
  0
LINE
  8
0
 62
     0
 10
87.8649
 20
196.007
 30
0.0
 11
87.6515
 21
195.588
 31
0.0
  0
LINE
  8
0
 62
     0
 10
87.6515
 20
195.588
 30
0.0
 11
87.5771
 21
195.125
 31
0.0
  0
LINE
  8
0
 62
     0
 10
87.5771
 20
195.125
 30
0.0
 11
87.6515
 21
194.66
 31
0.0
  0
LINE
  8
0
 62
     0
 10
87.6515
 20
194.66
 30
0.0
 11
87.8649
 21
194.243
 31
0.0
  0
LINE
  8
0
 62
     0
 10
87.8649
 20
194.243
 30
0.0
 11
88.1973
 21
193.911
 31
0.0
  0
LINE
  8
0
 62
     0
 10
88.1973
 20
193.911
 30
0.0
 11
88.6146
 21
193.698
 31
0.0
  0
LINE
  8
0
 62
     0
 10
88.6146
 20
193.698
 30
0.0
 11
89.0778
 21
193.625
 31
0.0
  0
LINE
  8
0
 62
     0
 10
89.0778
 20
193.625
 30
0.0
 11
89.5421
 21
193.698
 31
0.0
  0
LINE
  8
0
 62
     0
 10
89.5421
 20
193.698
 30
0.0
 11
89.9597
 21
193.911
 31
0.0
  0
LINE
  8
0
 62
     0
 10
89.9597
 20
193.911
 30
0.0
 11
90.2917
 21
194.243
 31
0.0
  0
LINE
  8
0
 62
     0
 10
90.2917
 20
194.243
 30
0.0
 11
90.5055
 21
194.66
 31
0.0
  0
LINE
  8
0
 62
     0
 10
90.5055
 20
194.66
 30
0.0
 11
90.5771
 21
195.125
 31
0.0
  0
LINE
  8
0
 62
     0
 10
90.5771
 20
195.125
 30
0.0
 11
90.5055
 21
195.588
 31
0.0
  0
LINE
  8
0
 62
     0
 10
90.5055
 20
195.588
 30
0.0
 11
90.2917
 21
196.007
 31
0.0
  0
LINE
  8
0
 62
     0
 10
90.2917
 20
196.007
 30
0.0
 11
89.9597
 21
196.337
 31
0.0
  0
LINE
  8
0
 62
     0
 10
89.9597
 20
196.337
 30
0.0
 11
89.5421
 21
196.551
 31
0.0
  0
LINE
  8
0
 62
     0
 10
89.5421
 20
196.551
 30
0.0
 11
89.0778
 21
196.624
 31
0.0
  0
LINE
  8
0
 62
     0
 10
89.0778
 20
196.624
 30
0.0
 11
88.6146
 21
196.551
 31
0.0
  0
LINE
  8
0
 62
     0
 10
175.099
 20
196.551
 30
0.0
 11
174.68
 21
196.337
 31
0.0
  0
LINE
  8
0
 62
     0
 10
174.68
 20
196.337
 30
0.0
 11
174.349
 21
196.007
 31
0.0
  0
LINE
  8
0
 62
     0
 10
174.349
 20
196.007
 30
0.0
 11
174.136
 21
195.588
 31
0.0
  0
LINE
  8
0
 62
     0
 10
174.136
 20
195.588
 30
0.0
 11
174.061
 21
195.125
 31
0.0
  0
LINE
  8
0
 62
     0
 10
174.061
 20
195.125
 30
0.0
 11
174.136
 21
194.66
 31
0.0
  0
LINE
  8
0
 62
     0
 10
174.136
 20
194.66
 30
0.0
 11
174.349
 21
194.243
 31
0.0
  0
LINE
  8
0
 62
     0
 10
174.349
 20
194.243
 30
0.0
 11
174.68
 21
193.911
 31
0.0
  0
LINE
  8
0
 62
     0
 10
174.68
 20
193.911
 30
0.0
 11
175.099
 21
193.698
 31
0.0
  0
LINE
  8
0
 62
     0
 10
175.099
 20
193.698
 30
0.0
 11
175.562
 21
193.625
 31
0.0
  0
LINE
  8
0
 62
     0
 10
175.562
 20
193.625
 30
0.0
 11
176.025
 21
193.698
 31
0.0
  0
LINE
  8
0
 62
     0
 10
176.025
 20
193.698
 30
0.0
 11
176.444
 21
193.911
 31
0.0
  0
LINE
  8
0
 62
     0
 10
176.444
 20
193.911
 30
0.0
 11
176.776
 21
194.243
 31
0.0
  0
LINE
  8
0
 62
     0
 10
176.776
 20
194.243
 30
0.0
 11
176.988
 21
194.66
 31
0.0
  0
LINE
  8
0
 62
     0
 10
176.988
 20
194.66
 30
0.0
 11
177.061
 21
195.125
 31
0.0
  0
LINE
  8
0
 62
     0
 10
177.061
 20
195.125
 30
0.0
 11
176.988
 21
195.588
 31
0.0
  0
LINE
  8
0
 62
     0
 10
176.988
 20
195.588
 30
0.0
 11
176.776
 21
196.007
 31
0.0
  0
LINE
  8
0
 62
     0
 10
176.776
 20
196.007
 30
0.0
 11
176.444
 21
196.337
 31
0.0
  0
LINE
  8
0
 62
     0
 10
176.444
 20
196.337
 30
0.0
 11
176.025
 21
196.551
 31
0.0
  0
LINE
  8
0
 62
     0
 10
176.025
 20
196.551
 30
0.0
 11
175.562
 21
196.624
 31
0.0
  0
LINE
  8
0
 62
     0
 10
175.562
 20
196.624
 30
0.0
 11
175.099
 21
196.551
 31
0.0
  0
LINE
  8
0
 62
     0
 10
2.13045
 20
196.551
 30
0.0
 11
1.7129
 21
196.337
 31
0.0
  0
LINE
  8
0
 62
     0
 10
1.7129
 20
196.337
 30
0.0
 11
1.38079
 21
196.007
 31
0.0
  0
LINE
  8
0
 62
     0
 10
1.38079
 20
196.007
 30
0.0
 11
1.1672
 21
195.588
 31
0.0
  0
LINE
  8
0
 62
     0
 10
1.1672
 20
195.588
 30
0.0
 11
1.09416
 21
195.125
 31
0.0
  0
LINE
  8
0
 62
     0
 10
1.09416
 20
195.125
 30
0.0
 11
1.1672
 21
194.66
 31
0.0
  0
LINE
  8
0
 62
     0
 10
1.1672
 20
194.66
 30
0.0
 11
1.38079
 21
194.243
 31
0.0
  0
LINE
  8
0
 62
     0
 10
1.38079
 20
194.243
 30
0.0
 11
1.7129
 21
193.911
 31
0.0
  0
LINE
  8
0
 62
     0
 10
1.7129
 20
193.911
 30
0.0
 11
2.13045
 21
193.698
 31
0.0
  0
LINE
  8
0
 62
     0
 10
2.13045
 20
193.698
 30
0.0
 11
2.59485
 21
193.625
 31
0.0
  0
LINE
  8
0
 62
     0
 10
2.59485
 20
193.625
 30
0.0
 11
3.05787
 21
193.698
 31
0.0
  0
LINE
  8
0
 62
     0
 10
3.05787
 20
193.698
 30
0.0
 11
3.47541
 21
193.911
 31
0.0
  0
LINE
  8
0
 62
     0
 10
3.47541
 20
193.911
 30
0.0
 11
3.80753
 21
194.243
 31
0.0
  0
LINE
  8
0
 62
     0
 10
3.80753
 20
194.243
 30
0.0
 11
4.0211
 21
194.66
 31
0.0
  0
LINE
  8
0
 62
     0
 10
4.0211
 20
194.66
 30
0.0
 11
4.09416
 21
195.125
 31
0.0
  0
LINE
  8
0
 62
     0
 10
4.09416
 20
195.125
 30
0.0
 11
4.0211
 21
195.588
 31
0.0
  0
LINE
  8
0
 62
     0
 10
4.0211
 20
195.588
 30
0.0
 11
3.80753
 21
196.007
 31
0.0
  0
LINE
  8
0
 62
     0
 10
3.80753
 20
196.007
 30
0.0
 11
3.47541
 21
196.337
 31
0.0
  0
LINE
  8
0
 62
     0
 10
3.47541
 20
196.337
 30
0.0
 11
3.05787
 21
196.551
 31
0.0
  0
LINE
  8
0
 62
     0
 10
3.05787
 20
196.551
 30
0.0
 11
2.59485
 21
196.624
 31
0.0
  0
LINE
  8
0
 62
     0
 10
2.59485
 20
196.624
 30
0.0
 11
2.13045
 21
196.551
 31
0.0
  0
ENDSEC
  0
EOF
