  0
SECTION
  2
HEADER
  9
$ACADVER
  1
AC1009
  9
$EXTMIN
 10
0.0
 20
0.0
 30
0.0
  9
$EXTMAX
 10
1000.0
 20
1000.0
 30
0.0
  9
$FILLMODE
 70
 0
  9
$SPLFRAME
 70
 1
  0
ENDSEC
  0
SECTION
  2
TABLES
  0
TABLE
  2
LAYER
 70
1
  0
LAYER
  2
0
 70
     0
 62
     7
  6
CONTINUOUS
  0
ENDTAB
  0
ENDSEC
  0
SECTION
  2
ENTITIES
  0
LINE
  8
0
 62
     0
 10
175.062
 20
197.623
 30
0.0
 11
175.297
 21
197.615
 31
0.0
  0
LINE
  8
0
 62
     0
 10
175.297
 20
197.615
 30
0.0
 11
175.532
 21
197.587
 31
0.0
  0
LINE
  8
0
 62
     0
 10
175.532
 20
197.587
 30
0.0
 11
175.763
 21
197.542
 31
0.0
  0
LINE
  8
0
 62
     0
 10
175.763
 20
197.542
 30
0.0
 11
175.989
 21
197.477
 31
0.0
  0
LINE
  8
0
 62
     0
 10
175.989
 20
197.477
 30
0.0
 11
176.211
 21
197.396
 31
0.0
  0
LINE
  8
0
 62
     0
 10
176.211
 20
197.396
 30
0.0
 11
176.423
 21
197.299
 31
0.0
  0
LINE
  8
0
 62
     0
 10
176.423
 20
197.299
 30
0.0
 11
176.63
 21
197.182
 31
0.0
  0
LINE
  8
0
 62
     0
 10
176.63
 20
197.182
 30
0.0
 11
176.826
 21
197.051
 31
0.0
  0
LINE
  8
0
 62
     0
 10
176.826
 20
197.051
 30
0.0
 11
177.01
 21
196.905
 31
0.0
  0
LINE
  8
0
 62
     0
 10
177.01
 20
196.905
 30
0.0
 11
177.184
 21
196.745
 31
0.0
  0
LINE
  8
0
 62
     0
 10
177.184
 20
196.745
 30
0.0
 11
177.344
 21
196.573
 31
0.0
  0
LINE
  8
0
 62
     0
 10
177.344
 20
196.573
 30
0.0
 11
177.49
 21
196.388
 31
0.0
  0
LINE
  8
0
 62
     0
 10
177.49
 20
196.388
 30
0.0
 11
177.619
 21
196.191
 31
0.0
  0
LINE
  8
0
 62
     0
 10
177.619
 20
196.191
 30
0.0
 11
177.735
 21
195.986
 31
0.0
  0
LINE
  8
0
 62
     0
 10
177.735
 20
195.986
 30
0.0
 11
177.833
 21
195.772
 31
0.0
  0
LINE
  8
0
 62
     0
 10
177.833
 20
195.772
 30
0.0
 11
177.916
 21
195.552
 31
0.0
  0
LINE
  8
0
 62
     0
 10
177.916
 20
195.552
 30
0.0
 11
177.979
 21
195.325
 31
0.0
  0
LINE
  8
0
 62
     0
 10
177.979
 20
195.325
 30
0.0
 11
178.026
 21
195.094
 31
0.0
  0
LINE
  8
0
 62
     0
 10
178.026
 20
195.094
 30
0.0
 11
178.052
 21
194.86
 31
0.0
  0
LINE
  8
0
 62
     0
 10
178.052
 20
194.86
 30
0.0
 11
178.062
 21
194.624
 31
0.0
  0
LINE
  8
0
 62
     0
 10
178.062
 20
194.624
 30
0.0
 11
178.062
 21
3.08267
 31
0.0
  0
LINE
  8
0
 62
     0
 10
178.062
 20
3.08267
 30
0.0
 11
178.052
 21
2.84703
 31
0.0
  0
LINE
  8
0
 62
     0
 10
178.052
 20
2.84703
 30
0.0
 11
178.026
 21
2.61276
 31
0.0
  0
LINE
  8
0
 62
     0
 10
178.026
 20
2.61276
 30
0.0
 11
177.979
 21
2.38263
 31
0.0
  0
LINE
  8
0
 62
     0
 10
177.979
 20
2.38263
 30
0.0
 11
177.916
 21
2.15525
 31
0.0
  0
LINE
  8
0
 62
     0
 10
177.916
 20
2.15525
 30
0.0
 11
177.833
 21
1.93477
 31
0.0
  0
LINE
  8
0
 62
     0
 10
177.833
 20
1.93477
 30
0.0
 11
177.735
 21
1.71979
 31
0.0
  0
LINE
  8
0
 62
     0
 10
177.735
 20
1.71979
 30
0.0
 11
177.619
 21
1.51584
 31
0.0
  0
LINE
  8
0
 62
     0
 10
177.619
 20
1.51584
 30
0.0
 11
177.49
 21
1.31878
 31
0.0
  0
LINE
  8
0
 62
     0
 10
177.49
 20
1.31878
 30
0.0
 11
177.344
 21
1.13412
 31
0.0
  0
LINE
  8
0
 62
     0
 10
177.344
 20
1.13412
 30
0.0
 11
177.184
 21
0.963249
 31
0.0
  0
LINE
  8
0
 62
     0
 10
177.184
 20
0.963249
 30
0.0
 11
177.01
 21
0.802019
 31
0.0
  0
LINE
  8
0
 62
     0
 10
177.01
 20
0.802019
 30
0.0
 11
176.826
 21
0.655948
 31
0.0
  0
LINE
  8
0
 62
     0
 10
176.826
 20
0.655948
 30
0.0
 11
176.63
 21
0.525032
 31
0.0
  0
LINE
  8
0
 62
     0
 10
176.63
 20
0.525032
 30
0.0
 11
176.423
 21
0.409279
 31
0.0
  0
LINE
  8
0
 62
     0
 10
176.423
 20
0.409279
 30
0.0
 11
176.211
 21
0.310059
 31
0.0
  0
LINE
  8
0
 62
     0
 10
176.211
 20
0.310059
 30
0.0
 11
175.989
 21
0.230132
 31
0.0
  0
LINE
  8
0
 62
     0
 10
175.989
 20
0.230132
 30
0.0
 11
175.763
 21
0.165365
 31
0.0
  0
LINE
  8
0
 62
     0
 10
175.763
 20
0.165365
 30
0.0
 11
175.532
 21
0.119889
 31
0.0
  0
LINE
  8
0
 62
     0
 10
175.532
 20
0.119889
 30
0.0
 11
175.297
 21
0.0909507
 31
0.0
  0
LINE
  8
0
 62
     0
 10
175.297
 20
0.0909507
 30
0.0
 11
175.062
 21
0.0826823
 31
0.0
  0
LINE
  8
0
 62
     0
 10
175.062
 20
0.0826823
 30
0.0
 11
3.09507
 21
0.0826823
 31
0.0
  0
LINE
  8
0
 62
     0
 10
3.09507
 20
0.0826823
 30
0.0
 11
2.85943
 21
0.0909507
 31
0.0
  0
LINE
  8
0
 62
     0
 10
2.85943
 20
0.0909507
 30
0.0
 11
2.62516
 21
0.119889
 31
0.0
  0
LINE
  8
0
 62
     0
 10
2.62516
 20
0.119889
 30
0.0
 11
2.39365
 21
0.165365
 31
0.0
  0
LINE
  8
0
 62
     0
 10
2.39365
 20
0.165365
 30
0.0
 11
2.16628
 21
0.230132
 31
0.0
  0
LINE
  8
0
 62
     0
 10
2.16628
 20
0.230132
 30
0.0
 11
1.94579
 21
0.310059
 31
0.0
  0
LINE
  8
0
 62
     0
 10
1.94579
 20
0.310059
 30
0.0
 11
1.7322
 21
0.409279
 31
0.0
  0
LINE
  8
0
 62
     0
 10
1.7322
 20
0.409279
 30
0.0
 11
1.52687
 21
0.525032
 31
0.0
  0
LINE
  8
0
 62
     0
 10
1.52687
 20
0.525032
 30
0.0
 11
1.33119
 21
0.655948
 31
0.0
  0
LINE
  8
0
 62
     0
 10
1.33119
 20
0.655948
 30
0.0
 11
1.14515
 21
0.802019
 31
0.0
  0
LINE
  8
0
 62
     0
 10
1.14515
 20
0.802019
 30
0.0
 11
0.972894
 21
0.963249
 31
0.0
  0
LINE
  8
0
 62
     0
 10
0.972894
 20
0.963249
 30
0.0
 11
0.813043
 21
1.13412
 31
0.0
  0
LINE
  8
0
 62
     0
 10
0.813043
 20
1.13412
 30
0.0
 11
0.666972
 21
1.31878
 31
0.0
  0
LINE
  8
0
 62
     0
 10
0.666972
 20
1.31878
 30
0.0
 11
0.537436
 21
1.51584
 31
0.0
  0
LINE
  8
0
 62
     0
 10
0.537436
 20
1.51584
 30
0.0
 11
0.420303
 21
1.71979
 31
0.0
  0
LINE
  8
0
 62
     0
 10
0.420303
 20
1.71979
 30
0.0
 11
0.322461
 21
1.93477
 31
0.0
  0
LINE
  8
0
 62
     0
 10
0.322461
 20
1.93477
 30
0.0
 11
0.241157
 21
2.15525
 31
0.0
  0
LINE
  8
0
 62
     0
 10
0.241157
 20
2.15525
 30
0.0
 11
0.176389
 21
2.38263
 31
0.0
  0
LINE
  8
0
 62
     0
 10
0.176389
 20
2.38263
 30
0.0
 11
0.130914
 21
2.61276
 31
0.0
  0
LINE
  8
0
 62
     0
 10
0.130914
 20
2.61276
 30
0.0
 11
0.103353
 21
2.84703
 31
0.0
  0
LINE
  8
0
 62
     0
 10
0.103353
 20
2.84703
 30
0.0
 11
0.0937066
 21
3.08267
 31
0.0
  0
LINE
  8
0
 62
     0
 10
0.0937066
 20
3.08267
 30
0.0
 11
0.0950846
 21
194.624
 31
0.0
  0
LINE
  8
0
 62
     0
 10
0.0950846
 20
194.624
 30
0.0
 11
0.103353
 21
194.86
 31
0.0
  0
LINE
  8
0
 62
     0
 10
0.103353
 20
194.86
 30
0.0
 11
0.130914
 21
195.094
 31
0.0
  0
LINE
  8
0
 62
     0
 10
0.130914
 20
195.094
 30
0.0
 11
0.176389
 21
195.325
 31
0.0
  0
LINE
  8
0
 62
     0
 10
0.176389
 20
195.325
 30
0.0
 11
0.241157
 21
195.552
 31
0.0
  0
LINE
  8
0
 62
     0
 10
0.241157
 20
195.552
 30
0.0
 11
0.322461
 21
195.772
 31
0.0
  0
LINE
  8
0
 62
     0
 10
0.322461
 20
195.772
 30
0.0
 11
0.420303
 21
195.986
 31
0.0
  0
LINE
  8
0
 62
     0
 10
0.420303
 20
195.986
 30
0.0
 11
0.537436
 21
196.191
 31
0.0
  0
LINE
  8
0
 62
     0
 10
0.537436
 20
196.191
 30
0.0
 11
0.666972
 21
196.388
 31
0.0
  0
LINE
  8
0
 62
     0
 10
0.666972
 20
196.388
 30
0.0
 11
0.813043
 21
196.573
 31
0.0
  0
LINE
  8
0
 62
     0
 10
0.813043
 20
196.573
 30
0.0
 11
0.972894
 21
196.745
 31
0.0
  0
LINE
  8
0
 62
     0
 10
0.972894
 20
196.745
 30
0.0
 11
1.14515
 21
196.905
 31
0.0
  0
LINE
  8
0
 62
     0
 10
1.14515
 20
196.905
 30
0.0
 11
1.33119
 21
197.051
 31
0.0
  0
LINE
  8
0
 62
     0
 10
1.33119
 20
197.051
 30
0.0
 11
1.52687
 21
197.182
 31
0.0
  0
LINE
  8
0
 62
     0
 10
1.52687
 20
197.182
 30
0.0
 11
1.7322
 21
197.299
 31
0.0
  0
LINE
  8
0
 62
     0
 10
1.7322
 20
197.299
 30
0.0
 11
1.94579
 21
197.396
 31
0.0
  0
LINE
  8
0
 62
     0
 10
1.94579
 20
197.396
 30
0.0
 11
2.16628
 21
197.477
 31
0.0
  0
LINE
  8
0
 62
     0
 10
2.16628
 20
197.477
 30
0.0
 11
2.39365
 21
197.542
 31
0.0
  0
LINE
  8
0
 62
     0
 10
2.39365
 20
197.542
 30
0.0
 11
2.62516
 21
197.587
 31
0.0
  0
LINE
  8
0
 62
     0
 10
2.62516
 20
197.587
 30
0.0
 11
2.85943
 21
197.615
 31
0.0
  0
LINE
  8
0
 62
     0
 10
2.85943
 20
197.615
 30
0.0
 11
3.09507
 21
197.624
 31
0.0
  0
LINE
  8
0
 62
     0
 10
3.09507
 20
197.624
 30
0.0
 11
175.062
 21
197.623
 31
0.0
  0
LINE
  8
0
 62
     0
 10
175.099
 20
4.0101
 30
0.0
 11
174.68
 21
3.79649
 31
0.0
  0
LINE
  8
0
 62
     0
 10
174.68
 20
3.79649
 30
0.0
 11
174.349
 21
3.46439
 31
0.0
  0
LINE
  8
0
 62
     0
 10
174.349
 20
3.46439
 30
0.0
 11
174.136
 21
3.04684
 31
0.0
  0
LINE
  8
0
 62
     0
 10
174.136
 20
3.04684
 30
0.0
 11
174.061
 21
2.58244
 31
0.0
  0
LINE
  8
0
 62
     0
 10
174.061
 20
2.58244
 30
0.0
 11
174.136
 21
2.11942
 31
0.0
  0
LINE
  8
0
 62
     0
 10
174.136
 20
2.11942
 30
0.0
 11
174.349
 21
1.7005
 31
0.0
  0
LINE
  8
0
 62
     0
 10
174.349
 20
1.7005
 30
0.0
 11
174.68
 21
1.36977
 31
0.0
  0
LINE
  8
0
 62
     0
 10
174.68
 20
1.36977
 30
0.0
 11
175.099
 21
1.1548
 31
0.0
  0
LINE
  8
0
 62
     0
 10
175.099
 20
1.1548
 30
0.0
 11
175.562
 21
1.08176
 31
0.0
  0
LINE
  8
0
 62
     0
 10
175.562
 20
1.08176
 30
0.0
 11
176.025
 21
1.1548
 31
0.0
  0
LINE
  8
0
 62
     0
 10
176.025
 20
1.1548
 30
0.0
 11
176.444
 21
1.36977
 31
0.0
  0
LINE
  8
0
 62
     0
 10
176.444
 20
1.36977
 30
0.0
 11
176.776
 21
1.7005
 31
0.0
  0
LINE
  8
0
 62
     0
 10
176.776
 20
1.7005
 30
0.0
 11
176.988
 21
2.11942
 31
0.0
  0
LINE
  8
0
 62
     0
 10
176.988
 20
2.11942
 30
0.0
 11
177.061
 21
2.58244
 31
0.0
  0
LINE
  8
0
 62
     0
 10
177.061
 20
2.58244
 30
0.0
 11
176.988
 21
3.04684
 31
0.0
  0
LINE
  8
0
 62
     0
 10
176.988
 20
3.04684
 30
0.0
 11
176.776
 21
3.46439
 31
0.0
  0
LINE
  8
0
 62
     0
 10
176.776
 20
3.46439
 30
0.0
 11
176.444
 21
3.79649
 31
0.0
  0
LINE
  8
0
 62
     0
 10
176.444
 20
3.79649
 30
0.0
 11
176.025
 21
4.0101
 31
0.0
  0
LINE
  8
0
 62
     0
 10
176.025
 20
4.0101
 30
0.0
 11
175.562
 21
4.08174
 31
0.0
  0
LINE
  8
0
 62
     0
 10
175.562
 20
4.08174
 30
0.0
 11
175.099
 21
4.0101
 31
0.0
  0
LINE
  8
0
 62
     0
 10
88.6146
 20
4.0101
 30
0.0
 11
88.1973
 21
3.79649
 31
0.0
  0
LINE
  8
0
 62
     0
 10
88.1973
 20
3.79649
 30
0.0
 11
87.8649
 21
3.46439
 31
0.0
  0
LINE
  8
0
 62
     0
 10
87.8649
 20
3.46439
 30
0.0
 11
87.6515
 21
3.04684
 31
0.0
  0
LINE
  8
0
 62
     0
 10
87.6515
 20
3.04684
 30
0.0
 11
87.5771
 21
2.58244
 31
0.0
  0
LINE
  8
0
 62
     0
 10
87.5771
 20
2.58244
 30
0.0
 11
87.6515
 21
2.11942
 31
0.0
  0
LINE
  8
0
 62
     0
 10
87.6515
 20
2.11942
 30
0.0
 11
87.8649
 21
1.7005
 31
0.0
  0
LINE
  8
0
 62
     0
 10
87.8649
 20
1.7005
 30
0.0
 11
88.1973
 21
1.36977
 31
0.0
  0
LINE
  8
0
 62
     0
 10
88.1973
 20
1.36977
 30
0.0
 11
88.6146
 21
1.1548
 31
0.0
  0
LINE
  8
0
 62
     0
 10
88.6146
 20
1.1548
 30
0.0
 11
89.0778
 21
1.08176
 31
0.0
  0
LINE
  8
0
 62
     0
 10
89.0778
 20
1.08176
 30
0.0
 11
89.5421
 21
1.1548
 31
0.0
  0
LINE
  8
0
 62
     0
 10
89.5421
 20
1.1548
 30
0.0
 11
89.9597
 21
1.36977
 31
0.0
  0
LINE
  8
0
 62
     0
 10
89.9597
 20
1.36977
 30
0.0
 11
90.2917
 21
1.7005
 31
0.0
  0
LINE
  8
0
 62
     0
 10
90.2917
 20
1.7005
 30
0.0
 11
90.5055
 21
2.11942
 31
0.0
  0
LINE
  8
0
 62
     0
 10
90.5055
 20
2.11942
 30
0.0
 11
90.5771
 21
2.58244
 31
0.0
  0
LINE
  8
0
 62
     0
 10
90.5771
 20
2.58244
 30
0.0
 11
90.5055
 21
3.04684
 31
0.0
  0
LINE
  8
0
 62
     0
 10
90.5055
 20
3.04684
 30
0.0
 11
90.2917
 21
3.46439
 31
0.0
  0
LINE
  8
0
 62
     0
 10
90.2917
 20
3.46439
 30
0.0
 11
89.9597
 21
3.79649
 31
0.0
  0
LINE
  8
0
 62
     0
 10
89.9597
 20
3.79649
 30
0.0
 11
89.5421
 21
4.0101
 31
0.0
  0
LINE
  8
0
 62
     0
 10
89.5421
 20
4.0101
 30
0.0
 11
89.0778
 21
4.08174
 31
0.0
  0
LINE
  8
0
 62
     0
 10
89.0778
 20
4.08174
 30
0.0
 11
88.6146
 21
4.0101
 31
0.0
  0
LINE
  8
0
 62
     0
 10
2.13045
 20
4.0101
 30
0.0
 11
1.7129
 21
3.79649
 31
0.0
  0
LINE
  8
0
 62
     0
 10
1.7129
 20
3.79649
 30
0.0
 11
1.38079
 21
3.46439
 31
0.0
  0
LINE
  8
0
 62
     0
 10
1.38079
 20
3.46439
 30
0.0
 11
1.1672
 21
3.04684
 31
0.0
  0
LINE
  8
0
 62
     0
 10
1.1672
 20
3.04684
 30
0.0
 11
1.09416
 21
2.58244
 31
0.0
  0
LINE
  8
0
 62
     0
 10
1.09416
 20
2.58244
 30
0.0
 11
1.1672
 21
2.11942
 31
0.0
  0
LINE
  8
0
 62
     0
 10
1.1672
 20
2.11942
 30
0.0
 11
1.38079
 21
1.7005
 31
0.0
  0
LINE
  8
0
 62
     0
 10
1.38079
 20
1.7005
 30
0.0
 11
1.7129
 21
1.36977
 31
0.0
  0
LINE
  8
0
 62
     0
 10
1.7129
 20
1.36977
 30
0.0
 11
2.13045
 21
1.1548
 31
0.0
  0
LINE
  8
0
 62
     0
 10
2.13045
 20
1.1548
 30
0.0
 11
2.59485
 21
1.08176
 31
0.0
  0
LINE
  8
0
 62
     0
 10
2.59485
 20
1.08176
 30
0.0
 11
3.05787
 21
1.1548
 31
0.0
  0
LINE
  8
0
 62
     0
 10
3.05787
 20
1.1548
 30
0.0
 11
3.47541
 21
1.36977
 31
0.0
  0
LINE
  8
0
 62
     0
 10
3.47541
 20
1.36977
 30
0.0
 11
3.80753
 21
1.7005
 31
0.0
  0
LINE
  8
0
 62
     0
 10
3.80753
 20
1.7005
 30
0.0
 11
4.0211
 21
2.11942
 31
0.0
  0
LINE
  8
0
 62
     0
 10
4.0211
 20
2.11942
 30
0.0
 11
4.09416
 21
2.58244
 31
0.0
  0
LINE
  8
0
 62
     0
 10
4.09416
 20
2.58244
 30
0.0
 11
4.0211
 21
3.04684
 31
0.0
  0
LINE
  8
0
 62
     0
 10
4.0211
 20
3.04684
 30
0.0
 11
3.80753
 21
3.46439
 31
0.0
  0
LINE
  8
0
 62
     0
 10
3.80753
 20
3.46439
 30
0.0
 11
3.47541
 21
3.79649
 31
0.0
  0
LINE
  8
0
 62
     0
 10
3.47541
 20
3.79649
 30
0.0
 11
3.05787
 21
4.0101
 31
0.0
  0
LINE
  8
0
 62
     0
 10
3.05787
 20
4.0101
 30
0.0
 11
2.59485
 21
4.08174
 31
0.0
  0
LINE
  8
0
 62
     0
 10
2.59485
 20
4.08174
 30
0.0
 11
2.13045
 21
4.0101
 31
0.0
  0
LINE
  8
0
 62
     0
 10
145.256
 20
74.2199
 30
0.0
 11
144.391
 21
74.7201
 31
0.0
  0
LINE
  8
0
 62
     0
 10
144.391
 20
74.7201
 30
0.0
 11
137.39
 21
62.5972
 31
0.0
  0
LINE
  8
0
 62
     0
 10
137.39
 20
62.5972
 30
0.0
 11
138.257
 21
62.097
 31
0.0
  0
LINE
  8
0
 62
     0
 10
138.257
 20
62.097
 30
0.0
 11
137.856
 21
61.4027
 31
0.0
  0
LINE
  8
0
 62
     0
 10
137.856
 20
61.4027
 30
0.0
 11
140.541
 21
59.8523
 31
0.0
  0
LINE
  8
0
 62
     0
 10
140.541
 20
59.8523
 30
0.0
 11
140.94
 21
60.5455
 31
0.0
  0
LINE
  8
0
 62
     0
 10
140.94
 20
60.5455
 30
0.0
 11
145.963
 21
57.646
 31
0.0
  0
LINE
  8
0
 62
     0
 10
145.963
 20
57.646
 30
0.0
 11
145.564
 21
56.9528
 31
0.0
  0
LINE
  8
0
 62
     0
 10
145.564
 20
56.9528
 30
0.0
 11
148.249
 21
55.4027
 31
0.0
  0
LINE
  8
0
 62
     0
 10
148.249
 20
55.4027
 30
0.0
 11
148.649
 21
56.0959
 31
0.0
  0
LINE
  8
0
 62
     0
 10
148.649
 20
56.0959
 30
0.0
 11
149.514
 21
55.5957
 31
0.0
  0
LINE
  8
0
 62
     0
 10
149.514
 20
55.5957
 30
0.0
 11
156.515
 21
67.7196
 31
0.0
  0
LINE
  8
0
 62
     0
 10
156.515
 20
67.7196
 30
0.0
 11
155.649
 21
68.2198
 31
0.0
  0
LINE
  8
0
 62
     0
 10
155.649
 20
68.2198
 30
0.0
 11
156.049
 21
68.913
 31
0.0
  0
LINE
  8
0
 62
     0
 10
156.049
 20
68.913
 30
0.0
 11
153.363
 21
70.4617
 31
0.0
  0
LINE
  8
0
 62
     0
 10
153.363
 20
70.4617
 30
0.0
 11
152.964
 21
69.7699
 31
0.0
  0
LINE
  8
0
 62
     0
 10
152.964
 20
69.7699
 30
0.0
 11
147.941
 21
72.6694
 31
0.0
  0
LINE
  8
0
 62
     0
 10
147.941
 20
72.6694
 30
0.0
 11
148.34
 21
73.3626
 31
0.0
  0
LINE
  8
0
 62
     0
 10
148.34
 20
73.3626
 30
0.0
 11
145.657
 21
74.9141
 31
0.0
  0
LINE
  8
0
 62
     0
 10
145.657
 20
74.9141
 30
0.0
 11
145.256
 21
74.2199
 31
0.0
  0
LINE
  8
0
 62
     0
 10
7.61919
 20
78.0838
 30
0.0
 11
7.61919
 21
77.0848
 31
0.0
  0
LINE
  8
0
 62
     0
 10
7.61919
 20
77.0848
 30
0.0
 11
6.81852
 21
77.0848
 31
0.0
  0
LINE
  8
0
 62
     0
 10
6.81852
 20
77.0848
 30
0.0
 11
6.81852
 21
73.9842
 31
0.0
  0
LINE
  8
0
 62
     0
 10
6.81852
 20
73.9842
 30
0.0
 11
7.61919
 21
73.9842
 31
0.0
  0
LINE
  8
0
 62
     0
 10
7.61919
 20
73.9842
 30
0.0
 11
7.61919
 21
68.1838
 31
0.0
  0
LINE
  8
0
 62
     0
 10
7.61919
 20
68.1838
 30
0.0
 11
6.81852
 21
68.1838
 31
0.0
  0
LINE
  8
0
 62
     0
 10
6.81852
 20
68.1838
 30
0.0
 11
6.81852
 21
65.0847
 31
0.0
  0
LINE
  8
0
 62
     0
 10
6.81852
 20
65.0847
 30
0.0
 11
7.61919
 21
65.0847
 31
0.0
  0
LINE
  8
0
 62
     0
 10
7.61919
 20
65.0847
 30
0.0
 11
7.61919
 21
64.0842
 31
0.0
  0
LINE
  8
0
 62
     0
 10
7.61919
 20
64.0842
 30
0.0
 11
21.6201
 21
64.0842
 31
0.0
  0
LINE
  8
0
 62
     0
 10
21.6201
 20
64.0842
 30
0.0
 11
21.6201
 21
65.0847
 31
0.0
  0
LINE
  8
0
 62
     0
 10
21.6201
 20
65.0847
 30
0.0
 11
22.4193
 21
65.0847
 31
0.0
  0
LINE
  8
0
 62
     0
 10
22.4193
 20
65.0847
 30
0.0
 11
22.4193
 21
68.1838
 31
0.0
  0
LINE
  8
0
 62
     0
 10
22.4193
 20
68.1838
 30
0.0
 11
21.6201
 21
68.1838
 31
0.0
  0
LINE
  8
0
 62
     0
 10
21.6201
 20
68.1838
 30
0.0
 11
21.6201
 21
73.9842
 31
0.0
  0
LINE
  8
0
 62
     0
 10
21.6201
 20
73.9842
 30
0.0
 11
22.4193
 21
73.9842
 31
0.0
  0
LINE
  8
0
 62
     0
 10
22.4193
 20
73.9842
 30
0.0
 11
22.4193
 21
77.0848
 31
0.0
  0
LINE
  8
0
 62
     0
 10
22.4193
 20
77.0848
 30
0.0
 11
21.6201
 21
77.0848
 31
0.0
  0
LINE
  8
0
 62
     0
 10
21.6201
 20
77.0848
 30
0.0
 11
21.6201
 21
78.0838
 31
0.0
  0
LINE
  8
0
 62
     0
 10
21.6201
 20
78.0838
 30
0.0
 11
7.61919
 21
78.0838
 31
0.0
  0
LINE
  8
0
 62
     0
 10
128.583
 20
85.4396
 30
0.0
 11
127.89
 21
85.8407
 31
0.0
  0
LINE
  8
0
 62
     0
 10
127.89
 20
85.8407
 30
0.0
 11
126.341
 21
83.1564
 31
0.0
  0
LINE
  8
0
 62
     0
 10
126.341
 20
83.1564
 30
0.0
 11
127.033
 21
82.7567
 31
0.0
  0
LINE
  8
0
 62
     0
 10
127.033
 20
82.7567
 30
0.0
 11
124.132
 21
77.7339
 31
0.0
  0
LINE
  8
0
 62
     0
 10
124.132
 20
77.7339
 30
0.0
 11
123.44
 21
78.1346
 31
0.0
  0
LINE
  8
0
 62
     0
 10
123.44
 20
78.1346
 30
0.0
 11
121.89
 21
75.4489
 31
0.0
  0
LINE
  8
0
 62
     0
 10
121.89
 20
75.4489
 30
0.0
 11
122.583
 21
75.0478
 31
0.0
  0
LINE
  8
0
 62
     0
 10
122.583
 20
75.0478
 30
0.0
 11
122.083
 21
74.1825
 31
0.0
  0
LINE
  8
0
 62
     0
 10
122.083
 20
74.1825
 30
0.0
 11
134.207
 21
67.1834
 31
0.0
  0
LINE
  8
0
 62
     0
 10
134.207
 20
67.1834
 30
0.0
 11
134.707
 21
68.0501
 31
0.0
  0
LINE
  8
0
 62
     0
 10
134.707
 20
68.0501
 30
0.0
 11
135.401
 21
67.648
 31
0.0
  0
LINE
  8
0
 62
     0
 10
135.401
 20
67.648
 30
0.0
 11
136.951
 21
70.3337
 31
0.0
  0
LINE
  8
0
 62
     0
 10
136.951
 20
70.3337
 30
0.0
 11
136.258
 21
70.7334
 31
0.0
  0
LINE
  8
0
 62
     0
 10
136.258
 20
70.7334
 30
0.0
 11
139.158
 21
75.7562
 31
0.0
  0
LINE
  8
0
 62
     0
 10
139.158
 20
75.7562
 30
0.0
 11
139.85
 21
75.3565
 31
0.0
  0
LINE
  8
0
 62
     0
 10
139.85
 20
75.3565
 30
0.0
 11
141.4
 21
78.0411
 31
0.0
  0
LINE
  8
0
 62
     0
 10
141.4
 20
78.0411
 30
0.0
 11
140.707
 21
78.4419
 31
0.0
  0
LINE
  8
0
 62
     0
 10
140.707
 20
78.4419
 30
0.0
 11
141.207
 21
79.3062
 31
0.0
  0
LINE
  8
0
 62
     0
 10
141.207
 20
79.3062
 30
0.0
 11
129.084
 21
86.3078
 31
0.0
  0
LINE
  8
0
 62
     0
 10
129.084
 20
86.3078
 30
0.0
 11
128.583
 21
85.4396
 31
0.0
  0
LINE
  8
0
 62
     0
 10
26.6692
 20
82.8477
 30
0.0
 11
26.6692
 21
81.8473
 31
0.0
  0
LINE
  8
0
 62
     0
 10
26.6692
 20
81.8473
 30
0.0
 11
25.8699
 21
81.8473
 31
0.0
  0
LINE
  8
0
 62
     0
 10
25.8699
 20
81.8473
 30
0.0
 11
25.8699
 21
78.7481
 31
0.0
  0
LINE
  8
0
 62
     0
 10
25.8699
 20
78.7481
 30
0.0
 11
26.6692
 21
78.7481
 31
0.0
  0
LINE
  8
0
 62
     0
 10
26.6692
 20
78.7481
 30
0.0
 11
26.6692
 21
72.9477
 31
0.0
  0
LINE
  8
0
 62
     0
 10
26.6692
 20
72.9477
 30
0.0
 11
25.8699
 21
72.9477
 31
0.0
  0
LINE
  8
0
 62
     0
 10
25.8699
 20
72.9477
 30
0.0
 11
25.8699
 21
69.8472
 31
0.0
  0
LINE
  8
0
 62
     0
 10
25.8699
 20
69.8472
 30
0.0
 11
26.6692
 21
69.8472
 31
0.0
  0
LINE
  8
0
 62
     0
 10
26.6692
 20
69.8472
 30
0.0
 11
26.6692
 21
68.8467
 31
0.0
  0
LINE
  8
0
 62
     0
 10
26.6692
 20
68.8467
 30
0.0
 11
40.67
 21
68.8467
 31
0.0
  0
LINE
  8
0
 62
     0
 10
40.67
 20
68.8467
 30
0.0
 11
40.67
 21
69.8472
 31
0.0
  0
LINE
  8
0
 62
     0
 10
40.67
 20
69.8472
 30
0.0
 11
41.4694
 21
69.8472
 31
0.0
  0
LINE
  8
0
 62
     0
 10
41.4694
 20
69.8472
 30
0.0
 11
41.4694
 21
72.9477
 31
0.0
  0
LINE
  8
0
 62
     0
 10
41.4694
 20
72.9477
 30
0.0
 11
40.67
 21
72.9477
 31
0.0
  0
LINE
  8
0
 62
     0
 10
40.67
 20
72.9477
 30
0.0
 11
40.67
 21
78.7481
 31
0.0
  0
LINE
  8
0
 62
     0
 10
40.67
 20
78.7481
 30
0.0
 11
41.4694
 21
78.7481
 31
0.0
  0
LINE
  8
0
 62
     0
 10
41.4694
 20
78.7481
 30
0.0
 11
41.4694
 21
81.8473
 31
0.0
  0
LINE
  8
0
 62
     0
 10
41.4694
 20
81.8473
 30
0.0
 11
40.67
 21
81.8473
 31
0.0
  0
LINE
  8
0
 62
     0
 10
40.67
 20
81.8473
 30
0.0
 11
40.67
 21
82.8477
 31
0.0
  0
LINE
  8
0
 62
     0
 10
40.67
 20
82.8477
 30
0.0
 11
26.6692
 21
82.8477
 31
0.0
  0
LINE
  8
0
 62
     0
 10
157.163
 20
94.8408
 30
0.0
 11
156.297
 21
95.341
 31
0.0
  0
LINE
  8
0
 62
     0
 10
156.297
 20
95.341
 30
0.0
 11
149.297
 21
83.2185
 31
0.0
  0
LINE
  8
0
 62
     0
 10
149.297
 20
83.2185
 30
0.0
 11
150.163
 21
82.7169
 31
0.0
  0
LINE
  8
0
 62
     0
 10
150.163
 20
82.7169
 30
0.0
 11
149.762
 21
82.0251
 31
0.0
  0
LINE
  8
0
 62
     0
 10
149.762
 20
82.0251
 30
0.0
 11
152.448
 21
80.4746
 31
0.0
  0
LINE
  8
0
 62
     0
 10
152.448
 20
80.4746
 30
0.0
 11
152.848
 21
81.1678
 31
0.0
  0
LINE
  8
0
 62
     0
 10
152.848
 20
81.1678
 30
0.0
 11
157.871
 21
78.2669
 31
0.0
  0
LINE
  8
0
 62
     0
 10
157.871
 20
78.2669
 30
0.0
 11
157.471
 21
77.5751
 31
0.0
  0
LINE
  8
0
 62
     0
 10
157.471
 20
77.5751
 30
0.0
 11
160.154
 21
76.025
 31
0.0
  0
LINE
  8
0
 62
     0
 10
160.154
 20
76.025
 30
0.0
 11
160.555
 21
76.7168
 31
0.0
  0
LINE
  8
0
 62
     0
 10
160.555
 20
76.7168
 30
0.0
 11
161.421
 21
76.218
 31
0.0
  0
LINE
  8
0
 62
     0
 10
161.421
 20
76.218
 30
0.0
 11
168.421
 21
88.3419
 31
0.0
  0
LINE
  8
0
 62
     0
 10
168.421
 20
88.3419
 30
0.0
 11
167.554
 21
88.8407
 31
0.0
  0
LINE
  8
0
 62
     0
 10
167.554
 20
88.8407
 30
0.0
 11
167.955
 21
89.5339
 31
0.0
  0
LINE
  8
0
 62
     0
 10
167.955
 20
89.5339
 30
0.0
 11
165.271
 21
91.0841
 31
0.0
  0
LINE
  8
0
 62
     0
 10
165.271
 20
91.0841
 30
0.0
 11
164.871
 21
90.3923
 31
0.0
  0
LINE
  8
0
 62
     0
 10
164.871
 20
90.3923
 30
0.0
 11
159.848
 21
93.2917
 31
0.0
  0
LINE
  8
0
 62
     0
 10
159.848
 20
93.2917
 30
0.0
 11
160.248
 21
93.9849
 31
0.0
  0
LINE
  8
0
 62
     0
 10
160.248
 20
93.9849
 30
0.0
 11
157.562
 21
95.534
 31
0.0
  0
LINE
  8
0
 62
     0
 10
157.562
 20
95.534
 30
0.0
 11
157.163
 21
94.8408
 31
0.0
  0
LINE
  8
0
 62
     0
 10
113.991
 20
98.2652
 30
0.0
 11
113.298
 21
98.6649
 31
0.0
  0
LINE
  8
0
 62
     0
 10
113.298
 20
98.6649
 30
0.0
 11
111.748
 21
95.9803
 31
0.0
  0
LINE
  8
0
 62
     0
 10
111.748
 20
95.9803
 30
0.0
 11
112.441
 21
95.582
 31
0.0
  0
LINE
  8
0
 62
     0
 10
112.441
 20
95.582
 30
0.0
 11
109.54
 21
90.5577
 31
0.0
  0
LINE
  8
0
 62
     0
 10
109.54
 20
90.5577
 30
0.0
 11
108.847
 21
90.9574
 31
0.0
  0
LINE
  8
0
 62
     0
 10
108.847
 20
90.9574
 30
0.0
 11
107.298
 21
88.2731
 31
0.0
  0
LINE
  8
0
 62
     0
 10
107.298
 20
88.2731
 30
0.0
 11
107.991
 21
87.8734
 31
0.0
  0
LINE
  8
0
 62
     0
 10
107.991
 20
87.8734
 30
0.0
 11
107.491
 21
87.0081
 31
0.0
  0
LINE
  8
0
 62
     0
 10
107.491
 20
87.0081
 30
0.0
 11
119.615
 21
80.0075
 31
0.0
  0
LINE
  8
0
 62
     0
 10
119.615
 20
80.0075
 30
0.0
 11
120.115
 21
80.8729
 31
0.0
  0
LINE
  8
0
 62
     0
 10
120.115
 20
80.8729
 30
0.0
 11
120.807
 21
80.4732
 31
0.0
  0
LINE
  8
0
 62
     0
 10
120.807
 20
80.4732
 30
0.0
 11
122.357
 21
83.1578
 31
0.0
  0
LINE
  8
0
 62
     0
 10
122.357
 20
83.1578
 30
0.0
 11
121.664
 21
83.5586
 31
0.0
  0
LINE
  8
0
 62
     0
 10
121.664
 20
83.5586
 30
0.0
 11
124.565
 21
88.5804
 31
0.0
  0
LINE
  8
0
 62
     0
 10
124.565
 20
88.5804
 30
0.0
 11
125.258
 21
88.1807
 31
0.0
  0
LINE
  8
0
 62
     0
 10
125.258
 20
88.1807
 30
0.0
 11
126.807
 21
90.865
 31
0.0
  0
LINE
  8
0
 62
     0
 10
126.807
 20
90.865
 30
0.0
 11
126.115
 21
91.2661
 31
0.0
  0
LINE
  8
0
 62
     0
 10
126.115
 20
91.2661
 30
0.0
 11
126.614
 21
92.1314
 31
0.0
  0
LINE
  8
0
 62
     0
 10
126.614
 20
92.1314
 30
0.0
 11
114.49
 21
99.132
 31
0.0
  0
LINE
  8
0
 62
     0
 10
114.49
 20
99.132
 30
0.0
 11
113.991
 21
98.2652
 31
0.0
  0
LINE
  8
0
 62
     0
 10
138.108
 20
101.939
 30
0.0
 11
137.415
 21
102.339
 31
0.0
  0
LINE
  8
0
 62
     0
 10
137.415
 20
102.339
 30
0.0
 11
135.866
 21
99.6541
 31
0.0
  0
LINE
  8
0
 62
     0
 10
135.866
 20
99.6541
 30
0.0
 11
136.558
 21
99.2547
 31
0.0
  0
LINE
  8
0
 62
     0
 10
136.558
 20
99.2547
 30
0.0
 11
133.659
 21
94.2315
 31
0.0
  0
LINE
  8
0
 62
     0
 10
133.659
 20
94.2315
 30
0.0
 11
132.965
 21
94.6312
 31
0.0
  0
LINE
  8
0
 62
     0
 10
132.965
 20
94.6312
 30
0.0
 11
131.415
 21
91.9469
 31
0.0
  0
LINE
  8
0
 62
     0
 10
131.415
 20
91.9469
 30
0.0
 11
132.108
 21
91.5458
 31
0.0
  0
LINE
  8
0
 62
     0
 10
132.108
 20
91.5458
 30
0.0
 11
131.608
 21
90.6805
 31
0.0
  0
LINE
  8
0
 62
     0
 10
131.608
 20
90.6805
 30
0.0
 11
143.732
 21
83.6799
 31
0.0
  0
LINE
  8
0
 62
     0
 10
143.732
 20
83.6799
 30
0.0
 11
144.232
 21
84.5467
 31
0.0
  0
LINE
  8
0
 62
     0
 10
144.232
 20
84.5467
 30
0.0
 11
144.926
 21
84.1456
 31
0.0
  0
LINE
  8
0
 62
     0
 10
144.926
 20
84.1456
 30
0.0
 11
146.476
 21
86.8317
 31
0.0
  0
LINE
  8
0
 62
     0
 10
146.476
 20
86.8317
 30
0.0
 11
145.783
 21
87.2324
 31
0.0
  0
LINE
  8
0
 62
     0
 10
145.783
 20
87.2324
 30
0.0
 11
148.683
 21
92.2528
 31
0.0
  0
LINE
  8
0
 62
     0
 10
148.683
 20
92.2528
 30
0.0
 11
149.375
 21
91.8531
 31
0.0
  0
LINE
  8
0
 62
     0
 10
149.375
 20
91.8531
 30
0.0
 11
150.925
 21
94.5388
 31
0.0
  0
LINE
  8
0
 62
     0
 10
150.925
 20
94.5388
 30
0.0
 11
150.232
 21
94.9385
 31
0.0
  0
LINE
  8
0
 62
     0
 10
150.232
 20
94.9385
 30
0.0
 11
150.732
 21
95.8039
 31
0.0
  0
LINE
  8
0
 62
     0
 10
150.732
 20
95.8039
 30
0.0
 11
138.609
 21
102.804
 31
0.0
  0
LINE
  8
0
 62
     0
 10
138.609
 20
102.804
 30
0.0
 11
138.108
 21
101.939
 31
0.0
  0
LINE
  8
0
 62
     0
 10
8.61826
 20
100.317
 30
0.0
 11
8.61826
 21
99.5165
 31
0.0
  0
LINE
  8
0
 62
     0
 10
8.61826
 20
99.5165
 30
0.0
 11
7.61919
 21
99.5165
 31
0.0
  0
LINE
  8
0
 62
     0
 10
7.61919
 20
99.5165
 30
0.0
 11
7.61919
 21
85.5169
 31
0.0
  0
LINE
  8
0
 62
     0
 10
7.61919
 20
85.5169
 30
0.0
 11
8.61826
 21
85.5169
 31
0.0
  0
LINE
  8
0
 62
     0
 10
8.61826
 20
85.5169
 30
0.0
 11
8.61826
 21
84.7178
 31
0.0
  0
LINE
  8
0
 62
     0
 10
8.61826
 20
84.7178
 30
0.0
 11
11.7202
 21
84.7178
 31
0.0
  0
LINE
  8
0
 62
     0
 10
11.7202
 20
84.7178
 30
0.0
 11
11.7202
 21
85.5169
 31
0.0
  0
LINE
  8
0
 62
     0
 10
11.7202
 20
85.5169
 30
0.0
 11
17.519
 21
85.5169
 31
0.0
  0
LINE
  8
0
 62
     0
 10
17.519
 20
85.5169
 30
0.0
 11
17.519
 21
84.7178
 31
0.0
  0
LINE
  8
0
 62
     0
 10
17.519
 20
84.7178
 30
0.0
 11
20.6196
 21
84.7178
 31
0.0
  0
LINE
  8
0
 62
     0
 10
20.6196
 20
84.7178
 30
0.0
 11
20.6196
 21
85.5169
 31
0.0
  0
LINE
  8
0
 62
     0
 10
20.6196
 20
85.5169
 30
0.0
 11
21.6201
 21
85.5169
 31
0.0
  0
LINE
  8
0
 62
     0
 10
21.6201
 20
85.5169
 30
0.0
 11
21.6201
 21
99.5165
 31
0.0
  0
LINE
  8
0
 62
     0
 10
21.6201
 20
99.5165
 30
0.0
 11
20.6196
 21
99.5165
 31
0.0
  0
LINE
  8
0
 62
     0
 10
20.6196
 20
99.5165
 30
0.0
 11
20.6196
 21
100.317
 31
0.0
  0
LINE
  8
0
 62
     0
 10
20.6196
 20
100.317
 30
0.0
 11
17.519
 21
100.317
 31
0.0
  0
LINE
  8
0
 62
     0
 10
17.519
 20
100.317
 30
0.0
 11
17.519
 21
99.5165
 31
0.0
  0
LINE
  8
0
 62
     0
 10
17.519
 20
99.5165
 30
0.0
 11
11.7202
 21
99.5165
 31
0.0
  0
LINE
  8
0
 62
     0
 10
11.7202
 20
99.5165
 30
0.0
 11
11.7202
 21
100.317
 31
0.0
  0
LINE
  8
0
 62
     0
 10
11.7202
 20
100.317
 30
0.0
 11
8.61826
 21
100.317
 31
0.0
  0
LINE
  8
0
 62
     0
 10
27.6696
 20
105.078
 30
0.0
 11
27.6696
 21
104.279
 31
0.0
  0
LINE
  8
0
 62
     0
 10
27.6696
 20
104.279
 30
0.0
 11
26.6692
 21
104.279
 31
0.0
  0
LINE
  8
0
 62
     0
 10
26.6692
 20
104.279
 30
0.0
 11
26.6692
 21
90.278
 31
0.0
  0
LINE
  8
0
 62
     0
 10
26.6692
 20
90.278
 30
0.0
 11
27.6696
 21
90.278
 31
0.0
  0
LINE
  8
0
 62
     0
 10
27.6696
 20
90.278
 30
0.0
 11
27.6696
 21
89.4803
 31
0.0
  0
LINE
  8
0
 62
     0
 10
27.6696
 20
89.4803
 30
0.0
 11
30.7702
 21
89.4803
 31
0.0
  0
LINE
  8
0
 62
     0
 10
30.7702
 20
89.4803
 30
0.0
 11
30.7702
 21
90.278
 31
0.0
  0
LINE
  8
0
 62
     0
 10
30.7702
 20
90.278
 30
0.0
 11
36.5704
 21
90.278
 31
0.0
  0
LINE
  8
0
 62
     0
 10
36.5704
 20
90.278
 30
0.0
 11
36.5704
 21
89.4803
 31
0.0
  0
LINE
  8
0
 62
     0
 10
36.5704
 20
89.4803
 30
0.0
 11
39.6695
 21
89.4803
 31
0.0
  0
LINE
  8
0
 62
     0
 10
39.6695
 20
89.4803
 30
0.0
 11
39.6695
 21
90.278
 31
0.0
  0
LINE
  8
0
 62
     0
 10
39.6695
 20
90.278
 30
0.0
 11
40.67
 21
90.278
 31
0.0
  0
LINE
  8
0
 62
     0
 10
40.67
 20
90.278
 30
0.0
 11
40.67
 21
104.279
 31
0.0
  0
LINE
  8
0
 62
     0
 10
40.67
 20
104.279
 30
0.0
 11
39.6695
 21
104.279
 31
0.0
  0
LINE
  8
0
 62
     0
 10
39.6695
 20
104.279
 30
0.0
 11
39.6695
 21
105.078
 31
0.0
  0
LINE
  8
0
 62
     0
 10
39.6695
 20
105.078
 30
0.0
 11
36.5704
 21
105.078
 31
0.0
  0
LINE
  8
0
 62
     0
 10
36.5704
 20
105.078
 30
0.0
 11
36.5704
 21
104.279
 31
0.0
  0
LINE
  8
0
 62
     0
 10
36.5704
 20
104.279
 30
0.0
 11
30.7702
 21
104.279
 31
0.0
  0
LINE
  8
0
 62
     0
 10
30.7702
 20
104.279
 30
0.0
 11
30.7702
 21
105.078
 31
0.0
  0
LINE
  8
0
 62
     0
 10
30.7702
 20
105.078
 30
0.0
 11
27.6696
 21
105.078
 31
0.0
  0
LINE
  8
0
 62
     0
 10
46.7198
 20
107.556
 30
0.0
 11
46.7198
 21
106.755
 31
0.0
  0
LINE
  8
0
 62
     0
 10
46.7198
 20
106.755
 30
0.0
 11
45.7193
 21
106.755
 31
0.0
  0
LINE
  8
0
 62
     0
 10
45.7193
 20
106.755
 30
0.0
 11
45.7193
 21
92.7559
 31
0.0
  0
LINE
  8
0
 62
     0
 10
45.7193
 20
92.7559
 30
0.0
 11
46.7198
 21
92.7559
 31
0.0
  0
LINE
  8
0
 62
     0
 10
46.7198
 20
92.7559
 30
0.0
 11
46.7198
 21
91.9551
 31
0.0
  0
LINE
  8
0
 62
     0
 10
46.7198
 20
91.9551
 30
0.0
 11
49.8203
 21
91.9551
 31
0.0
  0
LINE
  8
0
 62
     0
 10
49.8203
 20
91.9551
 30
0.0
 11
49.8203
 21
92.7559
 31
0.0
  0
LINE
  8
0
 62
     0
 10
49.8203
 20
92.7559
 30
0.0
 11
55.6204
 21
92.7559
 31
0.0
  0
LINE
  8
0
 62
     0
 10
55.6204
 20
92.7559
 30
0.0
 11
55.6204
 21
91.9551
 31
0.0
  0
LINE
  8
0
 62
     0
 10
55.6204
 20
91.9551
 30
0.0
 11
58.7195
 21
91.9551
 31
0.0
  0
LINE
  8
0
 62
     0
 10
58.7195
 20
91.9551
 30
0.0
 11
58.7195
 21
92.7559
 31
0.0
  0
LINE
  8
0
 62
     0
 10
58.7195
 20
92.7559
 30
0.0
 11
59.72
 21
92.7559
 31
0.0
  0
LINE
  8
0
 62
     0
 10
59.72
 20
92.7559
 30
0.0
 11
59.72
 21
106.755
 31
0.0
  0
LINE
  8
0
 62
     0
 10
59.72
 20
106.755
 30
0.0
 11
58.7195
 21
106.755
 31
0.0
  0
LINE
  8
0
 62
     0
 10
58.7195
 20
106.755
 30
0.0
 11
58.7195
 21
107.556
 31
0.0
  0
LINE
  8
0
 62
     0
 10
58.7195
 20
107.556
 30
0.0
 11
55.6204
 21
107.556
 31
0.0
  0
LINE
  8
0
 62
     0
 10
55.6204
 20
107.556
 30
0.0
 11
55.6204
 21
106.755
 31
0.0
  0
LINE
  8
0
 62
     0
 10
55.6204
 20
106.755
 30
0.0
 11
49.8203
 21
106.755
 31
0.0
  0
LINE
  8
0
 62
     0
 10
49.8203
 20
106.755
 30
0.0
 11
49.8203
 21
107.556
 31
0.0
  0
LINE
  8
0
 62
     0
 10
49.8203
 20
107.556
 30
0.0
 11
46.7198
 21
107.556
 31
0.0
  0
LINE
  8
0
 62
     0
 10
83.8193
 20
106.659
 30
0.0
 11
83.8193
 21
105.66
 31
0.0
  0
LINE
  8
0
 62
     0
 10
83.8193
 20
105.66
 30
0.0
 11
83.0199
 21
105.66
 31
0.0
  0
LINE
  8
0
 62
     0
 10
83.0199
 20
105.66
 30
0.0
 11
83.0199
 21
102.559
 31
0.0
  0
LINE
  8
0
 62
     0
 10
83.0199
 20
102.559
 30
0.0
 11
83.8193
 21
102.559
 31
0.0
  0
LINE
  8
0
 62
     0
 10
83.8193
 20
102.559
 30
0.0
 11
83.8193
 21
96.7588
 31
0.0
  0
LINE
  8
0
 62
     0
 10
83.8193
 20
96.7588
 30
0.0
 11
83.0199
 21
96.7588
 31
0.0
  0
LINE
  8
0
 62
     0
 10
83.0199
 20
96.7588
 30
0.0
 11
83.0199
 21
93.6597
 31
0.0
  0
LINE
  8
0
 62
     0
 10
83.0199
 20
93.6597
 30
0.0
 11
83.8193
 21
93.6597
 31
0.0
  0
LINE
  8
0
 62
     0
 10
83.8193
 20
93.6597
 30
0.0
 11
83.8193
 21
92.6592
 31
0.0
  0
LINE
  8
0
 62
     0
 10
83.8193
 20
92.6592
 30
0.0
 11
97.82
 21
92.6592
 31
0.0
  0
LINE
  8
0
 62
     0
 10
97.82
 20
92.6592
 30
0.0
 11
97.82
 21
93.6597
 31
0.0
  0
LINE
  8
0
 62
     0
 10
97.82
 20
93.6597
 30
0.0
 11
98.6194
 21
93.6597
 31
0.0
  0
LINE
  8
0
 62
     0
 10
98.6194
 20
93.6597
 30
0.0
 11
98.6194
 21
96.7588
 31
0.0
  0
LINE
  8
0
 62
     0
 10
98.6194
 20
96.7588
 30
0.0
 11
97.82
 21
96.7588
 31
0.0
  0
LINE
  8
0
 62
     0
 10
97.82
 20
96.7588
 30
0.0
 11
97.82
 21
102.559
 31
0.0
  0
LINE
  8
0
 62
     0
 10
97.82
 20
102.559
 30
0.0
 11
98.6194
 21
102.559
 31
0.0
  0
LINE
  8
0
 62
     0
 10
98.6194
 20
102.559
 30
0.0
 11
98.6194
 21
105.66
 31
0.0
  0
LINE
  8
0
 62
     0
 10
98.6194
 20
105.66
 30
0.0
 11
97.82
 21
105.66
 31
0.0
  0
LINE
  8
0
 62
     0
 10
97.82
 20
105.66
 30
0.0
 11
97.82
 21
106.659
 31
0.0
  0
LINE
  8
0
 62
     0
 10
97.82
 20
106.659
 30
0.0
 11
83.8193
 21
106.659
 31
0.0
  0
LINE
  8
0
 62
     0
 10
65.7698
 20
112.317
 30
0.0
 11
65.7698
 21
111.518
 31
0.0
  0
LINE
  8
0
 62
     0
 10
65.7698
 20
111.518
 30
0.0
 11
64.7693
 21
111.518
 31
0.0
  0
LINE
  8
0
 62
     0
 10
64.7693
 20
111.518
 30
0.0
 11
64.7693
 21
97.5169
 31
0.0
  0
LINE
  8
0
 62
     0
 10
64.7693
 20
97.5169
 30
0.0
 11
65.7698
 21
97.5169
 31
0.0
  0
LINE
  8
0
 62
     0
 10
65.7698
 20
97.5169
 30
0.0
 11
65.7698
 21
96.7176
 31
0.0
  0
LINE
  8
0
 62
     0
 10
65.7698
 20
96.7176
 30
0.0
 11
68.8703
 21
96.7176
 31
0.0
  0
LINE
  8
0
 62
     0
 10
68.8703
 20
96.7176
 30
0.0
 11
68.8703
 21
97.5169
 31
0.0
  0
LINE
  8
0
 62
     0
 10
68.8703
 20
97.5169
 30
0.0
 11
74.6704
 21
97.5169
 31
0.0
  0
LINE
  8
0
 62
     0
 10
74.6704
 20
97.5169
 30
0.0
 11
74.6704
 21
96.7176
 31
0.0
  0
LINE
  8
0
 62
     0
 10
74.6704
 20
96.7176
 30
0.0
 11
77.7695
 21
96.7176
 31
0.0
  0
LINE
  8
0
 62
     0
 10
77.7695
 20
96.7176
 30
0.0
 11
77.7695
 21
97.5169
 31
0.0
  0
LINE
  8
0
 62
     0
 10
77.7695
 20
97.5169
 30
0.0
 11
78.77
 21
97.5169
 31
0.0
  0
LINE
  8
0
 62
     0
 10
78.77
 20
97.5169
 30
0.0
 11
78.77
 21
111.518
 31
0.0
  0
LINE
  8
0
 62
     0
 10
78.77
 20
111.518
 30
0.0
 11
77.7695
 21
111.518
 31
0.0
  0
LINE
  8
0
 62
     0
 10
77.7695
 20
111.518
 30
0.0
 11
77.7695
 21
112.317
 31
0.0
  0
LINE
  8
0
 62
     0
 10
77.7695
 20
112.317
 30
0.0
 11
74.6704
 21
112.317
 31
0.0
  0
LINE
  8
0
 62
     0
 10
74.6704
 20
112.317
 30
0.0
 11
74.6704
 21
111.518
 31
0.0
  0
LINE
  8
0
 62
     0
 10
74.6704
 20
111.518
 30
0.0
 11
68.8703
 21
111.518
 31
0.0
  0
LINE
  8
0
 62
     0
 10
68.8703
 20
111.518
 30
0.0
 11
68.8703
 21
112.317
 31
0.0
  0
LINE
  8
0
 62
     0
 10
68.8703
 20
112.317
 30
0.0
 11
65.7698
 21
112.317
 31
0.0
  0
LINE
  8
0
 62
     0
 10
175.099
 20
100.28
 30
0.0
 11
174.68
 21
100.066
 31
0.0
  0
LINE
  8
0
 62
     0
 10
174.68
 20
100.066
 30
0.0
 11
174.349
 21
99.7342
 31
0.0
  0
LINE
  8
0
 62
     0
 10
174.349
 20
99.7342
 30
0.0
 11
174.136
 21
99.3165
 31
0.0
  0
LINE
  8
0
 62
     0
 10
174.136
 20
99.3165
 30
0.0
 11
174.061
 21
98.8536
 31
0.0
  0
LINE
  8
0
 62
     0
 10
174.061
 20
98.8536
 30
0.0
 11
174.136
 21
98.3904
 31
0.0
  0
LINE
  8
0
 62
     0
 10
174.136
 20
98.3904
 30
0.0
 11
174.349
 21
97.9717
 31
0.0
  0
LINE
  8
0
 62
     0
 10
174.349
 20
97.9717
 30
0.0
 11
174.68
 21
97.6394
 31
0.0
  0
LINE
  8
0
 62
     0
 10
174.68
 20
97.6394
 30
0.0
 11
175.099
 21
97.4259
 31
0.0
  0
LINE
  8
0
 62
     0
 10
175.099
 20
97.4259
 30
0.0
 11
175.562
 21
97.3529
 31
0.0
  0
LINE
  8
0
 62
     0
 10
175.562
 20
97.3529
 30
0.0
 11
176.025
 21
97.4259
 31
0.0
  0
LINE
  8
0
 62
     0
 10
176.025
 20
97.4259
 30
0.0
 11
176.444
 21
97.6394
 31
0.0
  0
LINE
  8
0
 62
     0
 10
176.444
 20
97.6394
 30
0.0
 11
176.776
 21
97.9717
 31
0.0
  0
LINE
  8
0
 62
     0
 10
176.776
 20
97.9717
 30
0.0
 11
176.988
 21
98.3904
 31
0.0
  0
LINE
  8
0
 62
     0
 10
176.988
 20
98.3904
 30
0.0
 11
177.061
 21
98.8536
 31
0.0
  0
LINE
  8
0
 62
     0
 10
177.061
 20
98.8536
 30
0.0
 11
176.988
 21
99.3165
 31
0.0
  0
LINE
  8
0
 62
     0
 10
176.988
 20
99.3165
 30
0.0
 11
176.776
 21
99.7342
 31
0.0
  0
LINE
  8
0
 62
     0
 10
176.776
 20
99.7342
 30
0.0
 11
176.444
 21
100.066
 31
0.0
  0
LINE
  8
0
 62
     0
 10
176.444
 20
100.066
 30
0.0
 11
176.025
 21
100.28
 31
0.0
  0
LINE
  8
0
 62
     0
 10
176.025
 20
100.28
 30
0.0
 11
175.562
 21
100.353
 31
0.0
  0
LINE
  8
0
 62
     0
 10
175.562
 20
100.353
 30
0.0
 11
175.099
 21
100.28
 31
0.0
  0
LINE
  8
0
 62
     0
 10
2.13045
 20
100.28
 30
0.0
 11
1.7129
 21
100.066
 31
0.0
  0
LINE
  8
0
 62
     0
 10
1.7129
 20
100.066
 30
0.0
 11
1.38079
 21
99.7342
 31
0.0
  0
LINE
  8
0
 62
     0
 10
1.38079
 20
99.7342
 30
0.0
 11
1.1672
 21
99.3165
 31
0.0
  0
LINE
  8
0
 62
     0
 10
1.1672
 20
99.3165
 30
0.0
 11
1.09416
 21
98.8536
 31
0.0
  0
LINE
  8
0
 62
     0
 10
1.09416
 20
98.8536
 30
0.0
 11
1.1672
 21
98.3904
 31
0.0
  0
LINE
  8
0
 62
     0
 10
1.1672
 20
98.3904
 30
0.0
 11
1.38079
 21
97.9717
 31
0.0
  0
LINE
  8
0
 62
     0
 10
1.38079
 20
97.9717
 30
0.0
 11
1.7129
 21
97.6394
 31
0.0
  0
LINE
  8
0
 62
     0
 10
1.7129
 20
97.6394
 30
0.0
 11
2.13045
 21
97.4259
 31
0.0
  0
LINE
  8
0
 62
     0
 10
2.13045
 20
97.4259
 30
0.0
 11
2.59485
 21
97.3529
 31
0.0
  0
LINE
  8
0
 62
     0
 10
2.59485
 20
97.3529
 30
0.0
 11
3.05787
 21
97.4259
 31
0.0
  0
LINE
  8
0
 62
     0
 10
3.05787
 20
97.4259
 30
0.0
 11
3.47541
 21
97.6394
 31
0.0
  0
LINE
  8
0
 62
     0
 10
3.47541
 20
97.6394
 30
0.0
 11
3.80753
 21
97.9717
 31
0.0
  0
LINE
  8
0
 62
     0
 10
3.80753
 20
97.9717
 30
0.0
 11
4.0211
 21
98.3904
 31
0.0
  0
LINE
  8
0
 62
     0
 10
4.0211
 20
98.3904
 30
0.0
 11
4.09416
 21
98.8536
 31
0.0
  0
LINE
  8
0
 62
     0
 10
4.09416
 20
98.8536
 30
0.0
 11
4.0211
 21
99.3165
 31
0.0
  0
LINE
  8
0
 62
     0
 10
4.0211
 20
99.3165
 30
0.0
 11
3.80753
 21
99.7342
 31
0.0
  0
LINE
  8
0
 62
     0
 10
3.80753
 20
99.7342
 30
0.0
 11
3.47541
 21
100.066
 31
0.0
  0
LINE
  8
0
 62
     0
 10
3.47541
 20
100.066
 30
0.0
 11
3.05787
 21
100.28
 31
0.0
  0
LINE
  8
0
 62
     0
 10
3.05787
 20
100.28
 30
0.0
 11
2.59485
 21
100.353
 31
0.0
  0
LINE
  8
0
 62
     0
 10
2.59485
 20
100.353
 30
0.0
 11
2.13045
 21
100.28
 31
0.0
  0
LINE
  8
0
 62
     0
 10
7.61919
 20
120.948
 30
0.0
 11
7.61919
 21
119.947
 31
0.0
  0
LINE
  8
0
 62
     0
 10
7.61919
 20
119.947
 30
0.0
 11
6.81852
 21
119.947
 31
0.0
  0
LINE
  8
0
 62
     0
 10
6.81852
 20
119.947
 30
0.0
 11
6.81852
 21
116.85
 31
0.0
  0
LINE
  8
0
 62
     0
 10
6.81852
 20
116.85
 30
0.0
 11
7.61919
 21
116.85
 31
0.0
  0
LINE
  8
0
 62
     0
 10
7.61919
 20
116.85
 30
0.0
 11
7.61919
 21
111.048
 31
0.0
  0
LINE
  8
0
 62
     0
 10
7.61919
 20
111.048
 30
0.0
 11
6.81852
 21
111.048
 31
0.0
  0
LINE
  8
0
 62
     0
 10
6.81852
 20
111.048
 30
0.0
 11
6.81852
 21
107.947
 31
0.0
  0
LINE
  8
0
 62
     0
 10
6.81852
 20
107.947
 30
0.0
 11
7.61919
 21
107.947
 31
0.0
  0
LINE
  8
0
 62
     0
 10
7.61919
 20
107.947
 30
0.0
 11
7.61919
 21
106.947
 31
0.0
  0
LINE
  8
0
 62
     0
 10
7.61919
 20
106.947
 30
0.0
 11
21.6201
 21
106.947
 31
0.0
  0
LINE
  8
0
 62
     0
 10
21.6201
 20
106.947
 30
0.0
 11
21.6201
 21
107.947
 31
0.0
  0
LINE
  8
0
 62
     0
 10
21.6201
 20
107.947
 30
0.0
 11
22.4193
 21
107.947
 31
0.0
  0
LINE
  8
0
 62
     0
 10
22.4193
 20
107.947
 30
0.0
 11
22.4193
 21
111.048
 31
0.0
  0
LINE
  8
0
 62
     0
 10
22.4193
 20
111.048
 30
0.0
 11
21.6201
 21
111.048
 31
0.0
  0
LINE
  8
0
 62
     0
 10
21.6201
 20
111.048
 30
0.0
 11
21.6201
 21
116.85
 31
0.0
  0
LINE
  8
0
 62
     0
 10
21.6201
 20
116.85
 30
0.0
 11
22.4193
 21
116.85
 31
0.0
  0
LINE
  8
0
 62
     0
 10
22.4193
 20
116.85
 30
0.0
 11
22.4193
 21
119.947
 31
0.0
  0
LINE
  8
0
 62
     0
 10
22.4193
 20
119.947
 30
0.0
 11
21.6201
 21
119.947
 31
0.0
  0
LINE
  8
0
 62
     0
 10
21.6201
 20
119.947
 30
0.0
 11
21.6201
 21
120.948
 31
0.0
  0
LINE
  8
0
 62
     0
 10
21.6201
 20
120.948
 30
0.0
 11
7.61919
 21
120.948
 31
0.0
  0
LINE
  8
0
 62
     0
 10
102.869
 20
120.948
 30
0.0
 11
102.869
 21
119.947
 31
0.0
  0
LINE
  8
0
 62
     0
 10
102.869
 20
119.947
 30
0.0
 11
102.07
 21
119.947
 31
0.0
  0
LINE
  8
0
 62
     0
 10
102.07
 20
119.947
 30
0.0
 11
102.07
 21
116.85
 31
0.0
  0
LINE
  8
0
 62
     0
 10
102.07
 20
116.85
 30
0.0
 11
102.869
 21
116.85
 31
0.0
  0
LINE
  8
0
 62
     0
 10
102.869
 20
116.85
 30
0.0
 11
102.869
 21
111.048
 31
0.0
  0
LINE
  8
0
 62
     0
 10
102.869
 20
111.048
 30
0.0
 11
102.07
 21
111.048
 31
0.0
  0
LINE
  8
0
 62
     0
 10
102.07
 20
111.048
 30
0.0
 11
102.07
 21
107.947
 31
0.0
  0
LINE
  8
0
 62
     0
 10
102.07
 20
107.947
 30
0.0
 11
102.869
 21
107.947
 31
0.0
  0
LINE
  8
0
 62
     0
 10
102.869
 20
107.947
 30
0.0
 11
102.869
 21
106.947
 31
0.0
  0
LINE
  8
0
 62
     0
 10
102.869
 20
106.947
 30
0.0
 11
116.87
 21
106.947
 31
0.0
  0
LINE
  8
0
 62
     0
 10
116.87
 20
106.947
 30
0.0
 11
116.87
 21
107.947
 31
0.0
  0
LINE
  8
0
 62
     0
 10
116.87
 20
107.947
 30
0.0
 11
117.669
 21
107.947
 31
0.0
  0
LINE
  8
0
 62
     0
 10
117.669
 20
107.947
 30
0.0
 11
117.669
 21
111.048
 31
0.0
  0
LINE
  8
0
 62
     0
 10
117.669
 20
111.048
 30
0.0
 11
116.87
 21
111.048
 31
0.0
  0
LINE
  8
0
 62
     0
 10
116.87
 20
111.048
 30
0.0
 11
116.87
 21
116.85
 31
0.0
  0
LINE
  8
0
 62
     0
 10
116.87
 20
116.85
 30
0.0
 11
117.669
 21
116.85
 31
0.0
  0
LINE
  8
0
 62
     0
 10
117.669
 20
116.85
 30
0.0
 11
117.669
 21
119.947
 31
0.0
  0
LINE
  8
0
 62
     0
 10
117.669
 20
119.947
 30
0.0
 11
116.87
 21
119.947
 31
0.0
  0
LINE
  8
0
 62
     0
 10
116.87
 20
119.947
 30
0.0
 11
116.87
 21
120.948
 31
0.0
  0
LINE
  8
0
 62
     0
 10
116.87
 20
120.948
 30
0.0
 11
102.869
 21
120.948
 31
0.0
  0
LINE
  8
0
 62
     0
 10
122.92
 20
126.606
 30
0.0
 11
122.92
 21
125.805
 31
0.0
  0
LINE
  8
0
 62
     0
 10
122.92
 20
125.805
 30
0.0
 11
121.919
 21
125.805
 31
0.0
  0
LINE
  8
0
 62
     0
 10
121.919
 20
125.805
 30
0.0
 11
121.919
 21
111.806
 31
0.0
  0
LINE
  8
0
 62
     0
 10
121.919
 20
111.806
 30
0.0
 11
122.92
 21
111.806
 31
0.0
  0
LINE
  8
0
 62
     0
 10
122.92
 20
111.806
 30
0.0
 11
122.92
 21
111.005
 31
0.0
  0
LINE
  8
0
 62
     0
 10
122.92
 20
111.005
 30
0.0
 11
126.02
 21
111.005
 31
0.0
  0
LINE
  8
0
 62
     0
 10
126.02
 20
111.005
 30
0.0
 11
126.02
 21
111.806
 31
0.0
  0
LINE
  8
0
 62
     0
 10
126.02
 20
111.806
 30
0.0
 11
131.82
 21
111.806
 31
0.0
  0
LINE
  8
0
 62
     0
 10
131.82
 20
111.806
 30
0.0
 11
131.82
 21
111.005
 31
0.0
  0
LINE
  8
0
 62
     0
 10
131.82
 20
111.005
 30
0.0
 11
134.92
 21
111.005
 31
0.0
  0
LINE
  8
0
 62
     0
 10
134.92
 20
111.005
 30
0.0
 11
134.92
 21
111.806
 31
0.0
  0
LINE
  8
0
 62
     0
 10
134.92
 20
111.806
 30
0.0
 11
135.92
 21
111.806
 31
0.0
  0
LINE
  8
0
 62
     0
 10
135.92
 20
111.806
 30
0.0
 11
135.92
 21
125.805
 31
0.0
  0
LINE
  8
0
 62
     0
 10
135.92
 20
125.805
 30
0.0
 11
134.92
 21
125.805
 31
0.0
  0
LINE
  8
0
 62
     0
 10
134.92
 20
125.805
 30
0.0
 11
134.92
 21
126.606
 31
0.0
  0
LINE
  8
0
 62
     0
 10
134.92
 20
126.606
 30
0.0
 11
131.82
 21
126.606
 31
0.0
  0
LINE
  8
0
 62
     0
 10
131.82
 20
126.606
 30
0.0
 11
131.82
 21
125.805
 31
0.0
  0
LINE
  8
0
 62
     0
 10
131.82
 20
125.805
 30
0.0
 11
126.02
 21
125.805
 31
0.0
  0
LINE
  8
0
 62
     0
 10
126.02
 20
125.805
 30
0.0
 11
126.02
 21
126.606
 31
0.0
  0
LINE
  8
0
 62
     0
 10
126.02
 20
126.606
 30
0.0
 11
122.92
 21
126.606
 31
0.0
  0
LINE
  8
0
 62
     0
 10
26.6692
 20
125.709
 30
0.0
 11
26.6692
 21
124.71
 31
0.0
  0
LINE
  8
0
 62
     0
 10
26.6692
 20
124.71
 30
0.0
 11
25.8699
 21
124.71
 31
0.0
  0
LINE
  8
0
 62
     0
 10
25.8699
 20
124.71
 30
0.0
 11
25.8699
 21
121.609
 31
0.0
  0
LINE
  8
0
 62
     0
 10
25.8699
 20
121.609
 30
0.0
 11
26.6692
 21
121.609
 31
0.0
  0
LINE
  8
0
 62
     0
 10
26.6692
 20
121.609
 30
0.0
 11
26.6692
 21
115.809
 31
0.0
  0
LINE
  8
0
 62
     0
 10
26.6692
 20
115.809
 30
0.0
 11
25.8699
 21
115.809
 31
0.0
  0
LINE
  8
0
 62
     0
 10
25.8699
 20
115.809
 30
0.0
 11
25.8699
 21
112.71
 31
0.0
  0
LINE
  8
0
 62
     0
 10
25.8699
 20
112.71
 30
0.0
 11
26.6692
 21
112.71
 31
0.0
  0
LINE
  8
0
 62
     0
 10
26.6692
 20
112.71
 30
0.0
 11
26.6692
 21
111.709
 31
0.0
  0
LINE
  8
0
 62
     0
 10
26.6692
 20
111.709
 30
0.0
 11
40.67
 21
111.709
 31
0.0
  0
LINE
  8
0
 62
     0
 10
40.67
 20
111.709
 30
0.0
 11
40.67
 21
112.71
 31
0.0
  0
LINE
  8
0
 62
     0
 10
40.67
 20
112.71
 30
0.0
 11
41.4694
 21
112.71
 31
0.0
  0
LINE
  8
0
 62
     0
 10
41.4694
 20
112.71
 30
0.0
 11
41.4694
 21
115.809
 31
0.0
  0
LINE
  8
0
 62
     0
 10
41.4694
 20
115.809
 30
0.0
 11
40.67
 21
115.809
 31
0.0
  0
LINE
  8
0
 62
     0
 10
40.67
 20
115.809
 30
0.0
 11
40.67
 21
121.609
 31
0.0
  0
LINE
  8
0
 62
     0
 10
40.67
 20
121.609
 30
0.0
 11
41.4694
 21
121.609
 31
0.0
  0
LINE
  8
0
 62
     0
 10
41.4694
 20
121.609
 30
0.0
 11
41.4694
 21
124.71
 31
0.0
  0
LINE
  8
0
 62
     0
 10
41.4694
 20
124.71
 30
0.0
 11
40.67
 21
124.71
 31
0.0
  0
LINE
  8
0
 62
     0
 10
40.67
 20
124.71
 30
0.0
 11
40.67
 21
125.709
 31
0.0
  0
LINE
  8
0
 62
     0
 10
40.67
 20
125.709
 30
0.0
 11
26.6692
 21
125.709
 31
0.0
  0
LINE
  8
0
 62
     0
 10
83.8193
 20
125.709
 30
0.0
 11
83.8193
 21
124.71
 31
0.0
  0
LINE
  8
0
 62
     0
 10
83.8193
 20
124.71
 30
0.0
 11
83.0199
 21
124.71
 31
0.0
  0
LINE
  8
0
 62
     0
 10
83.0199
 20
124.71
 30
0.0
 11
83.0199
 21
121.609
 31
0.0
  0
LINE
  8
0
 62
     0
 10
83.0199
 20
121.609
 30
0.0
 11
83.8193
 21
121.609
 31
0.0
  0
LINE
  8
0
 62
     0
 10
83.8193
 20
121.609
 30
0.0
 11
83.8193
 21
115.809
 31
0.0
  0
LINE
  8
0
 62
     0
 10
83.8193
 20
115.809
 30
0.0
 11
83.0199
 21
115.809
 31
0.0
  0
LINE
  8
0
 62
     0
 10
83.0199
 20
115.809
 30
0.0
 11
83.0199
 21
112.71
 31
0.0
  0
LINE
  8
0
 62
     0
 10
83.0199
 20
112.71
 30
0.0
 11
83.8193
 21
112.71
 31
0.0
  0
LINE
  8
0
 62
     0
 10
83.8193
 20
112.71
 30
0.0
 11
83.8193
 21
111.709
 31
0.0
  0
LINE
  8
0
 62
     0
 10
83.8193
 20
111.709
 30
0.0
 11
97.82
 21
111.709
 31
0.0
  0
LINE
  8
0
 62
     0
 10
97.82
 20
111.709
 30
0.0
 11
97.82
 21
112.71
 31
0.0
  0
LINE
  8
0
 62
     0
 10
97.82
 20
112.71
 30
0.0
 11
98.6194
 21
112.71
 31
0.0
  0
LINE
  8
0
 62
     0
 10
98.6194
 20
112.71
 30
0.0
 11
98.6194
 21
115.809
 31
0.0
  0
LINE
  8
0
 62
     0
 10
98.6194
 20
115.809
 30
0.0
 11
97.82
 21
115.809
 31
0.0
  0
LINE
  8
0
 62
     0
 10
97.82
 20
115.809
 30
0.0
 11
97.82
 21
121.609
 31
0.0
  0
LINE
  8
0
 62
     0
 10
97.82
 20
121.609
 30
0.0
 11
98.6194
 21
121.609
 31
0.0
  0
LINE
  8
0
 62
     0
 10
98.6194
 20
121.609
 30
0.0
 11
98.6194
 21
124.71
 31
0.0
  0
LINE
  8
0
 62
     0
 10
98.6194
 20
124.71
 30
0.0
 11
97.82
 21
124.71
 31
0.0
  0
LINE
  8
0
 62
     0
 10
97.82
 20
124.71
 30
0.0
 11
97.82
 21
125.709
 31
0.0
  0
LINE
  8
0
 62
     0
 10
97.82
 20
125.709
 30
0.0
 11
83.8193
 21
125.709
 31
0.0
  0
LINE
  8
0
 62
     0
 10
45.7193
 20
128.186
 30
0.0
 11
45.7193
 21
127.186
 31
0.0
  0
LINE
  8
0
 62
     0
 10
45.7193
 20
127.186
 30
0.0
 11
44.9199
 21
127.186
 31
0.0
  0
LINE
  8
0
 62
     0
 10
44.9199
 20
127.186
 30
0.0
 11
44.9199
 21
124.087
 31
0.0
  0
LINE
  8
0
 62
     0
 10
44.9199
 20
124.087
 30
0.0
 11
45.7193
 21
124.087
 31
0.0
  0
LINE
  8
0
 62
     0
 10
45.7193
 20
124.087
 30
0.0
 11
45.7193
 21
118.287
 31
0.0
  0
LINE
  8
0
 62
     0
 10
45.7193
 20
118.287
 30
0.0
 11
44.9199
 21
118.287
 31
0.0
  0
LINE
  8
0
 62
     0
 10
44.9199
 20
118.287
 30
0.0
 11
44.9199
 21
115.186
 31
0.0
  0
LINE
  8
0
 62
     0
 10
44.9199
 20
115.186
 30
0.0
 11
45.7193
 21
115.186
 31
0.0
  0
LINE
  8
0
 62
     0
 10
45.7193
 20
115.186
 30
0.0
 11
45.7193
 21
114.187
 31
0.0
  0
LINE
  8
0
 62
     0
 10
45.7193
 20
114.187
 30
0.0
 11
59.72
 21
114.187
 31
0.0
  0
LINE
  8
0
 62
     0
 10
59.72
 20
114.187
 30
0.0
 11
59.72
 21
115.186
 31
0.0
  0
LINE
  8
0
 62
     0
 10
59.72
 20
115.186
 30
0.0
 11
60.5194
 21
115.186
 31
0.0
  0
LINE
  8
0
 62
     0
 10
60.5194
 20
115.186
 30
0.0
 11
60.5194
 21
118.287
 31
0.0
  0
LINE
  8
0
 62
     0
 10
60.5194
 20
118.287
 30
0.0
 11
59.72
 21
118.287
 31
0.0
  0
LINE
  8
0
 62
     0
 10
59.72
 20
118.287
 30
0.0
 11
59.72
 21
124.087
 31
0.0
  0
LINE
  8
0
 62
     0
 10
59.72
 20
124.087
 30
0.0
 11
60.5194
 21
124.087
 31
0.0
  0
LINE
  8
0
 62
     0
 10
60.5194
 20
124.087
 30
0.0
 11
60.5194
 21
127.186
 31
0.0
  0
LINE
  8
0
 62
     0
 10
60.5194
 20
127.186
 30
0.0
 11
59.72
 21
127.186
 31
0.0
  0
LINE
  8
0
 62
     0
 10
59.72
 20
127.186
 30
0.0
 11
59.72
 21
128.186
 31
0.0
  0
LINE
  8
0
 62
     0
 10
59.72
 20
128.186
 30
0.0
 11
45.7193
 21
128.186
 31
0.0
  0
LINE
  8
0
 62
     0
 10
64.7693
 20
132.949
 30
0.0
 11
64.7693
 21
131.948
 31
0.0
  0
LINE
  8
0
 62
     0
 10
64.7693
 20
131.948
 30
0.0
 11
63.9699
 21
131.948
 31
0.0
  0
LINE
  8
0
 62
     0
 10
63.9699
 20
131.948
 30
0.0
 11
63.9699
 21
128.848
 31
0.0
  0
LINE
  8
0
 62
     0
 10
63.9699
 20
128.848
 30
0.0
 11
64.7693
 21
128.848
 31
0.0
  0
LINE
  8
0
 62
     0
 10
64.7693
 20
128.848
 30
0.0
 11
64.7693
 21
123.048
 31
0.0
  0
LINE
  8
0
 62
     0
 10
64.7693
 20
123.048
 30
0.0
 11
63.9699
 21
123.048
 31
0.0
  0
LINE
  8
0
 62
     0
 10
63.9699
 20
123.048
 30
0.0
 11
63.9699
 21
119.949
 31
0.0
  0
LINE
  8
0
 62
     0
 10
63.9699
 20
119.949
 30
0.0
 11
64.7693
 21
119.949
 31
0.0
  0
LINE
  8
0
 62
     0
 10
64.7693
 20
119.949
 30
0.0
 11
64.7693
 21
118.948
 31
0.0
  0
LINE
  8
0
 62
     0
 10
64.7693
 20
118.948
 30
0.0
 11
78.77
 21
118.948
 31
0.0
  0
LINE
  8
0
 62
     0
 10
78.77
 20
118.948
 30
0.0
 11
78.77
 21
119.949
 31
0.0
  0
LINE
  8
0
 62
     0
 10
78.77
 20
119.949
 30
0.0
 11
79.5694
 21
119.949
 31
0.0
  0
LINE
  8
0
 62
     0
 10
79.5694
 20
119.949
 30
0.0
 11
79.5694
 21
123.048
 31
0.0
  0
LINE
  8
0
 62
     0
 10
79.5694
 20
123.048
 30
0.0
 11
78.77
 21
123.048
 31
0.0
  0
LINE
  8
0
 62
     0
 10
78.77
 20
123.048
 30
0.0
 11
78.77
 21
128.848
 31
0.0
  0
LINE
  8
0
 62
     0
 10
78.77
 20
128.848
 30
0.0
 11
79.5694
 21
128.848
 31
0.0
  0
LINE
  8
0
 62
     0
 10
79.5694
 20
128.848
 30
0.0
 11
79.5694
 21
131.948
 31
0.0
  0
LINE
  8
0
 62
     0
 10
79.5694
 20
131.948
 30
0.0
 11
78.77
 21
131.948
 31
0.0
  0
LINE
  8
0
 62
     0
 10
78.77
 20
131.948
 30
0.0
 11
78.77
 21
132.949
 31
0.0
  0
LINE
  8
0
 62
     0
 10
78.77
 20
132.949
 30
0.0
 11
64.7693
 21
132.949
 31
0.0
  0
LINE
  8
0
 62
     0
 10
7.61919
 20
139.998
 30
0.0
 11
7.61919
 21
138.997
 31
0.0
  0
LINE
  8
0
 62
     0
 10
7.61919
 20
138.997
 30
0.0
 11
6.81852
 21
138.997
 31
0.0
  0
LINE
  8
0
 62
     0
 10
6.81852
 20
138.997
 30
0.0
 11
6.81852
 21
135.9
 31
0.0
  0
LINE
  8
0
 62
     0
 10
6.81852
 20
135.9
 30
0.0
 11
7.61919
 21
135.9
 31
0.0
  0
LINE
  8
0
 62
     0
 10
7.61919
 20
135.9
 30
0.0
 11
7.61919
 21
130.098
 31
0.0
  0
LINE
  8
0
 62
     0
 10
7.61919
 20
130.098
 30
0.0
 11
6.81852
 21
130.098
 31
0.0
  0
LINE
  8
0
 62
     0
 10
6.81852
 20
130.098
 30
0.0
 11
6.81852
 21
126.997
 31
0.0
  0
LINE
  8
0
 62
     0
 10
6.81852
 20
126.997
 30
0.0
 11
7.61919
 21
126.997
 31
0.0
  0
LINE
  8
0
 62
     0
 10
7.61919
 20
126.997
 30
0.0
 11
7.61919
 21
125.997
 31
0.0
  0
LINE
  8
0
 62
     0
 10
7.61919
 20
125.997
 30
0.0
 11
21.6201
 21
125.997
 31
0.0
  0
LINE
  8
0
 62
     0
 10
21.6201
 20
125.997
 30
0.0
 11
21.6201
 21
126.997
 31
0.0
  0
LINE
  8
0
 62
     0
 10
21.6201
 20
126.997
 30
0.0
 11
22.4193
 21
126.997
 31
0.0
  0
LINE
  8
0
 62
     0
 10
22.4193
 20
126.997
 30
0.0
 11
22.4193
 21
130.098
 31
0.0
  0
LINE
  8
0
 62
     0
 10
22.4193
 20
130.098
 30
0.0
 11
21.6201
 21
130.098
 31
0.0
  0
LINE
  8
0
 62
     0
 10
21.6201
 20
130.098
 30
0.0
 11
21.6201
 21
135.9
 31
0.0
  0
LINE
  8
0
 62
     0
 10
21.6201
 20
135.9
 30
0.0
 11
22.4193
 21
135.9
 31
0.0
  0
LINE
  8
0
 62
     0
 10
22.4193
 20
135.9
 30
0.0
 11
22.4193
 21
138.997
 31
0.0
  0
LINE
  8
0
 62
     0
 10
22.4193
 20
138.997
 30
0.0
 11
21.6201
 21
138.997
 31
0.0
  0
LINE
  8
0
 62
     0
 10
21.6201
 20
138.997
 30
0.0
 11
21.6201
 21
139.998
 31
0.0
  0
LINE
  8
0
 62
     0
 10
21.6201
 20
139.998
 30
0.0
 11
7.61919
 21
139.998
 31
0.0
  0
LINE
  8
0
 62
     0
 10
102.869
 20
139.998
 30
0.0
 11
102.869
 21
138.997
 31
0.0
  0
LINE
  8
0
 62
     0
 10
102.869
 20
138.997
 30
0.0
 11
102.07
 21
138.997
 31
0.0
  0
LINE
  8
0
 62
     0
 10
102.07
 20
138.997
 30
0.0
 11
102.07
 21
135.9
 31
0.0
  0
LINE
  8
0
 62
     0
 10
102.07
 20
135.9
 30
0.0
 11
102.869
 21
135.9
 31
0.0
  0
LINE
  8
0
 62
     0
 10
102.869
 20
135.9
 30
0.0
 11
102.869
 21
130.098
 31
0.0
  0
LINE
  8
0
 62
     0
 10
102.869
 20
130.098
 30
0.0
 11
102.07
 21
130.098
 31
0.0
  0
LINE
  8
0
 62
     0
 10
102.07
 20
130.098
 30
0.0
 11
102.07
 21
126.997
 31
0.0
  0
LINE
  8
0
 62
     0
 10
102.07
 20
126.997
 30
0.0
 11
102.869
 21
126.997
 31
0.0
  0
LINE
  8
0
 62
     0
 10
102.869
 20
126.997
 30
0.0
 11
102.869
 21
125.997
 31
0.0
  0
LINE
  8
0
 62
     0
 10
102.869
 20
125.997
 30
0.0
 11
116.87
 21
125.997
 31
0.0
  0
LINE
  8
0
 62
     0
 10
116.87
 20
125.997
 30
0.0
 11
116.87
 21
126.997
 31
0.0
  0
LINE
  8
0
 62
     0
 10
116.87
 20
126.997
 30
0.0
 11
117.669
 21
126.997
 31
0.0
  0
LINE
  8
0
 62
     0
 10
117.669
 20
126.997
 30
0.0
 11
117.669
 21
130.098
 31
0.0
  0
LINE
  8
0
 62
     0
 10
117.669
 20
130.098
 30
0.0
 11
116.87
 21
130.098
 31
0.0
  0
LINE
  8
0
 62
     0
 10
116.87
 20
130.098
 30
0.0
 11
116.87
 21
135.9
 31
0.0
  0
LINE
  8
0
 62
     0
 10
116.87
 20
135.9
 30
0.0
 11
117.669
 21
135.9
 31
0.0
  0
LINE
  8
0
 62
     0
 10
117.669
 20
135.9
 30
0.0
 11
117.669
 21
138.997
 31
0.0
  0
LINE
  8
0
 62
     0
 10
117.669
 20
138.997
 30
0.0
 11
116.87
 21
138.997
 31
0.0
  0
LINE
  8
0
 62
     0
 10
116.87
 20
138.997
 30
0.0
 11
116.87
 21
139.998
 31
0.0
  0
LINE
  8
0
 62
     0
 10
116.87
 20
139.998
 30
0.0
 11
102.869
 21
139.998
 31
0.0
  0
LINE
  8
0
 62
     0
 10
26.6692
 20
144.759
 30
0.0
 11
26.6692
 21
143.76
 31
0.0
  0
LINE
  8
0
 62
     0
 10
26.6692
 20
143.76
 30
0.0
 11
25.8699
 21
143.76
 31
0.0
  0
LINE
  8
0
 62
     0
 10
25.8699
 20
143.76
 30
0.0
 11
25.8699
 21
140.659
 31
0.0
  0
LINE
  8
0
 62
     0
 10
25.8699
 20
140.659
 30
0.0
 11
26.6692
 21
140.659
 31
0.0
  0
LINE
  8
0
 62
     0
 10
26.6692
 20
140.659
 30
0.0
 11
26.6692
 21
134.859
 31
0.0
  0
LINE
  8
0
 62
     0
 10
26.6692
 20
134.859
 30
0.0
 11
25.8699
 21
134.859
 31
0.0
  0
LINE
  8
0
 62
     0
 10
25.8699
 20
134.859
 30
0.0
 11
25.8699
 21
131.76
 31
0.0
  0
LINE
  8
0
 62
     0
 10
25.8699
 20
131.76
 30
0.0
 11
26.6692
 21
131.76
 31
0.0
  0
LINE
  8
0
 62
     0
 10
26.6692
 20
131.76
 30
0.0
 11
26.6692
 21
130.759
 31
0.0
  0
LINE
  8
0
 62
     0
 10
26.6692
 20
130.759
 30
0.0
 11
40.67
 21
130.759
 31
0.0
  0
LINE
  8
0
 62
     0
 10
40.67
 20
130.759
 30
0.0
 11
40.67
 21
131.76
 31
0.0
  0
LINE
  8
0
 62
     0
 10
40.67
 20
131.76
 30
0.0
 11
41.4694
 21
131.76
 31
0.0
  0
LINE
  8
0
 62
     0
 10
41.4694
 20
131.76
 30
0.0
 11
41.4694
 21
134.859
 31
0.0
  0
LINE
  8
0
 62
     0
 10
41.4694
 20
134.859
 30
0.0
 11
40.67
 21
134.859
 31
0.0
  0
LINE
  8
0
 62
     0
 10
40.67
 20
134.859
 30
0.0
 11
40.67
 21
140.659
 31
0.0
  0
LINE
  8
0
 62
     0
 10
40.67
 20
140.659
 30
0.0
 11
41.4694
 21
140.659
 31
0.0
  0
LINE
  8
0
 62
     0
 10
41.4694
 20
140.659
 30
0.0
 11
41.4694
 21
143.76
 31
0.0
  0
LINE
  8
0
 62
     0
 10
41.4694
 20
143.76
 30
0.0
 11
40.67
 21
143.76
 31
0.0
  0
LINE
  8
0
 62
     0
 10
40.67
 20
143.76
 30
0.0
 11
40.67
 21
144.759
 31
0.0
  0
LINE
  8
0
 62
     0
 10
40.67
 20
144.759
 30
0.0
 11
26.6692
 21
144.759
 31
0.0
  0
LINE
  8
0
 62
     0
 10
83.8193
 20
144.759
 30
0.0
 11
83.8193
 21
143.76
 31
0.0
  0
LINE
  8
0
 62
     0
 10
83.8193
 20
143.76
 30
0.0
 11
83.0199
 21
143.76
 31
0.0
  0
LINE
  8
0
 62
     0
 10
83.0199
 20
143.76
 30
0.0
 11
83.0199
 21
140.659
 31
0.0
  0
LINE
  8
0
 62
     0
 10
83.0199
 20
140.659
 30
0.0
 11
83.8193
 21
140.659
 31
0.0
  0
LINE
  8
0
 62
     0
 10
83.8193
 20
140.659
 30
0.0
 11
83.8193
 21
134.859
 31
0.0
  0
LINE
  8
0
 62
     0
 10
83.8193
 20
134.859
 30
0.0
 11
83.0199
 21
134.859
 31
0.0
  0
LINE
  8
0
 62
     0
 10
83.0199
 20
134.859
 30
0.0
 11
83.0199
 21
131.76
 31
0.0
  0
LINE
  8
0
 62
     0
 10
83.0199
 20
131.76
 30
0.0
 11
83.8193
 21
131.76
 31
0.0
  0
LINE
  8
0
 62
     0
 10
83.8193
 20
131.76
 30
0.0
 11
83.8193
 21
130.759
 31
0.0
  0
LINE
  8
0
 62
     0
 10
83.8193
 20
130.759
 30
0.0
 11
97.82
 21
130.759
 31
0.0
  0
LINE
  8
0
 62
     0
 10
97.82
 20
130.759
 30
0.0
 11
97.82
 21
131.76
 31
0.0
  0
LINE
  8
0
 62
     0
 10
97.82
 20
131.76
 30
0.0
 11
98.6194
 21
131.76
 31
0.0
  0
LINE
  8
0
 62
     0
 10
98.6194
 20
131.76
 30
0.0
 11
98.6194
 21
134.859
 31
0.0
  0
LINE
  8
0
 62
     0
 10
98.6194
 20
134.859
 30
0.0
 11
97.82
 21
134.859
 31
0.0
  0
LINE
  8
0
 62
     0
 10
97.82
 20
134.859
 30
0.0
 11
97.82
 21
140.659
 31
0.0
  0
LINE
  8
0
 62
     0
 10
97.82
 20
140.659
 30
0.0
 11
98.6194
 21
140.659
 31
0.0
  0
LINE
  8
0
 62
     0
 10
98.6194
 20
140.659
 30
0.0
 11
98.6194
 21
143.76
 31
0.0
  0
LINE
  8
0
 62
     0
 10
98.6194
 20
143.76
 30
0.0
 11
97.82
 21
143.76
 31
0.0
  0
LINE
  8
0
 62
     0
 10
97.82
 20
143.76
 30
0.0
 11
97.82
 21
144.759
 31
0.0
  0
LINE
  8
0
 62
     0
 10
97.82
 20
144.759
 30
0.0
 11
83.8193
 21
144.759
 31
0.0
  0
LINE
  8
0
 62
     0
 10
45.7193
 20
147.236
 30
0.0
 11
45.7193
 21
146.236
 31
0.0
  0
LINE
  8
0
 62
     0
 10
45.7193
 20
146.236
 30
0.0
 11
44.9199
 21
146.236
 31
0.0
  0
LINE
  8
0
 62
     0
 10
44.9199
 20
146.236
 30
0.0
 11
44.9199
 21
143.137
 31
0.0
  0
LINE
  8
0
 62
     0
 10
44.9199
 20
143.137
 30
0.0
 11
45.7193
 21
143.137
 31
0.0
  0
LINE
  8
0
 62
     0
 10
45.7193
 20
143.137
 30
0.0
 11
45.7193
 21
137.337
 31
0.0
  0
LINE
  8
0
 62
     0
 10
45.7193
 20
137.337
 30
0.0
 11
44.9199
 21
137.337
 31
0.0
  0
LINE
  8
0
 62
     0
 10
44.9199
 20
137.337
 30
0.0
 11
44.9199
 21
134.236
 31
0.0
  0
LINE
  8
0
 62
     0
 10
44.9199
 20
134.236
 30
0.0
 11
45.7193
 21
134.236
 31
0.0
  0
LINE
  8
0
 62
     0
 10
45.7193
 20
134.236
 30
0.0
 11
45.7193
 21
133.237
 31
0.0
  0
LINE
  8
0
 62
     0
 10
45.7193
 20
133.237
 30
0.0
 11
59.72
 21
133.237
 31
0.0
  0
LINE
  8
0
 62
     0
 10
59.72
 20
133.237
 30
0.0
 11
59.72
 21
134.236
 31
0.0
  0
LINE
  8
0
 62
     0
 10
59.72
 20
134.236
 30
0.0
 11
60.5194
 21
134.236
 31
0.0
  0
LINE
  8
0
 62
     0
 10
60.5194
 20
134.236
 30
0.0
 11
60.5194
 21
137.337
 31
0.0
  0
LINE
  8
0
 62
     0
 10
60.5194
 20
137.337
 30
0.0
 11
59.72
 21
137.337
 31
0.0
  0
LINE
  8
0
 62
     0
 10
59.72
 20
137.337
 30
0.0
 11
59.72
 21
143.137
 31
0.0
  0
LINE
  8
0
 62
     0
 10
59.72
 20
143.137
 30
0.0
 11
60.5194
 21
143.137
 31
0.0
  0
LINE
  8
0
 62
     0
 10
60.5194
 20
143.137
 30
0.0
 11
60.5194
 21
146.236
 31
0.0
  0
LINE
  8
0
 62
     0
 10
60.5194
 20
146.236
 30
0.0
 11
59.72
 21
146.236
 31
0.0
  0
LINE
  8
0
 62
     0
 10
59.72
 20
146.236
 30
0.0
 11
59.72
 21
147.236
 31
0.0
  0
LINE
  8
0
 62
     0
 10
59.72
 20
147.236
 30
0.0
 11
45.7193
 21
147.236
 31
0.0
  0
LINE
  8
0
 62
     0
 10
122.92
 20
152.798
 30
0.0
 11
122.92
 21
151.999
 31
0.0
  0
LINE
  8
0
 62
     0
 10
122.92
 20
151.999
 30
0.0
 11
121.919
 21
151.999
 31
0.0
  0
LINE
  8
0
 62
     0
 10
121.919
 20
151.999
 30
0.0
 11
121.919
 21
137.998
 31
0.0
  0
LINE
  8
0
 62
     0
 10
121.919
 20
137.998
 30
0.0
 11
122.92
 21
137.998
 31
0.0
  0
LINE
  8
0
 62
     0
 10
122.92
 20
137.998
 30
0.0
 11
122.92
 21
137.199
 31
0.0
  0
LINE
  8
0
 62
     0
 10
122.92
 20
137.199
 30
0.0
 11
126.02
 21
137.199
 31
0.0
  0
LINE
  8
0
 62
     0
 10
126.02
 20
137.199
 30
0.0
 11
126.02
 21
137.998
 31
0.0
  0
LINE
  8
0
 62
     0
 10
126.02
 20
137.998
 30
0.0
 11
131.82
 21
137.998
 31
0.0
  0
LINE
  8
0
 62
     0
 10
131.82
 20
137.998
 30
0.0
 11
131.82
 21
137.199
 31
0.0
  0
LINE
  8
0
 62
     0
 10
131.82
 20
137.199
 30
0.0
 11
134.92
 21
137.199
 31
0.0
  0
LINE
  8
0
 62
     0
 10
134.92
 20
137.199
 30
0.0
 11
134.92
 21
137.998
 31
0.0
  0
LINE
  8
0
 62
     0
 10
134.92
 20
137.998
 30
0.0
 11
135.92
 21
137.998
 31
0.0
  0
LINE
  8
0
 62
     0
 10
135.92
 20
137.998
 30
0.0
 11
135.92
 21
151.999
 31
0.0
  0
LINE
  8
0
 62
     0
 10
135.92
 20
151.999
 30
0.0
 11
134.92
 21
151.999
 31
0.0
  0
LINE
  8
0
 62
     0
 10
134.92
 20
151.999
 30
0.0
 11
134.92
 21
152.798
 31
0.0
  0
LINE
  8
0
 62
     0
 10
134.92
 20
152.798
 30
0.0
 11
131.82
 21
152.798
 31
0.0
  0
LINE
  8
0
 62
     0
 10
131.82
 20
152.798
 30
0.0
 11
131.82
 21
151.999
 31
0.0
  0
LINE
  8
0
 62
     0
 10
131.82
 20
151.999
 30
0.0
 11
126.02
 21
151.999
 31
0.0
  0
LINE
  8
0
 62
     0
 10
126.02
 20
151.999
 30
0.0
 11
126.02
 21
152.798
 31
0.0
  0
LINE
  8
0
 62
     0
 10
126.02
 20
152.798
 30
0.0
 11
122.92
 21
152.798
 31
0.0
  0
LINE
  8
0
 62
     0
 10
64.7693
 20
151.999
 30
0.0
 11
64.7693
 21
150.998
 31
0.0
  0
LINE
  8
0
 62
     0
 10
64.7693
 20
150.998
 30
0.0
 11
63.9699
 21
150.998
 31
0.0
  0
LINE
  8
0
 62
     0
 10
63.9699
 20
150.998
 30
0.0
 11
63.9699
 21
147.898
 31
0.0
  0
LINE
  8
0
 62
     0
 10
63.9699
 20
147.898
 30
0.0
 11
64.7693
 21
147.898
 31
0.0
  0
LINE
  8
0
 62
     0
 10
64.7693
 20
147.898
 30
0.0
 11
64.7693
 21
142.098
 31
0.0
  0
LINE
  8
0
 62
     0
 10
64.7693
 20
142.098
 30
0.0
 11
63.9699
 21
142.098
 31
0.0
  0
LINE
  8
0
 62
     0
 10
63.9699
 20
142.098
 30
0.0
 11
63.9699
 21
138.999
 31
0.0
  0
LINE
  8
0
 62
     0
 10
63.9699
 20
138.999
 30
0.0
 11
64.7693
 21
138.999
 31
0.0
  0
LINE
  8
0
 62
     0
 10
64.7693
 20
138.999
 30
0.0
 11
64.7693
 21
137.998
 31
0.0
  0
LINE
  8
0
 62
     0
 10
64.7693
 20
137.998
 30
0.0
 11
78.77
 21
137.998
 31
0.0
  0
LINE
  8
0
 62
     0
 10
78.77
 20
137.998
 30
0.0
 11
78.77
 21
138.999
 31
0.0
  0
LINE
  8
0
 62
     0
 10
78.77
 20
138.999
 30
0.0
 11
79.5694
 21
138.999
 31
0.0
  0
LINE
  8
0
 62
     0
 10
79.5694
 20
138.999
 30
0.0
 11
79.5694
 21
142.098
 31
0.0
  0
LINE
  8
0
 62
     0
 10
79.5694
 20
142.098
 30
0.0
 11
78.77
 21
142.098
 31
0.0
  0
LINE
  8
0
 62
     0
 10
78.77
 20
142.098
 30
0.0
 11
78.77
 21
147.898
 31
0.0
  0
LINE
  8
0
 62
     0
 10
78.77
 20
147.898
 30
0.0
 11
79.5694
 21
147.898
 31
0.0
  0
LINE
  8
0
 62
     0
 10
79.5694
 20
147.898
 30
0.0
 11
79.5694
 21
150.998
 31
0.0
  0
LINE
  8
0
 62
     0
 10
79.5694
 20
150.998
 30
0.0
 11
78.77
 21
150.998
 31
0.0
  0
LINE
  8
0
 62
     0
 10
78.77
 20
150.998
 30
0.0
 11
78.77
 21
151.999
 31
0.0
  0
LINE
  8
0
 62
     0
 10
78.77
 20
151.999
 30
0.0
 11
64.7693
 21
151.999
 31
0.0
  0
LINE
  8
0
 62
     0
 10
7.61919
 20
159.048
 30
0.0
 11
7.61919
 21
158.047
 31
0.0
  0
LINE
  8
0
 62
     0
 10
7.61919
 20
158.047
 30
0.0
 11
6.81852
 21
158.047
 31
0.0
  0
LINE
  8
0
 62
     0
 10
6.81852
 20
158.047
 30
0.0
 11
6.81852
 21
154.95
 31
0.0
  0
LINE
  8
0
 62
     0
 10
6.81852
 20
154.95
 30
0.0
 11
7.61919
 21
154.95
 31
0.0
  0
LINE
  8
0
 62
     0
 10
7.61919
 20
154.95
 30
0.0
 11
7.61919
 21
149.148
 31
0.0
  0
LINE
  8
0
 62
     0
 10
7.61919
 20
149.148
 30
0.0
 11
6.81852
 21
149.148
 31
0.0
  0
LINE
  8
0
 62
     0
 10
6.81852
 20
149.148
 30
0.0
 11
6.81852
 21
146.047
 31
0.0
  0
LINE
  8
0
 62
     0
 10
6.81852
 20
146.047
 30
0.0
 11
7.61919
 21
146.047
 31
0.0
  0
LINE
  8
0
 62
     0
 10
7.61919
 20
146.047
 30
0.0
 11
7.61919
 21
145.047
 31
0.0
  0
LINE
  8
0
 62
     0
 10
7.61919
 20
145.047
 30
0.0
 11
21.6201
 21
145.047
 31
0.0
  0
LINE
  8
0
 62
     0
 10
21.6201
 20
145.047
 30
0.0
 11
21.6201
 21
146.047
 31
0.0
  0
LINE
  8
0
 62
     0
 10
21.6201
 20
146.047
 30
0.0
 11
22.4193
 21
146.047
 31
0.0
  0
LINE
  8
0
 62
     0
 10
22.4193
 20
146.047
 30
0.0
 11
22.4193
 21
149.148
 31
0.0
  0
LINE
  8
0
 62
     0
 10
22.4193
 20
149.148
 30
0.0
 11
21.6201
 21
149.148
 31
0.0
  0
LINE
  8
0
 62
     0
 10
21.6201
 20
149.148
 30
0.0
 11
21.6201
 21
154.95
 31
0.0
  0
LINE
  8
0
 62
     0
 10
21.6201
 20
154.95
 30
0.0
 11
22.4193
 21
154.95
 31
0.0
  0
LINE
  8
0
 62
     0
 10
22.4193
 20
154.95
 30
0.0
 11
22.4193
 21
158.047
 31
0.0
  0
LINE
  8
0
 62
     0
 10
22.4193
 20
158.047
 30
0.0
 11
21.6201
 21
158.047
 31
0.0
  0
LINE
  8
0
 62
     0
 10
21.6201
 20
158.047
 30
0.0
 11
21.6201
 21
159.048
 31
0.0
  0
LINE
  8
0
 62
     0
 10
21.6201
 20
159.048
 30
0.0
 11
7.61919
 21
159.048
 31
0.0
  0
LINE
  8
0
 62
     0
 10
102.869
 20
159.048
 30
0.0
 11
102.869
 21
158.047
 31
0.0
  0
LINE
  8
0
 62
     0
 10
102.869
 20
158.047
 30
0.0
 11
102.07
 21
158.047
 31
0.0
  0
LINE
  8
0
 62
     0
 10
102.07
 20
158.047
 30
0.0
 11
102.07
 21
154.95
 31
0.0
  0
LINE
  8
0
 62
     0
 10
102.07
 20
154.95
 30
0.0
 11
102.869
 21
154.95
 31
0.0
  0
LINE
  8
0
 62
     0
 10
102.869
 20
154.95
 30
0.0
 11
102.869
 21
149.148
 31
0.0
  0
LINE
  8
0
 62
     0
 10
102.869
 20
149.148
 30
0.0
 11
102.07
 21
149.148
 31
0.0
  0
LINE
  8
0
 62
     0
 10
102.07
 20
149.148
 30
0.0
 11
102.07
 21
146.047
 31
0.0
  0
LINE
  8
0
 62
     0
 10
102.07
 20
146.047
 30
0.0
 11
102.869
 21
146.047
 31
0.0
  0
LINE
  8
0
 62
     0
 10
102.869
 20
146.047
 30
0.0
 11
102.869
 21
145.047
 31
0.0
  0
LINE
  8
0
 62
     0
 10
102.869
 20
145.047
 30
0.0
 11
116.87
 21
145.047
 31
0.0
  0
LINE
  8
0
 62
     0
 10
116.87
 20
145.047
 30
0.0
 11
116.87
 21
146.047
 31
0.0
  0
LINE
  8
0
 62
     0
 10
116.87
 20
146.047
 30
0.0
 11
117.669
 21
146.047
 31
0.0
  0
LINE
  8
0
 62
     0
 10
117.669
 20
146.047
 30
0.0
 11
117.669
 21
149.148
 31
0.0
  0
LINE
  8
0
 62
     0
 10
117.669
 20
149.148
 30
0.0
 11
116.87
 21
149.148
 31
0.0
  0
LINE
  8
0
 62
     0
 10
116.87
 20
149.148
 30
0.0
 11
116.87
 21
154.95
 31
0.0
  0
LINE
  8
0
 62
     0
 10
116.87
 20
154.95
 30
0.0
 11
117.669
 21
154.95
 31
0.0
  0
LINE
  8
0
 62
     0
 10
117.669
 20
154.95
 30
0.0
 11
117.669
 21
158.047
 31
0.0
  0
LINE
  8
0
 62
     0
 10
117.669
 20
158.047
 30
0.0
 11
116.87
 21
158.047
 31
0.0
  0
LINE
  8
0
 62
     0
 10
116.87
 20
158.047
 30
0.0
 11
116.87
 21
159.048
 31
0.0
  0
LINE
  8
0
 62
     0
 10
116.87
 20
159.048
 30
0.0
 11
102.869
 21
159.048
 31
0.0
  0
LINE
  8
0
 62
     0
 10
26.6692
 20
163.809
 30
0.0
 11
26.6692
 21
162.81
 31
0.0
  0
LINE
  8
0
 62
     0
 10
26.6692
 20
162.81
 30
0.0
 11
25.8699
 21
162.81
 31
0.0
  0
LINE
  8
0
 62
     0
 10
25.8699
 20
162.81
 30
0.0
 11
25.8699
 21
159.709
 31
0.0
  0
LINE
  8
0
 62
     0
 10
25.8699
 20
159.709
 30
0.0
 11
26.6692
 21
159.709
 31
0.0
  0
LINE
  8
0
 62
     0
 10
26.6692
 20
159.709
 30
0.0
 11
26.6692
 21
153.909
 31
0.0
  0
LINE
  8
0
 62
     0
 10
26.6692
 20
153.909
 30
0.0
 11
25.8699
 21
153.909
 31
0.0
  0
LINE
  8
0
 62
     0
 10
25.8699
 20
153.909
 30
0.0
 11
25.8699
 21
150.81
 31
0.0
  0
LINE
  8
0
 62
     0
 10
25.8699
 20
150.81
 30
0.0
 11
26.6692
 21
150.81
 31
0.0
  0
LINE
  8
0
 62
     0
 10
26.6692
 20
150.81
 30
0.0
 11
26.6692
 21
149.809
 31
0.0
  0
LINE
  8
0
 62
     0
 10
26.6692
 20
149.809
 30
0.0
 11
40.67
 21
149.809
 31
0.0
  0
LINE
  8
0
 62
     0
 10
40.67
 20
149.809
 30
0.0
 11
40.67
 21
150.81
 31
0.0
  0
LINE
  8
0
 62
     0
 10
40.67
 20
150.81
 30
0.0
 11
41.4694
 21
150.81
 31
0.0
  0
LINE
  8
0
 62
     0
 10
41.4694
 20
150.81
 30
0.0
 11
41.4694
 21
153.909
 31
0.0
  0
LINE
  8
0
 62
     0
 10
41.4694
 20
153.909
 30
0.0
 11
40.67
 21
153.909
 31
0.0
  0
LINE
  8
0
 62
     0
 10
40.67
 20
153.909
 30
0.0
 11
40.67
 21
159.709
 31
0.0
  0
LINE
  8
0
 62
     0
 10
40.67
 20
159.709
 30
0.0
 11
41.4694
 21
159.709
 31
0.0
  0
LINE
  8
0
 62
     0
 10
41.4694
 20
159.709
 30
0.0
 11
41.4694
 21
162.81
 31
0.0
  0
LINE
  8
0
 62
     0
 10
41.4694
 20
162.81
 30
0.0
 11
40.67
 21
162.81
 31
0.0
  0
LINE
  8
0
 62
     0
 10
40.67
 20
162.81
 30
0.0
 11
40.67
 21
163.809
 31
0.0
  0
LINE
  8
0
 62
     0
 10
40.67
 20
163.809
 30
0.0
 11
26.6692
 21
163.809
 31
0.0
  0
LINE
  8
0
 62
     0
 10
83.8193
 20
163.809
 30
0.0
 11
83.8193
 21
162.81
 31
0.0
  0
LINE
  8
0
 62
     0
 10
83.8193
 20
162.81
 30
0.0
 11
83.0199
 21
162.81
 31
0.0
  0
LINE
  8
0
 62
     0
 10
83.0199
 20
162.81
 30
0.0
 11
83.0199
 21
159.709
 31
0.0
  0
LINE
  8
0
 62
     0
 10
83.0199
 20
159.709
 30
0.0
 11
83.8193
 21
159.709
 31
0.0
  0
LINE
  8
0
 62
     0
 10
83.8193
 20
159.709
 30
0.0
 11
83.8193
 21
153.909
 31
0.0
  0
LINE
  8
0
 62
     0
 10
83.8193
 20
153.909
 30
0.0
 11
83.0199
 21
153.909
 31
0.0
  0
LINE
  8
0
 62
     0
 10
83.0199
 20
153.909
 30
0.0
 11
83.0199
 21
150.81
 31
0.0
  0
LINE
  8
0
 62
     0
 10
83.0199
 20
150.81
 30
0.0
 11
83.8193
 21
150.81
 31
0.0
  0
LINE
  8
0
 62
     0
 10
83.8193
 20
150.81
 30
0.0
 11
83.8193
 21
149.809
 31
0.0
  0
LINE
  8
0
 62
     0
 10
83.8193
 20
149.809
 30
0.0
 11
97.82
 21
149.809
 31
0.0
  0
LINE
  8
0
 62
     0
 10
97.82
 20
149.809
 30
0.0
 11
97.82
 21
150.81
 31
0.0
  0
LINE
  8
0
 62
     0
 10
97.82
 20
150.81
 30
0.0
 11
98.6194
 21
150.81
 31
0.0
  0
LINE
  8
0
 62
     0
 10
98.6194
 20
150.81
 30
0.0
 11
98.6194
 21
153.909
 31
0.0
  0
LINE
  8
0
 62
     0
 10
98.6194
 20
153.909
 30
0.0
 11
97.82
 21
153.909
 31
0.0
  0
LINE
  8
0
 62
     0
 10
97.82
 20
153.909
 30
0.0
 11
97.82
 21
159.709
 31
0.0
  0
LINE
  8
0
 62
     0
 10
97.82
 20
159.709
 30
0.0
 11
98.6194
 21
159.709
 31
0.0
  0
LINE
  8
0
 62
     0
 10
98.6194
 20
159.709
 30
0.0
 11
98.6194
 21
162.81
 31
0.0
  0
LINE
  8
0
 62
     0
 10
98.6194
 20
162.81
 30
0.0
 11
97.82
 21
162.81
 31
0.0
  0
LINE
  8
0
 62
     0
 10
97.82
 20
162.81
 30
0.0
 11
97.82
 21
163.809
 31
0.0
  0
LINE
  8
0
 62
     0
 10
97.82
 20
163.809
 30
0.0
 11
83.8193
 21
163.809
 31
0.0
  0
LINE
  8
0
 62
     0
 10
45.7193
 20
166.286
 30
0.0
 11
45.7193
 21
165.286
 31
0.0
  0
LINE
  8
0
 62
     0
 10
45.7193
 20
165.286
 30
0.0
 11
44.9199
 21
165.286
 31
0.0
  0
LINE
  8
0
 62
     0
 10
44.9199
 20
165.286
 30
0.0
 11
44.9199
 21
162.187
 31
0.0
  0
LINE
  8
0
 62
     0
 10
44.9199
 20
162.187
 30
0.0
 11
45.7193
 21
162.187
 31
0.0
  0
LINE
  8
0
 62
     0
 10
45.7193
 20
162.187
 30
0.0
 11
45.7193
 21
156.387
 31
0.0
  0
LINE
  8
0
 62
     0
 10
45.7193
 20
156.387
 30
0.0
 11
44.9199
 21
156.387
 31
0.0
  0
LINE
  8
0
 62
     0
 10
44.9199
 20
156.387
 30
0.0
 11
44.9199
 21
153.286
 31
0.0
  0
LINE
  8
0
 62
     0
 10
44.9199
 20
153.286
 30
0.0
 11
45.7193
 21
153.286
 31
0.0
  0
LINE
  8
0
 62
     0
 10
45.7193
 20
153.286
 30
0.0
 11
45.7193
 21
152.287
 31
0.0
  0
LINE
  8
0
 62
     0
 10
45.7193
 20
152.287
 30
0.0
 11
59.72
 21
152.287
 31
0.0
  0
LINE
  8
0
 62
     0
 10
59.72
 20
152.287
 30
0.0
 11
59.72
 21
153.286
 31
0.0
  0
LINE
  8
0
 62
     0
 10
59.72
 20
153.286
 30
0.0
 11
60.5194
 21
153.286
 31
0.0
  0
LINE
  8
0
 62
     0
 10
60.5194
 20
153.286
 30
0.0
 11
60.5194
 21
156.387
 31
0.0
  0
LINE
  8
0
 62
     0
 10
60.5194
 20
156.387
 30
0.0
 11
59.72
 21
156.387
 31
0.0
  0
LINE
  8
0
 62
     0
 10
59.72
 20
156.387
 30
0.0
 11
59.72
 21
162.187
 31
0.0
  0
LINE
  8
0
 62
     0
 10
59.72
 20
162.187
 30
0.0
 11
60.5194
 21
162.187
 31
0.0
  0
LINE
  8
0
 62
     0
 10
60.5194
 20
162.187
 30
0.0
 11
60.5194
 21
165.286
 31
0.0
  0
LINE
  8
0
 62
     0
 10
60.5194
 20
165.286
 30
0.0
 11
59.72
 21
165.286
 31
0.0
  0
LINE
  8
0
 62
     0
 10
59.72
 20
165.286
 30
0.0
 11
59.72
 21
166.286
 31
0.0
  0
LINE
  8
0
 62
     0
 10
59.72
 20
166.286
 30
0.0
 11
45.7193
 21
166.286
 31
0.0
  0
LINE
  8
0
 62
     0
 10
64.7693
 20
171.049
 30
0.0
 11
64.7693
 21
170.048
 31
0.0
  0
LINE
  8
0
 62
     0
 10
64.7693
 20
170.048
 30
0.0
 11
63.9699
 21
170.048
 31
0.0
  0
LINE
  8
0
 62
     0
 10
63.9699
 20
170.048
 30
0.0
 11
63.9699
 21
166.948
 31
0.0
  0
LINE
  8
0
 62
     0
 10
63.9699
 20
166.948
 30
0.0
 11
64.7693
 21
166.948
 31
0.0
  0
LINE
  8
0
 62
     0
 10
64.7693
 20
166.948
 30
0.0
 11
64.7693
 21
161.148
 31
0.0
  0
LINE
  8
0
 62
     0
 10
64.7693
 20
161.148
 30
0.0
 11
63.9699
 21
161.148
 31
0.0
  0
LINE
  8
0
 62
     0
 10
63.9699
 20
161.148
 30
0.0
 11
63.9699
 21
158.049
 31
0.0
  0
LINE
  8
0
 62
     0
 10
63.9699
 20
158.049
 30
0.0
 11
64.7693
 21
158.049
 31
0.0
  0
LINE
  8
0
 62
     0
 10
64.7693
 20
158.049
 30
0.0
 11
64.7693
 21
157.048
 31
0.0
  0
LINE
  8
0
 62
     0
 10
64.7693
 20
157.048
 30
0.0
 11
78.77
 21
157.048
 31
0.0
  0
LINE
  8
0
 62
     0
 10
78.77
 20
157.048
 30
0.0
 11
78.77
 21
158.049
 31
0.0
  0
LINE
  8
0
 62
     0
 10
78.77
 20
158.049
 30
0.0
 11
79.5694
 21
158.049
 31
0.0
  0
LINE
  8
0
 62
     0
 10
79.5694
 20
158.049
 30
0.0
 11
79.5694
 21
161.148
 31
0.0
  0
LINE
  8
0
 62
     0
 10
79.5694
 20
161.148
 30
0.0
 11
78.77
 21
161.148
 31
0.0
  0
LINE
  8
0
 62
     0
 10
78.77
 20
161.148
 30
0.0
 11
78.77
 21
166.948
 31
0.0
  0
LINE
  8
0
 62
     0
 10
78.77
 20
166.948
 30
0.0
 11
79.5694
 21
166.948
 31
0.0
  0
LINE
  8
0
 62
     0
 10
79.5694
 20
166.948
 30
0.0
 11
79.5694
 21
170.048
 31
0.0
  0
LINE
  8
0
 62
     0
 10
79.5694
 20
170.048
 30
0.0
 11
78.77
 21
170.048
 31
0.0
  0
LINE
  8
0
 62
     0
 10
78.77
 20
170.048
 30
0.0
 11
78.77
 21
171.049
 31
0.0
  0
LINE
  8
0
 62
     0
 10
78.77
 20
171.049
 30
0.0
 11
64.7693
 21
171.049
 31
0.0
  0
LINE
  8
0
 62
     0
 10
121.919
 20
175.811
 30
0.0
 11
121.919
 21
174.811
 31
0.0
  0
LINE
  8
0
 62
     0
 10
121.919
 20
174.811
 30
0.0
 11
121.12
 21
174.811
 31
0.0
  0
LINE
  8
0
 62
     0
 10
121.12
 20
174.811
 30
0.0
 11
121.12
 21
171.712
 31
0.0
  0
LINE
  8
0
 62
     0
 10
121.12
 20
171.712
 30
0.0
 11
121.919
 21
171.712
 31
0.0
  0
LINE
  8
0
 62
     0
 10
121.919
 20
171.712
 30
0.0
 11
121.919
 21
165.912
 31
0.0
  0
LINE
  8
0
 62
     0
 10
121.919
 20
165.912
 30
0.0
 11
121.12
 21
165.912
 31
0.0
  0
LINE
  8
0
 62
     0
 10
121.12
 20
165.912
 30
0.0
 11
121.12
 21
162.811
 31
0.0
  0
LINE
  8
0
 62
     0
 10
121.12
 20
162.811
 30
0.0
 11
121.919
 21
162.811
 31
0.0
  0
LINE
  8
0
 62
     0
 10
121.919
 20
162.811
 30
0.0
 11
121.919
 21
161.812
 31
0.0
  0
LINE
  8
0
 62
     0
 10
121.919
 20
161.812
 30
0.0
 11
135.92
 21
161.812
 31
0.0
  0
LINE
  8
0
 62
     0
 10
135.92
 20
161.812
 30
0.0
 11
135.92
 21
162.811
 31
0.0
  0
LINE
  8
0
 62
     0
 10
135.92
 20
162.811
 30
0.0
 11
136.719
 21
162.811
 31
0.0
  0
LINE
  8
0
 62
     0
 10
136.719
 20
162.811
 30
0.0
 11
136.719
 21
165.912
 31
0.0
  0
LINE
  8
0
 62
     0
 10
136.719
 20
165.912
 30
0.0
 11
135.92
 21
165.912
 31
0.0
  0
LINE
  8
0
 62
     0
 10
135.92
 20
165.912
 30
0.0
 11
135.92
 21
171.712
 31
0.0
  0
LINE
  8
0
 62
     0
 10
135.92
 20
171.712
 30
0.0
 11
136.719
 21
171.712
 31
0.0
  0
LINE
  8
0
 62
     0
 10
136.719
 20
171.712
 30
0.0
 11
136.719
 21
174.811
 31
0.0
  0
LINE
  8
0
 62
     0
 10
136.719
 20
174.811
 30
0.0
 11
135.92
 21
174.811
 31
0.0
  0
LINE
  8
0
 62
     0
 10
135.92
 20
174.811
 30
0.0
 11
135.92
 21
175.811
 31
0.0
  0
LINE
  8
0
 62
     0
 10
135.92
 20
175.811
 30
0.0
 11
121.919
 21
175.811
 31
0.0
  0
LINE
  8
0
 62
     0
 10
7.61919
 20
178.098
 30
0.0
 11
7.61919
 21
177.097
 31
0.0
  0
LINE
  8
0
 62
     0
 10
7.61919
 20
177.097
 30
0.0
 11
6.81852
 21
177.097
 31
0.0
  0
LINE
  8
0
 62
     0
 10
6.81852
 20
177.097
 30
0.0
 11
6.81852
 21
174
 31
0.0
  0
LINE
  8
0
 62
     0
 10
6.81852
 20
174
 30
0.0
 11
7.61919
 21
174
 31
0.0
  0
LINE
  8
0
 62
     0
 10
7.61919
 20
174
 30
0.0
 11
7.61919
 21
168.198
 31
0.0
  0
LINE
  8
0
 62
     0
 10
7.61919
 20
168.198
 30
0.0
 11
6.81852
 21
168.198
 31
0.0
  0
LINE
  8
0
 62
     0
 10
6.81852
 20
168.198
 30
0.0
 11
6.81852
 21
165.097
 31
0.0
  0
LINE
  8
0
 62
     0
 10
6.81852
 20
165.097
 30
0.0
 11
7.61919
 21
165.097
 31
0.0
  0
LINE
  8
0
 62
     0
 10
7.61919
 20
165.097
 30
0.0
 11
7.61919
 21
164.097
 31
0.0
  0
LINE
  8
0
 62
     0
 10
7.61919
 20
164.097
 30
0.0
 11
21.6201
 21
164.097
 31
0.0
  0
LINE
  8
0
 62
     0
 10
21.6201
 20
164.097
 30
0.0
 11
21.6201
 21
165.097
 31
0.0
  0
LINE
  8
0
 62
     0
 10
21.6201
 20
165.097
 30
0.0
 11
22.4193
 21
165.097
 31
0.0
  0
LINE
  8
0
 62
     0
 10
22.4193
 20
165.097
 30
0.0
 11
22.4193
 21
168.198
 31
0.0
  0
LINE
  8
0
 62
     0
 10
22.4193
 20
168.198
 30
0.0
 11
21.6201
 21
168.198
 31
0.0
  0
LINE
  8
0
 62
     0
 10
21.6201
 20
168.198
 30
0.0
 11
21.6201
 21
174
 31
0.0
  0
LINE
  8
0
 62
     0
 10
21.6201
 20
174
 30
0.0
 11
22.4193
 21
174
 31
0.0
  0
LINE
  8
0
 62
     0
 10
22.4193
 20
174
 30
0.0
 11
22.4193
 21
177.097
 31
0.0
  0
LINE
  8
0
 62
     0
 10
22.4193
 20
177.097
 30
0.0
 11
21.6201
 21
177.097
 31
0.0
  0
LINE
  8
0
 62
     0
 10
21.6201
 20
177.097
 30
0.0
 11
21.6201
 21
178.098
 31
0.0
  0
LINE
  8
0
 62
     0
 10
21.6201
 20
178.098
 30
0.0
 11
7.61919
 21
178.098
 31
0.0
  0
LINE
  8
0
 62
     0
 10
102.869
 20
178.098
 30
0.0
 11
102.869
 21
177.097
 31
0.0
  0
LINE
  8
0
 62
     0
 10
102.869
 20
177.097
 30
0.0
 11
102.07
 21
177.097
 31
0.0
  0
LINE
  8
0
 62
     0
 10
102.07
 20
177.097
 30
0.0
 11
102.07
 21
174
 31
0.0
  0
LINE
  8
0
 62
     0
 10
102.07
 20
174
 30
0.0
 11
102.869
 21
174
 31
0.0
  0
LINE
  8
0
 62
     0
 10
102.869
 20
174
 30
0.0
 11
102.869
 21
168.198
 31
0.0
  0
LINE
  8
0
 62
     0
 10
102.869
 20
168.198
 30
0.0
 11
102.07
 21
168.198
 31
0.0
  0
LINE
  8
0
 62
     0
 10
102.07
 20
168.198
 30
0.0
 11
102.07
 21
165.097
 31
0.0
  0
LINE
  8
0
 62
     0
 10
102.07
 20
165.097
 30
0.0
 11
102.869
 21
165.097
 31
0.0
  0
LINE
  8
0
 62
     0
 10
102.869
 20
165.097
 30
0.0
 11
102.869
 21
164.097
 31
0.0
  0
LINE
  8
0
 62
     0
 10
102.869
 20
164.097
 30
0.0
 11
116.87
 21
164.097
 31
0.0
  0
LINE
  8
0
 62
     0
 10
116.87
 20
164.097
 30
0.0
 11
116.87
 21
165.097
 31
0.0
  0
LINE
  8
0
 62
     0
 10
116.87
 20
165.097
 30
0.0
 11
117.669
 21
165.097
 31
0.0
  0
LINE
  8
0
 62
     0
 10
117.669
 20
165.097
 30
0.0
 11
117.669
 21
168.198
 31
0.0
  0
LINE
  8
0
 62
     0
 10
117.669
 20
168.198
 30
0.0
 11
116.87
 21
168.198
 31
0.0
  0
LINE
  8
0
 62
     0
 10
116.87
 20
168.198
 30
0.0
 11
116.87
 21
174
 31
0.0
  0
LINE
  8
0
 62
     0
 10
116.87
 20
174
 30
0.0
 11
117.669
 21
174
 31
0.0
  0
LINE
  8
0
 62
     0
 10
117.669
 20
174
 30
0.0
 11
117.669
 21
177.097
 31
0.0
  0
LINE
  8
0
 62
     0
 10
117.669
 20
177.097
 30
0.0
 11
116.87
 21
177.097
 31
0.0
  0
LINE
  8
0
 62
     0
 10
116.87
 20
177.097
 30
0.0
 11
116.87
 21
178.098
 31
0.0
  0
LINE
  8
0
 62
     0
 10
116.87
 20
178.098
 30
0.0
 11
102.869
 21
178.098
 31
0.0
  0
LINE
  8
0
 62
     0
 10
26.6692
 20
182.859
 30
0.0
 11
26.6692
 21
181.86
 31
0.0
  0
LINE
  8
0
 62
     0
 10
26.6692
 20
181.86
 30
0.0
 11
25.8699
 21
181.86
 31
0.0
  0
LINE
  8
0
 62
     0
 10
25.8699
 20
181.86
 30
0.0
 11
25.8699
 21
178.759
 31
0.0
  0
LINE
  8
0
 62
     0
 10
25.8699
 20
178.759
 30
0.0
 11
26.6692
 21
178.759
 31
0.0
  0
LINE
  8
0
 62
     0
 10
26.6692
 20
178.759
 30
0.0
 11
26.6692
 21
172.96
 31
0.0
  0
LINE
  8
0
 62
     0
 10
26.6692
 20
172.96
 30
0.0
 11
25.8699
 21
172.96
 31
0.0
  0
LINE
  8
0
 62
     0
 10
25.8699
 20
172.96
 30
0.0
 11
25.8699
 21
169.861
 31
0.0
  0
LINE
  8
0
 62
     0
 10
25.8699
 20
169.861
 30
0.0
 11
26.6692
 21
169.861
 31
0.0
  0
LINE
  8
0
 62
     0
 10
26.6692
 20
169.861
 30
0.0
 11
26.6692
 21
168.861
 31
0.0
  0
LINE
  8
0
 62
     0
 10
26.6692
 20
168.861
 30
0.0
 11
40.67
 21
168.861
 31
0.0
  0
LINE
  8
0
 62
     0
 10
40.67
 20
168.861
 30
0.0
 11
40.67
 21
169.861
 31
0.0
  0
LINE
  8
0
 62
     0
 10
40.67
 20
169.861
 30
0.0
 11
41.4694
 21
169.861
 31
0.0
  0
LINE
  8
0
 62
     0
 10
41.4694
 20
169.861
 30
0.0
 11
41.4694
 21
172.96
 31
0.0
  0
LINE
  8
0
 62
     0
 10
41.4694
 20
172.96
 30
0.0
 11
40.67
 21
172.96
 31
0.0
  0
LINE
  8
0
 62
     0
 10
40.67
 20
172.96
 30
0.0
 11
40.67
 21
178.759
 31
0.0
  0
LINE
  8
0
 62
     0
 10
40.67
 20
178.759
 30
0.0
 11
41.4694
 21
178.759
 31
0.0
  0
LINE
  8
0
 62
     0
 10
41.4694
 20
178.759
 30
0.0
 11
41.4694
 21
181.86
 31
0.0
  0
LINE
  8
0
 62
     0
 10
41.4694
 20
181.86
 30
0.0
 11
40.67
 21
181.86
 31
0.0
  0
LINE
  8
0
 62
     0
 10
40.67
 20
181.86
 30
0.0
 11
40.67
 21
182.859
 31
0.0
  0
LINE
  8
0
 62
     0
 10
40.67
 20
182.859
 30
0.0
 11
26.6692
 21
182.859
 31
0.0
  0
LINE
  8
0
 62
     0
 10
83.8193
 20
182.859
 30
0.0
 11
83.8193
 21
181.86
 31
0.0
  0
LINE
  8
0
 62
     0
 10
83.8193
 20
181.86
 30
0.0
 11
83.0199
 21
181.86
 31
0.0
  0
LINE
  8
0
 62
     0
 10
83.0199
 20
181.86
 30
0.0
 11
83.0199
 21
178.759
 31
0.0
  0
LINE
  8
0
 62
     0
 10
83.0199
 20
178.759
 30
0.0
 11
83.8193
 21
178.759
 31
0.0
  0
LINE
  8
0
 62
     0
 10
83.8193
 20
178.759
 30
0.0
 11
83.8193
 21
172.96
 31
0.0
  0
LINE
  8
0
 62
     0
 10
83.8193
 20
172.96
 30
0.0
 11
83.0199
 21
172.96
 31
0.0
  0
LINE
  8
0
 62
     0
 10
83.0199
 20
172.96
 30
0.0
 11
83.0199
 21
169.861
 31
0.0
  0
LINE
  8
0
 62
     0
 10
83.0199
 20
169.861
 30
0.0
 11
83.8193
 21
169.861
 31
0.0
  0
LINE
  8
0
 62
     0
 10
83.8193
 20
169.861
 30
0.0
 11
83.8193
 21
168.861
 31
0.0
  0
LINE
  8
0
 62
     0
 10
83.8193
 20
168.861
 30
0.0
 11
97.82
 21
168.861
 31
0.0
  0
LINE
  8
0
 62
     0
 10
97.82
 20
168.861
 30
0.0
 11
97.82
 21
169.861
 31
0.0
  0
LINE
  8
0
 62
     0
 10
97.82
 20
169.861
 30
0.0
 11
98.6194
 21
169.861
 31
0.0
  0
LINE
  8
0
 62
     0
 10
98.6194
 20
169.861
 30
0.0
 11
98.6194
 21
172.96
 31
0.0
  0
LINE
  8
0
 62
     0
 10
98.6194
 20
172.96
 30
0.0
 11
97.82
 21
172.96
 31
0.0
  0
LINE
  8
0
 62
     0
 10
97.82
 20
172.96
 30
0.0
 11
97.82
 21
178.759
 31
0.0
  0
LINE
  8
0
 62
     0
 10
97.82
 20
178.759
 30
0.0
 11
98.6194
 21
178.759
 31
0.0
  0
LINE
  8
0
 62
     0
 10
98.6194
 20
178.759
 30
0.0
 11
98.6194
 21
181.86
 31
0.0
  0
LINE
  8
0
 62
     0
 10
98.6194
 20
181.86
 30
0.0
 11
97.82
 21
181.86
 31
0.0
  0
LINE
  8
0
 62
     0
 10
97.82
 20
181.86
 30
0.0
 11
97.82
 21
182.859
 31
0.0
  0
LINE
  8
0
 62
     0
 10
97.82
 20
182.859
 30
0.0
 11
83.8193
 21
182.859
 31
0.0
  0
LINE
  8
0
 62
     0
 10
45.7193
 20
185.336
 30
0.0
 11
45.7193
 21
184.336
 31
0.0
  0
LINE
  8
0
 62
     0
 10
45.7193
 20
184.336
 30
0.0
 11
44.9199
 21
184.336
 31
0.0
  0
LINE
  8
0
 62
     0
 10
44.9199
 20
184.336
 30
0.0
 11
44.9199
 21
181.237
 31
0.0
  0
LINE
  8
0
 62
     0
 10
44.9199
 20
181.237
 30
0.0
 11
45.7193
 21
181.237
 31
0.0
  0
LINE
  8
0
 62
     0
 10
45.7193
 20
181.237
 30
0.0
 11
45.7193
 21
175.437
 31
0.0
  0
LINE
  8
0
 62
     0
 10
45.7193
 20
175.437
 30
0.0
 11
44.9199
 21
175.437
 31
0.0
  0
LINE
  8
0
 62
     0
 10
44.9199
 20
175.437
 30
0.0
 11
44.9199
 21
172.336
 31
0.0
  0
LINE
  8
0
 62
     0
 10
44.9199
 20
172.336
 30
0.0
 11
45.7193
 21
172.336
 31
0.0
  0
LINE
  8
0
 62
     0
 10
45.7193
 20
172.336
 30
0.0
 11
45.7193
 21
171.337
 31
0.0
  0
LINE
  8
0
 62
     0
 10
45.7193
 20
171.337
 30
0.0
 11
59.72
 21
171.337
 31
0.0
  0
LINE
  8
0
 62
     0
 10
59.72
 20
171.337
 30
0.0
 11
59.72
 21
172.336
 31
0.0
  0
LINE
  8
0
 62
     0
 10
59.72
 20
172.336
 30
0.0
 11
60.5194
 21
172.336
 31
0.0
  0
LINE
  8
0
 62
     0
 10
60.5194
 20
172.336
 30
0.0
 11
60.5194
 21
175.437
 31
0.0
  0
LINE
  8
0
 62
     0
 10
60.5194
 20
175.437
 30
0.0
 11
59.72
 21
175.437
 31
0.0
  0
LINE
  8
0
 62
     0
 10
59.72
 20
175.437
 30
0.0
 11
59.72
 21
181.237
 31
0.0
  0
LINE
  8
0
 62
     0
 10
59.72
 20
181.237
 30
0.0
 11
60.5194
 21
181.237
 31
0.0
  0
LINE
  8
0
 62
     0
 10
60.5194
 20
181.237
 30
0.0
 11
60.5194
 21
184.336
 31
0.0
  0
LINE
  8
0
 62
     0
 10
60.5194
 20
184.336
 30
0.0
 11
59.72
 21
184.336
 31
0.0
  0
LINE
  8
0
 62
     0
 10
59.72
 20
184.336
 30
0.0
 11
59.72
 21
185.336
 31
0.0
  0
LINE
  8
0
 62
     0
 10
59.72
 20
185.336
 30
0.0
 11
45.7193
 21
185.336
 31
0.0
  0
LINE
  8
0
 62
     0
 10
64.7693
 20
190.099
 30
0.0
 11
64.7693
 21
189.1
 31
0.0
  0
LINE
  8
0
 62
     0
 10
64.7693
 20
189.1
 30
0.0
 11
63.9699
 21
189.1
 31
0.0
  0
LINE
  8
0
 62
     0
 10
63.9699
 20
189.1
 30
0.0
 11
63.9699
 21
185.998
 31
0.0
  0
LINE
  8
0
 62
     0
 10
63.9699
 20
185.998
 30
0.0
 11
64.7693
 21
185.998
 31
0.0
  0
LINE
  8
0
 62
     0
 10
64.7693
 20
185.998
 30
0.0
 11
64.7693
 21
180.199
 31
0.0
  0
LINE
  8
0
 62
     0
 10
64.7693
 20
180.199
 30
0.0
 11
63.9699
 21
180.199
 31
0.0
  0
LINE
  8
0
 62
     0
 10
63.9699
 20
180.199
 30
0.0
 11
63.9699
 21
177.099
 31
0.0
  0
LINE
  8
0
 62
     0
 10
63.9699
 20
177.099
 30
0.0
 11
64.7693
 21
177.099
 31
0.0
  0
LINE
  8
0
 62
     0
 10
64.7693
 20
177.099
 30
0.0
 11
64.7693
 21
176.098
 31
0.0
  0
LINE
  8
0
 62
     0
 10
64.7693
 20
176.098
 30
0.0
 11
78.77
 21
176.098
 31
0.0
  0
LINE
  8
0
 62
     0
 10
78.77
 20
176.098
 30
0.0
 11
78.77
 21
177.099
 31
0.0
  0
LINE
  8
0
 62
     0
 10
78.77
 20
177.099
 30
0.0
 11
79.5694
 21
177.099
 31
0.0
  0
LINE
  8
0
 62
     0
 10
79.5694
 20
177.099
 30
0.0
 11
79.5694
 21
180.199
 31
0.0
  0
LINE
  8
0
 62
     0
 10
79.5694
 20
180.199
 30
0.0
 11
78.77
 21
180.199
 31
0.0
  0
LINE
  8
0
 62
     0
 10
78.77
 20
180.199
 30
0.0
 11
78.77
 21
185.998
 31
0.0
  0
LINE
  8
0
 62
     0
 10
78.77
 20
185.998
 30
0.0
 11
79.5694
 21
185.998
 31
0.0
  0
LINE
  8
0
 62
     0
 10
79.5694
 20
185.998
 30
0.0
 11
79.5694
 21
189.1
 31
0.0
  0
LINE
  8
0
 62
     0
 10
79.5694
 20
189.1
 30
0.0
 11
78.77
 21
189.1
 31
0.0
  0
LINE
  8
0
 62
     0
 10
78.77
 20
189.1
 30
0.0
 11
78.77
 21
190.099
 31
0.0
  0
LINE
  8
0
 62
     0
 10
78.77
 20
190.099
 30
0.0
 11
64.7693
 21
190.099
 31
0.0
  0
LINE
  8
0
 62
     0
 10
88.6146
 20
196.551
 30
0.0
 11
88.1973
 21
196.337
 31
0.0
  0
LINE
  8
0
 62
     0
 10
88.1973
 20
196.337
 30
0.0
 11
87.8649
 21
196.007
 31
0.0
  0
LINE
  8
0
 62
     0
 10
87.8649
 20
196.007
 30
0.0
 11
87.6515
 21
195.588
 31
0.0
  0
LINE
  8
0
 62
     0
 10
87.6515
 20
195.588
 30
0.0
 11
87.5771
 21
195.125
 31
0.0
  0
LINE
  8
0
 62
     0
 10
87.5771
 20
195.125
 30
0.0
 11
87.6515
 21
194.66
 31
0.0
  0
LINE
  8
0
 62
     0
 10
87.6515
 20
194.66
 30
0.0
 11
87.8649
 21
194.243
 31
0.0
  0
LINE
  8
0
 62
     0
 10
87.8649
 20
194.243
 30
0.0
 11
88.1973
 21
193.911
 31
0.0
  0
LINE
  8
0
 62
     0
 10
88.1973
 20
193.911
 30
0.0
 11
88.6146
 21
193.698
 31
0.0
  0
LINE
  8
0
 62
     0
 10
88.6146
 20
193.698
 30
0.0
 11
89.0778
 21
193.625
 31
0.0
  0
LINE
  8
0
 62
     0
 10
89.0778
 20
193.625
 30
0.0
 11
89.5421
 21
193.698
 31
0.0
  0
LINE
  8
0
 62
     0
 10
89.5421
 20
193.698
 30
0.0
 11
89.9597
 21
193.911
 31
0.0
  0
LINE
  8
0
 62
     0
 10
89.9597
 20
193.911
 30
0.0
 11
90.2917
 21
194.243
 31
0.0
  0
LINE
  8
0
 62
     0
 10
90.2917
 20
194.243
 30
0.0
 11
90.5055
 21
194.66
 31
0.0
  0
LINE
  8
0
 62
     0
 10
90.5055
 20
194.66
 30
0.0
 11
90.5771
 21
195.125
 31
0.0
  0
LINE
  8
0
 62
     0
 10
90.5771
 20
195.125
 30
0.0
 11
90.5055
 21
195.588
 31
0.0
  0
LINE
  8
0
 62
     0
 10
90.5055
 20
195.588
 30
0.0
 11
90.2917
 21
196.007
 31
0.0
  0
LINE
  8
0
 62
     0
 10
90.2917
 20
196.007
 30
0.0
 11
89.9597
 21
196.337
 31
0.0
  0
LINE
  8
0
 62
     0
 10
89.9597
 20
196.337
 30
0.0
 11
89.5421
 21
196.551
 31
0.0
  0
LINE
  8
0
 62
     0
 10
89.5421
 20
196.551
 30
0.0
 11
89.0778
 21
196.624
 31
0.0
  0
LINE
  8
0
 62
     0
 10
89.0778
 20
196.624
 30
0.0
 11
88.6146
 21
196.551
 31
0.0
  0
LINE
  8
0
 62
     0
 10
175.099
 20
196.551
 30
0.0
 11
174.68
 21
196.337
 31
0.0
  0
LINE
  8
0
 62
     0
 10
174.68
 20
196.337
 30
0.0
 11
174.349
 21
196.007
 31
0.0
  0
LINE
  8
0
 62
     0
 10
174.349
 20
196.007
 30
0.0
 11
174.136
 21
195.588
 31
0.0
  0
LINE
  8
0
 62
     0
 10
174.136
 20
195.588
 30
0.0
 11
174.061
 21
195.125
 31
0.0
  0
LINE
  8
0
 62
     0
 10
174.061
 20
195.125
 30
0.0
 11
174.136
 21
194.66
 31
0.0
  0
LINE
  8
0
 62
     0
 10
174.136
 20
194.66
 30
0.0
 11
174.349
 21
194.243
 31
0.0
  0
LINE
  8
0
 62
     0
 10
174.349
 20
194.243
 30
0.0
 11
174.68
 21
193.911
 31
0.0
  0
LINE
  8
0
 62
     0
 10
174.68
 20
193.911
 30
0.0
 11
175.099
 21
193.698
 31
0.0
  0
LINE
  8
0
 62
     0
 10
175.099
 20
193.698
 30
0.0
 11
175.562
 21
193.625
 31
0.0
  0
LINE
  8
0
 62
     0
 10
175.562
 20
193.625
 30
0.0
 11
176.025
 21
193.698
 31
0.0
  0
LINE
  8
0
 62
     0
 10
176.025
 20
193.698
 30
0.0
 11
176.444
 21
193.911
 31
0.0
  0
LINE
  8
0
 62
     0
 10
176.444
 20
193.911
 30
0.0
 11
176.776
 21
194.243
 31
0.0
  0
LINE
  8
0
 62
     0
 10
176.776
 20
194.243
 30
0.0
 11
176.988
 21
194.66
 31
0.0
  0
LINE
  8
0
 62
     0
 10
176.988
 20
194.66
 30
0.0
 11
177.061
 21
195.125
 31
0.0
  0
LINE
  8
0
 62
     0
 10
177.061
 20
195.125
 30
0.0
 11
176.988
 21
195.588
 31
0.0
  0
LINE
  8
0
 62
     0
 10
176.988
 20
195.588
 30
0.0
 11
176.776
 21
196.007
 31
0.0
  0
LINE
  8
0
 62
     0
 10
176.776
 20
196.007
 30
0.0
 11
176.444
 21
196.337
 31
0.0
  0
LINE
  8
0
 62
     0
 10
176.444
 20
196.337
 30
0.0
 11
176.025
 21
196.551
 31
0.0
  0
LINE
  8
0
 62
     0
 10
176.025
 20
196.551
 30
0.0
 11
175.562
 21
196.624
 31
0.0
  0
LINE
  8
0
 62
     0
 10
175.562
 20
196.624
 30
0.0
 11
175.099
 21
196.551
 31
0.0
  0
LINE
  8
0
 62
     0
 10
2.13045
 20
196.551
 30
0.0
 11
1.7129
 21
196.337
 31
0.0
  0
LINE
  8
0
 62
     0
 10
1.7129
 20
196.337
 30
0.0
 11
1.38079
 21
196.007
 31
0.0
  0
LINE
  8
0
 62
     0
 10
1.38079
 20
196.007
 30
0.0
 11
1.1672
 21
195.588
 31
0.0
  0
LINE
  8
0
 62
     0
 10
1.1672
 20
195.588
 30
0.0
 11
1.09416
 21
195.125
 31
0.0
  0
LINE
  8
0
 62
     0
 10
1.09416
 20
195.125
 30
0.0
 11
1.1672
 21
194.66
 31
0.0
  0
LINE
  8
0
 62
     0
 10
1.1672
 20
194.66
 30
0.0
 11
1.38079
 21
194.243
 31
0.0
  0
LINE
  8
0
 62
     0
 10
1.38079
 20
194.243
 30
0.0
 11
1.7129
 21
193.911
 31
0.0
  0
LINE
  8
0
 62
     0
 10
1.7129
 20
193.911
 30
0.0
 11
2.13045
 21
193.698
 31
0.0
  0
LINE
  8
0
 62
     0
 10
2.13045
 20
193.698
 30
0.0
 11
2.59485
 21
193.625
 31
0.0
  0
LINE
  8
0
 62
     0
 10
2.59485
 20
193.625
 30
0.0
 11
3.05787
 21
193.698
 31
0.0
  0
LINE
  8
0
 62
     0
 10
3.05787
 20
193.698
 30
0.0
 11
3.47541
 21
193.911
 31
0.0
  0
LINE
  8
0
 62
     0
 10
3.47541
 20
193.911
 30
0.0
 11
3.80753
 21
194.243
 31
0.0
  0
LINE
  8
0
 62
     0
 10
3.80753
 20
194.243
 30
0.0
 11
4.0211
 21
194.66
 31
0.0
  0
LINE
  8
0
 62
     0
 10
4.0211
 20
194.66
 30
0.0
 11
4.09416
 21
195.125
 31
0.0
  0
LINE
  8
0
 62
     0
 10
4.09416
 20
195.125
 30
0.0
 11
4.0211
 21
195.588
 31
0.0
  0
LINE
  8
0
 62
     0
 10
4.0211
 20
195.588
 30
0.0
 11
3.80753
 21
196.007
 31
0.0
  0
LINE
  8
0
 62
     0
 10
3.80753
 20
196.007
 30
0.0
 11
3.47541
 21
196.337
 31
0.0
  0
LINE
  8
0
 62
     0
 10
3.47541
 20
196.337
 30
0.0
 11
3.05787
 21
196.551
 31
0.0
  0
LINE
  8
0
 62
     0
 10
3.05787
 20
196.551
 30
0.0
 11
2.59485
 21
196.624
 31
0.0
  0
LINE
  8
0
 62
     0
 10
2.59485
 20
196.624
 30
0.0
 11
2.13045
 21
196.551
 31
0.0
  0
ENDSEC
  0
EOF
