<?xml version="1.0"?>
<!-- Generated by SVGo -->
<svg width="198.977mm" height="207.511mm"
     viewBox="0.000 0.000 198.977 207.511"
     xmlns="http://www.w3.org/2000/svg" 
     xmlns:xlink="http://www.w3.org/1999/xlink">
<polygon points="190.977,5.001 191.212,5.010 191.446,5.037 191.677,5.083 191.904,5.147 192.125,5.229 192.338,5.327 192.544,5.443 192.740,5.573 192.925,5.719 193.098,5.879 193.258,6.052 193.404,6.237 193.534,6.433 193.650,6.639 193.748,6.852 193.830,7.073 193.894,7.300 193.940,7.531 193.967,7.765 193.977,8.001 193.977,199.511 193.967,199.747 193.940,199.981 193.894,200.212 193.830,200.438 193.748,200.659 193.650,200.873 193.534,201.079 193.404,201.275 193.258,201.460 193.098,201.633 192.925,201.792 192.740,201.938 192.544,202.069 192.338,202.184 192.125,202.283 191.904,202.364 191.677,202.428 191.446,202.474 191.212,202.502 190.976,202.511 8.001,202.511 7.765,202.502 7.531,202.474 7.300,202.428 7.073,202.364 6.852,202.283 6.639,202.184 6.433,202.069 6.237,201.938 6.052,201.792 5.879,201.633 5.719,201.460 5.573,201.275 5.443,201.079 5.327,200.873 5.229,200.659 5.147,200.438 5.083,200.212 5.037,199.981 5.010,199.747 5.000,199.511 5.001,8.001 5.010,7.765 5.037,7.531 5.083,7.300 5.147,7.073 5.229,6.852 5.327,6.639 5.443,6.433 5.573,6.237 5.719,6.052 5.879,5.879 6.052,5.719 6.237,5.573 6.433,5.443 6.639,5.327 6.852,5.229 7.073,5.147 7.300,5.083 7.531,5.037 7.765,5.010 8.001,5.000" style="fill:none;stroke-width:0.050000mm;stroke:black"/>
<polygon points="191.513,199.085 191.095,199.298 190.763,199.630 190.550,200.048 190.476,200.511 190.550,200.975 190.763,201.393 191.095,201.725 191.513,201.938 191.977,202.011 192.440,201.938 192.858,201.725 193.190,201.393 193.403,200.975 193.477,200.511 193.403,200.048 193.190,199.630 192.858,199.298 192.440,199.085 191.977,199.011" style="fill:none;stroke-width:0.050000mm;stroke:black"/>
<polygon points="99.025,199.085 98.607,199.298 98.275,199.630 98.062,200.048 97.989,200.511 98.062,200.975 98.275,201.393 98.607,201.725 99.025,201.938 99.489,202.011 99.952,201.938 100.370,201.725 100.702,201.393 100.915,200.975 100.989,200.511 100.915,200.048 100.702,199.630 100.370,199.298 99.952,199.085 99.489,199.011" style="fill:none;stroke-width:0.050000mm;stroke:black"/>
<polygon points="6.537,199.085 6.119,199.298 5.787,199.630 5.574,200.048 5.500,200.511 5.574,200.975 5.787,201.393 6.119,201.725 6.537,201.938 7.001,202.011 7.464,201.938 7.882,201.725 8.214,201.393 8.427,200.975 8.501,200.511 8.427,200.048 8.214,199.630 7.882,199.298 7.464,199.085 7.001,199.011" style="fill:none;stroke-width:0.050000mm;stroke:black"/>
<polygon points="9.001,9.001 9.001,198.511 189.977,198.511 189.977,9.001" style="fill:none;stroke-width:0.050000mm;stroke:black"/>
<polygon points="191.513,102.329 191.095,102.542 190.763,102.874 190.550,103.292 190.476,103.756 190.550,104.219 190.763,104.638 191.095,104.969 191.513,105.182 191.977,105.256 192.440,105.182 192.858,104.969 193.190,104.638 193.403,104.219 193.477,103.756 193.403,103.292 193.190,102.874 192.858,102.542 192.440,102.329 191.977,102.256" style="fill:none;stroke-width:0.050000mm;stroke:black"/>
<polygon points="6.537,102.329 6.119,102.542 5.787,102.874 5.574,103.292 5.500,103.756 5.574,104.219 5.787,104.638 6.119,104.969 6.537,105.182 7.001,105.256 7.464,105.182 7.882,104.969 8.214,104.638 8.427,104.219 8.501,103.756 8.427,103.292 8.214,102.874 7.882,102.542 7.464,102.329 7.001,102.256" style="fill:none;stroke-width:0.050000mm;stroke:black"/>
<polygon points="99.025,5.574 98.607,5.787 98.275,6.119 98.062,6.537 97.989,7.001 98.062,7.464 98.275,7.882 98.607,8.214 99.025,8.427 99.489,8.501 99.952,8.427 100.370,8.214 100.702,7.882 100.915,7.464 100.989,7.001 100.915,6.537 100.702,6.119 100.370,5.787 99.952,5.574 99.489,5.501" style="fill:none;stroke-width:0.050000mm;stroke:black"/>
<polygon points="191.513,5.574 191.095,5.787 190.763,6.119 190.550,6.537 190.476,7.001 190.550,7.464 190.763,7.882 191.095,8.214 191.513,8.427 191.977,8.501 192.440,8.427 192.858,8.214 193.190,7.882 193.403,7.464 193.477,7.001 193.403,6.537 193.190,6.119 192.858,5.787 192.440,5.574 191.977,5.501" style="fill:none;stroke-width:0.050000mm;stroke:black"/>
<polygon points="6.537,5.574 6.119,5.787 5.787,6.119 5.574,6.537 5.500,7.001 5.574,7.464 5.787,7.882 6.119,8.214 6.537,8.427 7.001,8.501 7.464,8.427 7.882,8.214 8.214,7.882 8.427,7.464 8.501,7.001 8.427,6.537 8.214,6.119 7.882,5.787 7.464,5.574 7.001,5.501" style="fill:none;stroke-width:0.050000mm;stroke:black"/>
</svg>
