<?xml version="1.0"?>
<!-- Generated by SVGo -->
<svg width="198.977mm" height="207.511mm"
     viewBox="0.000 0.000 198.977 207.511"
     xmlns="http://www.w3.org/2000/svg" 
     xmlns:xlink="http://www.w3.org/1999/xlink">
<polygon points="190.977,5.001 191.212,5.010 191.446,5.037 191.677,5.083 191.904,5.147 192.125,5.229 192.338,5.327 192.544,5.443 192.740,5.573 192.925,5.719 193.098,5.879 193.258,6.052 193.404,6.237 193.534,6.433 193.650,6.639 193.748,6.852 193.830,7.073 193.894,7.300 193.940,7.531 193.967,7.765 193.977,8.001 193.977,199.511 193.967,199.747 193.940,199.981 193.894,200.212 193.830,200.438 193.748,200.659 193.650,200.873 193.534,201.079 193.404,201.275 193.258,201.460 193.098,201.633 192.925,201.792 192.740,201.938 192.544,202.069 192.338,202.184 192.125,202.283 191.904,202.364 191.677,202.428 191.446,202.474 191.212,202.502 190.976,202.511 8.001,202.511 7.765,202.502 7.531,202.474 7.300,202.428 7.073,202.364 6.852,202.283 6.639,202.184 6.433,202.069 6.237,201.938 6.052,201.792 5.879,201.633 5.719,201.460 5.573,201.275 5.443,201.079 5.327,200.873 5.229,200.659 5.147,200.438 5.083,200.212 5.037,199.981 5.010,199.747 5.000,199.511 5.001,8.001 5.010,7.765 5.037,7.531 5.083,7.300 5.147,7.073 5.229,6.852 5.327,6.639 5.443,6.433 5.573,6.237 5.719,6.052 5.879,5.879 6.052,5.719 6.237,5.573 6.433,5.443 6.639,5.327 6.852,5.229 7.073,5.147 7.300,5.083 7.531,5.037 7.765,5.010 8.001,5.000" style="fill:none;stroke-width:0.050000mm;stroke:black"/>
<polygon points="191.513,199.085 191.095,199.298 190.763,199.630 190.550,200.048 190.476,200.511 190.550,200.975 190.763,201.393 191.095,201.725 191.513,201.938 191.977,202.011 192.440,201.938 192.858,201.725 193.190,201.393 193.403,200.975 193.477,200.511 193.403,200.048 193.190,199.630 192.858,199.298 192.440,199.085 191.977,199.011" style="fill:none;stroke-width:0.050000mm;stroke:black"/>
<polygon points="99.025,199.085 98.607,199.298 98.275,199.630 98.062,200.048 97.989,200.511 98.062,200.975 98.275,201.393 98.607,201.725 99.025,201.938 99.489,202.011 99.952,201.938 100.370,201.725 100.702,201.393 100.915,200.975 100.989,200.511 100.915,200.048 100.702,199.630 100.370,199.298 99.952,199.085 99.489,199.011" style="fill:none;stroke-width:0.050000mm;stroke:black"/>
<polygon points="6.537,199.085 6.119,199.298 5.787,199.630 5.574,200.048 5.500,200.511 5.574,200.975 5.787,201.393 6.119,201.725 6.537,201.938 7.001,202.011 7.464,201.938 7.882,201.725 8.214,201.393 8.427,200.975 8.501,200.511 8.427,200.048 8.214,199.630 7.882,199.298 7.464,199.085 7.001,199.011" style="fill:none;stroke-width:0.050000mm;stroke:black"/>
<polygon points="32.878,126.936 33.378,127.802 32.686,128.202 34.236,130.887 34.928,130.486 37.828,135.510 37.136,135.910 38.686,138.595 39.378,138.195 39.878,139.061 52.003,132.061 51.503,131.195 52.196,130.795 50.646,128.110 49.953,128.509 47.053,123.487 47.746,123.087 46.196,120.402 45.503,120.802 45.003,119.936" style="fill:none;stroke-width:0.050000mm;stroke:black"/>
<polygon points="53.978,105.582 54.378,106.275 49.355,109.175 48.955,108.482 46.270,110.032 46.670,110.725 45.804,111.225 52.804,123.349 53.670,122.849 54.070,123.542 56.755,121.992 56.355,121.299 61.378,118.399 61.778,119.092 64.463,117.542 64.063,116.849 64.929,116.349 57.929,104.225 57.063,104.725 56.663,104.032" style="fill:none;stroke-width:0.050000mm;stroke:black"/>
<polygon points="23.353,110.438 23.853,111.305 23.161,111.705 24.711,114.389 25.403,113.989 28.303,119.012 27.611,119.412 29.161,122.097 29.853,121.697 30.353,122.563 42.478,115.563 41.978,114.697 42.671,114.297 41.121,111.612 40.428,112.012 37.528,106.989 38.221,106.589 36.671,103.905 35.978,104.305 35.478,103.438" style="fill:none;stroke-width:0.050000mm;stroke:black"/>
<polygon points="61.111,99.637 61.611,100.503 60.919,100.903 62.469,103.588 63.161,103.188 66.061,108.211 65.368,108.611 66.919,111.296 67.611,110.896 68.111,111.762 80.236,104.762 79.736,103.896 80.429,103.496 78.879,100.811 78.186,101.211 75.286,96.188 75.979,95.788 74.429,93.103 73.736,93.503 73.236,92.637" style="fill:none;stroke-width:0.050000mm;stroke:black"/>
<polygon points="144.876,94.965 144.876,95.965 144.076,95.965 144.076,99.065 144.876,99.065 144.876,104.865 144.076,104.865 144.076,107.965 144.876,107.965 144.876,108.965 158.876,108.965 158.876,107.965 159.676,107.965 159.676,104.865 158.876,104.865 158.876,99.065 159.676,99.065 159.676,95.965 158.876,95.965 158.876,94.965" style="fill:none;stroke-width:0.050000mm;stroke:black"/>
<polygon points="163.926,94.965 163.926,95.965 163.126,95.965 163.126,99.065 163.926,99.065 163.926,104.865 163.126,104.865 163.126,107.965 163.926,107.965 163.926,108.965 177.926,108.965 177.926,107.965 178.726,107.965 178.726,104.865 177.926,104.865 177.926,99.065 178.726,99.065 178.726,95.965 177.926,95.965 177.926,94.965" style="fill:none;stroke-width:0.050000mm;stroke:black"/>
<polygon points="191.513,102.329 191.095,102.542 190.763,102.874 190.550,103.292 190.476,103.756 190.550,104.219 190.763,104.638 191.095,104.969 191.513,105.182 191.977,105.256 192.440,105.182 192.858,104.969 193.190,104.638 193.403,104.219 193.477,103.756 193.403,103.292 193.190,102.874 192.858,102.542 192.440,102.329 191.977,102.256" style="fill:none;stroke-width:0.050000mm;stroke:black"/>
<polygon points="6.537,102.329 6.119,102.542 5.787,102.874 5.574,103.292 5.500,103.756 5.574,104.219 5.787,104.638 6.119,104.969 6.537,105.182 7.001,105.256 7.464,105.182 7.882,104.969 8.214,104.638 8.427,104.219 8.501,103.756 8.427,103.292 8.214,102.874 7.882,102.542 7.464,102.329 7.001,102.256" style="fill:none;stroke-width:0.050000mm;stroke:black"/>
<polygon points="87.726,90.202 87.726,91.202 86.926,91.202 86.926,94.302 87.726,94.302 87.726,100.102 86.926,100.102 86.926,103.202 87.726,103.202 87.726,104.202 101.726,104.202 101.726,103.202 102.526,103.202 102.526,100.102 101.726,100.102 101.726,94.302 102.526,94.302 102.526,91.202 101.726,91.202 101.726,90.202" style="fill:none;stroke-width:0.050000mm;stroke:black"/>
<polygon points="125.826,90.202 125.826,91.202 125.026,91.202 125.026,94.302 125.826,94.302 125.826,100.102 125.026,100.102 125.026,103.202 125.826,103.202 125.826,104.202 139.826,104.202 139.826,103.202 140.626,103.202 140.626,100.102 139.826,100.102 139.826,94.302 140.626,94.302 140.626,91.202 139.826,91.202 139.826,90.202" style="fill:none;stroke-width:0.050000mm;stroke:black"/>
<polygon points="106.776,87.726 106.776,88.726 105.976,88.726 105.976,91.826 106.776,91.826 106.776,97.626 105.976,97.626 105.976,100.726 106.776,100.726 106.776,101.726 120.776,101.726 120.776,100.726 121.576,100.726 121.576,97.626 120.776,97.626 120.776,91.826 121.576,91.826 121.576,88.726 120.776,88.726 120.776,87.726" style="fill:none;stroke-width:0.050000mm;stroke:black"/>
<polygon points="144.876,75.915 144.876,76.915 144.076,76.915 144.076,80.015 144.876,80.015 144.876,85.815 144.076,85.815 144.076,88.915 144.876,88.915 144.876,89.915 158.876,89.915 158.876,88.915 159.676,88.915 159.676,85.815 158.876,85.815 158.876,80.015 159.676,80.015 159.676,76.915 158.876,76.915 158.876,75.915" style="fill:none;stroke-width:0.050000mm;stroke:black"/>
<polygon points="168.688,75.915 168.688,76.915 167.888,76.915 167.888,80.015 168.688,80.015 168.688,85.815 167.888,85.815 167.888,88.915 168.688,88.915 168.688,89.915 182.688,89.915 182.688,88.915 183.488,88.915 183.488,85.815 182.688,85.815 182.688,80.015 183.488,80.015 183.488,76.915 182.688,76.915 182.688,75.915" style="fill:none;stroke-width:0.050000mm;stroke:black"/>
<polygon points="68.676,73.438 68.676,74.438 67.876,74.438 67.876,77.538 68.676,77.538 68.676,83.338 67.876,83.338 67.876,86.438 68.676,86.438 68.676,87.438 82.676,87.438 82.676,86.438 83.476,86.438 83.476,83.338 82.676,83.338 82.676,77.538 83.476,77.538 83.476,74.438 82.676,74.438 82.676,73.438" style="fill:none;stroke-width:0.050000mm;stroke:black"/>
<polygon points="87.726,71.152 87.726,72.152 86.926,72.152 86.926,75.252 87.726,75.252 87.726,81.052 86.926,81.052 86.926,84.152 87.726,84.152 87.726,85.152 101.726,85.152 101.726,84.152 102.526,84.152 102.526,81.052 101.726,81.052 101.726,75.252 102.526,75.252 102.526,72.152 101.726,72.152 101.726,71.152" style="fill:none;stroke-width:0.050000mm;stroke:black"/>
<polygon points="125.826,71.152 125.826,72.152 125.026,72.152 125.026,75.252 125.826,75.252 125.826,81.052 125.026,81.052 125.026,84.152 125.826,84.152 125.826,85.152 139.826,85.152 139.826,84.152 140.626,84.152 140.626,81.052 139.826,81.052 139.826,75.252 140.626,75.252 140.626,72.152 139.826,72.152 139.826,71.152" style="fill:none;stroke-width:0.050000mm;stroke:black"/>
<polygon points="50.626,67.876 50.626,68.676 49.626,68.676 49.626,82.676 50.626,82.676 50.626,83.476 53.726,83.476 53.726,82.676 59.526,82.676 59.526,83.476 62.626,83.476 62.626,82.676 63.626,82.676 63.626,68.676 62.626,68.676 62.626,67.876 59.526,67.876 59.526,68.676 53.726,68.676 53.726,67.876" style="fill:none;stroke-width:0.050000mm;stroke:black"/>
<polygon points="106.776,68.676 106.776,69.676 105.976,69.676 105.976,72.776 106.776,72.776 106.776,78.576 105.976,78.576 105.976,81.676 106.776,81.676 106.776,82.676 120.776,82.676 120.776,81.676 121.576,81.676 121.576,78.576 120.776,78.576 120.776,72.776 121.576,72.776 121.576,69.676 120.776,69.676 120.776,68.676" style="fill:none;stroke-width:0.050000mm;stroke:black"/>
<polygon points="144.876,56.865 144.876,57.865 144.076,57.865 144.076,60.965 144.876,60.965 144.876,66.765 144.076,66.765 144.076,69.865 144.876,69.865 144.876,70.865 158.876,70.865 158.876,69.865 159.676,69.865 159.676,66.765 158.876,66.765 158.876,60.965 159.676,60.965 159.676,57.865 158.876,57.865 158.876,56.865" style="fill:none;stroke-width:0.050000mm;stroke:black"/>
<polygon points="168.688,56.865 168.688,57.865 167.888,57.865 167.888,60.965 168.688,60.965 168.688,66.765 167.888,66.765 167.888,69.865 168.688,69.865 168.688,70.865 182.688,70.865 182.688,69.865 183.488,69.865 183.488,66.765 182.688,66.765 182.688,60.965 183.488,60.965 183.488,57.865 182.688,57.865 182.688,56.865" style="fill:none;stroke-width:0.050000mm;stroke:black"/>
<polygon points="68.676,54.388 68.676,55.388 67.876,55.388 67.876,58.488 68.676,58.488 68.676,64.288 67.876,64.288 67.876,67.388 68.676,67.388 68.676,68.388 82.676,68.388 82.676,67.388 83.476,67.388 83.476,64.288 82.676,64.288 82.676,58.488 83.476,58.488 83.476,55.388 82.676,55.388 82.676,54.388" style="fill:none;stroke-width:0.050000mm;stroke:black"/>
<polygon points="87.726,52.102 87.726,53.102 86.926,53.102 86.926,56.202 87.726,56.202 87.726,62.002 86.926,62.002 86.926,65.102 87.726,65.102 87.726,66.102 101.726,66.102 101.726,65.102 102.526,65.102 102.526,62.002 101.726,62.002 101.726,56.202 102.526,56.202 102.526,53.102 101.726,53.102 101.726,52.102" style="fill:none;stroke-width:0.050000mm;stroke:black"/>
<polygon points="125.826,52.102 125.826,53.102 125.026,53.102 125.026,56.202 125.826,56.202 125.826,62.002 125.026,62.002 125.026,65.102 125.826,65.102 125.826,66.102 139.826,66.102 139.826,65.102 140.626,65.102 140.626,62.002 139.826,62.002 139.826,56.202 140.626,56.202 140.626,53.102 139.826,53.102 139.826,52.102" style="fill:none;stroke-width:0.050000mm;stroke:black"/>
<polygon points="106.776,49.626 106.776,50.626 105.976,50.626 105.976,53.726 106.776,53.726 106.776,59.526 105.976,59.526 105.976,62.626 106.776,62.626 106.776,63.626 120.776,63.626 120.776,62.626 121.576,62.626 121.576,59.526 120.776,59.526 120.776,53.726 121.576,53.726 121.576,50.626 120.776,50.626 120.776,49.626" style="fill:none;stroke-width:0.050000mm;stroke:black"/>
<polygon points="50.626,39.301 50.626,40.101 49.626,40.101 49.626,54.101 50.626,54.101 50.626,54.901 53.726,54.901 53.726,54.101 59.526,54.101 59.526,54.901 62.626,54.901 62.626,54.101 63.626,54.101 63.626,40.101 62.626,40.101 62.626,39.301 59.526,39.301 59.526,40.101 53.726,40.101 53.726,39.301" style="fill:none;stroke-width:0.050000mm;stroke:black"/>
<polygon points="144.876,37.815 144.876,38.815 144.076,38.815 144.076,41.915 144.876,41.915 144.876,47.715 144.076,47.715 144.076,50.815 144.876,50.815 144.876,51.815 158.876,51.815 158.876,50.815 159.676,50.815 159.676,47.715 158.876,47.715 158.876,41.915 159.676,41.915 159.676,38.815 158.876,38.815 158.876,37.815" style="fill:none;stroke-width:0.050000mm;stroke:black"/>
<polygon points="168.688,37.815 168.688,38.815 167.888,38.815 167.888,41.915 168.688,41.915 168.688,47.715 167.888,47.715 167.888,50.815 168.688,50.815 168.688,51.815 182.688,51.815 182.688,50.815 183.488,50.815 183.488,47.715 182.688,47.715 182.688,41.915 183.488,41.915 183.488,38.815 182.688,38.815 182.688,37.815" style="fill:none;stroke-width:0.050000mm;stroke:black"/>
<polygon points="68.676,35.338 68.676,36.338 67.876,36.338 67.876,39.438 68.676,39.438 68.676,45.238 67.876,45.238 67.876,48.338 68.676,48.338 68.676,49.338 82.676,49.338 82.676,48.338 83.476,48.338 83.476,45.238 82.676,45.238 82.676,39.438 83.476,39.438 83.476,36.338 82.676,36.338 82.676,35.338" style="fill:none;stroke-width:0.050000mm;stroke:black"/>
<polygon points="87.726,33.052 87.726,34.052 86.926,34.052 86.926,37.152 87.726,37.152 87.726,42.952 86.926,42.952 86.926,46.052 87.726,46.052 87.726,47.052 101.726,47.052 101.726,46.052 102.526,46.052 102.526,42.952 101.726,42.952 101.726,37.152 102.526,37.152 102.526,34.052 101.726,34.052 101.726,33.052" style="fill:none;stroke-width:0.050000mm;stroke:black"/>
<polygon points="125.826,33.052 125.826,34.052 125.026,34.052 125.026,37.152 125.826,37.152 125.826,42.952 125.026,42.952 125.026,46.052 125.826,46.052 125.826,47.052 139.826,47.052 139.826,46.052 140.626,46.052 140.626,42.952 139.826,42.952 139.826,37.152 140.626,37.152 140.626,34.052 139.826,34.052 139.826,33.052" style="fill:none;stroke-width:0.050000mm;stroke:black"/>
<polygon points="106.776,30.576 106.776,31.576 105.976,31.576 105.976,34.676 106.776,34.676 106.776,40.476 105.976,40.476 105.976,43.576 106.776,43.576 106.776,44.576 120.776,44.576 120.776,43.576 121.576,43.576 121.576,40.476 120.776,40.476 120.776,34.676 121.576,34.676 121.576,31.576 120.776,31.576 120.776,30.576" style="fill:none;stroke-width:0.050000mm;stroke:black"/>
<polygon points="144.876,18.765 144.876,19.765 144.076,19.765 144.076,22.865 144.876,22.865 144.876,28.665 144.076,28.665 144.076,31.765 144.876,31.765 144.876,32.765 158.876,32.765 158.876,31.765 159.676,31.765 159.676,28.665 158.876,28.665 158.876,22.865 159.676,22.865 159.676,19.765 158.876,19.765 158.876,18.765" style="fill:none;stroke-width:0.050000mm;stroke:black"/>
<polygon points="168.688,18.765 168.688,19.765 167.888,19.765 167.888,22.865 168.688,22.865 168.688,28.665 167.888,28.665 167.888,31.765 168.688,31.765 168.688,32.765 182.688,32.765 182.688,31.765 183.488,31.765 183.488,28.665 182.688,28.665 182.688,22.865 183.488,22.865 183.488,19.765 182.688,19.765 182.688,18.765" style="fill:none;stroke-width:0.050000mm;stroke:black"/>
<polygon points="49.626,16.287 49.626,17.288 48.826,17.288 48.826,20.388 49.626,20.388 49.626,26.188 48.826,26.188 48.826,29.288 49.626,29.288 49.626,30.288 63.626,30.288 63.626,29.288 64.426,29.288 64.426,26.188 63.626,26.188 63.626,20.388 64.426,20.388 64.426,17.288 63.626,17.288 63.626,16.287" style="fill:none;stroke-width:0.050000mm;stroke:black"/>
<polygon points="68.676,16.287 68.676,17.288 67.876,17.288 67.876,20.388 68.676,20.388 68.676,26.188 67.876,26.188 67.876,29.288 68.676,29.288 68.676,30.288 82.676,30.288 82.676,29.288 83.476,29.288 83.476,26.188 82.676,26.188 82.676,20.388 83.476,20.388 83.476,17.288 82.676,17.288 82.676,16.287" style="fill:none;stroke-width:0.050000mm;stroke:black"/>
<polygon points="87.726,14.002 87.726,15.002 86.926,15.002 86.926,18.102 87.726,18.102 87.726,23.902 86.926,23.902 86.926,27.002 87.726,27.002 87.726,28.002 101.726,28.002 101.726,27.002 102.526,27.002 102.526,23.902 101.726,23.902 101.726,18.102 102.526,18.102 102.526,15.002 101.726,15.002 101.726,14.002" style="fill:none;stroke-width:0.050000mm;stroke:black"/>
<polygon points="125.826,14.002 125.826,15.002 125.026,15.002 125.026,18.102 125.826,18.102 125.826,23.902 125.026,23.902 125.026,27.002 125.826,27.002 125.826,28.002 139.826,28.002 139.826,27.002 140.626,27.002 140.626,23.902 139.826,23.902 139.826,18.102 140.626,18.102 140.626,15.002 139.826,15.002 139.826,14.002" style="fill:none;stroke-width:0.050000mm;stroke:black"/>
<polygon points="106.776,11.525 106.776,12.525 105.976,12.525 105.976,15.625 106.776,15.625 106.776,21.425 105.976,21.425 105.976,24.526 106.776,24.526 106.776,25.526 120.776,25.526 120.776,24.526 121.576,24.526 121.576,21.425 120.776,21.425 120.776,15.625 121.576,15.625 121.576,12.525 120.776,12.525 120.776,11.525" style="fill:none;stroke-width:0.050000mm;stroke:black"/>
<polygon points="99.025,5.574 98.607,5.787 98.275,6.119 98.062,6.537 97.989,7.001 98.062,7.464 98.275,7.882 98.607,8.214 99.025,8.427 99.489,8.501 99.952,8.427 100.370,8.214 100.702,7.882 100.915,7.464 100.989,7.001 100.915,6.537 100.702,6.119 100.370,5.787 99.952,5.574 99.489,5.501" style="fill:none;stroke-width:0.050000mm;stroke:black"/>
<polygon points="191.513,5.574 191.095,5.787 190.763,6.119 190.550,6.537 190.476,7.001 190.550,7.464 190.763,7.882 191.095,8.214 191.513,8.427 191.977,8.501 192.440,8.427 192.858,8.214 193.190,7.882 193.403,7.464 193.477,7.001 193.403,6.537 193.190,6.119 192.858,5.787 192.440,5.574 191.977,5.501" style="fill:none;stroke-width:0.050000mm;stroke:black"/>
<polygon points="6.537,5.574 6.119,5.787 5.787,6.119 5.574,6.537 5.500,7.001 5.574,7.464 5.787,7.882 6.119,8.214 6.537,8.427 7.001,8.501 7.464,8.427 7.882,8.214 8.214,7.882 8.427,7.464 8.501,7.001 8.427,6.537 8.214,6.119 7.882,5.787 7.464,5.574 7.001,5.501" style="fill:none;stroke-width:0.050000mm;stroke:black"/>
</svg>
