  0
SECTION
  2
HEADER
  9
$ACADVER
  1
AC1024
  9
$ACADMAINTVER
 70
6
  9
$DWGCODEPAGE
  3
ANSI_1252
  9
$LASTSAVEDBY
  1
unknown
  9
$INSBASE
 10
0.0
 20
0.0
 30
0.0
  9
$EXTMIN
 10
1e+20
 20
1e+20
 30
1e+20
  9
$EXTMAX
 10
-1e+20
 20
-1e+20
 30
-1e+20
  9
$LIMMIN
 10
0.0
 20
0.0
  9
$LIMMAX
 10
12.0
 20
9.0
  9
$ORTHOMODE
 70
0
  9
$REGENMODE
 70
1
  9
$FILLMODE
 70
1
  9
$QTEXTMODE
 70
0
  9
$MIRRTEXT
 70
0
  9
$LTSCALE
 40
1.0
  9
$ATTMODE
 70
1
  9
$TEXTSIZE
 40
0.2
  9
$TRACEWID
 40
0.05
  9
$TEXTSTYLE
  7
Notes
  9
$CLAYER
  8
0
  9
$CELTYPE
  6
ByLayer
  9
$CECOLOR
 62
256
  9
$CELTSCALE
 40
1.0
  9
$DISPSILH
 70
0
  9
$DIMSCALE
 40
1.0
  9
$DIMASZ
 40
3.0
  9
$DIMEXO
 40
1.5
  9
$DIMDLI
 40
6.0
  9
$DIMRND
 40
0.0
  9
$DIMDLE
 40
0.0
  9
$DIMEXE
 40
3.0
  9
$DIMTP
 40
0.0
  9
$DIMTM
 40
0.0
  9
$DIMTXT
 40
3.0
  9
$DIMCEN
 40
3.0
  9
$DIMTSZ
 40
0.0
  9
$DIMTOL
 70
0
  9
$DIMLIM
 70
0
  9
$DIMTIH
 70
0
  9
$DIMTOH
 70
0
  9
$DIMSE1
 70
0
  9
$DIMSE2
 70
0
  9
$DIMTAD
 70
1
  9
$DIMZIN
 70
3
  9
$DIMBLK
  1

  9
$DIMASO
 70
1
  9
$DIMSHO
 70
1
  9
$DIMPOST
  1

  9
$DIMAPOST
  1

  9
$DIMALT
 70
0
  9
$DIMALTD
 70
2
  9
$DIMALTF
 40
25.4
  9
$DIMLFAC
 40
1.0
  9
$DIMTOFL
 70
0
  9
$DIMTVP
 40
0.0
  9
$DIMTIX
 70
0
  9
$DIMSOXD
 70
0
  9
$DIMSAH
 70
0
  9
$DIMBLK1
  1

  9
$DIMBLK2
  1

  9
$DIMSTYLE
  2
Civil-Metric
  9
$DIMCLRD
 70
0
  9
$DIMCLRE
 70
0
  9
$DIMCLRT
 70
0
  9
$DIMTFAC
 40
1.0
  9
$DIMGAP
 40
2.0
  9
$DIMJUST
 70
0
  9
$DIMSD1
 70
0
  9
$DIMSD2
 70
0
  9
$DIMTOLJ
 70
1
  9
$DIMTZIN
 70
0
  9
$DIMALTZ
 70
0
  9
$DIMALTTZ
 70
0
  9
$DIMUPT
 70
0
  9
$DIMDEC
 70
2
  9
$DIMTDEC
 70
2
  9
$DIMALTU
 70
2
  9
$DIMALTTD
 70
2
  9
$DIMTXSTY
  7
Standard
  9
$DIMAUNIT
 70
0
  9
$DIMADEC
 70
2
  9
$DIMALTRND
 40
0.0
  9
$DIMAZIN
 70
2
  9
$DIMDSEP
 70
46
  9
$DIMATFIT
 70
3
  9
$DIMFRAC
 70
1
  9
$DIMLDRBLK
  1

  9
$DIMLUNIT
 70
2
  9
$DIMLWD
 70
-2
  9
$DIMLWE
 70
-2
  9
$DIMTMOVE
 70
0
  9
$DIMFXL
 40
1.0
  9
$DIMFXLON
 70
0
  9
$DIMJOGANG
 40
0.7853981633974483
  9
$DIMTFILL
 70
0
  9
$DIMTFILLCLR
 70
0
  9
$DIMARCSYM
 70
0
  9
$DIMLTYPE
  6

  9
$DIMLTEX1
  6

  9
$DIMLTEX2
  6

  9
$DIMTXTDIRECTION
 70
0
  9
$LUNITS
 70
2
  9
$LUPREC
 70
4
  9
$SKETCHINC
 40
0.1
  9
$FILLETRAD
 40
0.0
  9
$AUNITS
 70
4
  9
$AUPREC
 70
5
  9
$MENU
  1
.
  9
$ELEVATION
 40
0.0
  9
$PELEVATION
 40
0.0
  9
$THICKNESS
 40
0.0
  9
$LIMCHECK
 70
0
  9
$CHAMFERA
 40
0.0
  9
$CHAMFERB
 40
0.0
  9
$CHAMFERC
 40
0.0
  9
$CHAMFERD
 40
0.0
  9
$SKPOLY
 70
0
  9
$TDCREATE
 40
2458558.347928241
  9
$TDUPDATE
 40
2458558.347951389
  9
$TDINDWG
 40
0.0
  9
$TDUSRTIMER
 40
0.0
  9
$USRTIMER
 70
1
  9
$ANGBASE
 50
0.0
  9
$ANGDIR
 70
0
  9
$PDMODE
 70
0
  9
$PDSIZE
 40
0.0
  9
$PLINEWID
 40
0.0
  9
$SPLFRAME
 70
0
  9
$SPLINETYPE
 70
6
  9
$SPLINESEGS
 70
8
  9
$HANDSEED
  5
697
  9
$SURFTAB1
 70
6
  9
$SURFTAB2
 70
6
  9
$SURFTYPE
 70
6
  9
$SURFU
 70
6
  9
$SURFV
 70
6
  9
$UCSBASE
  2

  9
$UCSNAME
  2

  9
$UCSORG
 10
0.0
 20
0.0
 30
0.0
  9
$UCSXDIR
 10
1.0
 20
0.0
 30
0.0
  9
$UCSYDIR
 10
0.0
 20
1.0
 30
0.0
  9
$UCSORTHOREF
  2

  9
$UCSORTHOVIEW
 70
0
  9
$UCSORGTOP
 10
0.0
 20
0.0
 30
0.0
  9
$UCSORGBOTTOM
 10
0.0
 20
0.0
 30
0.0
  9
$UCSORGLEFT
 10
0.0
 20
0.0
 30
0.0
  9
$UCSORGRIGHT
 10
0.0
 20
0.0
 30
0.0
  9
$UCSORGFRONT
 10
0.0
 20
0.0
 30
0.0
  9
$UCSORGBACK
 10
0.0
 20
0.0
 30
0.0
  9
$PUCSBASE
  2

  9
$PUCSNAME
  2

  9
$PUCSORG
 10
0.0
 20
0.0
 30
0.0
  9
$PUCSXDIR
 10
1.0
 20
0.0
 30
0.0
  9
$PUCSYDIR
 10
0.0
 20
1.0
 30
0.0
  9
$PUCSORTHOREF
  2

  9
$PUCSORTHOVIEW
 70
0
  9
$PUCSORGTOP
 10
0.0
 20
0.0
 30
0.0
  9
$PUCSORGBOTTOM
 10
0.0
 20
0.0
 30
0.0
  9
$PUCSORGLEFT
 10
0.0
 20
0.0
 30
0.0
  9
$PUCSORGRIGHT
 10
0.0
 20
0.0
 30
0.0
  9
$PUCSORGFRONT
 10
0.0
 20
0.0
 30
0.0
  9
$PUCSORGBACK
 10
0.0
 20
0.0
 30
0.0
  9
$USERI1
 70
0
  9
$USERI2
 70
0
  9
$USERI3
 70
0
  9
$USERI4
 70
0
  9
$USERI5
 70
0
  9
$USERR1
 40
0.0
  9
$USERR2
 40
0.0
  9
$USERR3
 40
0.0
  9
$USERR4
 40
0.0
  9
$USERR5
 40
0.0
  9
$WORLDVIEW
 70
1
  9
$SHADEDGE
 70
3
  9
$SHADEDIF
 70
70
  9
$TILEMODE
 70
1
  9
$MAXACTVP
 70
64
  9
$PINSBASE
 10
0.0
 20
0.0
 30
0.0
  9
$PLIMCHECK
 70
0
  9
$PEXTMIN
 10
0.62886676639706
 20
0.7999999523162842
 30
0.0
  9
$PEXTMAX
 10
9.028866384927335
 20
7.199999570846558
 30
0.0
  9
$PLIMMIN
 10
-0.7005418191744587
 20
-0.2281003861915408
  9
$PLIMMAX
 10
10.29945794052965
 20
8.27189937351257
  9
$UNITMODE
 70
0
  9
$VISRETAIN
 70
1
  9
$PLINEGEN
 70
0
  9
$PSLTSCALE
 70
1
  9
$TREEDEPTH
 70
3020
  9
$CMLSTYLE
  2
Standard
  9
$CMLJUST
 70
0
  9
$CMLSCALE
 40
1.0
  9
$PROXYGRAPHICS
 70
1
  9
$MEASUREMENT
 70
1
  9
$CELWEIGHT
370
-1
  9
$ENDCAPS
280
0
  9
$JOINSTYLE
280
0
  9
$LWDISPLAY
290
0
  9
$INSUNITS
 70
4
  9
$HYPERLINKBASE
  1

  9
$STYLESHEET
  1

  9
$XEDIT
290
1
  9
$CEPSNTYPE
380
0
  9
$PSTYLEMODE
290
1
  9
$FINGERPRINTGUID
  2
F1401736-4735-11E9-A2E6-4E5CEDBD4935
  9
$VERSIONGUID
  2
F246A064-4735-11E9-A2E6-4E5CEDBD4935
  9
$EXTNAMES
290
1
  9
$PSVPSCALE
 40
0.0
  9
$OLESTARTUP
290
0
  9
$SORTENTS
280
127
  9
$INDEXCTL
280
0
  9
$HIDETEXT
280
1
  9
$XCLIPFRAME
280
0
  9
$HALOGAP
280
0
  9
$OBSCOLOR
 70
257
  9
$OBSLTYPE
280
0
  9
$INTERSECTIONDISPLAY
280
0
  9
$INTERSECTIONCOLOR
 70
257
  9
$DIMASSOC
280
2
  9
$PROJECTNAME
  1

  9
$CAMERADISPLAY
290
0
  9
$LENSLENGTH
 40
50.0
  9
$CAMERAHEIGHT
 40
0.0
  9
$STEPSPERSEC
 40
2.0
  9
$STEPSIZE
 40
6.0
  9
$3DDWFPREC
 40
2.0
  9
$PSOLWIDTH
 40
0.25
  9
$PSOLHEIGHT
 40
4.0
  9
$LOFTANG1
 40
1.570796326794896
  9
$LOFTANG2
 40
1.570796326794896
  9
$LOFTMAG1
 40
0.0
  9
$LOFTMAG2
 40
0.0
  9
$LOFTPARAM
 70
7
  9
$LOFTNORMALS
280
1
  9
$LATITUDE
 40
37.795
  9
$LONGITUDE
 40
-122.394
  9
$NORTHDIRECTION
 40
0.0
  9
$TIMEZONE
 70
-8000
  9
$LIGHTGLYPHDISPLAY
280
1
  9
$TILEMODELIGHTSYNCH
280
1
  9
$CMATERIAL
347
96
  9
$SOLIDHIST
280
1
  9
$SHOWHIST
280
1
  9
$DWFFRAME
280
2
  9
$DGNFRAME
280
0
  9
$REALWORLDSCALE
290
1
  9
$INTERFERECOLOR
 62
1
  9
$INTERFEREOBJVS
345
A3
  9
$INTERFEREVPVS
346
A0
  9
$CSHADOW
280
0
  9
$SHADOWPLANELOCATION
 40
0.0
  0
ENDSEC
  0
SECTION
  2
CLASSES
  0
CLASS
  1
ACDBDICTIONARYWDFLT
  2
AcDbDictionaryWithDefault
  3
ObjectDBX Classes
 90
0
 91
0
280
0
281
0
  0
CLASS
  1
DICTIONARYVAR
  2
AcDbDictionaryVar
  3
ObjectDBX Classes
 90
0
 91
0
280
0
281
0
  0
CLASS
  1
TABLESTYLE
  2
AcDbTableStyle
  3
ObjectDBX Classes
 90
4095
 91
0
280
0
281
0
  0
CLASS
  1
MATERIAL
  2
AcDbMaterial
  3
ObjectDBX Classes
 90
1153
 91
0
280
0
281
0
  0
CLASS
  1
VISUALSTYLE
  2
AcDbVisualStyle
  3
ObjectDBX Classes
 90
4095
 91
0
280
0
281
0
  0
CLASS
  1
SCALE
  2
AcDbScale
  3
ObjectDBX Classes
 90
1153
 91
0
280
0
281
0
  0
CLASS
  1
MLEADERSTYLE
  2
AcDbMLeaderStyle
  3
ACDB_MLEADERSTYLE_CLASS
 90
4095
 91
0
280
0
281
0
  0
CLASS
  1
CELLSTYLEMAP
  2
AcDbCellStyleMap
  3
ObjectDBX Classes
 90
1152
 91
0
280
0
281
0
  0
CLASS
  1
EXACXREFPANELOBJECT
  2
ExAcXREFPanelObject
  3
EXAC_ESW
 90
1025
 91
0
280
0
281
0
  0
CLASS
  1
NPOCOLLECTION
  2
AcDbImpNonPersistentObjectsCollection
  3
ObjectDBX Classes
 90
1153
 91
0
280
0
281
0
  0
CLASS
  1
LAYER_INDEX
  2
AcDbLayerIndex
  3
ObjectDBX Classes
 90
0
 91
0
280
0
281
0
  0
CLASS
  1
SPATIAL_INDEX
  2
AcDbSpatialIndex
  3
ObjectDBX Classes
 90
0
 91
0
280
0
281
0
  0
CLASS
  1
IDBUFFER
  2
AcDbIdBuffer
  3
ObjectDBX Classes
 90
0
 91
0
280
0
281
0
  0
CLASS
  1
DIMASSOC
  2
AcDbDimAssoc
  3
"AcDbDimAssoc|Product Desc:     AcDim ARX App For Dimension|Company:          Autodesk, Inc.|WEB Address:      www.autodesk.com"
 90
0
 91
0
280
0
281
0
  0
CLASS
  1
IMAGEDEF
  2
AcDbRasterImageDef
  3
ISM
 90
0
 91
0
280
0
281
0
  0
CLASS
  1
RASTERVARIABLES
  2
AcDbRasterVariables
  3
ISM
 90
0
 91
0
280
0
281
0
  0
CLASS
  1
IMAGEDEF_REACTOR
  2
AcDbRasterImageDefReactor
  3
ISM
 90
1
 91
0
280
0
281
0
  0
CLASS
  1
IMAGE
  2
AcDbRasterImage
  3
ISM
 90
2175
 91
0
280
0
281
1
  0
CLASS
  1
PDFDEFINITION
  2
AcDbPdfDefinition
  3
ObjectDBX Classes
 90
1153
 91
0
280
0
281
0
  0
CLASS
  1
PDFUNDERLAY
  2
AcDbPdfReference
  3
ObjectDBX Classes
 90
4095
 91
0
280
0
281
1
  0
CLASS
  1
DWFDEFINITION
  2
AcDbDwfDefinition
  3
ObjectDBX Classes
 90
1153
 91
0
280
0
281
0
  0
CLASS
  1
DWFUNDERLAY
  2
AcDbDwfReference
  3
ObjectDBX Classes
 90
1153
 91
0
280
0
281
1
  0
CLASS
  1
DGNDEFINITION
  2
AcDbDgnDefinition
  3
ObjectDBX Classes
 90
1153
 91
0
280
0
281
0
  0
CLASS
  1
DGNUNDERLAY
  2
AcDbDgnReference
  3
ObjectDBX Classes
 90
1153
 91
0
280
0
281
1
  0
ENDSEC
  0
SECTION
  2
TABLES
  0
TABLE
  2
VPORT
  5
8
330
0
100
AcDbSymbolTable
 70
0
  0
ENDTAB
  0
TABLE
  2
LTYPE
  5
5F
330
0
100
AcDbSymbolTable
 70
7
  0
LTYPE
  5
14
330
5F
100
AcDbSymbolTableRecord
100
AcDbLinetypeTableRecord
  2
ByBlock
 70
0
  3

 72
65
 73
0
 40
0.0
  0
LTYPE
  5
15
330
5F
100
AcDbSymbolTableRecord
100
AcDbLinetypeTableRecord
  2
ByLayer
 70
0
  3

 72
65
 73
0
 40
0.0
  0
LTYPE
  5
16
330
5F
100
AcDbSymbolTableRecord
100
AcDbLinetypeTableRecord
  2
Continuous
 70
0
  3
Solid line
 72
65
 73
0
 40
0.0
  0
LTYPE
  5
1B1
330
5F
100
AcDbSymbolTableRecord
100
AcDbLinetypeTableRecord
  2
CENTER
 70
0
  3
Center ____ _ ____ _ ____ _ ____ _ ____ _ ____
 72
65
 73
4
 40
2.0
 49
1.25
 74
0
 49
-0.25
 74
0
 49
0.25
 74
0
 49
-0.25
 74
0
  0
LTYPE
  5
1B2
330
5F
100
AcDbSymbolTableRecord
100
AcDbLinetypeTableRecord
  2
DASHED
 70
0
  3
Dashed __ __ __ __ __ __ __ __ __ __ __ __ __ _
 72
65
 73
2
 40
0.75
 49
0.5
 74
0
 49
-0.25
 74
0
  0
LTYPE
  5
1B3
330
5F
100
AcDbSymbolTableRecord
100
AcDbLinetypeTableRecord
  2
PHANTOM
 70
0
  3
Phantom ______  __  __  ______  __  __  ______
 72
65
 73
6
 40
2.5
 49
1.25
 74
0
 49
-0.25
 74
0
 49
0.25
 74
0
 49
-0.25
 74
0
 49
0.25
 74
0
 49
-0.25
 74
0
  0
LTYPE
  5
39E
330
5F
100
AcDbSymbolTableRecord
100
AcDbLinetypeTableRecord
  2
HIDDEN
 70
0
  3
Hidden __ __ __ __ __ __ __ __ __ __ __ __ __ __
 72
65
 73
2
 40
9.525
 49
6.35
 74
0
 49
-3.175
 74
0
  0
ENDTAB
  0
TABLE
  2
LAYER
  5
2
330
0
100
AcDbSymbolTable
 70
3
  0
LAYER
  5
10
330
2
100
AcDbSymbolTableRecord
100
AcDbLayerTableRecord
  2
0
 70
0
 62
7
  6
Continuous
370
-3
390
4E8
  0
LAYER
  5
1B4
330
2
100
AcDbSymbolTableRecord
100
AcDbLayerTableRecord
  2
View Port
 70
0
 62
7
  6
Continuous
290
0
370
-3
390
4E8
  0
LAYER
  5
21D
330
2
100
AcDbSymbolTableRecord
100
AcDbLayerTableRecord
  2
Defpoints
 70
0
 62
7
  6
Continuous
290
0
370
-3
390
4E8
  0
ENDTAB
  0
TABLE
  2
STYLE
  5
3
330
0
100
AcDbSymbolTable
 70
3
  0
STYLE
  5
11
330
3
100
AcDbSymbolTableRecord
100
AcDbTextStyleTableRecord
  2
Standard
 70
0
 40
0.0
 41
1.0
 50
0.0
 71
0
 42
0.2
  3
arial.ttf
  4

  0
STYLE
  5
DC
330
3
100
AcDbSymbolTableRecord
100
AcDbTextStyleTableRecord
  2
Annotative
 70
0
 40
0.0
 41
1.0
 50
0.0
 71
0
 42
0.2
  3
arial.ttf
  4

  0
STYLE
  5
178
330
3
100
AcDbSymbolTableRecord
100
AcDbTextStyleTableRecord
  2
Notes
 70
0
 40
3.0
 41
1.0
 50
0.0
 71
0
 42
0.2
  3
arial.ttf
  4

  0
ENDTAB
  0
TABLE
  2
VIEW
  5
6
330
0
100
AcDbSymbolTable
 70
0
  0
ENDTAB
  0
TABLE
  2
UCS
  5
7
330
0
100
AcDbSymbolTable
 70
0
  0
ENDTAB
  0
TABLE
  2
APPID
  5
9
330
0
100
AcDbSymbolTable
 70
11
  0
APPID
  5
12
330
9
100
AcDbSymbolTableRecord
100
AcDbRegAppTableRecord
  2
ACAD
 70
0
  0
APPID
  5
DD
330
9
100
AcDbSymbolTableRecord
100
AcDbRegAppTableRecord
  2
AcadAnnoPO
 70
0
  0
APPID
  5
DE
330
9
100
AcDbSymbolTableRecord
100
AcDbRegAppTableRecord
  2
AcadAnnotative
 70
0
  0
APPID
  5
DF
330
9
100
AcDbSymbolTableRecord
100
AcDbRegAppTableRecord
  2
ACAD_DSTYLE_DIMJAG
 70
0
  0
APPID
  5
E0
330
9
100
AcDbSymbolTableRecord
100
AcDbRegAppTableRecord
  2
ACAD_DSTYLE_DIMTALN
 70
0
  0
APPID
  5
107
330
9
100
AcDbSymbolTableRecord
100
AcDbRegAppTableRecord
  2
ACAD_MLEADERVER
 70
0
  0
APPID
  5
1B5
330
9
100
AcDbSymbolTableRecord
100
AcDbRegAppTableRecord
  2
AcAecLayerStandard
 70
0
  0
APPID
  5
1BA
330
9
100
AcDbSymbolTableRecord
100
AcDbRegAppTableRecord
  2
ACAD_EXEMPT_FROM_CAD_STANDARDS
 70
0
  0
APPID
  5
237
330
9
100
AcDbSymbolTableRecord
100
AcDbRegAppTableRecord
  2
ACAD_DSTYLE_DIMBREAK
 70
0
  0
APPID
  5
28E
330
9
100
AcDbSymbolTableRecord
100
AcDbRegAppTableRecord
  2
ACAD_PSEXT
 70
0
  0
APPID
  5
4C4
330
9
100
AcDbSymbolTableRecord
100
AcDbRegAppTableRecord
  2
HATCHBACKGROUNDCOLOR
 70
0
  0
ENDTAB
  0
TABLE
  2
DIMSTYLE
  5
A
330
0
100
AcDbSymbolTable
 70
3
100
AcDbDimStyleTable
 71
3
340
242
340
27
340
E1
  0
DIMSTYLE
105
27
330
A
100
AcDbSymbolTableRecord
100
AcDbDimStyleTableRecord
  2
Standard
 70
0
 41
3.0
 42
2.0
 43
9.0
 44
5.0
140
3.0
141
2.0
147
2.0
340
11
1001
ACAD_DSTYLE_DIMJAG
1070
388
1040
38.0
1001
ACAD_DSTYLE_DIMBREAK
1070
391
1040
90.0
1001
ACAD_DSTYLE_DIMTALN
1070
392
1070
0
  0
DIMSTYLE
105
E1
330
A
100
AcDbSymbolTableRecord
100
AcDbDimStyleTableRecord
  2
Annotative
 70
0
 40
0.0
 41
3.0
 42
2.5
 43
10.0
 44
5.0
140
3.0
141
2.0
147
2.0
340
11
1001
AcadAnnotative
1000
AnnotativeData
1002
{
1070
1
1070
1
1002
}
1001
ACAD_DSTYLE_DIMJAG
1070
388
1040
38.0
1001
ACAD_DSTYLE_DIMBREAK
1070
391
1040
90.0
1001
ACAD_DSTYLE_DIMTALN
1070
392
1070
0
  0
DIMSTYLE
105
242
330
A
100
AcDbSymbolTableRecord
100
AcDbDimStyleTableRecord
  2
Civil-Metric
 70
0
 41
3.0
 42
1.5
 43
6.0
 44
3.0
 73
0
 74
0
 77
1
 78
3
 79
2
140
3.0
141
3.0
147
2.0
179
2
271
2
272
2
276
1
340
11
1001
ACAD_DSTYLE_DIMBREAK
1070
391
1040
3.0
1001
ACAD_DSTYLE_DIMJAG
1070
388
1040
38.0
1001
ACAD_DSTYLE_DIMTALN
1070
392
1070
0
  0
ENDTAB
  0
TABLE
  2
BLOCK_RECORD
  5
1
330
0
100
AcDbSymbolTable
 70
4
  0
BLOCK_RECORD
  5
1F
330
1
100
AcDbSymbolTableRecord
100
AcDbBlockTableRecord
  2
*Model_Space
340
4ED
 70
0
280
1
281
0
  0
BLOCK_RECORD
  5
58
330
1
100
AcDbSymbolTableRecord
100
AcDbBlockTableRecord
  2
*Paper_Space
340
4EE
 70
0
280
1
281
0
  0
BLOCK_RECORD
  5
238
330
1
100
AcDbSymbolTableRecord
100
AcDbBlockTableRecord
  2
_ArchTick
340
0
 70
0
280
1
281
0
  0
BLOCK_RECORD
  5
23C
330
1
100
AcDbSymbolTableRecord
100
AcDbBlockTableRecord
  2
_Open30
340
0
 70
0
280
1
281
0
  0
ENDTAB
  0
ENDSEC
  0
SECTION
  2
BLOCKS
  0
BLOCK
  5
5A
330
58
100
AcDbEntity
 67
1
  8
0
100
AcDbBlockBegin
  2
*Paper_Space
 70
0
 10
0.0
 20
0.0
 30
0.0
  3
*Paper_Space
  1

  0
ENDBLK
  5
5B
330
58
100
AcDbEntity
 67
1
  8
0
100
AcDbBlockEnd
  0
BLOCK
  5
20
330
1F
100
AcDbEntity
  8
0
100
AcDbBlockBegin
  2
*Model_Space
 70
0
 10
0.0
 20
0.0
 30
0.0
  3
*Model_Space
  1

  0
ENDBLK
  5
21
330
1F
100
AcDbEntity
  8
0
100
AcDbBlockEnd
  0
BLOCK
  5
23A
330
238
100
AcDbEntity
  8
0
100
AcDbBlockBegin
  2
_ArchTick
 70
0
 10
0.0
 20
0.0
 30
0.0
  3
_ArchTick
  1

  0
LWPOLYLINE
  5
239
330
238
100
AcDbEntity
  8
0
  6
ByBlock
 62
0
100
AcDbPolyline
 90
2
 70
0
 43
0.15
 10
-0.5
 20
-0.5
 10
0.5
 20
0.5
  0
ENDBLK
  5
23B
330
238
100
AcDbEntity
  8
0
100
AcDbBlockEnd
  0
BLOCK
  5
240
330
23C
100
AcDbEntity
  8
0
100
AcDbBlockBegin
  2
_Open30
 70
0
 10
0.0
 20
0.0
 30
0.0
  3
_Open30
  1

  0
LINE
  5
23D
330
23C
100
AcDbEntity
  8
0
  6
ByBlock
 62
0
370
-2
100
AcDbLine
 10
-1.0
 20
0.26794919
 30
0.0
 11
0.0
 21
0.0
 31
0.0
  0
LINE
  5
23E
330
23C
100
AcDbEntity
  8
0
  6
ByBlock
 62
0
370
-2
100
AcDbLine
 10
0.0
 20
0.0
 30
0.0
 11
-1.0
 21
-0.26794919
 31
0.0
  0
LINE
  5
23F
330
23C
100
AcDbEntity
  8
0
  6
ByBlock
 62
0
370
-2
100
AcDbLine
 10
0.0
 20
0.0
 30
0.0
 11
-1.0
 21
0.0
 31
0.0
  0
ENDBLK
  5
241
330
23C
100
AcDbEntity
  8
0
100
AcDbBlockEnd
  0
ENDSEC
  0
SECTION
  2
ENTITIES
  0
LINE
  5
56B
330
1F
100
AcDbEntity
  8
0
 67
0
100
AcDbLine
 10
40.851370448785104
 20
-110.50754984536628
 11
52.44248036425392
 21
-113.61337838659654
  0
LINE
  5
56C
330
1F
100
AcDbEntity
  8
0
 67
0
100
AcDbLine
 10
37.22790381734981
 20
-124.03051141341324
 11
48.81901373281863
 21
-127.13633995464349
  0
LINE
  5
56D
330
1F
100
AcDbEntity
  8
0
 67
0
100
AcDbLine
 10
39.62662557739351
 20
-111.21465662655284
 11
36.520797036163266
 21
-122.80576654202164
  0
LINE
  5
56E
330
1F
100
AcDbEntity
  8
0
 67
0
100
AcDbLine
 10
53.14958714544047
 20
-114.83812325798812
 11
50.04375860421022
 21
-126.42923317345694
  0
ARC
  5
56F
330
1F
100
AcDbEntity
  8
0
 67
0
100
AcDbCircle
 10
40.59255140368258
 20
-111.47347567165535
 40
1.0
100
AcDbArc
 50
75.0
 51
165.0
  0
ARC
  5
570
330
1F
100
AcDbEntity
  8
0
 67
0
100
AcDbCircle
 10
52.1836613191514
 20
-114.5793042128856
 40
1.0
100
AcDbArc
 50
-15.0
 51
75.0
  0
ARC
  5
571
330
1F
100
AcDbEntity
  8
0
 67
0
100
AcDbCircle
 10
37.48672286245233
 20
-123.06458558712417
 40
1.0
100
AcDbArc
 50
165.0
 51
255.0
  0
ARC
  5
572
330
1F
100
AcDbEntity
  8
0
 67
0
100
AcDbCircle
 10
49.07783277792115
 20
-126.17041412835442
 40
1.0
100
AcDbArc
 50
255.0
 51
345.0
  0
LINE
  5
573
330
1F
100
AcDbEntity
  8
0
 67
0
100
AcDbLine
 10
40.851370448785104
 20
-110.50754984536628
 11
52.44248036425392
 21
-113.61337838659654
  0
LINE
  5
574
330
1F
100
AcDbEntity
  8
0
 67
0
100
AcDbLine
 10
37.22790381734981
 20
-124.03051141341324
 11
48.81901373281863
 21
-127.13633995464349
  0
LINE
  5
575
330
1F
100
AcDbEntity
  8
0
 67
0
100
AcDbLine
 10
39.62662557739351
 20
-111.21465662655284
 11
36.520797036163266
 21
-122.80576654202164
  0
LINE
  5
576
330
1F
100
AcDbEntity
  8
0
 67
0
100
AcDbLine
 10
53.14958714544047
 20
-114.83812325798812
 11
50.04375860421022
 21
-126.42923317345694
  0
ARC
  5
577
330
1F
100
AcDbEntity
  8
0
 67
0
100
AcDbCircle
 10
40.59255140368258
 20
-111.47347567165535
 40
1.0
100
AcDbArc
 50
75.0
 51
165.0
  0
ARC
  5
578
330
1F
100
AcDbEntity
  8
0
 67
0
100
AcDbCircle
 10
52.1836613191514
 20
-114.5793042128856
 40
1.0
100
AcDbArc
 50
-15.0
 51
75.0
  0
ARC
  5
579
330
1F
100
AcDbEntity
  8
0
 67
0
100
AcDbCircle
 10
37.48672286245233
 20
-123.06458558712417
 40
1.0
100
AcDbArc
 50
165.0
 51
255.0
  0
ARC
  5
57A
330
1F
100
AcDbEntity
  8
0
 67
0
100
AcDbCircle
 10
49.07783277792115
 20
-126.17041412835442
 40
1.0
100
AcDbArc
 50
255.0
 51
345.0
  0
LINE
  5
57B
330
1F
100
AcDbEntity
  8
0
 67
0
100
AcDbLine
 10
40.851370448785104
 20
-110.50754984536628
 11
52.44248036425392
 21
-113.61337838659654
  0
LINE
  5
57C
330
1F
100
AcDbEntity
  8
0
 67
0
100
AcDbLine
 10
37.22790381734981
 20
-124.03051141341324
 11
48.81901373281863
 21
-127.13633995464349
  0
LINE
  5
57D
330
1F
100
AcDbEntity
  8
0
 67
0
100
AcDbLine
 10
39.62662557739351
 20
-111.21465662655284
 11
36.520797036163266
 21
-122.80576654202164
  0
LINE
  5
57E
330
1F
100
AcDbEntity
  8
0
 67
0
100
AcDbLine
 10
53.14958714544047
 20
-114.83812325798812
 11
50.04375860421022
 21
-126.42923317345694
  0
ARC
  5
57F
330
1F
100
AcDbEntity
  8
0
 67
0
100
AcDbCircle
 10
40.59255140368258
 20
-111.47347567165535
 40
1.0
100
AcDbArc
 50
75.0
 51
165.0
  0
ARC
  5
580
330
1F
100
AcDbEntity
  8
0
 67
0
100
AcDbCircle
 10
52.1836613191514
 20
-114.5793042128856
 40
1.0
100
AcDbArc
 50
-15.0
 51
75.0
  0
ARC
  5
581
330
1F
100
AcDbEntity
  8
0
 67
0
100
AcDbCircle
 10
37.48672286245233
 20
-123.06458558712417
 40
1.0
100
AcDbArc
 50
165.0
 51
255.0
  0
ARC
  5
582
330
1F
100
AcDbEntity
  8
0
 67
0
100
AcDbCircle
 10
49.07783277792115
 20
-126.17041412835442
 40
1.0
100
AcDbArc
 50
255.0
 51
345.0
  0
LINE
  5
583
330
1F
100
AcDbEntity
  8
0
 67
0
100
AcDbLine
 10
77.6531444303986
 20
-120.36855546377232
 11
89.24425434586742
 21
-123.47438400500258
  0
LINE
  5
584
330
1F
100
AcDbEntity
  8
0
 67
0
100
AcDbLine
 10
74.0296777989633
 20
-133.8915170318193
 11
85.62078771443213
 21
-136.99734557304953
  0
LINE
  5
585
330
1F
100
AcDbEntity
  8
0
 67
0
100
AcDbLine
 10
76.42839955900702
 20
-121.07566224495888
 11
73.32257101777677
 21
-132.66677216042768
  0
LINE
  5
586
330
1F
100
AcDbEntity
  8
0
 67
0
100
AcDbLine
 10
89.95136112705397
 20
-124.69912887639417
 11
86.84553258582372
 21
-136.29023879186298
  0
ARC
  5
587
330
1F
100
AcDbEntity
  8
0
 67
0
100
AcDbCircle
 10
77.39432538529609
 20
-121.33448129006139
 40
1.0
100
AcDbArc
 50
75.0
 51
165.0
  0
ARC
  5
588
330
1F
100
AcDbEntity
  8
0
 67
0
100
AcDbCircle
 10
88.9854353007649
 20
-124.44030983129164
 40
1.0
100
AcDbArc
 50
-15.0
 51
75.0
  0
ARC
  5
589
330
1F
100
AcDbEntity
  8
0
 67
0
100
AcDbCircle
 10
74.28849684406583
 20
-132.92559120553022
 40
1.0
100
AcDbArc
 50
165.0
 51
255.0
  0
ARC
  5
58A
330
1F
100
AcDbEntity
  8
0
 67
0
100
AcDbCircle
 10
85.87960675953465
 20
-136.03141974676046
 40
1.0
100
AcDbArc
 50
255.0
 51
345.0
  0
LINE
  5
58B
330
1F
100
AcDbEntity
  8
0
 67
0
100
AcDbLine
 10
132.85580540281887
 20
-135.16006389138138
 11
144.4469153182877
 21
-138.26589243261165
  0
LINE
  5
58C
330
1F
100
AcDbEntity
  8
0
 67
0
100
AcDbLine
 10
129.23233877138358
 20
-148.68302545942834
 11
140.8234486868524
 21
-151.7888540006586
  0
LINE
  5
58D
330
1F
100
AcDbEntity
  8
0
 67
0
100
AcDbLine
 10
131.63106053142727
 20
-135.86717067256794
 11
128.52523199019703
 21
-147.45828058803676
  0
LINE
  5
58E
330
1F
100
AcDbEntity
  8
0
 67
0
100
AcDbLine
 10
145.15402209947422
 20
-139.49063730400323
 11
142.04819355824398
 21
-151.08174721947205
  0
ARC
  5
58F
330
1F
100
AcDbEntity
  8
0
 67
0
100
AcDbCircle
 10
132.59698635771633
 20
-136.12598971767045
 40
1.0
100
AcDbArc
 50
75.0
 51
165.0
  0
ARC
  5
590
330
1F
100
AcDbEntity
  8
0
 67
0
100
AcDbCircle
 10
144.18809627318515
 20
-139.23181825890072
 40
1.0
100
AcDbArc
 50
-15.0
 51
75.0
  0
ARC
  5
591
330
1F
100
AcDbEntity
  8
0
 67
0
100
AcDbCircle
 10
129.4911578164861
 20
-147.71709963313927
 40
1.0
100
AcDbArc
 50
165.0
 51
255.0
  0
ARC
  5
592
330
1F
100
AcDbEntity
  8
0
 67
0
100
AcDbCircle
 10
141.08226773195491
 20
-150.82292817436954
 40
1.0
100
AcDbArc
 50
255.0
 51
345.0
  0
LINE
  5
593
330
1F
100
AcDbEntity
  8
0
 67
0
100
AcDbLine
 10
40.851370448785104
 20
-110.50754984536628
 11
52.44248036425392
 21
-113.61337838659654
  0
LINE
  5
594
330
1F
100
AcDbEntity
  8
0
 67
0
100
AcDbLine
 10
37.22790381734981
 20
-124.03051141341324
 11
48.81901373281863
 21
-127.13633995464349
  0
LINE
  5
595
330
1F
100
AcDbEntity
  8
0
 67
0
100
AcDbLine
 10
39.62662557739351
 20
-111.21465662655284
 11
36.520797036163266
 21
-122.80576654202164
  0
LINE
  5
596
330
1F
100
AcDbEntity
  8
0
 67
0
100
AcDbLine
 10
53.14958714544047
 20
-114.83812325798812
 11
50.04375860421022
 21
-126.42923317345694
  0
ARC
  5
597
330
1F
100
AcDbEntity
  8
0
 67
0
100
AcDbCircle
 10
40.59255140368258
 20
-111.47347567165535
 40
1.0
100
AcDbArc
 50
75.0
 51
165.0
  0
ARC
  5
598
330
1F
100
AcDbEntity
  8
0
 67
0
100
AcDbCircle
 10
52.1836613191514
 20
-114.5793042128856
 40
1.0
100
AcDbArc
 50
-15.0
 51
75.0
  0
ARC
  5
599
330
1F
100
AcDbEntity
  8
0
 67
0
100
AcDbCircle
 10
37.48672286245233
 20
-123.06458558712417
 40
1.0
100
AcDbArc
 50
165.0
 51
255.0
  0
ARC
  5
59A
330
1F
100
AcDbEntity
  8
0
 67
0
100
AcDbCircle
 10
49.07783277792115
 20
-126.17041412835442
 40
1.0
100
AcDbArc
 50
255.0
 51
345.0
  0
LINE
  5
59B
330
1F
100
AcDbEntity
  8
0
 67
0
100
AcDbLine
 10
40.23505759763472
 20
-112.80766071921713
 11
51.82616751310354
 21
-115.91348926044738
  0
LINE
  5
59C
330
1F
100
AcDbEntity
  8
0
 67
0
100
AcDbLine
 10
36.61159096619943
 20
-126.33062228726408
 11
48.20270088166825
 21
-129.43645082849434
  0
LINE
  5
59D
330
1F
100
AcDbEntity
  8
0
 67
0
100
AcDbLine
 10
39.010312726243136
 20
-113.51476750040368
 11
35.90448418501288
 21
-125.1058774158725
  0
LINE
  5
59E
330
1F
100
AcDbEntity
  8
0
 67
0
100
AcDbLine
 10
52.53327429429009
 20
-117.13823413183897
 11
49.42744575305984
 21
-128.7293440473078
  0
ARC
  5
59F
330
1F
100
AcDbEntity
  8
0
 67
0
100
AcDbCircle
 10
39.9762385525322
 20
-113.77358654550619
 40
1.0
100
AcDbArc
 50
75.0
 51
165.0
  0
ARC
  5
5A0
330
1F
100
AcDbEntity
  8
0
 67
0
100
AcDbCircle
 10
51.56734846800102
 20
-116.87941508673644
 40
1.0
100
AcDbArc
 50
-15.0
 51
75.0
  0
ARC
  5
5A1
330
1F
100
AcDbEntity
  8
0
 67
0
100
AcDbCircle
 10
36.870410011301956
 20
-125.36469646097501
 40
1.0
100
AcDbArc
 50
165.0
 51
255.0
  0
ARC
  5
5A2
330
1F
100
AcDbEntity
  8
0
 67
0
100
AcDbCircle
 10
48.46151992677078
 20
-128.47052500220528
 40
1.0
100
AcDbArc
 50
255.0
 51
345.0
  0
LINE
  5
5A3
330
1F
100
AcDbEntity
  8
0
 67
0
100
AcDbLine
 10
40.851370448785104
 20
-110.50754984536628
 11
52.44248036425392
 21
-113.61337838659654
  0
LINE
  5
5A4
330
1F
100
AcDbEntity
  8
0
 67
0
100
AcDbLine
 10
37.22790381734981
 20
-124.03051141341324
 11
48.81901373281863
 21
-127.13633995464349
  0
LINE
  5
5A5
330
1F
100
AcDbEntity
  8
0
 67
0
100
AcDbLine
 10
39.62662557739351
 20
-111.21465662655284
 11
36.520797036163266
 21
-122.80576654202164
  0
LINE
  5
5A6
330
1F
100
AcDbEntity
  8
0
 67
0
100
AcDbLine
 10
53.14958714544047
 20
-114.83812325798812
 11
50.04375860421022
 21
-126.42923317345694
  0
ARC
  5
5A7
330
1F
100
AcDbEntity
  8
0
 67
0
100
AcDbCircle
 10
40.59255140368258
 20
-111.47347567165535
 40
1.0
100
AcDbArc
 50
75.0
 51
165.0
  0
ARC
  5
5A8
330
1F
100
AcDbEntity
  8
0
 67
0
100
AcDbCircle
 10
52.1836613191514
 20
-114.5793042128856
 40
1.0
100
AcDbArc
 50
-15.0
 51
75.0
  0
ARC
  5
5A9
330
1F
100
AcDbEntity
  8
0
 67
0
100
AcDbCircle
 10
37.48672286245233
 20
-123.06458558712417
 40
1.0
100
AcDbArc
 50
165.0
 51
255.0
  0
ARC
  5
5AA
330
1F
100
AcDbEntity
  8
0
 67
0
100
AcDbCircle
 10
49.07783277792115
 20
-126.17041412835442
 40
1.0
100
AcDbArc
 50
255.0
 51
345.0
  0
LINE
  5
5AB
330
1F
100
AcDbEntity
  8
0
 67
0
100
AcDbLine
 10
40.851370448785104
 20
-110.50754984536628
 11
52.44248036425392
 21
-113.61337838659654
  0
LINE
  5
5AC
330
1F
100
AcDbEntity
  8
0
 67
0
100
AcDbLine
 10
37.22790381734981
 20
-124.03051141341324
 11
48.81901373281863
 21
-127.13633995464349
  0
LINE
  5
5AD
330
1F
100
AcDbEntity
  8
0
 67
0
100
AcDbLine
 10
39.62662557739351
 20
-111.21465662655284
 11
36.520797036163266
 21
-122.80576654202164
  0
LINE
  5
5AE
330
1F
100
AcDbEntity
  8
0
 67
0
100
AcDbLine
 10
53.14958714544047
 20
-114.83812325798812
 11
50.04375860421022
 21
-126.42923317345694
  0
ARC
  5
5AF
330
1F
100
AcDbEntity
  8
0
 67
0
100
AcDbCircle
 10
40.59255140368258
 20
-111.47347567165535
 40
1.0
100
AcDbArc
 50
75.0
 51
165.0
  0
ARC
  5
5B0
330
1F
100
AcDbEntity
  8
0
 67
0
100
AcDbCircle
 10
52.1836613191514
 20
-114.5793042128856
 40
1.0
100
AcDbArc
 50
-15.0
 51
75.0
  0
ARC
  5
5B1
330
1F
100
AcDbEntity
  8
0
 67
0
100
AcDbCircle
 10
37.48672286245233
 20
-123.06458558712417
 40
1.0
100
AcDbArc
 50
165.0
 51
255.0
  0
ARC
  5
5B2
330
1F
100
AcDbEntity
  8
0
 67
0
100
AcDbCircle
 10
49.07783277792115
 20
-126.17041412835442
 40
1.0
100
AcDbArc
 50
255.0
 51
345.0
  0
LINE
  5
5B3
330
1F
100
AcDbEntity
  8
0
 67
0
100
AcDbLine
 10
40.851370448785104
 20
-110.50754984536628
 11
52.44248036425392
 21
-113.61337838659654
  0
LINE
  5
5B4
330
1F
100
AcDbEntity
  8
0
 67
0
100
AcDbLine
 10
37.22790381734981
 20
-124.03051141341324
 11
48.81901373281863
 21
-127.13633995464349
  0
LINE
  5
5B5
330
1F
100
AcDbEntity
  8
0
 67
0
100
AcDbLine
 10
39.62662557739351
 20
-111.21465662655284
 11
36.520797036163266
 21
-122.80576654202164
  0
LINE
  5
5B6
330
1F
100
AcDbEntity
  8
0
 67
0
100
AcDbLine
 10
53.14958714544047
 20
-114.83812325798812
 11
50.04375860421022
 21
-126.42923317345694
  0
ARC
  5
5B7
330
1F
100
AcDbEntity
  8
0
 67
0
100
AcDbCircle
 10
40.59255140368258
 20
-111.47347567165535
 40
1.0
100
AcDbArc
 50
75.0
 51
165.0
  0
ARC
  5
5B8
330
1F
100
AcDbEntity
  8
0
 67
0
100
AcDbCircle
 10
52.1836613191514
 20
-114.5793042128856
 40
1.0
100
AcDbArc
 50
-15.0
 51
75.0
  0
ARC
  5
5B9
330
1F
100
AcDbEntity
  8
0
 67
0
100
AcDbCircle
 10
37.48672286245233
 20
-123.06458558712417
 40
1.0
100
AcDbArc
 50
165.0
 51
255.0
  0
ARC
  5
5BA
330
1F
100
AcDbEntity
  8
0
 67
0
100
AcDbCircle
 10
49.07783277792115
 20
-126.17041412835442
 40
1.0
100
AcDbArc
 50
255.0
 51
345.0
  0
LINE
  5
5BB
330
1F
100
AcDbEntity
  8
0
 67
0
100
AcDbLine
 10
77.6531444303986
 20
-120.36855546377232
 11
89.24425434586742
 21
-123.47438400500258
  0
LINE
  5
5BC
330
1F
100
AcDbEntity
  8
0
 67
0
100
AcDbLine
 10
74.0296777989633
 20
-133.8915170318193
 11
85.62078771443213
 21
-136.99734557304953
  0
LINE
  5
5BD
330
1F
100
AcDbEntity
  8
0
 67
0
100
AcDbLine
 10
76.42839955900702
 20
-121.07566224495888
 11
73.32257101777677
 21
-132.66677216042768
  0
LINE
  5
5BE
330
1F
100
AcDbEntity
  8
0
 67
0
100
AcDbLine
 10
89.95136112705397
 20
-124.69912887639417
 11
86.84553258582372
 21
-136.29023879186298
  0
ARC
  5
5BF
330
1F
100
AcDbEntity
  8
0
 67
0
100
AcDbCircle
 10
77.39432538529609
 20
-121.33448129006139
 40
1.0
100
AcDbArc
 50
75.0
 51
165.0
  0
ARC
  5
5C0
330
1F
100
AcDbEntity
  8
0
 67
0
100
AcDbCircle
 10
88.9854353007649
 20
-124.44030983129164
 40
1.0
100
AcDbArc
 50
-15.0
 51
75.0
  0
ARC
  5
5C1
330
1F
100
AcDbEntity
  8
0
 67
0
100
AcDbCircle
 10
74.28849684406583
 20
-132.92559120553022
 40
1.0
100
AcDbArc
 50
165.0
 51
255.0
  0
ARC
  5
5C2
330
1F
100
AcDbEntity
  8
0
 67
0
100
AcDbCircle
 10
85.87960675953465
 20
-136.03141974676046
 40
1.0
100
AcDbArc
 50
255.0
 51
345.0
  0
LINE
  5
5C3
330
1F
100
AcDbEntity
  8
0
 67
0
100
AcDbLine
 10
132.85580540281887
 20
-135.16006389138138
 11
144.4469153182877
 21
-138.26589243261165
  0
LINE
  5
5C4
330
1F
100
AcDbEntity
  8
0
 67
0
100
AcDbLine
 10
129.23233877138358
 20
-148.68302545942834
 11
140.8234486868524
 21
-151.7888540006586
  0
LINE
  5
5C5
330
1F
100
AcDbEntity
  8
0
 67
0
100
AcDbLine
 10
131.63106053142727
 20
-135.86717067256794
 11
128.52523199019703
 21
-147.45828058803676
  0
LINE
  5
5C6
330
1F
100
AcDbEntity
  8
0
 67
0
100
AcDbLine
 10
145.15402209947422
 20
-139.49063730400323
 11
142.04819355824398
 21
-151.08174721947205
  0
ARC
  5
5C7
330
1F
100
AcDbEntity
  8
0
 67
0
100
AcDbCircle
 10
132.59698635771633
 20
-136.12598971767045
 40
1.0
100
AcDbArc
 50
75.0
 51
165.0
  0
ARC
  5
5C8
330
1F
100
AcDbEntity
  8
0
 67
0
100
AcDbCircle
 10
144.18809627318515
 20
-139.23181825890072
 40
1.0
100
AcDbArc
 50
-15.0
 51
75.0
  0
ARC
  5
5C9
330
1F
100
AcDbEntity
  8
0
 67
0
100
AcDbCircle
 10
129.4911578164861
 20
-147.71709963313927
 40
1.0
100
AcDbArc
 50
165.0
 51
255.0
  0
ARC
  5
5CA
330
1F
100
AcDbEntity
  8
0
 67
0
100
AcDbCircle
 10
141.08226773195491
 20
-150.82292817436954
 40
1.0
100
AcDbArc
 50
255.0
 51
345.0
  0
LINE
  5
5CB
330
1F
100
AcDbEntity
  8
0
 67
0
100
AcDbLine
 10
40.851370448785104
 20
-110.50754984536628
 11
52.44248036425392
 21
-113.61337838659654
  0
LINE
  5
5CC
330
1F
100
AcDbEntity
  8
0
 67
0
100
AcDbLine
 10
37.22790381734981
 20
-124.03051141341324
 11
48.81901373281863
 21
-127.13633995464349
  0
LINE
  5
5CD
330
1F
100
AcDbEntity
  8
0
 67
0
100
AcDbLine
 10
39.62662557739351
 20
-111.21465662655284
 11
36.520797036163266
 21
-122.80576654202164
  0
LINE
  5
5CE
330
1F
100
AcDbEntity
  8
0
 67
0
100
AcDbLine
 10
53.14958714544047
 20
-114.83812325798812
 11
50.04375860421022
 21
-126.42923317345694
  0
ARC
  5
5CF
330
1F
100
AcDbEntity
  8
0
 67
0
100
AcDbCircle
 10
40.59255140368258
 20
-111.47347567165535
 40
1.0
100
AcDbArc
 50
75.0
 51
165.0
  0
ARC
  5
5D0
330
1F
100
AcDbEntity
  8
0
 67
0
100
AcDbCircle
 10
52.1836613191514
 20
-114.5793042128856
 40
1.0
100
AcDbArc
 50
-15.0
 51
75.0
  0
ARC
  5
5D1
330
1F
100
AcDbEntity
  8
0
 67
0
100
AcDbCircle
 10
37.48672286245233
 20
-123.06458558712417
 40
1.0
100
AcDbArc
 50
165.0
 51
255.0
  0
ARC
  5
5D2
330
1F
100
AcDbEntity
  8
0
 67
0
100
AcDbCircle
 10
49.07783277792115
 20
-126.17041412835442
 40
1.0
100
AcDbArc
 50
255.0
 51
345.0
  0
LINE
  5
5D3
330
1F
100
AcDbEntity
  8
0
 67
0
100
AcDbLine
 10
40.851370448785104
 20
-110.50754984536628
 11
52.44248036425392
 21
-113.61337838659654
  0
LINE
  5
5D4
330
1F
100
AcDbEntity
  8
0
 67
0
100
AcDbLine
 10
37.22790381734981
 20
-124.03051141341324
 11
48.81901373281863
 21
-127.13633995464349
  0
LINE
  5
5D5
330
1F
100
AcDbEntity
  8
0
 67
0
100
AcDbLine
 10
39.62662557739351
 20
-111.21465662655284
 11
36.520797036163266
 21
-122.80576654202164
  0
LINE
  5
5D6
330
1F
100
AcDbEntity
  8
0
 67
0
100
AcDbLine
 10
53.14958714544047
 20
-114.83812325798812
 11
50.04375860421022
 21
-126.42923317345694
  0
ARC
  5
5D7
330
1F
100
AcDbEntity
  8
0
 67
0
100
AcDbCircle
 10
40.59255140368258
 20
-111.47347567165535
 40
1.0
100
AcDbArc
 50
75.0
 51
165.0
  0
ARC
  5
5D8
330
1F
100
AcDbEntity
  8
0
 67
0
100
AcDbCircle
 10
52.1836613191514
 20
-114.5793042128856
 40
1.0
100
AcDbArc
 50
-15.0
 51
75.0
  0
ARC
  5
5D9
330
1F
100
AcDbEntity
  8
0
 67
0
100
AcDbCircle
 10
37.48672286245233
 20
-123.06458558712417
 40
1.0
100
AcDbArc
 50
165.0
 51
255.0
  0
ARC
  5
5DA
330
1F
100
AcDbEntity
  8
0
 67
0
100
AcDbCircle
 10
49.07783277792115
 20
-126.17041412835442
 40
1.0
100
AcDbArc
 50
255.0
 51
345.0
  0
LINE
  5
5DB
330
1F
100
AcDbEntity
  8
0
 67
0
100
AcDbLine
 10
95.43771857005497
 20
-127.59916914682618
 11
107.02882848552379
 21
-130.70499768805644
  0
LINE
  5
5DC
330
1F
100
AcDbEntity
  8
0
 67
0
100
AcDbLine
 10
91.81425193861968
 20
-141.12213071487315
 11
103.4053618540885
 21
-144.2279592561034
  0
LINE
  5
5DD
330
1F
100
AcDbEntity
  8
0
 67
0
100
AcDbLine
 10
94.21297369866339
 20
-128.30627592801272
 11
91.10714515743314
 21
-139.89738584348154
  0
LINE
  5
5DE
330
1F
100
AcDbEntity
  8
0
 67
0
100
AcDbLine
 10
107.73593526671034
 20
-131.92974255944802
 11
104.63010672548009
 21
-143.52085247491684
  0
ARC
  5
5DF
330
1F
100
AcDbEntity
  8
0
 67
0
100
AcDbCircle
 10
95.17889952495246
 20
-128.56509497311527
 40
1.0
100
AcDbArc
 50
75.0
 51
165.0
  0
ARC
  5
5E0
330
1F
100
AcDbEntity
  8
0
 67
0
100
AcDbCircle
 10
106.77000944042128
 20
-131.6709235143455
 40
1.0
100
AcDbArc
 50
-15.0
 51
75.0
  0
ARC
  5
5E1
330
1F
100
AcDbEntity
  8
0
 67
0
100
AcDbCircle
 10
92.0730709837222
 20
-140.15620488858409
 40
1.0
100
AcDbArc
 50
165.0
 51
255.0
  0
ARC
  5
5E2
330
1F
100
AcDbEntity
  8
0
 67
0
100
AcDbCircle
 10
103.66418089919102
 20
-143.26203342981432
 40
1.0
100
AcDbArc
 50
255.0
 51
345.0
  0
LINE
  5
5E3
330
1F
100
AcDbEntity
  8
0
 67
0
100
AcDbLine
 10
40.851370448785104
 20
-110.50754984536628
 11
52.44248036425392
 21
-113.61337838659654
  0
LINE
  5
5E4
330
1F
100
AcDbEntity
  8
0
 67
0
100
AcDbLine
 10
37.22790381734981
 20
-124.03051141341324
 11
48.81901373281863
 21
-127.13633995464349
  0
LINE
  5
5E5
330
1F
100
AcDbEntity
  8
0
 67
0
100
AcDbLine
 10
39.62662557739351
 20
-111.21465662655284
 11
36.520797036163266
 21
-122.80576654202164
  0
LINE
  5
5E6
330
1F
100
AcDbEntity
  8
0
 67
0
100
AcDbLine
 10
53.14958714544047
 20
-114.83812325798812
 11
50.04375860421022
 21
-126.42923317345694
  0
ARC
  5
5E7
330
1F
100
AcDbEntity
  8
0
 67
0
100
AcDbCircle
 10
40.59255140368258
 20
-111.47347567165535
 40
1.0
100
AcDbArc
 50
75.0
 51
165.0
  0
ARC
  5
5E8
330
1F
100
AcDbEntity
  8
0
 67
0
100
AcDbCircle
 10
52.1836613191514
 20
-114.5793042128856
 40
1.0
100
AcDbArc
 50
-15.0
 51
75.0
  0
ARC
  5
5E9
330
1F
100
AcDbEntity
  8
0
 67
0
100
AcDbCircle
 10
37.48672286245233
 20
-123.06458558712417
 40
1.0
100
AcDbArc
 50
165.0
 51
255.0
  0
ARC
  5
5EA
330
1F
100
AcDbEntity
  8
0
 67
0
100
AcDbCircle
 10
49.07783277792115
 20
-126.17041412835442
 40
1.0
100
AcDbArc
 50
255.0
 51
345.0
  0
LINE
  5
5EB
330
1F
100
AcDbEntity
  8
0
 67
0
100
AcDbLine
 10
40.851370448785104
 20
-110.50754984536628
 11
52.44248036425392
 21
-113.61337838659654
  0
LINE
  5
5EC
330
1F
100
AcDbEntity
  8
0
 67
0
100
AcDbLine
 10
37.22790381734981
 20
-124.03051141341324
 11
48.81901373281863
 21
-127.13633995464349
  0
LINE
  5
5ED
330
1F
100
AcDbEntity
  8
0
 67
0
100
AcDbLine
 10
39.62662557739351
 20
-111.21465662655284
 11
36.520797036163266
 21
-122.80576654202164
  0
LINE
  5
5EE
330
1F
100
AcDbEntity
  8
0
 67
0
100
AcDbLine
 10
53.14958714544047
 20
-114.83812325798812
 11
50.04375860421022
 21
-126.42923317345694
  0
ARC
  5
5EF
330
1F
100
AcDbEntity
  8
0
 67
0
100
AcDbCircle
 10
40.59255140368258
 20
-111.47347567165535
 40
1.0
100
AcDbArc
 50
75.0
 51
165.0
  0
ARC
  5
5F0
330
1F
100
AcDbEntity
  8
0
 67
0
100
AcDbCircle
 10
52.1836613191514
 20
-114.5793042128856
 40
1.0
100
AcDbArc
 50
-15.0
 51
75.0
  0
ARC
  5
5F1
330
1F
100
AcDbEntity
  8
0
 67
0
100
AcDbCircle
 10
37.48672286245233
 20
-123.06458558712417
 40
1.0
100
AcDbArc
 50
165.0
 51
255.0
  0
ARC
  5
5F2
330
1F
100
AcDbEntity
  8
0
 67
0
100
AcDbCircle
 10
49.07783277792115
 20
-126.17041412835442
 40
1.0
100
AcDbArc
 50
255.0
 51
345.0
  0
LINE
  5
5F3
330
1F
100
AcDbEntity
  8
0
 67
0
100
AcDbLine
 10
77.6531444303986
 20
-120.36855546377232
 11
89.24425434586742
 21
-123.47438400500258
  0
LINE
  5
5F4
330
1F
100
AcDbEntity
  8
0
 67
0
100
AcDbLine
 10
74.0296777989633
 20
-133.8915170318193
 11
85.62078771443213
 21
-136.99734557304953
  0
LINE
  5
5F5
330
1F
100
AcDbEntity
  8
0
 67
0
100
AcDbLine
 10
76.42839955900702
 20
-121.07566224495888
 11
73.32257101777677
 21
-132.66677216042768
  0
LINE
  5
5F6
330
1F
100
AcDbEntity
  8
0
 67
0
100
AcDbLine
 10
89.95136112705397
 20
-124.69912887639417
 11
86.84553258582372
 21
-136.29023879186298
  0
ARC
  5
5F7
330
1F
100
AcDbEntity
  8
0
 67
0
100
AcDbCircle
 10
77.39432538529609
 20
-121.33448129006139
 40
1.0
100
AcDbArc
 50
75.0
 51
165.0
  0
ARC
  5
5F8
330
1F
100
AcDbEntity
  8
0
 67
0
100
AcDbCircle
 10
88.9854353007649
 20
-124.44030983129164
 40
1.0
100
AcDbArc
 50
-15.0
 51
75.0
  0
ARC
  5
5F9
330
1F
100
AcDbEntity
  8
0
 67
0
100
AcDbCircle
 10
74.28849684406583
 20
-132.92559120553022
 40
1.0
100
AcDbArc
 50
165.0
 51
255.0
  0
ARC
  5
5FA
330
1F
100
AcDbEntity
  8
0
 67
0
100
AcDbCircle
 10
85.87960675953465
 20
-136.03141974676046
 40
1.0
100
AcDbArc
 50
255.0
 51
345.0
  0
LINE
  5
5FB
330
1F
100
AcDbEntity
  8
0
 67
0
100
AcDbLine
 10
132.85580540281887
 20
-135.16006389138138
 11
144.4469153182877
 21
-138.26589243261165
  0
LINE
  5
5FC
330
1F
100
AcDbEntity
  8
0
 67
0
100
AcDbLine
 10
129.23233877138358
 20
-148.68302545942834
 11
140.8234486868524
 21
-151.7888540006586
  0
LINE
  5
5FD
330
1F
100
AcDbEntity
  8
0
 67
0
100
AcDbLine
 10
131.63106053142727
 20
-135.86717067256794
 11
128.52523199019703
 21
-147.45828058803676
  0
LINE
  5
5FE
330
1F
100
AcDbEntity
  8
0
 67
0
100
AcDbLine
 10
145.15402209947422
 20
-139.49063730400323
 11
142.04819355824398
 21
-151.08174721947205
  0
ARC
  5
5FF
330
1F
100
AcDbEntity
  8
0
 67
0
100
AcDbCircle
 10
132.59698635771633
 20
-136.12598971767045
 40
1.0
100
AcDbArc
 50
75.0
 51
165.0
  0
ARC
  5
600
330
1F
100
AcDbEntity
  8
0
 67
0
100
AcDbCircle
 10
144.18809627318515
 20
-139.23181825890072
 40
1.0
100
AcDbArc
 50
-15.0
 51
75.0
  0
ARC
  5
601
330
1F
100
AcDbEntity
  8
0
 67
0
100
AcDbCircle
 10
129.4911578164861
 20
-147.71709963313927
 40
1.0
100
AcDbArc
 50
165.0
 51
255.0
  0
ARC
  5
602
330
1F
100
AcDbEntity
  8
0
 67
0
100
AcDbCircle
 10
141.08226773195491
 20
-150.82292817436954
 40
1.0
100
AcDbArc
 50
255.0
 51
345.0
  0
LINE
  5
603
330
1F
100
AcDbEntity
  8
0
 67
0
100
AcDbLine
 10
40.851370448785104
 20
-110.50754984536628
 11
52.44248036425392
 21
-113.61337838659654
  0
LINE
  5
604
330
1F
100
AcDbEntity
  8
0
 67
0
100
AcDbLine
 10
37.22790381734981
 20
-124.03051141341324
 11
48.81901373281863
 21
-127.13633995464349
  0
LINE
  5
605
330
1F
100
AcDbEntity
  8
0
 67
0
100
AcDbLine
 10
39.62662557739351
 20
-111.21465662655284
 11
36.520797036163266
 21
-122.80576654202164
  0
LINE
  5
606
330
1F
100
AcDbEntity
  8
0
 67
0
100
AcDbLine
 10
53.14958714544047
 20
-114.83812325798812
 11
50.04375860421022
 21
-126.42923317345694
  0
ARC
  5
607
330
1F
100
AcDbEntity
  8
0
 67
0
100
AcDbCircle
 10
40.59255140368258
 20
-111.47347567165535
 40
1.0
100
AcDbArc
 50
75.0
 51
165.0
  0
ARC
  5
608
330
1F
100
AcDbEntity
  8
0
 67
0
100
AcDbCircle
 10
52.1836613191514
 20
-114.5793042128856
 40
1.0
100
AcDbArc
 50
-15.0
 51
75.0
  0
ARC
  5
609
330
1F
100
AcDbEntity
  8
0
 67
0
100
AcDbCircle
 10
37.48672286245233
 20
-123.06458558712417
 40
1.0
100
AcDbArc
 50
165.0
 51
255.0
  0
ARC
  5
60A
330
1F
100
AcDbEntity
  8
0
 67
0
100
AcDbCircle
 10
49.07783277792115
 20
-126.17041412835442
 40
1.0
100
AcDbArc
 50
255.0
 51
345.0
  0
LINE
  5
60B
330
1F
100
AcDbEntity
  8
0
 67
0
100
AcDbLine
 10
40.851370448785104
 20
-110.50754984536628
 11
52.44248036425392
 21
-113.61337838659654
  0
LINE
  5
60C
330
1F
100
AcDbEntity
  8
0
 67
0
100
AcDbLine
 10
37.22790381734981
 20
-124.03051141341324
 11
48.81901373281863
 21
-127.13633995464349
  0
LINE
  5
60D
330
1F
100
AcDbEntity
  8
0
 67
0
100
AcDbLine
 10
39.62662557739351
 20
-111.21465662655284
 11
36.520797036163266
 21
-122.80576654202164
  0
LINE
  5
60E
330
1F
100
AcDbEntity
  8
0
 67
0
100
AcDbLine
 10
53.14958714544047
 20
-114.83812325798812
 11
50.04375860421022
 21
-126.42923317345694
  0
ARC
  5
60F
330
1F
100
AcDbEntity
  8
0
 67
0
100
AcDbCircle
 10
40.59255140368258
 20
-111.47347567165535
 40
1.0
100
AcDbArc
 50
75.0
 51
165.0
  0
ARC
  5
610
330
1F
100
AcDbEntity
  8
0
 67
0
100
AcDbCircle
 10
52.1836613191514
 20
-114.5793042128856
 40
1.0
100
AcDbArc
 50
-15.0
 51
75.0
  0
ARC
  5
611
330
1F
100
AcDbEntity
  8
0
 67
0
100
AcDbCircle
 10
37.48672286245233
 20
-123.06458558712417
 40
1.0
100
AcDbArc
 50
165.0
 51
255.0
  0
ARC
  5
612
330
1F
100
AcDbEntity
  8
0
 67
0
100
AcDbCircle
 10
49.07783277792115
 20
-126.17041412835442
 40
1.0
100
AcDbArc
 50
255.0
 51
345.0
  0
LINE
  5
613
330
1F
100
AcDbEntity
  8
0
 67
0
100
AcDbLine
 10
40.851370448785104
 20
-110.50754984536628
 11
52.44248036425392
 21
-113.61337838659654
  0
LINE
  5
614
330
1F
100
AcDbEntity
  8
0
 67
0
100
AcDbLine
 10
37.22790381734981
 20
-124.03051141341324
 11
48.81901373281863
 21
-127.13633995464349
  0
LINE
  5
615
330
1F
100
AcDbEntity
  8
0
 67
0
100
AcDbLine
 10
39.62662557739351
 20
-111.21465662655284
 11
36.520797036163266
 21
-122.80576654202164
  0
LINE
  5
616
330
1F
100
AcDbEntity
  8
0
 67
0
100
AcDbLine
 10
53.14958714544047
 20
-114.83812325798812
 11
50.04375860421022
 21
-126.42923317345694
  0
ARC
  5
617
330
1F
100
AcDbEntity
  8
0
 67
0
100
AcDbCircle
 10
40.59255140368258
 20
-111.47347567165535
 40
1.0
100
AcDbArc
 50
75.0
 51
165.0
  0
ARC
  5
618
330
1F
100
AcDbEntity
  8
0
 67
0
100
AcDbCircle
 10
52.1836613191514
 20
-114.5793042128856
 40
1.0
100
AcDbArc
 50
-15.0
 51
75.0
  0
ARC
  5
619
330
1F
100
AcDbEntity
  8
0
 67
0
100
AcDbCircle
 10
37.48672286245233
 20
-123.06458558712417
 40
1.0
100
AcDbArc
 50
165.0
 51
255.0
  0
ARC
  5
61A
330
1F
100
AcDbEntity
  8
0
 67
0
100
AcDbCircle
 10
49.07783277792115
 20
-126.17041412835442
 40
1.0
100
AcDbArc
 50
255.0
 51
345.0
  0
LINE
  5
61B
330
1F
100
AcDbEntity
  8
0
 67
0
100
AcDbLine
 10
113.83860556086172
 20
-132.5296719560292
 11
125.42971547633054
 21
-135.63550049725944
  0
LINE
  5
61C
330
1F
100
AcDbEntity
  8
0
 67
0
100
AcDbLine
 10
110.21513892942643
 20
-146.05263352407616
 11
121.80624884489525
 21
-149.15846206530642
  0
LINE
  5
61D
330
1F
100
AcDbEntity
  8
0
 67
0
100
AcDbLine
 10
112.61386068947013
 20
-133.23677873721576
 11
109.50803214823988
 21
-144.82788865268458
  0
LINE
  5
61E
330
1F
100
AcDbEntity
  8
0
 67
0
100
AcDbLine
 10
126.13682225751708
 20
-136.86024536865105
 11
123.03099371628684
 21
-148.45135528411987
  0
ARC
  5
61F
330
1F
100
AcDbEntity
  8
0
 67
0
100
AcDbCircle
 10
113.5797865157592
 20
-133.49559778231827
 40
1.0
100
AcDbArc
 50
75.0
 51
165.0
  0
ARC
  5
620
330
1F
100
AcDbEntity
  8
0
 67
0
100
AcDbCircle
 10
125.17089643122802
 20
-136.60142632354854
 40
1.0
100
AcDbArc
 50
-15.0
 51
75.0
  0
ARC
  5
621
330
1F
100
AcDbEntity
  8
0
 67
0
100
AcDbCircle
 10
110.47395797452896
 20
-145.0867076977871
 40
1.0
100
AcDbArc
 50
165.0
 51
255.0
  0
ARC
  5
622
330
1F
100
AcDbEntity
  8
0
 67
0
100
AcDbCircle
 10
122.06506788999778
 20
-148.19253623901736
 40
1.0
100
AcDbArc
 50
255.0
 51
345.0
  0
LINE
  5
623
330
1F
100
AcDbEntity
  8
0
 67
0
100
AcDbLine
 10
40.851370448785104
 20
-110.50754984536628
 11
52.44248036425392
 21
-113.61337838659654
  0
LINE
  5
624
330
1F
100
AcDbEntity
  8
0
 67
0
100
AcDbLine
 10
37.22790381734981
 20
-124.03051141341324
 11
48.81901373281863
 21
-127.13633995464349
  0
LINE
  5
625
330
1F
100
AcDbEntity
  8
0
 67
0
100
AcDbLine
 10
39.62662557739351
 20
-111.21465662655284
 11
36.520797036163266
 21
-122.80576654202164
  0
LINE
  5
626
330
1F
100
AcDbEntity
  8
0
 67
0
100
AcDbLine
 10
53.14958714544047
 20
-114.83812325798812
 11
50.04375860421022
 21
-126.42923317345694
  0
ARC
  5
627
330
1F
100
AcDbEntity
  8
0
 67
0
100
AcDbCircle
 10
40.59255140368258
 20
-111.47347567165535
 40
1.0
100
AcDbArc
 50
75.0
 51
165.0
  0
ARC
  5
628
330
1F
100
AcDbEntity
  8
0
 67
0
100
AcDbCircle
 10
52.1836613191514
 20
-114.5793042128856
 40
1.0
100
AcDbArc
 50
-15.0
 51
75.0
  0
ARC
  5
629
330
1F
100
AcDbEntity
  8
0
 67
0
100
AcDbCircle
 10
37.48672286245233
 20
-123.06458558712417
 40
1.0
100
AcDbArc
 50
165.0
 51
255.0
  0
ARC
  5
62A
330
1F
100
AcDbEntity
  8
0
 67
0
100
AcDbCircle
 10
49.07783277792115
 20
-126.17041412835442
 40
1.0
100
AcDbArc
 50
255.0
 51
345.0
  0
LINE
  5
62B
330
1F
100
AcDbEntity
  8
0
 67
0
100
AcDbLine
 10
77.6531444303986
 20
-120.36855546377232
 11
89.24425434586742
 21
-123.47438400500258
  0
LINE
  5
62C
330
1F
100
AcDbEntity
  8
0
 67
0
100
AcDbLine
 10
74.0296777989633
 20
-133.8915170318193
 11
85.62078771443213
 21
-136.99734557304953
  0
LINE
  5
62D
330
1F
100
AcDbEntity
  8
0
 67
0
100
AcDbLine
 10
76.42839955900702
 20
-121.07566224495888
 11
73.32257101777677
 21
-132.66677216042768
  0
LINE
  5
62E
330
1F
100
AcDbEntity
  8
0
 67
0
100
AcDbLine
 10
89.95136112705397
 20
-124.69912887639417
 11
86.84553258582372
 21
-136.29023879186298
  0
ARC
  5
62F
330
1F
100
AcDbEntity
  8
0
 67
0
100
AcDbCircle
 10
77.39432538529609
 20
-121.33448129006139
 40
1.0
100
AcDbArc
 50
75.0
 51
165.0
  0
ARC
  5
630
330
1F
100
AcDbEntity
  8
0
 67
0
100
AcDbCircle
 10
88.9854353007649
 20
-124.44030983129164
 40
1.0
100
AcDbArc
 50
-15.0
 51
75.0
  0
ARC
  5
631
330
1F
100
AcDbEntity
  8
0
 67
0
100
AcDbCircle
 10
74.28849684406583
 20
-132.92559120553022
 40
1.0
100
AcDbArc
 50
165.0
 51
255.0
  0
ARC
  5
632
330
1F
100
AcDbEntity
  8
0
 67
0
100
AcDbCircle
 10
85.87960675953465
 20
-136.03141974676046
 40
1.0
100
AcDbArc
 50
255.0
 51
345.0
  0
LINE
  5
633
330
1F
100
AcDbEntity
  8
0
 67
0
100
AcDbLine
 10
132.85580540281887
 20
-135.16006389138138
 11
144.4469153182877
 21
-138.26589243261165
  0
LINE
  5
634
330
1F
100
AcDbEntity
  8
0
 67
0
100
AcDbLine
 10
129.23233877138358
 20
-148.68302545942834
 11
140.8234486868524
 21
-151.7888540006586
  0
LINE
  5
635
330
1F
100
AcDbEntity
  8
0
 67
0
100
AcDbLine
 10
131.63106053142727
 20
-135.86717067256794
 11
128.52523199019703
 21
-147.45828058803676
  0
LINE
  5
636
330
1F
100
AcDbEntity
  8
0
 67
0
100
AcDbLine
 10
145.15402209947422
 20
-139.49063730400323
 11
142.04819355824398
 21
-151.08174721947205
  0
ARC
  5
637
330
1F
100
AcDbEntity
  8
0
 67
0
100
AcDbCircle
 10
132.59698635771633
 20
-136.12598971767045
 40
1.0
100
AcDbArc
 50
75.0
 51
165.0
  0
ARC
  5
638
330
1F
100
AcDbEntity
  8
0
 67
0
100
AcDbCircle
 10
144.18809627318515
 20
-139.23181825890072
 40
1.0
100
AcDbArc
 50
-15.0
 51
75.0
  0
ARC
  5
639
330
1F
100
AcDbEntity
  8
0
 67
0
100
AcDbCircle
 10
129.4911578164861
 20
-147.71709963313927
 40
1.0
100
AcDbArc
 50
165.0
 51
255.0
  0
ARC
  5
63A
330
1F
100
AcDbEntity
  8
0
 67
0
100
AcDbCircle
 10
141.08226773195491
 20
-150.82292817436954
 40
1.0
100
AcDbArc
 50
255.0
 51
345.0
  0
LINE
  5
63B
330
1F
100
AcDbEntity
  8
0
 67
0
100
AcDbLine
 10
40.851370448785104
 20
-110.50754984536628
 11
52.44248036425392
 21
-113.61337838659654
  0
LINE
  5
63C
330
1F
100
AcDbEntity
  8
0
 67
0
100
AcDbLine
 10
37.22790381734981
 20
-124.03051141341324
 11
48.81901373281863
 21
-127.13633995464349
  0
LINE
  5
63D
330
1F
100
AcDbEntity
  8
0
 67
0
100
AcDbLine
 10
39.62662557739351
 20
-111.21465662655284
 11
36.520797036163266
 21
-122.80576654202164
  0
LINE
  5
63E
330
1F
100
AcDbEntity
  8
0
 67
0
100
AcDbLine
 10
53.14958714544047
 20
-114.83812325798812
 11
50.04375860421022
 21
-126.42923317345694
  0
ARC
  5
63F
330
1F
100
AcDbEntity
  8
0
 67
0
100
AcDbCircle
 10
40.59255140368258
 20
-111.47347567165535
 40
1.0
100
AcDbArc
 50
75.0
 51
165.0
  0
ARC
  5
640
330
1F
100
AcDbEntity
  8
0
 67
0
100
AcDbCircle
 10
52.1836613191514
 20
-114.5793042128856
 40
1.0
100
AcDbArc
 50
-15.0
 51
75.0
  0
ARC
  5
641
330
1F
100
AcDbEntity
  8
0
 67
0
100
AcDbCircle
 10
37.48672286245233
 20
-123.06458558712417
 40
1.0
100
AcDbArc
 50
165.0
 51
255.0
  0
ARC
  5
642
330
1F
100
AcDbEntity
  8
0
 67
0
100
AcDbCircle
 10
49.07783277792115
 20
-126.17041412835442
 40
1.0
100
AcDbArc
 50
255.0
 51
345.0
  0
LINE
  5
643
330
1F
100
AcDbEntity
  8
0
 67
0
100
AcDbLine
 10
40.851370448785104
 20
-110.50754984536628
 11
52.44248036425392
 21
-113.61337838659654
  0
LINE
  5
644
330
1F
100
AcDbEntity
  8
0
 67
0
100
AcDbLine
 10
37.22790381734981
 20
-124.03051141341324
 11
48.81901373281863
 21
-127.13633995464349
  0
LINE
  5
645
330
1F
100
AcDbEntity
  8
0
 67
0
100
AcDbLine
 10
39.62662557739351
 20
-111.21465662655284
 11
36.520797036163266
 21
-122.80576654202164
  0
LINE
  5
646
330
1F
100
AcDbEntity
  8
0
 67
0
100
AcDbLine
 10
53.14958714544047
 20
-114.83812325798812
 11
50.04375860421022
 21
-126.42923317345694
  0
ARC
  5
647
330
1F
100
AcDbEntity
  8
0
 67
0
100
AcDbCircle
 10
40.59255140368258
 20
-111.47347567165535
 40
1.0
100
AcDbArc
 50
75.0
 51
165.0
  0
ARC
  5
648
330
1F
100
AcDbEntity
  8
0
 67
0
100
AcDbCircle
 10
52.1836613191514
 20
-114.5793042128856
 40
1.0
100
AcDbArc
 50
-15.0
 51
75.0
  0
ARC
  5
649
330
1F
100
AcDbEntity
  8
0
 67
0
100
AcDbCircle
 10
37.48672286245233
 20
-123.06458558712417
 40
1.0
100
AcDbArc
 50
165.0
 51
255.0
  0
ARC
  5
64A
330
1F
100
AcDbEntity
  8
0
 67
0
100
AcDbCircle
 10
49.07783277792115
 20
-126.17041412835442
 40
1.0
100
AcDbArc
 50
255.0
 51
345.0
  0
LINE
  5
64B
330
1F
100
AcDbEntity
  8
0
 67
0
100
AcDbLine
 10
40.851370448785104
 20
-110.50754984536628
 11
52.44248036425392
 21
-113.61337838659654
  0
LINE
  5
64C
330
1F
100
AcDbEntity
  8
0
 67
0
100
AcDbLine
 10
37.22790381734981
 20
-124.03051141341324
 11
48.81901373281863
 21
-127.13633995464349
  0
LINE
  5
64D
330
1F
100
AcDbEntity
  8
0
 67
0
100
AcDbLine
 10
39.62662557739351
 20
-111.21465662655284
 11
36.520797036163266
 21
-122.80576654202164
  0
LINE
  5
64E
330
1F
100
AcDbEntity
  8
0
 67
0
100
AcDbLine
 10
53.14958714544047
 20
-114.83812325798812
 11
50.04375860421022
 21
-126.42923317345694
  0
ARC
  5
64F
330
1F
100
AcDbEntity
  8
0
 67
0
100
AcDbCircle
 10
40.59255140368258
 20
-111.47347567165535
 40
1.0
100
AcDbArc
 50
75.0
 51
165.0
  0
ARC
  5
650
330
1F
100
AcDbEntity
  8
0
 67
0
100
AcDbCircle
 10
52.1836613191514
 20
-114.5793042128856
 40
1.0
100
AcDbArc
 50
-15.0
 51
75.0
  0
ARC
  5
651
330
1F
100
AcDbEntity
  8
0
 67
0
100
AcDbCircle
 10
37.48672286245233
 20
-123.06458558712417
 40
1.0
100
AcDbArc
 50
165.0
 51
255.0
  0
ARC
  5
652
330
1F
100
AcDbEntity
  8
0
 67
0
100
AcDbCircle
 10
49.07783277792115
 20
-126.17041412835442
 40
1.0
100
AcDbArc
 50
255.0
 51
345.0
  0
LINE
  5
653
330
1F
100
AcDbEntity
  8
0
 67
0
100
AcDbLine
 10
40.851370448785104
 20
-110.50754984536628
 11
52.44248036425392
 21
-113.61337838659654
  0
LINE
  5
654
330
1F
100
AcDbEntity
  8
0
 67
0
100
AcDbLine
 10
37.22790381734981
 20
-124.03051141341324
 11
48.81901373281863
 21
-127.13633995464349
  0
LINE
  5
655
330
1F
100
AcDbEntity
  8
0
 67
0
100
AcDbLine
 10
39.62662557739351
 20
-111.21465662655284
 11
36.520797036163266
 21
-122.80576654202164
  0
LINE
  5
656
330
1F
100
AcDbEntity
  8
0
 67
0
100
AcDbLine
 10
53.14958714544047
 20
-114.83812325798812
 11
50.04375860421022
 21
-126.42923317345694
  0
ARC
  5
657
330
1F
100
AcDbEntity
  8
0
 67
0
100
AcDbCircle
 10
40.59255140368258
 20
-111.47347567165535
 40
1.0
100
AcDbArc
 50
75.0
 51
165.0
  0
ARC
  5
658
330
1F
100
AcDbEntity
  8
0
 67
0
100
AcDbCircle
 10
52.1836613191514
 20
-114.5793042128856
 40
1.0
100
AcDbArc
 50
-15.0
 51
75.0
  0
ARC
  5
659
330
1F
100
AcDbEntity
  8
0
 67
0
100
AcDbCircle
 10
37.48672286245233
 20
-123.06458558712417
 40
1.0
100
AcDbArc
 50
165.0
 51
255.0
  0
ARC
  5
65A
330
1F
100
AcDbEntity
  8
0
 67
0
100
AcDbCircle
 10
49.07783277792115
 20
-126.17041412835442
 40
1.0
100
AcDbArc
 50
255.0
 51
345.0
  0
LINE
  5
65B
330
1F
100
AcDbEntity
  8
0
 67
0
100
AcDbLine
 10
77.6531444303986
 20
-120.36855546377232
 11
89.24425434586742
 21
-123.47438400500258
  0
LINE
  5
65C
330
1F
100
AcDbEntity
  8
0
 67
0
100
AcDbLine
 10
74.0296777989633
 20
-133.8915170318193
 11
85.62078771443213
 21
-136.99734557304953
  0
LINE
  5
65D
330
1F
100
AcDbEntity
  8
0
 67
0
100
AcDbLine
 10
76.42839955900702
 20
-121.07566224495888
 11
73.32257101777677
 21
-132.66677216042768
  0
LINE
  5
65E
330
1F
100
AcDbEntity
  8
0
 67
0
100
AcDbLine
 10
89.95136112705397
 20
-124.69912887639417
 11
86.84553258582372
 21
-136.29023879186298
  0
ARC
  5
65F
330
1F
100
AcDbEntity
  8
0
 67
0
100
AcDbCircle
 10
77.39432538529609
 20
-121.33448129006139
 40
1.0
100
AcDbArc
 50
75.0
 51
165.0
  0
ARC
  5
660
330
1F
100
AcDbEntity
  8
0
 67
0
100
AcDbCircle
 10
88.9854353007649
 20
-124.44030983129164
 40
1.0
100
AcDbArc
 50
-15.0
 51
75.0
  0
ARC
  5
661
330
1F
100
AcDbEntity
  8
0
 67
0
100
AcDbCircle
 10
74.28849684406583
 20
-132.92559120553022
 40
1.0
100
AcDbArc
 50
165.0
 51
255.0
  0
ARC
  5
662
330
1F
100
AcDbEntity
  8
0
 67
0
100
AcDbCircle
 10
85.87960675953465
 20
-136.03141974676046
 40
1.0
100
AcDbArc
 50
255.0
 51
345.0
  0
LINE
  5
663
330
1F
100
AcDbEntity
  8
0
 67
0
100
AcDbLine
 10
132.85580540281887
 20
-135.16006389138138
 11
144.4469153182877
 21
-138.26589243261165
  0
LINE
  5
664
330
1F
100
AcDbEntity
  8
0
 67
0
100
AcDbLine
 10
129.23233877138358
 20
-148.68302545942834
 11
140.8234486868524
 21
-151.7888540006586
  0
LINE
  5
665
330
1F
100
AcDbEntity
  8
0
 67
0
100
AcDbLine
 10
131.63106053142727
 20
-135.86717067256794
 11
128.52523199019703
 21
-147.45828058803676
  0
LINE
  5
666
330
1F
100
AcDbEntity
  8
0
 67
0
100
AcDbLine
 10
145.15402209947422
 20
-139.49063730400323
 11
142.04819355824398
 21
-151.08174721947205
  0
ARC
  5
667
330
1F
100
AcDbEntity
  8
0
 67
0
100
AcDbCircle
 10
132.59698635771633
 20
-136.12598971767045
 40
1.0
100
AcDbArc
 50
75.0
 51
165.0
  0
ARC
  5
668
330
1F
100
AcDbEntity
  8
0
 67
0
100
AcDbCircle
 10
144.18809627318515
 20
-139.23181825890072
 40
1.0
100
AcDbArc
 50
-15.0
 51
75.0
  0
ARC
  5
669
330
1F
100
AcDbEntity
  8
0
 67
0
100
AcDbCircle
 10
129.4911578164861
 20
-147.71709963313927
 40
1.0
100
AcDbArc
 50
165.0
 51
255.0
  0
ARC
  5
66A
330
1F
100
AcDbEntity
  8
0
 67
0
100
AcDbCircle
 10
141.08226773195491
 20
-150.82292817436954
 40
1.0
100
AcDbArc
 50
255.0
 51
345.0
  0
LINE
  5
66B
330
1F
100
AcDbEntity
  8
0
 67
0
100
AcDbLine
 10
37.12330875848608
 20
-113.11804404887909
 11
45.60859013272465
 21
-121.60332542311765
  0
LINE
  5
66C
330
1F
100
AcDbEntity
  8
0
 67
0
100
AcDbLine
 10
27.223813821874415
 20
-123.01753898549075
 11
35.70909519611298
 21
-131.50282035972933
  0
LINE
  5
66D
330
1F
100
AcDbEntity
  8
0
 67
0
100
AcDbLine
 10
35.70909519611298
 20
-113.11804404887909
 11
27.223813821874415
 21
-121.60332542311765
  0
LINE
  5
66E
330
1F
100
AcDbEntity
  8
0
 67
0
100
AcDbLine
 10
45.60859013272465
 20
-123.01753898549075
 11
37.12330875848608
 21
-131.50282035972933
  0
ARC
  5
66F
330
1F
100
AcDbEntity
  8
0
 67
0
100
AcDbCircle
 10
36.41620197729954
 20
-113.82515083006562
 40
1.0
100
AcDbArc
 50
45.0
 51
135.0
  0
ARC
  5
670
330
1F
100
AcDbEntity
  8
0
 67
0
100
AcDbCircle
 10
44.901483351538104
 20
-122.31043220430419
 40
1.0
100
AcDbArc
 50
-45.0
 51
45.0
  0
ARC
  5
671
330
1F
100
AcDbEntity
  8
0
 67
0
100
AcDbCircle
 10
27.930920603060965
 20
-122.31043220430419
 40
1.0
100
AcDbArc
 50
135.0
 51
225.0
  0
ARC
  5
672
330
1F
100
AcDbEntity
  8
0
 67
0
100
AcDbCircle
 10
36.41620197729954
 20
-130.79571357854277
 40
1.0
100
AcDbArc
 50
225.0
 51
315.0
  0
LINE
  5
673
330
1F
100
AcDbEntity
  8
0
 67
0
100
AcDbLine
 10
38.80710678118655
 20
-111.43424602617861
 11
47.292388155425115
 21
-119.91952740041718
  0
LINE
  5
674
330
1F
100
AcDbEntity
  8
0
 67
0
100
AcDbLine
 10
28.90761184457488
 20
-121.33374096279027
 11
37.392893218813455
 21
-129.81902233702885
  0
LINE
  5
675
330
1F
100
AcDbEntity
  8
0
 67
0
100
AcDbLine
 10
37.392893218813455
 20
-111.43424602617861
 11
28.90761184457488
 21
-119.91952740041718
  0
LINE
  5
676
330
1F
100
AcDbEntity
  8
0
 67
0
100
AcDbLine
 10
47.292388155425115
 20
-121.33374096279027
 11
38.80710678118655
 21
-129.81902233702885
  0
ARC
  5
677
330
1F
100
AcDbEntity
  8
0
 67
0
100
AcDbCircle
 10
38.1
 20
-112.14135280736517
 40
1.0
100
AcDbArc
 50
45.0
 51
135.0
  0
ARC
  5
678
330
1F
100
AcDbEntity
  8
0
 67
0
100
AcDbCircle
 10
46.58528137423857
 20
-120.62663418160373
 40
1.0
100
AcDbArc
 50
-45.0
 51
45.0
  0
ARC
  5
679
330
1F
100
AcDbEntity
  8
0
 67
0
100
AcDbCircle
 10
29.61471862576143
 20
-120.62663418160373
 40
1.0
100
AcDbArc
 50
135.0
 51
225.0
  0
ARC
  5
67A
330
1F
100
AcDbEntity
  8
0
 67
0
100
AcDbCircle
 10
38.1
 20
-129.1119155558423
 40
1.0
100
AcDbArc
 50
225.0
 51
315.0
  0
LINE
  5
67B
330
1F
100
AcDbEntity
  8
0
 67
0
100
AcDbLine
 10
38.80710678118655
 20
-111.43424602617861
 11
47.292388155425115
 21
-119.91952740041718
  0
LINE
  5
67C
330
1F
100
AcDbEntity
  8
0
 67
0
100
AcDbLine
 10
28.90761184457488
 20
-121.33374096279027
 11
37.392893218813455
 21
-129.81902233702885
  0
LINE
  5
67D
330
1F
100
AcDbEntity
  8
0
 67
0
100
AcDbLine
 10
37.392893218813455
 20
-111.43424602617861
 11
28.90761184457488
 21
-119.91952740041718
  0
LINE
  5
67E
330
1F
100
AcDbEntity
  8
0
 67
0
100
AcDbLine
 10
47.292388155425115
 20
-121.33374096279027
 11
38.80710678118655
 21
-129.81902233702885
  0
ARC
  5
67F
330
1F
100
AcDbEntity
  8
0
 67
0
100
AcDbCircle
 10
38.1
 20
-112.14135280736517
 40
1.0
100
AcDbArc
 50
45.0
 51
135.0
  0
ARC
  5
680
330
1F
100
AcDbEntity
  8
0
 67
0
100
AcDbCircle
 10
46.58528137423857
 20
-120.62663418160373
 40
1.0
100
AcDbArc
 50
-45.0
 51
45.0
  0
ARC
  5
681
330
1F
100
AcDbEntity
  8
0
 67
0
100
AcDbCircle
 10
29.61471862576143
 20
-120.62663418160373
 40
1.0
100
AcDbArc
 50
135.0
 51
225.0
  0
ARC
  5
682
330
1F
100
AcDbEntity
  8
0
 67
0
100
AcDbCircle
 10
38.1
 20
-129.1119155558423
 40
1.0
100
AcDbArc
 50
225.0
 51
315.0
  0
LINE
  5
683
330
1F
100
AcDbEntity
  8
0
 67
0
100
AcDbLine
 10
38.80710678118655
 20
-111.43424602617861
 11
47.292388155425115
 21
-119.91952740041718
  0
LINE
  5
684
330
1F
100
AcDbEntity
  8
0
 67
0
100
AcDbLine
 10
28.90761184457488
 20
-121.33374096279027
 11
37.392893218813455
 21
-129.81902233702885
  0
LINE
  5
685
330
1F
100
AcDbEntity
  8
0
 67
0
100
AcDbLine
 10
37.392893218813455
 20
-111.43424602617861
 11
28.90761184457488
 21
-119.91952740041718
  0
LINE
  5
686
330
1F
100
AcDbEntity
  8
0
 67
0
100
AcDbLine
 10
47.292388155425115
 20
-121.33374096279027
 11
38.80710678118655
 21
-129.81902233702885
  0
ARC
  5
687
330
1F
100
AcDbEntity
  8
0
 67
0
100
AcDbCircle
 10
38.1
 20
-112.14135280736517
 40
1.0
100
AcDbArc
 50
45.0
 51
135.0
  0
ARC
  5
688
330
1F
100
AcDbEntity
  8
0
 67
0
100
AcDbCircle
 10
46.58528137423857
 20
-120.62663418160373
 40
1.0
100
AcDbArc
 50
-45.0
 51
45.0
  0
ARC
  5
689
330
1F
100
AcDbEntity
  8
0
 67
0
100
AcDbCircle
 10
29.61471862576143
 20
-120.62663418160373
 40
1.0
100
AcDbArc
 50
135.0
 51
225.0
  0
ARC
  5
68A
330
1F
100
AcDbEntity
  8
0
 67
0
100
AcDbCircle
 10
38.1
 20
-129.1119155558423
 40
1.0
100
AcDbArc
 50
225.0
 51
315.0
  0
LINE
  5
68B
330
1F
100
AcDbEntity
  8
0
 67
0
100
AcDbLine
 10
64.06407712169354
 20
-140.05881241208655
 11
72.54935849593211
 21
-148.5440937863251
  0
LINE
  5
68C
330
1F
100
AcDbEntity
  8
0
 67
0
100
AcDbLine
 10
54.164582185081876
 20
-149.9583073486982
 11
62.649863559320444
 21
-158.44358872293677
  0
LINE
  5
68D
330
1F
100
AcDbEntity
  8
0
 67
0
100
AcDbLine
 10
62.649863559320444
 20
-140.05881241208655
 11
54.164582185081876
 21
-148.5440937863251
  0
LINE
  5
68E
330
1F
100
AcDbEntity
  8
0
 67
0
100
AcDbLine
 10
72.54935849593211
 20
-149.9583073486982
 11
64.06407712169354
 21
-158.44358872293677
  0
ARC
  5
68F
330
1F
100
AcDbEntity
  8
0
 67
0
100
AcDbCircle
 10
63.356970340507
 20
-140.76591919327308
 40
1.0
100
AcDbArc
 50
45.0
 51
135.0
  0
ARC
  5
690
330
1F
100
AcDbEntity
  8
0
 67
0
100
AcDbCircle
 10
71.84225171474556
 20
-149.25120056751166
 40
1.0
100
AcDbArc
 50
-45.0
 51
45.0
  0
ARC
  5
691
330
1F
100
AcDbEntity
  8
0
 67
0
100
AcDbCircle
 10
54.87168896626842
 20
-149.25120056751166
 40
1.0
100
AcDbArc
 50
135.0
 51
225.0
  0
ARC
  5
692
330
1F
100
AcDbEntity
  8
0
 67
0
100
AcDbCircle
 10
63.356970340507
 20
-157.73648194175024
 40
1.0
100
AcDbArc
 50
225.0
 51
315.0
  0
LINE
  5
693
330
1F
100
AcDbEntity
  8
0
 67
0
100
AcDbLine
 10
0.0
 20
0.0
 11
161.26963730816158
 21
0.0
  0
LINE
  5
694
330
1F
100
AcDbEntity
  8
0
 67
0
100
AcDbLine
 10
0.0
 20
-158.8753333393275
 11
161.26963730816158
 21
-158.8753333393275
  0
LINE
  5
695
330
1F
100
AcDbEntity
  8
0
 67
0
100
AcDbLine
 10
0.0
 20
0.0
 11
0.0
 21
-158.8753333393275
  0
LINE
  5
696
330
1F
100
AcDbEntity
  8
0
 67
0
100
AcDbLine
 10
161.26963730816158
 20
0.0
 11
161.26963730816158
 21
-158.8753333393275
  0
ENDSEC
  0
SECTION
  2
OBJECTS
  0
DICTIONARY
  5
C
330
0
100
AcDbDictionary
281
1
  3
ACAD_COLOR
350
4E1
  3
ACAD_GROUP
350
4E2
  3
ACAD_LAYOUT
350
4E3
  3
ACAD_MATERIAL
350
4E4
  3
ACAD_MLEADERSTYLE
350
4E5
  3
ACAD_MLINESTYLE
350
4E6
  3
ACAD_PLOTSETTINGS
350
4E7
  3
ACAD_PLOTSTYLENAME
350
4E9
  3
ACAD_SCALELIST
350
4EA
  3
ACAD_TABLESTYLE
350
4EB
  3
ACAD_VISUALSTYLE
350
4EC
  0
DICTIONARY
  5
4E1
330
C
100
AcDbDictionary
281
1
  0
DICTIONARY
  5
4E2
330
C
100
AcDbDictionary
281
1
  0
DICTIONARY
  5
4E3
330
C
100
AcDbDictionary
281
1
  3
Model
350
4ED
  3
Layout1
350
4EE
  0
DICTIONARY
  5
4E4
330
C
100
AcDbDictionary
281
1
  0
DICTIONARY
  5
4E5
330
C
100
AcDbDictionary
281
1
  0
DICTIONARY
  5
4E6
330
C
100
AcDbDictionary
281
1
  0
DICTIONARY
  5
4E7
330
C
100
AcDbDictionary
281
1
  0
ACDBPLACEHOLDER
  5
4E8
330
4E9
  0
ACDBDICTIONARYWDFLT
  5
4E9
330
C
100
AcDbDictionary
281
1
  3
Normal
350
4E8
100
AcDbDictionaryWithDefault
340
4E8
  0
DICTIONARY
  5
4EA
330
C
100
AcDbDictionary
281
1
  0
DICTIONARY
  5
4EB
330
C
100
AcDbDictionary
281
1
  0
DICTIONARY
  5
4EC
330
C
100
AcDbDictionary
281
1
  0
LAYOUT
  5
4ED
330
4E3
100
AcDbPlotSettings
  1

  2
DWFx ePlot (XPS Compatible).pc3
  4
ANSI_A_(8.50_x_11.00_Inches)
  6

 40
5.8
 41
17.8
 42
5.8
 43
17.8
 44
215.9
 45
279.4
 46
0.0
 47
0.0
 48
0.0
 49
0.0
140
0.0
141
0.0
142
1.0
143
14.53
 70
11952
 72
0
 73
1
 74
0
  7

 75
0
147
0.069
148
114.98
149
300.29
100
AcDbLayout
  1
Model
 70
1
 71
0
 10
0.0
 20
0.0
 11
12.0
 21
9.0
 12
0.0
 22
0.0
 32
0.0
 14
0.0
 24
0.0
 34
0.0
 15
0.0
 25
0.0
 35
0.0
146
0.0
 13
0.0
 23
0.0
 33
0.0
 16
1.0
 26
0.0
 36
0.0
 17
0.0
 27
1.0
 37
0.0
 76
0
330
1F
  0
LAYOUT
  5
4EE
330
4E3
100
AcDbPlotSettings
  1

  2
DWFx ePlot (XPS Compatible).pc3
  4
ANSI_A_(8.50_x_11.00_Inches)
  6

 40
5.8
 41
17.8
 42
5.8
 43
17.8
 44
215.9
 45
279.4
 46
0.0
 47
0.0
 48
0.0
 49
0.0
140
0.0
141
0.0
142
1.0
143
1.0
 70
688
 72
0
 73
1
 74
5
  7
acad.ctb
 75
16
147
1.0
148
0.0
149
0.0
100
AcDbLayout
  1
Layout1
 70
1
 71
1
 10
-0.7
 20
-0.23
 11
10.3
 21
8.27
 12
0.0
 22
0.0
 32
0.0
 14
0.63
 24
0.8
 34
0.0
 15
9.0
 25
7.2
 35
0.0
146
0.0
 13
0.0
 23
0.0
 33
0.0
 16
1.0
 26
0.0
 36
0.0
 17
0.0
 27
1.0
 37
0.0
 76
0
330
58
  0
ENDSEC
  0
EOF
